<svg width="128" height="166" viewBox="0 0 128 166" fill="none" xmlns="http://www.w3.org/2000/svg">
<g clip-path="url(#clip0)">
<path d="M67.4525 0H60.5402C27.1625 0 0 27.2395 0 60.7191V105.281C0 138.76 27.1625 166 60.5475 166H67.4598C100.845 166 128.007 138.76 128.007 105.281V60.7191C128 27.2395 100.845 0 67.4525 0ZM60.5475 39.0353H67.4598C72.7674 39.0353 77.6248 40.9721 81.3932 44.1613L38.925 99.8053V60.7191C38.925 48.7631 48.6253 39.0353 60.5475 39.0353ZM67.4525 126.965H60.5402C55.2326 126.965 50.3752 125.028 46.6068 121.839L89.0751 66.1947V105.281C89.0823 117.237 79.3819 126.965 67.4525 126.965Z" fill="#FCFCFC"/>
</g>
<defs>
<clipPath id="clip0">
<rect width="128" height="166" fill="white"/>
</clipPath>
</defs>
</svg>
