<svg width="115" height="144" viewBox="0 0 115 144" fill="none" xmlns="http://www.w3.org/2000/svg">
<g clip-path="url(#clip0)">
<path d="M57.5 92.9838C58.3955 92.9838 59.2811 93.3901 59.8699 94.1582L72.8521 111.15C73.0946 111.463 73.2084 111.834 73.2084 112.206C73.2084 112.726 72.9758 113.242 72.5305 113.584C72.2139 113.826 71.8478 113.94 71.4767 113.94H65.2874V138.787C65.2874 140.219 65.8613 141.512 66.7914 142.454C67.7364 143.41 69.0475 144.005 70.5021 144.005H109.785C111.235 144.005 112.551 143.41 113.496 142.454C114.426 141.512 115 140.214 115 138.787C115 138.787 115 122.161 115 119.332C115 116.502 114.629 114.788 113.56 113.326L83.5091 72.0074L113.56 30.694C114.634 29.2321 115 27.5175 115 24.688C115 21.8584 115 5.23294 115 5.23294C115 3.80082 114.426 2.50745 113.496 1.56592C112.556 0.594652 111.24 0 109.79 0L70.507 0C69.0574 0 67.7413 0.594652 66.7964 1.55105C65.8662 2.49258 65.2923 3.79091 65.2923 5.21807V30.0646H71.4817C71.8478 30.0646 72.2188 30.1786 72.5355 30.4214C72.9808 30.7633 73.2133 31.2787 73.2133 31.799C73.2133 32.1657 73.0995 32.5374 72.8571 32.8545L59.8748 49.8467C59.2861 50.6148 58.4004 51.0162 57.5049 51.0212C56.6094 51.0212 55.7238 50.6148 55.1351 49.8467L42.1479 32.8545C41.9054 32.5423 41.7916 32.1707 41.7916 31.799C41.7916 31.2787 42.0242 30.7633 42.4695 30.4214C42.7861 30.1786 43.1522 30.0646 43.5233 30.0646H49.7126V5.22303C49.7126 3.79091 49.1387 2.49754 48.2086 1.55601C47.2587 0.594652 45.9476 0 44.4979 0L5.21468 0C3.76011 0 2.44902 0.594652 1.50404 1.55105C0.573912 2.49754 0 3.79091 0 5.22303C0 5.22303 0 21.8485 0 24.6781C0 27.5076 0.371064 29.2222 1.43973 30.6841L31.4909 71.9975L1.43973 113.316C0.371064 114.778 0 116.492 0 119.322C0 122.151 0 138.777 0 138.777C0 140.209 0.573912 141.502 1.50404 142.444C2.44902 143.4 3.76011 143.995 5.21468 143.995H44.4979C45.9476 143.995 47.2636 143.4 48.2086 142.444C49.1387 141.502 49.7126 140.204 49.7126 138.777V113.93H43.5233C43.1572 113.93 42.7861 113.816 42.4695 113.574C42.0242 113.232 41.7916 112.716 41.7916 112.196C41.7916 111.829 41.9054 111.458 42.1479 111.141L55.1301 94.1533C55.7189 93.3852 56.6045 92.9838 57.5 92.9838Z" fill="#FCFCFC"/>
</g>
<defs>
<clipPath id="clip0">
<rect width="115" height="144" fill="white"/>
</clipPath>
</defs>
</svg>
