<svg width="115" height="144" viewBox="0 0 115 144" fill="none" xmlns="http://www.w3.org/2000/svg">
<path d="M52.3403 108.851H35.0348V35.1494H52.3403V0H30.0763C13.4905 0 0 13.5346 0 30.1747V113.82C0 130.46 13.4905 143.995 30.0763 143.995H52.3354V108.851H52.3403Z" fill="#FCFCFC"/>
<path d="M84.7431 0H62.3657V35.1494H79.7846V44.5302C79.7846 47.3044 82.0272 49.5494 84.7874 49.5494H109.812C112.577 49.5494 114.814 47.2994 114.814 44.5302V30.1747C114.819 13.5099 101.354 0 84.7431 0Z" fill="#FCFCFC"/>
<path d="M79.7845 108.851H62.3657V144H84.743C101.354 144 114.819 130.49 114.819 113.825V99.4698C114.819 96.6956 112.577 94.4506 109.817 94.4506H84.7923C82.0272 94.4506 79.7895 96.7006 79.7895 99.4698V108.851H79.7845Z" fill="#FCFCFC"/>
</svg>
