<svg width="200" height="147" viewBox="0 0 200 147" fill="none" xmlns="http://www.w3.org/2000/svg">
<path d="M1.43101 28.6317C1.48746 29.545 1.5605 30.2504 1.65347 30.7444C1.74644 31.2384 1.84937 31.687 1.96226 32.0868C2.63298 34.0987 3.74531 35.6328 5.29593 36.6924C6.84655 37.752 8.88859 38.2818 11.432 38.2818C14.4934 38.2818 16.8841 37.4952 18.604 35.9221C20.3207 34.3522 21.2736 31.9925 21.4596 28.8462C21.4596 28.4432 21.2902 28.2254 20.9549 28.1897L15.0711 27.2016C14.6594 27.1301 14.4536 27.2926 14.4536 27.6956C14.3772 29.194 14.1082 30.2536 13.6401 30.8777C13.1719 31.4985 12.4713 31.8105 11.5383 31.8105C10.23 31.8105 9.38996 31.2449 9.01808 30.1106C8.94171 29.8928 8.88527 29.6458 8.84874 29.3695C8.81222 29.0965 8.78234 28.5927 8.76573 27.8614C8.74581 27.1301 8.7292 26.09 8.70928 24.7346C8.68936 23.3825 8.68272 21.5169 8.68272 19.1409C8.68272 16.7649 8.69268 14.8993 8.70928 13.5472C8.7292 12.1951 8.74581 11.1517 8.76573 10.4204C8.78566 9.68908 8.81222 9.18529 8.84874 8.91227C8.88527 8.63924 8.94171 8.39222 9.01808 8.1712C9.38996 7.03686 10.23 6.47131 11.5383 6.47131C12.4713 6.47131 13.1719 6.78333 13.6401 7.40414C14.1082 8.02494 14.3772 9.08778 14.4536 10.5862C14.4536 10.9892 14.6594 11.155 15.0711 11.0802L20.9549 10.0921C21.2902 10.0564 21.4596 9.83535 21.4596 9.43556C21.2736 6.29254 20.3207 3.93284 18.604 2.35971C16.8874 0.786571 14.4934 0 11.432 0C8.89191 0 6.84655 0.529795 5.29593 1.58939C3.74531 2.64898 2.6363 4.18636 1.96226 6.19503C1.84937 6.59807 1.74644 7.04661 1.65347 7.5374C1.5605 8.03144 1.48413 8.73675 1.43101 9.65008C1.37456 10.5634 1.32807 11.7693 1.29155 13.2709C1.25502 14.7693 1.23511 16.7259 1.23511 19.1376C1.23511 21.5494 1.25502 23.506 1.29155 25.0044C1.32807 26.5093 1.37456 27.7184 1.43101 28.6317Z" fill="#FCFCFC"/>
<path d="M25.4906 37.7877H31.7097C32.0815 37.7877 32.2708 37.6056 32.2708 37.2384V23.5287C32.2708 23.3109 32.3837 23.2004 32.6062 23.2004H34.7345L39.0477 37.3489C39.1606 37.6414 39.3631 37.7877 39.6653 37.7877H46.389C46.7244 37.7877 46.8174 37.6056 46.668 37.2384L41.4583 21.4452C42.7665 20.5677 43.8025 19.3521 44.5662 17.7984C45.3298 16.2448 45.715 14.2816 45.715 11.9024C45.715 9.819 45.4527 8.0541 44.9314 6.61097C44.4068 5.16785 43.6597 3.99775 42.6902 3.10067C41.7173 2.20684 40.5419 1.54703 39.1606 1.12775C37.7793 0.708461 36.2486 0.497192 34.5652 0.497192H25.4906C25.1154 0.497192 24.9294 0.679209 24.9294 1.04649V37.2416C24.9328 37.6056 25.1187 37.7877 25.4906 37.7877ZM32.2708 7.13427C32.2708 6.9165 32.3837 6.80599 32.6062 6.80599H34.2298C35.6476 6.80599 36.6836 7.17327 37.3377 7.90133C37.9918 8.63264 38.3172 9.96851 38.3172 11.9057C38.3172 13.8786 37.9885 15.2242 37.3377 15.936C36.6836 16.6478 35.6476 17.0054 34.2298 17.0054H32.6062C32.3804 17.0054 32.2708 16.8949 32.2708 16.6771V7.13427Z" fill="#FCFCFC"/>
<path d="M50.9247 37.7877H67.5631C67.935 37.7877 68.1243 37.6057 68.1243 37.2384V31.8657C68.1243 31.5017 67.9383 31.3164 67.5631 31.3164H58.0403C57.8145 31.3164 57.7049 31.2059 57.7049 30.9881V22.5439C57.7049 22.3261 57.8178 22.2156 58.0403 22.2156H66.2748C66.6467 22.2156 66.8359 22.0336 66.8359 21.6663V16.2904C66.8359 15.9263 66.65 15.7411 66.2748 15.7411H58.0403C57.8145 15.7411 57.7049 15.6306 57.7049 15.4128V7.29685C57.7049 7.07908 57.8178 6.96857 58.0403 6.96857H67.5631C67.935 6.96857 68.1243 6.78656 68.1243 6.41927V1.04332C68.1243 0.679285 67.9383 0.494019 67.5631 0.494019H50.9247C50.5495 0.494019 50.3635 0.676035 50.3635 1.04332V37.2384C50.3668 37.6057 50.5528 37.7877 50.9247 37.7877Z" fill="#FCFCFC"/>
<path d="M70.5912 37.7877H76.8103C77.1456 37.7877 77.3515 37.6057 77.4279 37.2384L78.7162 30.4941H85.9446L87.1765 37.2384C87.2495 37.6057 87.4554 37.7877 87.7941 37.7877H94.0131C94.385 37.7877 94.5344 37.6057 94.4614 37.2384L86.2833 1.04332C86.2069 0.679285 86.0044 0.494019 85.6657 0.494019H79.0548C78.756 0.494019 78.5502 0.676035 78.4373 1.04332L70.1463 37.2384C70.0666 37.6057 70.216 37.7877 70.5912 37.7877ZM82.2989 11.8505H82.4682L84.8755 24.7931H79.7787L82.2989 11.8505Z" fill="#FCFCFC"/>
<path d="M95.4645 25.9437H198.376C198.748 25.9437 198.938 25.7617 198.938 25.3944V21.0618C198.938 20.6977 198.752 20.5125 198.376 20.5125H95.4645C95.0893 20.5125 94.9033 20.6945 94.9033 21.0618V25.3944C94.9033 25.7617 95.0893 25.9437 95.4645 25.9437Z" fill="#FCFCFC"/>
<path d="M0.561145 56.1715H95.6303C96.0022 56.1715 96.1915 55.9894 96.1915 55.6222V51.2895C96.1915 50.9255 96.0055 50.7402 95.6303 50.7402H0.561145C0.185942 50.7402 0 50.9223 0 51.2895V55.6222C0 55.9862 0.189263 56.1715 0.561145 56.1715Z" fill="#FCFCFC"/>
<path d="M104.931 76.0532H111.15C111.522 76.0532 111.711 75.8712 111.711 75.5039V45.5624C111.711 45.3446 111.824 45.2341 112.046 45.2341H118.04C118.411 45.2341 118.601 45.0521 118.601 44.6848V39.3088C118.601 38.9448 118.415 38.7595 118.04 38.7595H98.0409C97.6657 38.7595 97.4797 38.9415 97.4797 39.3088V44.6848C97.4797 45.0521 97.6657 45.2341 98.0409 45.2341H104.034C104.257 45.2341 104.37 45.3446 104.37 45.5624V75.5039C104.37 75.8712 104.555 76.0532 104.931 76.0532Z" fill="#FCFCFC"/>
<path d="M122.522 38.7628C122.15 38.7628 121.961 38.9448 121.961 39.3121V75.5072C121.961 75.8745 122.147 76.0565 122.522 76.0565H128.741C129.113 76.0565 129.302 75.8745 129.302 75.5072V39.3088C129.302 38.9448 129.116 38.7595 128.741 38.7595H122.522V38.7628Z" fill="#FCFCFC"/>
<path d="M148.405 38.7628C148.029 38.7628 147.824 38.9448 147.787 39.3121L144.088 62.8929H143.919L140.054 39.3121C140.017 38.9481 139.812 38.7628 139.436 38.7628H133.104C132.693 38.7628 132.543 38.9448 132.656 39.3121L140.22 75.5072C140.333 75.8745 140.539 76.0565 140.837 76.0565H146.887C147.186 76.0565 147.372 75.8745 147.448 75.5072L155.069 39.3121C155.182 38.9481 155.032 38.7628 154.62 38.7628H148.405Z" fill="#FCFCFC"/>
<path d="M166.105 45.2341H175.628C176 45.2341 176.189 45.0521 176.189 44.6848V39.3088C176.189 38.9448 176.003 38.7595 175.628 38.7595H158.99C158.618 38.7595 158.429 38.9415 158.429 39.3088V75.5039C158.429 75.8712 158.615 76.0532 158.99 76.0532H175.628C176 76.0532 176.189 75.8712 176.189 75.5039V70.128C176.189 69.7639 176.003 69.5787 175.628 69.5787H166.105C165.883 69.5787 165.77 69.4682 165.77 69.2504V60.8062C165.77 60.5851 165.883 60.4779 166.105 60.4779H174.34C174.712 60.4779 174.901 60.2959 174.901 59.9286V54.5526C174.901 54.1886 174.715 54.0033 174.34 54.0033H166.105C165.883 54.0033 165.77 53.8928 165.77 53.6751V45.5591C165.77 45.3413 165.883 45.2341 166.105 45.2341Z" fill="#FCFCFC"/>
<path d="M189.803 44.5191C191.746 44.5191 192.752 45.8712 192.828 48.5787C192.828 48.946 193.034 49.0922 193.446 49.0175L199.16 48.1399C199.495 48.1042 199.665 47.9026 199.665 47.5353C199.515 44.5743 198.639 42.2894 197.032 40.6805C195.425 39.0716 192.941 38.2688 189.581 38.2688C186.181 38.2688 183.65 39.1464 181.99 40.9015C180.327 42.6567 179.497 45.2342 179.497 48.6339C179.497 50.1323 179.616 51.4389 179.862 52.5538C180.104 53.6686 180.516 54.6567 181.094 55.5148C181.671 56.3729 182.419 57.1139 183.335 57.7347C184.248 58.3555 185.38 58.9243 186.725 59.4346L189.023 60.3122C189.73 60.6047 190.321 60.8973 190.786 61.1898C191.254 61.4823 191.616 61.8398 191.878 62.2591C192.141 62.6784 192.317 63.1822 192.41 63.7672C192.503 64.3523 192.549 65.0479 192.549 65.8507C192.549 67.5701 192.307 68.7402 191.822 69.361C191.337 69.9818 190.57 70.2938 189.524 70.2938C188.442 70.2938 187.638 69.9298 187.114 69.1952C186.589 68.4639 186.29 67.2223 186.217 65.4671C186.217 65.1031 186.011 64.9569 185.6 65.0284L179.606 65.9612C179.307 65.9969 179.158 66.1985 179.158 66.5657C179.231 69.7835 180.101 72.2505 181.764 73.9699C183.425 75.6893 185.995 76.5473 189.468 76.5473C193.24 76.5473 195.939 75.569 197.563 73.6123C199.187 71.6557 200 68.7759 200 64.9731C200 63.4032 199.871 62.0316 199.608 60.8615C199.346 59.6914 198.928 58.6773 198.346 57.8192C197.765 56.9612 197.022 56.2299 196.105 55.6253C195.189 55.0207 194.08 54.4649 192.772 53.9514L190.474 53.0738C189.727 52.7813 189.119 52.4985 188.654 52.2223C188.186 51.9492 187.824 51.6372 187.562 51.2894C187.3 50.9416 187.124 50.5224 187.031 50.0283C186.938 49.5343 186.891 48.9395 186.891 48.2472C186.891 45.7639 187.861 44.5191 189.803 44.5191Z" fill="#FCFCFC"/>
<path d="M9.46969 73.2678H18.9925C19.3644 73.2678 19.5537 73.0858 19.5537 72.7185V67.3425C19.5537 66.9785 19.3677 66.7932 18.9925 66.7932H2.35411C1.97891 66.7932 1.79297 66.9752 1.79297 67.3425V103.538C1.79297 103.905 1.97891 104.087 2.35411 104.087H8.57318C8.94507 104.087 9.13433 103.905 9.13433 103.538V89.2234C9.13433 89.0056 9.24722 88.8951 9.46969 88.8951H17.7042C18.0761 88.8951 18.2654 88.7131 18.2654 88.3523V82.9698C18.2654 82.6058 18.0794 82.427 17.7042 82.427H9.46969C9.2439 82.427 9.13433 82.3165 9.13433 82.0955V73.596C9.13433 73.3783 9.2439 73.2678 9.46969 73.2678Z" fill="#FCFCFC"/>
<path d="M43.5301 73.9796C43.4172 73.5051 43.2877 73.0468 43.1383 72.608C41.7172 68.4054 38.4699 66.3025 33.3897 66.3025C28.3095 66.3025 25.0622 68.4054 23.641 72.608C23.4916 73.0468 23.3621 73.5051 23.2492 73.9796C23.1363 74.4542 23.0533 75.1497 22.9969 76.0631C22.9404 76.9764 22.9039 78.166 22.884 79.6286C22.8641 81.0912 22.8574 83.0284 22.8574 85.4401C22.8574 87.8518 22.8674 89.7922 22.884 91.2548C22.9039 92.7175 22.9404 93.9071 22.9969 94.8204C23.0533 95.7337 23.1363 96.4293 23.2492 96.9038C23.3621 97.3784 23.4916 97.8367 23.641 98.2754C25.0588 102.481 28.3095 104.581 33.3897 104.581C38.4699 104.581 41.7172 102.478 43.1383 98.2754C43.2877 97.8367 43.4172 97.3816 43.5301 96.9038C43.643 96.4293 43.726 95.7337 43.7825 94.8204C43.8389 93.9071 43.8755 92.7175 43.8954 91.2548C43.9153 89.7922 43.9219 87.8551 43.9219 85.4401C43.9219 83.0284 43.912 81.0912 43.8954 79.6286C43.8755 78.166 43.8389 76.9796 43.7825 76.0631C43.726 75.1497 43.643 74.4542 43.5301 73.9796ZM36.4444 90.8421C36.4245 92.1779 36.4079 93.2083 36.388 93.9396C36.3681 94.6709 36.3315 95.1909 36.2751 95.503C36.2186 95.815 36.1522 96.0783 36.0792 96.2993C35.8932 96.8128 35.5745 97.2418 35.1262 97.5864C34.678 97.9342 34.1002 98.1064 33.3897 98.1064C32.6791 98.1064 32.1014 97.9342 31.6531 97.5864C31.2049 97.2386 30.8861 96.8096 30.7002 96.2993C30.6238 96.0815 30.5607 95.815 30.5043 95.503C30.4478 95.1909 30.4113 94.6709 30.3914 93.9396C30.3715 93.2083 30.3548 92.1747 30.3349 90.8421C30.315 89.5094 30.3084 87.7088 30.3084 85.4401C30.3084 83.1747 30.3183 81.374 30.3349 80.0382C30.3548 78.7055 30.3715 77.672 30.3914 76.9406C30.4113 76.2093 30.4478 75.6893 30.5043 75.3773C30.5607 75.0685 30.6238 74.802 30.7002 74.5809C30.8861 74.0706 31.2049 73.6416 31.6531 73.2938C32.1014 72.9461 32.6791 72.7738 33.3897 72.7738C34.1002 72.7738 34.678 72.9493 35.1262 73.2938C35.5745 73.6416 35.8899 74.0706 36.0792 74.5809C36.1522 74.7987 36.2186 75.0652 36.2751 75.3773C36.3315 75.6893 36.3681 76.2093 36.388 76.9406C36.4079 77.672 36.4245 78.7055 36.4444 80.0382C36.4644 81.374 36.471 83.1747 36.471 85.4401C36.471 87.7088 36.461 89.5094 36.4444 90.8421Z" fill="#FCFCFC"/>
<path d="M65.0431 87.7446C66.3513 86.867 67.3872 85.6514 68.1509 84.0977C68.9146 82.5441 69.2998 80.5809 69.2998 78.2017C69.2998 76.1183 69.0375 74.3534 68.5162 72.9103C67.9915 71.4672 67.2445 70.2971 66.2749 69.4C65.302 68.5062 64.1266 67.8463 62.7453 67.4271C61.364 67.0078 59.8334 66.7965 58.1532 66.7965H49.0753C48.7001 66.7965 48.5142 66.9785 48.5142 67.3458V103.541C48.5142 103.908 48.7001 104.09 49.0753 104.09H55.2944C55.6663 104.09 55.8555 103.908 55.8555 103.541V89.8312C55.8555 89.6135 55.9684 89.503 56.1909 89.503H58.3193L62.6324 103.651C62.7453 103.944 62.9479 104.09 63.25 104.09H69.9738C70.3092 104.09 70.4022 103.908 70.2527 103.541L65.0431 87.7446ZM60.9258 82.2321C60.2716 82.9439 59.2357 83.3014 57.8179 83.3014H56.1942C55.9684 83.3014 55.8589 83.1909 55.8589 82.9731V73.4303C55.8589 73.2126 55.9717 73.102 56.1942 73.102H57.8179C59.2357 73.102 60.2716 73.4693 60.9258 74.2006C61.5799 74.932 61.9053 76.2678 61.9053 78.205C61.9053 80.1779 61.5799 81.5203 60.9258 82.2321Z" fill="#FCFCFC"/>
<path d="M198.151 86.8116H72.2716C71.8964 86.8116 71.7104 86.9937 71.7104 87.3609V91.6936C71.7104 92.0609 71.8964 92.2429 72.2716 92.2429H198.151C198.523 92.2429 198.712 92.0609 198.712 91.6936V87.3609C198.712 86.9969 198.523 86.8116 198.151 86.8116Z" fill="#FCFCFC"/>
<path d="M43.5302 128.731H0.561146C0.185942 128.731 0 128.913 0 129.28V133.613C0 133.98 0.185942 134.162 0.561146 134.162H43.5302C43.9021 134.162 44.0914 133.98 44.0914 133.613V129.28C44.0914 128.913 43.9021 128.731 43.5302 128.731Z" fill="#FCFCFC"/>
<path d="M55.5467 118.638C55.5667 117.907 55.5932 117.403 55.6297 117.13C55.6663 116.857 55.7227 116.61 55.7991 116.389C56.171 115.258 57.011 114.689 58.3193 114.689C59.2523 114.689 59.9529 115.001 60.4211 115.622C60.8892 116.243 61.1582 117.303 61.2345 118.804C61.2345 119.207 61.4404 119.373 61.8521 119.298L67.7359 118.31C68.0712 118.274 68.2405 118.053 68.2405 117.65C68.0546 114.507 67.1017 112.148 65.385 110.574C63.6684 109.005 61.2744 108.218 58.213 108.218C55.6729 108.218 53.6276 108.748 52.0769 109.807C50.5263 110.867 49.4173 112.404 48.7433 114.413C48.6304 114.816 48.5275 115.265 48.4345 115.755C48.3415 116.249 48.2652 116.955 48.212 117.868C48.1556 118.781 48.1091 119.991 48.0726 121.489C48.036 122.987 48.0161 124.944 48.0161 127.356C48.0161 129.767 48.0327 131.724 48.0726 133.222C48.1091 134.721 48.1556 135.93 48.212 136.843C48.2685 137.757 48.3415 138.462 48.4345 138.956C48.5275 139.45 48.6304 139.899 48.7433 140.298C49.414 142.31 50.5263 143.844 52.0769 144.904C53.6276 145.964 55.6696 146.493 58.213 146.493C61.2744 146.493 63.6651 145.707 65.385 144.137C67.1017 142.567 68.0546 140.207 68.2405 137.061C68.2405 136.658 68.0712 136.44 67.7359 136.401L61.8521 135.413C61.4404 135.342 61.2345 135.504 61.2345 135.907C61.1582 137.406 60.8892 138.468 60.4211 139.089C59.9529 139.71 59.2523 140.022 58.3193 140.022C57.011 140.022 56.171 139.456 55.7991 138.322C55.7227 138.104 55.6663 137.857 55.6297 137.581C55.5932 137.308 55.5633 136.804 55.5467 136.073C55.5268 135.342 55.5102 134.298 55.4903 132.946C55.4704 131.594 55.4637 129.728 55.4637 127.352C55.4637 124.976 55.4737 123.111 55.4903 121.759C55.5102 120.413 55.5268 119.37 55.5467 118.638Z" fill="#FCFCFC"/>
<path d="M89.0195 139.534H79.3838C79.158 139.534 79.0484 139.424 79.0484 139.206V109.265C79.0484 108.9 78.8625 108.715 78.4873 108.715H72.2682C71.893 108.715 71.707 108.897 71.707 109.265V145.46C71.707 145.827 71.893 146.009 72.2682 146.009H89.0195C89.3914 146.009 89.5806 145.827 89.5806 145.46V140.084C89.5806 139.716 89.3914 139.534 89.0195 139.534Z" fill="#FCFCFC"/>
<path d="M100.056 108.712H93.8373C93.4621 108.712 93.2761 108.894 93.2761 109.261V145.456C93.2761 145.824 93.4621 146.006 93.8373 146.006H100.056C100.428 146.006 100.617 145.824 100.617 145.456V109.261C100.617 108.897 100.428 108.712 100.056 108.712Z" fill="#FCFCFC"/>
<path d="M131.823 108.712H125.829C125.345 108.712 125.046 108.894 124.933 109.261L119.331 128.838H119.109L113.282 109.261C113.169 108.897 112.87 108.712 112.385 108.712H106.335C105.963 108.712 105.774 108.894 105.774 109.261V145.456C105.774 145.824 105.96 146.006 106.335 146.006H111.771C112.143 146.006 112.332 145.824 112.332 145.456V123.904H112.661L116.808 138.819C116.921 139.187 117.163 139.369 117.535 139.369H120.616C120.988 139.369 121.234 139.187 121.343 138.819L125.491 123.904H125.826V145.456C125.826 145.824 126.012 146.006 126.387 146.006H131.823C132.194 146.006 132.384 145.824 132.384 145.456V109.261C132.38 108.897 132.194 108.712 131.823 108.712Z" fill="#FCFCFC"/>
<path d="M150.476 109.261C150.4 108.897 150.197 108.712 149.859 108.712H143.248C142.949 108.712 142.743 108.894 142.63 109.261L134.343 145.456C134.266 145.824 134.416 146.006 134.791 146.006H141.01C141.345 146.006 141.551 145.824 141.628 145.456L142.916 138.712H150.144L151.376 145.456C151.449 145.824 151.655 146.006 151.994 146.006H158.213C158.585 146.006 158.734 145.824 158.661 145.456L150.476 109.261ZM143.978 133.008L146.499 120.065H146.668L149.075 133.008H143.978Z" fill="#FCFCFC"/>
<path d="M176.581 108.712H156.583C156.207 108.712 156.021 108.894 156.021 109.261V114.637C156.021 115.001 156.207 115.187 156.583 115.187H162.576C162.798 115.187 162.911 115.297 162.911 115.515V145.456C162.911 145.824 163.097 146.006 163.472 146.006H169.692C170.063 146.006 170.253 145.824 170.253 145.456V115.515C170.253 115.297 170.366 115.187 170.588 115.187H176.581C176.953 115.187 177.142 115.005 177.142 114.637V109.261C177.142 108.897 176.957 108.712 176.581 108.712Z" fill="#FCFCFC"/>
<path d="M197.702 108.712H181.064C180.692 108.712 180.503 108.894 180.503 109.261V145.456C180.503 145.824 180.689 146.006 181.064 146.006H197.702C198.074 146.006 198.263 145.824 198.263 145.456V140.081C198.263 139.716 198.077 139.531 197.702 139.531H188.179C187.957 139.531 187.844 139.421 187.844 139.203V130.759C187.844 130.538 187.957 130.43 188.179 130.43H196.414C196.786 130.43 196.975 130.248 196.975 129.881V124.505C196.975 124.141 196.789 123.956 196.414 123.956H188.179C187.957 123.956 187.844 123.845 187.844 123.628V115.512C187.844 115.294 187.957 115.183 188.179 115.183H197.702C198.074 115.183 198.263 115.001 198.263 114.634V109.258C198.263 108.897 198.077 108.712 197.702 108.712Z" fill="#FCFCFC"/>
</svg>
