<svg width="190" height="189" viewBox="0 0 190 189" fill="none" xmlns="http://www.w3.org/2000/svg">
<path d="M0 134.426L95 79.8511L95 48.2553L-2.76839e-06 102.83L0 134.426Z" fill="#FCFCFC"/>
<path d="M0 86.1702L95 31.5957L95 -5.40629e-05L-2.76839e-06 54.5744L0 86.1702Z" fill="#FCFCFC"/>
<path d="M190 134.426L95 79.8511L95 48.2553L190 102.83L190 134.426Z" fill="#FCFCFC"/>
<path d="M190 86.1702L95 31.5957L95 -3.74898e-05L190 54.5744L190 86.1702Z" fill="#FCFCFC"/>
<path d="M0 54.5745L95 109.149V140.745L0 86.1702V54.5745Z" fill="#FCFCFC"/>
<path d="M190 54.5745L95 109.149V140.745L190 86.1702V54.5745Z" fill="#FCFCFC"/>
<path d="M0 102.83L95 157.404V189L0 134.426V102.83Z" fill="#FCFCFC"/>
<path d="M190 102.83L95 157.404V189L190 134.426V102.83Z" fill="#FCFCFC"/>
</svg>
