<svg width="40" height="40" viewBox="0 0 40 40" fill="none" xmlns="http://www.w3.org/2000/svg">
<path d="M0.5 20C0.5 9.23045 9.23045 0.5 20 0.5C30.7696 0.5 39.5 9.23045 39.5 20C39.5 30.7696 30.7696 39.5 20 39.5C9.23045 39.5 0.5 30.7696 0.5 20Z" stroke="black"/>
<path fill-rule="evenodd" clip-rule="evenodd" d="M30.6665 19.9853C30.6665 20.7066 30.5931 21.427 30.4488 22.1292C30.3082 22.8147 30.0999 23.4877 29.8269 24.1311C29.5603 24.7631 29.2295 25.3721 28.843 25.94C28.4623 26.5044 28.0237 27.0338 27.5419 27.5165C27.0591 27.997 26.5278 28.4344 25.9637 28.8168C25.3939 29.2006 24.784 29.5308 24.1517 29.7987C23.5074 30.0702 22.8328 30.2782 22.1479 30.4187C21.4448 30.5633 20.7218 30.6371 19.9994 30.6371C19.2764 30.6371 18.5535 30.5633 17.8514 30.4187C17.1654 30.2782 16.4909 30.0702 15.8471 29.7987C15.2148 29.5308 14.6043 29.2006 14.0345 28.8168C13.4704 28.4345 12.9391 27.997 12.4573 27.5165C11.975 27.0338 11.5365 26.5044 11.1552 25.94C10.7708 25.3721 10.4395 24.763 10.1718 24.1311C9.89884 23.4877 9.69 22.8147 9.54884 22.1292C9.40614 21.427 9.3332 20.7066 9.3332 19.9853C9.3332 19.2634 9.4061 18.5415 9.54889 17.8408C9.69004 17.1553 9.89888 16.4813 10.1718 15.8389C10.4395 15.2065 10.7708 14.597 11.1552 14.029C11.5365 13.4641 11.9751 12.9357 12.4574 12.4525C12.9392 11.9719 13.4705 11.5356 14.0346 11.1538C14.6044 10.7684 15.2148 10.4382 15.8471 10.1698C16.4909 9.89768 17.1654 9.68915 17.8514 9.54978C18.5535 9.40624 19.2765 9.3334 19.9994 9.3334C20.7218 9.3334 21.4448 9.40624 22.1479 9.54978C22.8329 9.68919 23.5074 9.89772 24.1517 10.1698C24.784 10.4381 25.394 10.7684 25.9638 11.1538C26.5279 11.5356 27.0592 11.9719 27.542 12.4525C28.0238 12.9357 28.4624 13.4641 28.8431 14.029C29.2295 14.597 29.5603 15.2065 29.8269 15.8389C30.0999 16.4813 30.3082 17.1553 30.4488 17.8408C30.5931 18.5415 30.6665 19.2634 30.6665 19.9853ZM16.1131 11.7575C13.5729 12.9554 11.6769 15.2927 11.0857 18.1096C11.3259 18.1117 15.1219 18.1596 19.4956 16.9992C17.9189 14.202 16.2345 11.9193 16.1131 11.7575ZM20.2503 18.3999C15.56 19.8021 11.0592 19.7012 10.8977 19.695C10.8951 19.7927 10.8904 19.8874 10.8904 19.9852C10.8904 22.322 11.7733 24.4524 13.2244 26.0632C13.2213 26.0585 15.7141 21.6422 20.63 20.0549C20.7487 20.0154 20.8696 19.98 20.9894 19.9457C20.7608 19.4287 20.5112 18.9107 20.2503 18.3999ZM26.0157 13.1581C24.412 11.7459 22.3062 10.8894 19.9998 10.8894C19.2596 10.8894 18.5414 10.9788 17.8533 11.1442C17.9898 11.3273 19.7008 13.5939 21.2587 16.4503C24.6959 15.1636 25.9933 13.1913 26.0157 13.1581ZM21.6102 21.4528C21.5899 21.4595 21.5696 21.4653 21.5498 21.4726C16.1751 23.3436 14.42 27.1142 14.401 27.1553C15.9474 28.3562 17.8871 29.0808 19.9997 29.0808C21.2612 29.0808 22.4628 28.8243 23.5561 28.3599C23.4212 27.5652 22.892 24.7795 21.6102 21.4528ZM25.09 27.5288C27.1354 26.1506 28.5881 23.962 28.9933 21.4269C28.8058 21.3665 26.2573 20.5609 23.317 21.0316C24.5118 24.3104 24.9973 26.9807 25.09 27.5288ZM21.96 17.8059C22.1714 18.2397 22.3761 18.6812 22.5652 19.1249C22.6324 19.2841 22.698 19.4401 22.7621 19.5961C25.8914 19.2029 28.9744 19.8645 29.1062 19.8915C29.0853 17.7351 28.3129 15.7561 27.0347 14.2067C27.0175 14.2311 25.5565 16.3392 21.96 17.8059Z" fill="black"/>
</svg>
