<svg width="251" height="220" viewBox="0 0 251 220" fill="none" xmlns="http://www.w3.org/2000/svg">
<path d="M11.732 133.02C8.44609 133.02 3.94742 135.042 2.38782 141.393C-1.47356 133.084 3.24559 123.318 10.0111 117.808C11.81 118.841 14.9104 121.619 16.7255 125.305C18.277 128.462 18.9331 132.296 17.3628 136.23C17.3628 136.23 17.2552 136.279 17.0885 136.279C16.6851 136.279 15.9672 136.039 15.3837 134.531C15.0422 133.665 13.5794 133.02 11.732 133.02Z" fill="#FCFCFC"/>
<path d="M110.423 70.6874C114.803 70.6874 114.803 74.6374 114.803 78.6977C114.803 82.758 114.803 86.8075 110.423 86.8075C105.948 86.8075 105.948 82.3251 105.948 78.7461C105.948 75.1752 105.948 70.6874 110.423 70.6874Z" fill="#FCFCFC"/>
<path d="M121.458 110.941C121.639 111.234 121.582 111.868 121.114 111.868C119.369 111.844 118.944 112.352 116.879 112.221C114.811 112.092 114.736 110.325 114.865 109.44C114.994 108.566 115.696 107.354 117.506 107.878C119.67 108.494 121.329 110.709 121.458 110.941Z" fill="#FCFCFC"/>
<path d="M83.9901 36.8365C75.181 39.6249 68.5016 43.7632 63.8201 49.9424C61.884 52.4941 58.4851 61.3488 57.2536 64.3954C58.2673 54.7475 46.3014 45.796 36.3172 49.5175C41.8323 44.4435 51.0985 39.9772 50.6925 30.5982C50.6253 29.2215 52.1876 28.5304 53.8655 28.5304C54.4463 28.5304 55.0459 28.6138 55.5891 28.7778C57.7295 29.4124 58.1463 32.2142 58.2512 33.6098C58.3534 35.0134 59.9372 36.6268 62.4541 36.9494C63.0967 37.0274 63.9196 37.0597 64.7639 37.0597C66.2536 37.0597 67.789 36.9656 68.4451 36.8419C69.4669 36.659 70.8571 37.0597 71.0696 33.9351C72.5324 35.0457 74.4335 35.7824 76.4852 35.7824C78.4186 35.7824 80.4783 35.1237 82.4117 33.5076C82.7747 33.2064 83.1754 33.0828 83.5706 33.0828C84.4741 33.0828 85.3481 33.7281 85.5712 34.4783C85.8859 35.5431 85.3292 36.409 83.9901 36.8365Z" fill="#FCFCFC"/>
<path d="M79.2846 21.7677C71.0107 22.5798 68.4938 29.0386 68.9644 31.5339C69.0934 32.2115 69.0934 32.7412 69.0074 33.1876C68.967 33.3032 68.9401 33.4269 68.9186 33.5506C68.7465 34.0723 68.4454 34.4138 68.1119 34.6611C68.0904 34.6611 68.0797 34.6665 68.0582 34.6692C67.644 34.7418 66.3103 34.852 64.7642 34.852C63.9306 34.852 63.2314 34.8225 62.7313 34.7579C62.2365 34.6934 61.8412 34.5643 61.5239 34.4138C60.9619 34.0588 60.6312 33.6474 60.408 33.1822C59.9751 28.4793 57.6061 27.0783 56.2186 26.6643C55.4818 26.4464 54.667 26.3254 53.8684 26.3254C53.4651 26.3254 53.0725 26.3604 52.6987 26.4142C48.001 26.5244 40.2917 31.7786 36.4196 39.2081C35.7985 40.4181 34.9756 40.6548 34.3706 40.4181C33.7683 40.1788 33.3972 39.2404 33.7414 37.6727C38.1029 17.7262 60.1176 1.5362 81.9602 0.699941C102.041 -0.0637147 113.612 5.09365 119.541 12.7275C125.514 20.3937 125.514 31.1279 121.356 37.506C119.012 41.1173 116.379 43.0694 113.569 43.8358C118.114 41.3351 118.896 37.377 118.608 34.8843C117.073 39.4421 113.427 41.0823 110.506 40.6225C115.36 39.0979 116.32 33.755 114.957 31.1306C114.413 34.083 112.069 37.9631 108.753 37.4119C112.069 36.1105 112.97 30.6734 112.079 28.1432C111.687 29.5011 110.711 33.4861 107.5 33.3436C110.057 32.3271 110.587 27.8608 109.151 25.3628C109.065 27.6753 108.318 29.6006 106.199 29.8748C108.229 28.7025 107.637 23.7817 106.199 22.5341C106.677 24.0533 106.473 26.1292 104.419 26.6885C105.061 23.8274 103.636 22.2544 103.636 22.2544C102.372 21.1197 100.907 21.7677 100.802 23.0638C100.667 24.6234 101.791 24.5427 102.214 27.0676C102.421 28.3368 101.915 29.6543 100.955 30.5659C99.85 31.6173 97.4783 31.8673 96.5264 31.6253C95.5826 31.3833 94.5258 31.1978 94.0176 28.7132C93.1517 24.4351 87.5586 20.9637 79.2846 21.7677Z" fill="#FCFCFC"/>
<path d="M60.4131 61.0691C61.6796 57.4606 63.4248 54.0913 65.5598 51.2787C65.9847 50.714 66.4445 50.1736 66.9043 49.6438C68.1816 48.2214 69.6471 46.8447 71.3223 45.5405C74.9121 42.8113 79.3221 40.6279 84.6462 38.9392C87.4993 38.0384 88.2172 35.7286 87.6633 33.8464C87.1766 32.1524 85.4099 30.8697 83.5733 30.8697C82.6322 30.8697 81.7502 31.1924 81.0161 31.8001C79.6205 32.9779 78.0878 33.4995 76.4852 33.5694C73.7612 33.6824 72.2473 32.9832 71.6208 31.8001C70.997 30.617 71.403 28.525 72.5915 27.1778C74.455 25.0536 76.7648 23.8973 80.7526 23.8973C81.4598 23.8973 82.2342 23.9431 83.0651 24.021C89.2094 24.6502 92.2077 27.9845 93.3075 32.1819C94.4126 36.3767 91.5704 42.3945 85.7434 43.3195C75.2778 44.9839 66.6785 53.4809 63.2366 62.7201C54.2822 86.7457 71.2686 100.475 78.8542 102.363C79.4673 102.506 79.8437 103.089 79.6071 103.552C79.4968 103.742 79.3221 103.81 79.115 103.81C78.8327 103.81 78.4858 103.691 78.2088 103.605C70.5291 101.435 52.0988 90.9969 60.2007 61.7844C60.2625 61.5558 60.3378 61.3084 60.4131 61.0691Z" fill="#FCFCFC"/>
<path d="M32.4023 99.2304C28.2935 99.2008 25.1098 99.5289 19.4494 102.277C17.5887 103.18 15.9027 104.256 14.4076 105.493C13.9827 97.2352 16.6448 81.7766 23.8271 71.7039C20.3449 77.7539 17.2552 88.2354 17.8791 95.681C18.7019 87.6842 20.9391 83.1829 24.2385 78.039C21.4258 85.5357 21.0252 91.5455 21.9152 94.9631C21.3129 91.0803 22.5929 85.5707 25.7067 82.8656C23.3485 87.2943 23.2113 92.3736 24.8274 94.229C24.58 92.0295 24.9672 89.5368 27.6481 87.0845C26.3547 90.9243 27.7691 93.6348 28.5516 94.4361C28.2801 91.5428 29.4175 90.5425 30.1166 89.8407C29.5896 92.7178 30.6706 94.4361 30.6706 94.4361C30.6706 94.4361 30.6006 92.2311 32.2947 91.575C36.4196 96.9126 57.0764 99.2573 58.2703 116.762C58.2703 117.12 58.2461 117.34 58.1735 117.491C54.0728 105.934 41.8863 99.303 32.4023 99.2304Z" fill="#FCFCFC"/>
<path d="M32.4022 101.438C40.3105 101.438 49.2379 106.754 54.0243 114.969C54.0862 115.074 54.1399 115.168 54.1964 115.267C54.2421 115.351 54.2905 115.439 54.3389 115.525C55.9416 118.298 56.9768 120.279 59.4856 120.704C59.7492 120.745 59.9912 120.769 60.2224 120.769C62.2768 120.769 63.4546 119.185 63.9063 117.198C65.4579 121.586 60.8543 122.745 60.8543 122.745C60.8543 122.745 61.8869 123.331 63.1077 123.331C64.0246 123.331 65.0518 123.006 65.8397 121.847C65.2804 124.832 63.2529 125.27 62.1074 125.27C61.6395 125.27 61.3088 125.195 61.3088 125.195C61.3088 125.195 62.2849 126.459 63.9359 126.459C64.4629 126.459 65.0707 126.33 65.7321 125.977C64.9362 128.572 62.0859 128.752 62.0859 128.752C62.0859 128.752 62.7823 129.586 64.2505 129.586C64.7372 129.586 65.2992 129.497 65.9553 129.255C65.3207 131.336 62.6748 131.939 62.6748 131.939C62.6748 131.939 63.2018 132.501 64.065 132.501C64.5786 132.501 65.2212 132.296 65.9553 131.662C65.4068 133.509 63.4949 134.119 63.4949 134.119C63.4949 134.119 63.8875 134.601 64.6673 134.601C64.9281 134.601 65.2266 134.547 65.5681 134.412C63.7477 135.448 64.3231 137.136 65.0222 138.54C71.016 150.535 82.0327 154.787 83.829 157.016C86.2222 159.973 85.9048 163.12 84.883 165.082C83.509 167.718 81.468 168.788 78.9969 168.788C78.4483 168.788 77.8971 168.739 77.3189 168.64C79.2846 170.869 78.4295 174.556 77.7411 175.741C76.921 177.14 74.9177 179.288 71.6963 179.288C71.0671 179.288 70.3948 179.21 69.6769 179.027C71.4113 182.087 70.3249 184.706 69.8274 185.642C69.1256 186.989 66.9207 189.522 62.8227 189.522C50.7626 189.522 38.1567 174.257 31.9317 165.378C25.704 156.499 19.3204 139.868 19.3204 138.416C22.9532 132.199 20.6675 127.039 19.3204 124.291C17.9866 121.546 14.8325 117.029 10.0972 114.85C14.2839 104.509 25.946 101.438 32.4022 101.438Z" fill="#FCFCFC"/>
<path d="M76.8672 104.509C70.8923 108.768 68.5287 106.507 65.0169 109.317C61.0425 112.487 63.9628 115.563 59.6954 119.596C60.5585 110.575 57.8427 105.318 53.6559 101.602C48.6679 97.1627 41.5797 94.8986 35.9947 91.0104C21.8776 81.1851 21.1785 60.4131 34.6099 52.8545C42.7118 48.2914 55.1564 55.5757 54.8821 64.6696C54.6508 72.5106 50.8944 73.3065 52.3706 82.0267C54.105 92.2796 62.9625 99.5908 76.8672 104.509Z" fill="#FCFCFC"/>
<path d="M54.285 81.5506C53.7418 77.0305 54.5055 75.2343 55.3875 72.7954C55.7101 71.8973 56.0517 70.9535 56.3421 69.8672C55.288 78.5094 56.6083 86.0142 60.3298 92.2767C57.4311 89.413 54.8335 86.0707 54.285 81.5506Z" fill="#FCFCFC"/>
<path d="M124.441 219.374C111.993 194.999 80.5323 200.076 65.4848 191.762C69.599 191.762 72.4009 188.643 73.1134 187.298C73.6136 186.352 74.4337 184.257 72.6913 181.189C77.1308 182.324 80.0887 179.065 81.0594 177.4C81.7585 176.212 82.6217 172.525 80.6453 170.296C83.8882 170.831 86.5691 169.941 88.2551 166.744C89.2796 164.776 89.5969 160.906 87.1902 157.948C103.147 162.759 123.091 176.994 124.441 202.902C122.779 193.545 117.202 186.007 109.697 181.192C118.861 189.159 124.441 197.825 124.441 213.08C122.3 201.695 113.897 194.752 106.532 191.119C112.623 195.236 123.602 203.252 124.441 219.374Z" fill="#FCFCFC"/>
<path d="M81.3256 140C81.4197 140.911 83.9769 149.005 94.3321 155.405C102.028 160.161 108.275 162.431 122.685 164.983C124.156 165.244 124.548 165.779 124.419 166.26C124.282 166.782 123.755 166.913 122.564 166.677C109.751 164.13 101.872 161.95 93.4502 157.946C81.987 152.485 75.8535 149.226 71.1854 140.589C70.6906 139.672 69.5155 139.411 68.4104 138.647C67.3079 137.884 67.1869 136.628 67.3778 135.829C67.5822 135.017 68.2948 134.377 69.166 134.679C69.935 134.958 70.4728 135.829 71.0241 135.905C67.3052 130.497 68.8057 122.065 68.8057 121.134C68.8057 119.397 67.8833 118.636 67.4854 118.007C66.875 117.066 67.2595 117.744 66.9019 117.179C66.5442 116.609 66.7029 115.525 67.1412 115.157C67.5795 114.794 68.3593 114.907 68.889 115.48C70.3491 117.093 69.8302 118.308 71.6587 117.902C71.3441 114.151 71.7743 111.866 72.2153 110.881C73.8825 107.181 77.9643 105.111 80.8496 107.246C83.7429 109.392 82.619 113.587 81.3309 114.92C79.7552 116.526 78.6016 118.031 78.1499 119.465C79.0749 119.822 79.5804 119.362 80.5323 118.873C81.858 118.203 82.748 119.225 82.8314 119.844C82.99 120.973 82.0569 121.895 81.0486 122.229C78.9512 122.912 78.2386 124.525 78.1579 127.351C78.0746 130.177 78.0853 132.931 79.5535 135.555C79.7256 135.854 80.6856 135.063 81.3766 134.722C81.9521 134.447 82.5705 134.722 83.1191 135.214C83.6757 135.7 83.7591 136.878 83.2213 137.507C82.6996 138.104 81.2314 139.086 81.3256 140Z" fill="#FCFCFC"/>
<path d="M125.995 170.748C129.125 170.748 134.129 170.307 140.029 168.406C134.766 171.625 127.802 180.772 125.995 188.121C124.188 180.772 117.226 171.625 111.964 168.406C118.113 170.307 122.87 170.748 125.995 170.748Z" fill="#FCFCFC"/>
<path d="M240.268 133.02C243.552 133.02 248.05 135.042 249.613 141.393C253.471 133.084 248.749 123.318 241.992 117.808C240.188 118.841 237.085 121.619 235.275 125.305C233.723 128.462 233.07 132.296 234.632 136.23C234.632 136.23 234.74 136.279 234.92 136.279C235.304 136.279 236.03 136.039 236.614 134.531C236.953 133.665 238.418 133.02 240.268 133.02Z" fill="#FCFCFC"/>
<path d="M141.572 70.6875C137.194 70.6875 137.194 74.6375 137.194 78.6978C137.194 82.7581 137.194 86.8076 141.572 86.8076C146.049 86.8076 146.049 82.3252 146.049 78.7462C146.049 75.1753 146.049 70.6875 141.572 70.6875Z" fill="#FCFCFC"/>
<path d="M130.536 110.941C130.362 111.234 130.413 111.868 130.881 111.868C132.626 111.844 133.051 112.352 135.116 112.221C137.189 112.092 137.262 110.325 137.135 109.44C137.001 108.566 136.302 107.354 134.492 107.878C132.325 108.494 130.676 110.709 130.536 110.941Z" fill="#FCFCFC"/>
<path d="M168.007 36.8365C176.814 39.6249 183.501 43.7632 188.175 49.9424C190.116 52.4941 193.51 61.3488 194.744 64.3954C193.736 54.7475 205.702 45.796 215.683 49.5175C210.173 44.4435 200.904 39.9772 201.311 30.5982C201.372 29.2215 199.81 28.5304 198.129 28.5304C197.549 28.5304 196.957 28.6138 196.403 28.7778C194.268 29.4124 193.851 32.2142 193.749 33.6098C193.639 35.0134 192.063 36.6268 189.549 36.9494C188.904 37.0274 188.075 37.0597 187.234 37.0597C185.747 37.0597 184.211 36.9656 183.558 36.8419C182.531 36.659 181.146 37.0597 180.933 33.9351C179.468 35.0457 177.564 35.7824 175.515 35.7824C173.584 35.7824 171.525 35.1237 169.586 33.5076C169.228 33.2064 168.822 33.0828 168.427 33.0828C167.523 33.0828 166.652 33.7281 166.434 34.4783C166.123 35.5431 166.671 36.409 168.007 36.8365Z" fill="#FCFCFC"/>
<path d="M172.716 21.7677C180.987 22.5798 183.509 29.0386 183.031 31.5339C182.907 32.2115 182.907 32.7412 182.988 33.1876C183.031 33.3032 183.063 33.4269 183.079 33.5506C183.254 34.0723 183.555 34.4138 183.894 34.6611L183.942 34.6692C184.359 34.7418 185.69 34.852 187.231 34.852C188.067 34.852 188.766 34.8225 189.264 34.7579C189.764 34.6934 190.154 34.5643 190.476 34.4138C191.033 34.0588 191.366 33.6474 191.587 33.1822C192.028 28.4793 194.397 27.0783 195.782 26.6643C196.521 26.4464 197.333 26.3254 198.127 26.3254C198.53 26.3254 198.92 26.3604 199.299 26.4142C204.002 26.5244 211.709 31.7786 215.57 39.2081C216.199 40.4181 217.019 40.6548 217.622 40.4181C218.227 40.1788 218.592 39.2404 218.251 37.6727C213.892 17.7262 191.885 1.5362 170.04 0.699941C149.953 -0.0637147 138.388 5.09365 132.451 12.7275C126.492 20.3937 126.492 31.1279 130.639 37.506C132.989 41.1173 135.613 43.0694 138.426 43.8358C133.879 41.3351 133.099 37.377 133.395 34.8843C134.925 39.4421 138.576 41.0823 141.497 40.6225C136.638 39.0979 135.678 33.755 137.041 31.1306C137.59 34.083 139.934 37.9631 143.25 37.4119C139.934 36.1105 139.028 30.6734 139.918 28.1432C140.316 29.5011 141.284 33.4861 144.503 33.3436C141.946 32.3271 141.411 27.8608 142.846 25.3628C142.935 27.6753 143.683 29.6006 145.804 29.8748C143.771 28.7025 144.371 23.7817 145.804 22.5341C145.323 24.0533 145.533 26.1292 147.579 26.6885C146.944 23.8274 148.367 22.2544 148.367 22.2544C149.628 21.1197 151.096 21.7677 151.207 23.0638C151.336 24.6234 150.206 24.5427 149.784 27.0676C149.577 28.3368 150.085 29.6543 151.048 30.5659C152.153 31.6173 154.525 31.8673 155.477 31.6253C156.418 31.3833 157.477 31.1978 157.977 28.7132C158.849 24.4351 164.442 20.9637 172.716 21.7677Z" fill="#FCFCFC"/>
<path d="M191.59 61.0691C190.321 57.4606 188.57 54.0913 186.443 51.2787C186.016 50.714 185.561 50.1736 185.093 49.6438C183.819 48.2214 182.359 46.8447 180.678 45.5405C177.085 42.8113 172.676 40.6279 167.354 38.9392C164.504 38.0384 163.783 35.7286 164.332 33.8464C164.826 32.1524 166.59 30.8697 168.424 30.8697C169.365 30.8697 170.253 31.1924 170.981 31.8001C172.38 32.9779 173.91 33.4995 175.512 33.5694C178.234 33.6824 179.75 32.9832 180.385 31.8001C181.003 30.617 180.592 28.525 179.409 27.1778C177.545 25.0536 175.23 23.8973 171.248 23.8973C170.54 23.8973 169.766 23.9431 168.93 24.021C162.785 24.6502 159.793 27.9845 158.693 32.1819C157.59 36.3767 160.422 42.3945 166.254 43.3195C176.72 44.9839 185.314 53.4809 188.761 62.7201C197.713 86.7457 180.734 100.475 173.149 102.363C172.538 102.506 172.157 103.089 172.396 103.552C172.498 103.742 172.678 103.81 172.888 103.81C173.17 103.81 173.512 103.691 173.794 103.605C181.468 101.435 199.904 90.9969 191.805 61.7844C191.732 61.5558 191.665 61.3084 191.59 61.0691Z" fill="#FCFCFC"/>
<path d="M219.595 99.2304C223.704 99.2008 226.885 99.5289 232.548 102.277C234.412 103.18 236.098 104.256 237.593 105.493C238.017 97.2352 235.353 81.7766 228.176 71.7039C231.658 77.7539 234.74 88.2354 234.118 95.681C233.301 87.6842 231.058 83.1829 227.764 78.039C230.574 85.5357 230.978 91.5455 230.088 94.9631C230.693 91.0803 229.402 85.5707 226.291 82.8656C228.654 87.2943 228.786 92.3736 227.173 94.229C227.415 92.0295 227.038 89.5368 224.349 87.0845C225.64 90.9243 224.228 93.6348 223.451 94.4361C223.717 91.5428 222.58 90.5425 221.884 89.8407C222.411 92.7178 221.33 94.4361 221.33 94.4361C221.33 94.4361 221.397 92.2311 219.706 91.575C215.591 96.9126 194.929 99.2573 193.735 116.762C193.735 117.12 193.76 117.34 193.824 117.491C197.925 105.934 210.114 99.303 219.595 99.2304Z" fill="#FCFCFC"/>
<path d="M219.596 101.438C211.69 101.438 202.76 106.754 197.971 114.969C197.914 115.074 197.855 115.168 197.801 115.267C197.758 115.351 197.71 115.439 197.656 115.525C196.051 118.298 195.021 120.279 192.509 120.704C192.254 120.745 192.004 120.769 191.77 120.769C189.726 120.769 188.541 119.185 188.089 117.198C186.54 121.586 191.143 122.745 191.143 122.745C191.143 122.745 190.116 123.331 188.893 123.331C187.979 123.331 186.946 123.006 186.163 121.847C186.72 124.832 188.75 125.27 189.89 125.27C190.372 125.27 190.692 125.195 190.692 125.195C190.692 125.195 189.713 126.459 188.067 126.459C187.532 126.459 186.933 126.33 186.274 125.977C187.067 128.572 189.915 128.752 189.915 128.752C189.915 128.752 189.226 129.586 187.75 129.586C187.266 129.586 186.701 129.497 186.048 129.255C186.68 131.336 189.326 131.939 189.326 131.939C189.326 131.939 188.801 132.501 187.938 132.501C187.425 132.501 186.779 132.296 186.045 131.662C186.586 133.509 188.5 134.119 188.5 134.119C188.5 134.119 188.11 134.601 187.333 134.601C187.07 134.601 186.766 134.547 186.43 134.412C188.247 135.448 187.675 137.136 186.97 138.54C180.982 150.535 169.965 154.787 168.166 157.016C165.768 159.973 166.088 163.12 167.117 165.082C168.486 167.718 170.53 168.788 173.004 168.788C173.547 168.788 174.101 168.739 174.676 168.64C172.71 170.869 173.563 174.556 174.257 175.741C175.074 177.14 177.08 179.288 180.301 179.288C180.931 179.288 181.6 179.21 182.318 179.027C180.589 182.087 181.667 184.706 182.16 185.642C182.867 186.989 185.08 189.522 189.18 189.522C201.235 189.522 213.847 174.257 220.069 165.378C226.291 156.499 232.675 139.868 232.675 138.416C229.053 132.199 231.33 127.039 232.675 124.291C234.017 121.546 237.168 117.029 241.898 114.85C237.709 104.509 226.057 101.438 219.596 101.438Z" fill="#FCFCFC"/>
<path d="M175.133 104.509C181.108 108.768 183.466 106.507 186.989 109.317C190.952 112.487 188.046 115.563 192.308 119.596C191.439 110.575 194.16 105.318 198.347 101.602C203.338 97.1627 210.423 94.8986 216.008 91.0104C230.125 81.1851 230.819 60.4131 217.39 52.8545C209.288 48.2914 196.844 55.5757 197.11 64.6696C197.347 72.5106 201.098 73.3065 199.627 82.0267C197.895 92.2796 189.035 99.5908 175.133 104.509Z" fill="#FCFCFC"/>
<path d="M197.71 81.5506C198.255 77.0305 197.489 75.2343 196.604 72.7954C196.29 71.8973 195.946 70.9535 195.647 69.8672C196.709 78.5094 195.392 86.0142 191.67 92.2767C194.566 89.413 197.166 86.0707 197.71 81.5506Z" fill="#FCFCFC"/>
<path d="M127.557 219.375C139.999 195 171.465 200.076 186.518 191.762C182.399 191.762 179.597 188.643 178.89 187.298C178.39 186.352 177.567 184.257 179.309 181.189C174.87 182.324 171.912 179.065 170.936 177.4C170.242 176.212 169.379 172.525 171.358 170.296C168.112 170.831 165.429 169.941 163.753 166.744C162.718 164.776 162.409 160.907 164.807 157.949C148.854 162.759 128.907 176.994 127.557 202.902C129.222 193.545 134.796 186.008 142.303 181.192C133.137 189.159 127.557 197.826 127.557 213.08C129.697 201.695 138.103 194.752 145.471 191.119C139.372 195.236 128.391 203.252 127.557 219.375Z" fill="#FCFCFC"/>
<path d="M170.672 140C170.575 140.911 168.021 149.005 157.663 155.405C149.972 160.161 143.718 162.431 129.316 164.983C127.845 165.244 127.458 165.779 127.576 166.26C127.713 166.782 128.24 166.913 129.434 166.677C142.25 164.13 150.123 161.95 158.542 157.946C170.008 152.485 176.139 149.226 180.815 140.589C181.31 139.672 182.485 139.411 183.59 138.647C184.695 137.884 184.819 136.628 184.62 135.829C184.418 135.017 183.708 134.377 182.829 134.679C182.055 134.958 181.528 135.829 180.971 135.905C184.692 130.497 183.192 122.065 183.192 121.134C183.192 119.397 184.109 118.636 184.51 118.007C185.125 117.066 184.738 117.744 185.09 117.179C185.453 116.609 185.295 115.525 184.851 115.157C184.415 114.794 183.638 114.907 183.111 115.48C181.64 117.093 182.157 118.308 180.339 117.902C180.651 114.151 180.226 111.866 179.785 110.881C178.118 107.181 174.036 105.111 171.143 107.246C168.249 109.392 169.376 113.587 170.669 114.92C172.24 116.526 173.396 118.031 173.85 119.465C172.917 119.822 172.415 119.362 171.463 118.873C170.134 118.203 169.252 119.225 169.158 119.844C169.002 120.973 169.927 121.895 170.946 122.229C173.041 122.912 173.756 124.525 173.834 127.351C173.918 130.177 173.904 132.931 172.433 135.555C172.269 135.854 171.304 135.063 170.618 134.722C170.048 134.447 169.424 134.722 168.873 135.214C168.317 135.7 168.241 136.878 168.782 137.507C169.298 138.104 170.769 139.086 170.672 140Z" fill="#FCFCFC"/>
</svg>
