<svg width="40" height="40" viewBox="0 0 40 40" fill="none" xmlns="http://www.w3.org/2000/svg">
<path d="M0.5 20C0.5 9.23045 9.23045 0.5 20 0.5C30.7696 0.5 39.5 9.23045 39.5 20C39.5 30.7696 30.7696 39.5 20 39.5C9.23045 39.5 0.5 30.7696 0.5 20Z" stroke="black"/>
<path fill-rule="evenodd" clip-rule="evenodd" d="M15.2322 11.5523C15.2028 10.217 14.2479 9.20001 12.6974 9.20001C11.1469 9.20001 10.1332 10.217 10.1332 11.5523C10.1332 12.8598 11.1169 13.9061 12.6386 13.9061H12.6675C14.2479 13.9061 15.2322 12.8598 15.2322 11.5523ZM14.9335 15.7649H10.4011V29.383H14.9335V15.7649ZM26.0608 15.4452C29.0434 15.4452 31.2794 17.392 31.2794 21.5749L31.2792 29.3831H26.7469V22.0974C26.7469 20.2674 26.0911 19.0186 24.4503 19.0186C23.1981 19.0186 22.4523 19.8604 22.1247 20.6735C22.0049 20.9649 21.9755 21.3709 21.9755 21.7779V29.3834H17.4425C17.4425 29.3834 17.5022 17.0432 17.4425 15.7653H21.9755V17.6942C22.577 16.767 23.6544 15.4452 26.0608 15.4452Z" fill="black"/>
</svg>
