<svg width="178" height="40" viewBox="0 0 178 40" fill="none" xmlns="http://www.w3.org/2000/svg">
<path d="M40 19.9718C40 8.94079 31.0444 0 20 0C8.95344 0 0 8.94079 0 19.9718C0 31.0027 8.95344 39.9435 20 39.9435C24.5017 39.9435 28.6575 38.4574 31.9996 35.95V36.0326C31.9996 38.2227 33.7772 40 35.9704 40C38.1636 40 39.9434 38.2249 39.9434 36.0326V21.4753C39.9804 20.9777 40 20.478 40 19.9718ZM20 31.9544C13.3725 31.9544 8.00044 26.5899 8.00044 19.9718C8.00044 13.3536 13.3725 7.98914 20 7.98914C26.6275 7.98914 31.9996 13.3536 31.9996 19.9718C31.9996 26.5899 26.6275 31.9544 20 31.9544Z" fill="#FFDD00"/>
<path d="M15.7999 17.9689C15.2688 19.0311 14.371 20.1333 13.6354 20.9911L12.5332 20.0111C14.4132 17.9267 16.5776 14.7822 17.0265 11.7578L17.191 10.6956H19.8443L19.1488 14.8222C20.251 13.6378 22.091 12.9422 23.5621 12.9422C27.6465 12.9422 29.4043 16.5378 28.6688 20.5822C27.9332 24.7089 24.4199 27.6911 20.2932 27.6911C19.0265 27.6911 18.0465 27.4467 17.0665 26.9156L15.5554 35.2911H12.7354L15.7999 17.9689ZM25.851 20.38C26.3821 17.52 25.4421 15.0689 22.6643 15.0689C20.8665 15.0689 18.8243 16.58 18.4554 18.7867L17.4332 24.6289C17.9643 25.0778 18.9043 25.5689 20.4554 25.5689C23.3576 25.5689 25.3199 23.24 25.851 20.38Z" fill="#111111"/>
<path d="M31.0379 20.1356C31.7735 16.0089 35.3268 12.9445 39.4535 12.9445C40.7201 12.9445 42.069 13.3533 43.0068 14.1289L43.9046 13.0267H45.6623L43.6201 24.3845C43.4557 25.4067 43.7023 25.8556 44.3135 25.8556C44.7223 25.8556 45.1712 25.7333 45.4979 25.6111V26.8378C44.7223 27.3289 43.8223 27.6133 42.9246 27.6133C41.5357 27.6133 40.8001 26.96 40.7179 25.6933C39.6557 26.7956 37.7357 27.6956 36.1823 27.6956C32.1001 27.6933 30.3023 24.18 31.0379 20.1356ZM41.2512 21.8911L42.3135 16.0889C41.7823 15.64 40.8423 15.0667 39.2912 15.0667C36.3912 15.0667 34.389 17.4778 33.8579 20.3378C33.3268 23.1978 34.3068 25.5667 37.0846 25.5667C38.8823 25.5689 40.8423 24.0978 41.2512 21.8911Z" fill="#111111"/>
<path d="M52.9353 15.3956C52.9353 17.6845 51.2597 20.4623 51.2597 23.0356C51.2597 24.4645 51.8731 25.3223 53.3019 25.3223C55.1819 25.3223 58.1219 23.4423 58.8997 19.0712L59.9219 13.3934H62.7419L60.7397 24.3823C60.5753 25.4045 60.8219 25.8534 61.4331 25.8534C61.8419 25.8534 62.3308 25.6912 62.6175 25.609V26.8356C61.8419 27.3267 60.9419 27.6112 60.0442 27.6112C58.4908 27.6112 57.5531 26.509 57.9597 24.3845C56.5708 26.3867 54.4864 27.6934 52.3219 27.6934C49.7486 27.6934 48.4397 25.9356 48.4397 23.609C48.4397 20.6667 50.1153 17.889 50.1153 15.6423C50.1153 15.1112 49.7886 14.7845 49.3397 14.7845C48.9308 14.7845 48.4419 14.949 48.1553 15.029V13.8023C48.9308 13.3112 49.7486 13.0267 50.6464 13.0267C51.9131 13.0267 52.9353 13.9245 52.9353 15.3956Z" fill="#111111"/>
<path d="M64.9041 24.3845L68.7441 2.81338L71.6441 2.32227L67.7219 24.3845C67.5574 25.4067 67.8041 25.8556 68.4174 25.8556C68.8263 25.8556 69.3152 25.6934 69.6019 25.6112V26.8378C68.8263 27.3289 67.9263 27.6134 67.0285 27.6134C65.4752 27.6112 64.4952 26.6712 64.9041 24.3845Z" fill="#111111"/>
<path d="M78.509 27.8556C73.8512 27.8556 71.2779 24.0556 71.9712 19.9712C72.6645 15.8445 76.1379 12.8623 80.1423 12.8623C84.8401 12.8623 87.3734 16.7023 86.6801 20.7467C85.9845 24.8734 82.5112 27.8556 78.509 27.8556ZM80.0601 15.029C77.649 15.029 75.3623 16.949 74.8312 20.0134C74.2179 23.5667 75.9756 25.6912 78.589 25.6912C81.0801 25.6912 83.2868 23.729 83.8179 20.7067C84.4312 17.1534 82.6756 15.029 80.0601 15.029Z" fill="#111111"/>
<path d="M89.0886 25.529C89.2109 24.3445 90.2331 23.4045 91.4175 23.4045C92.602 23.4045 93.4597 24.3445 93.3375 25.529C93.2153 26.7134 92.1931 27.6534 91.0086 27.6534C89.8242 27.6534 88.9642 26.7134 89.0886 25.529Z" fill="#111111"/>
<path d="M97.0954 22.1778L100.569 2.81338L103.469 2.32227L101.304 14.8245C102.284 13.8023 104.164 12.9445 105.718 12.9445C109.802 12.9445 111.56 16.54 110.824 20.5845C110.089 24.7112 106.411 27.7756 102.287 27.7756C98.5666 27.7756 96.6043 24.9978 97.0954 22.1778ZM108.002 20.38C108.533 17.52 107.593 15.0689 104.815 15.0689C103.018 15.0689 101.058 16.58 100.607 18.7867L99.9532 21.8912C99.4221 24.4245 100.975 25.7312 102.527 25.7312C105.429 25.7312 107.471 23.24 108.002 20.38Z" fill="#111111"/>
<path d="M113.191 20.1356C113.927 16.0089 117.48 12.9445 121.607 12.9445C122.873 12.9445 124.222 13.3533 125.16 14.1289L126.058 13.0267H127.816L125.773 24.3845C125.609 25.4067 125.856 25.8556 126.467 25.8556C126.876 25.8556 127.325 25.7333 127.651 25.6111V26.8378C126.876 27.3289 125.976 27.6133 125.078 27.6133C123.689 27.6133 122.953 26.96 122.871 25.6933C121.809 26.7956 119.889 27.6956 118.336 27.6956C114.253 27.6933 112.456 24.18 113.191 20.1356ZM123.405 21.8911L124.467 16.0889C123.936 15.64 122.996 15.0667 121.445 15.0667C118.545 15.0667 116.542 17.4778 116.011 20.3378C115.48 23.1978 116.46 25.5667 119.238 25.5667C121.036 25.5689 122.996 24.0978 123.405 21.8911Z" fill="#111111"/>
<path d="M128.755 26.14L129.531 24.0556C130.266 24.6689 131.738 25.5667 133.78 25.5667C135.169 25.5667 136.395 25.0356 136.6 23.8911C136.764 22.8689 136.355 21.8889 133.984 21.2356C131.002 20.4178 130.062 18.7023 130.471 16.4956C130.838 14.4534 132.718 12.9423 135.538 12.9423C137.54 12.9423 139.338 13.8823 139.909 14.2911L139.091 16.2111C138.193 15.64 137.253 15.0667 135.538 15.0667C134.066 15.0667 133.209 15.5978 133.046 16.4156C132.842 17.4778 133.129 18.2134 135.458 18.8667C138.318 19.6845 139.502 21.6045 139.135 23.6867C138.644 26.6289 136.315 27.7711 133.702 27.7711C130.798 27.7756 128.755 26.14 128.755 26.14Z" fill="#111111"/>
<path d="M142.196 23.0356L143.584 15.3134H141.46L141.827 13.3934H143.911L144.769 8.73562L147.669 8.24451L146.729 13.3912H150.324L149.958 15.3112H146.402L145.013 23.0334C144.687 24.749 145.136 25.7712 146.442 25.7712C147.178 25.7712 147.749 25.5267 148.28 25.1578L148.689 26.5467C147.871 27.1601 146.891 27.6089 145.542 27.6089C143.298 27.6112 141.622 26.1823 142.196 23.0356Z" fill="#111111"/>
<path d="M157.555 27.8556C152.898 27.8556 150.324 24.0556 151.018 19.9712C151.713 15.8445 155.184 12.8623 159.189 12.8623C163.886 12.8623 166.42 16.7023 165.726 20.7467C165.033 24.8734 161.56 27.8556 157.555 27.8556ZM159.109 15.029C156.698 15.029 154.411 16.949 153.88 20.0134C153.266 23.5667 155.024 25.6912 157.638 25.6912C160.129 25.6912 162.335 23.729 162.866 20.7067C163.48 17.1534 161.722 15.029 159.109 15.029Z" fill="#111111"/>
<path d="M166.625 26.14L167.4 24.0556C168.136 24.6689 169.607 25.5667 171.649 25.5667C173.038 25.5667 174.264 25.0356 174.469 23.8911C174.633 22.8689 174.225 21.8889 171.853 21.2356C168.871 20.4178 167.931 18.7023 168.34 16.4956C168.707 14.4534 170.587 12.9423 173.407 12.9423C175.409 12.9423 177.207 13.8823 177.778 14.2911L176.96 16.2111C176.062 15.64 175.122 15.0667 173.407 15.0667C171.936 15.0667 171.078 15.5978 170.916 16.4156C170.711 17.4778 170.998 18.2134 173.327 18.8667C176.187 19.6845 177.371 21.6045 177.005 23.6867C176.513 26.6289 174.185 27.7711 171.571 27.7711C168.667 27.7756 166.625 26.14 166.625 26.14Z" fill="#111111"/>
</svg>
