<svg width="267" height="60" viewBox="0 0 267 60" fill="none" xmlns="http://www.w3.org/2000/svg">
<rect width="267" height="60" fill=""/>
<path d="M60 29.9576C60 13.4112 46.5666 0 30 0C13.4302 0 0 13.4112 0 29.9576C0 46.5041 13.4302 59.9153 30 59.9153C36.7526 59.9153 42.9863 57.686 47.9994 53.925V54.0489C47.9994 57.3341 50.6658 60 53.9556 60C57.2454 60 59.9151 57.3373 59.9151 54.0489V32.2129C59.9706 31.4666 60 30.717 60 29.9576ZM30 47.9316C20.0587 47.9316 12.0007 39.8848 12.0007 29.9576C12.0007 20.0304 20.0587 11.9837 30 11.9837C39.9413 11.9837 47.9994 20.0304 47.9994 29.9576C47.9994 39.8848 39.9413 47.9316 30 47.9316Z" fill="#ffdd00"/>
<path d="M23.7 26.9533C22.9033 28.5467 21.5567 30.2 20.4533 31.4867L18.8 30.0167C21.62 26.89 24.8667 22.1733 25.54 17.6367L25.7867 16.0433H29.7667L28.7233 22.2333C30.3767 20.4567 33.1367 19.4133 35.3433 19.4133C41.47 19.4133 44.1067 24.8067 43.0033 30.8733C41.9 37.0633 36.63 41.5367 30.44 41.5367C28.54 41.5367 27.07 41.17 25.6 40.3733L23.3333 52.9367H19.1033L23.7 26.9533ZM38.7767 30.57C39.5733 26.28 38.1633 22.6033 33.9967 22.6033C31.3 22.6033 28.2367 24.87 27.6833 28.18L26.15 36.9433C26.9467 37.6167 28.3567 38.3533 30.6833 38.3533C35.0367 38.3533 37.98 34.86 38.7767 30.57Z" fill="#111111"/>
<path d="M46.5567 30.2033C47.66 24.0133 52.99 19.4166 59.18 19.4166C61.08 19.4166 63.1033 20.03 64.51 21.1933L65.8567 19.54H68.4933L65.43 36.5766C65.1833 38.11 65.5533 38.7833 66.47 38.7833C67.0833 38.7833 67.7567 38.6 68.2467 38.4166V40.2566C67.0833 40.9933 65.7333 41.42 64.3867 41.42C62.3033 41.42 61.2 40.44 61.0767 38.54C59.4833 40.1933 56.6033 41.5433 54.2733 41.5433C48.15 41.54 45.4533 36.27 46.5567 30.2033ZM61.8767 32.8366L63.47 24.1333C62.6733 23.46 61.2633 22.6 58.9367 22.6C54.5867 22.6 51.5833 26.2166 50.7867 30.5066C49.99 34.7966 51.46 38.35 55.6267 38.35C58.3233 38.3533 61.2633 36.1466 61.8767 32.8366Z" fill="#111111"/>
<path d="M79.4033 23.0933C79.4033 26.5266 76.89 30.6933 76.89 34.5533C76.89 36.6966 77.81 37.9833 79.9533 37.9833C82.7733 37.9833 87.1833 35.1633 88.35 28.6066L89.8833 20.0899H94.1133L91.11 36.5733C90.8633 38.1066 91.2333 38.7799 92.15 38.7799C92.7633 38.7799 93.4967 38.5366 93.9267 38.4133V40.2533C92.7633 40.9899 91.4133 41.4166 90.0667 41.4166C87.7367 41.4166 86.33 39.7633 86.94 36.5766C84.8567 39.5799 81.73 41.5399 78.4833 41.5399C74.6233 41.5399 72.66 38.9033 72.66 35.4133C72.66 30.9999 75.1733 26.8333 75.1733 23.4633C75.1733 22.6666 74.6833 22.1766 74.01 22.1766C73.3967 22.1766 72.6633 22.4232 72.2333 22.5432V20.7033C73.3967 19.9666 74.6233 19.5399 75.97 19.5399C77.87 19.5399 79.4033 20.8866 79.4033 23.0933Z" fill="#111111"/>
<path d="M97.3567 36.5766L103.117 4.21994L107.467 3.48328L101.583 36.5766C101.337 38.1099 101.707 38.7833 102.627 38.7833C103.24 38.7833 103.973 38.5399 104.403 38.4166V40.2566C103.24 40.9933 101.89 41.4199 100.543 41.4199C98.2133 41.4166 96.7433 40.0066 97.3567 36.5766Z" fill="#111111"/>
<path d="M117.763 41.7833C110.777 41.7833 106.917 36.0833 107.957 29.9567C108.997 23.7667 114.207 19.2933 120.213 19.2933C127.26 19.2933 131.06 25.0533 130.02 31.12C128.977 37.31 123.767 41.7833 117.763 41.7833ZM120.09 22.5433C116.473 22.5433 113.043 25.4233 112.247 30.02C111.327 35.35 113.963 38.5367 117.883 38.5367C121.62 38.5367 124.93 35.5933 125.727 31.06C126.647 25.73 124.013 22.5433 120.09 22.5433Z" fill="#111111"/>
<path d="M133.633 38.2932C133.817 36.5166 135.35 35.1066 137.127 35.1066C138.903 35.1066 140.19 36.5166 140.007 38.2932C139.823 40.0699 138.29 41.4799 136.513 41.4799C134.737 41.4799 133.447 40.0699 133.633 38.2932Z" fill="#111111"/>
<path d="M145.643 33.2666L150.853 4.21994L155.203 3.48328L151.957 22.2366C153.427 20.7033 156.247 19.4166 158.577 19.4166C164.703 19.4166 167.34 24.8099 166.237 30.8766C165.133 37.0666 159.617 41.6633 153.43 41.6633C147.85 41.6633 144.907 37.4966 145.643 33.2666ZM162.003 30.5699C162.8 26.2799 161.39 22.6033 157.223 22.6033C154.527 22.6033 151.587 24.8699 150.91 28.1799L149.93 32.8366C149.133 36.6366 151.463 38.5966 153.79 38.5966C158.143 38.5966 161.207 34.8599 162.003 30.5699Z" fill="#111111"/>
<path d="M169.787 30.2033C170.89 24.0133 176.22 19.4166 182.41 19.4166C184.31 19.4166 186.333 20.03 187.74 21.1933L189.087 19.54H191.723L188.66 36.5766C188.413 38.11 188.783 38.7833 189.7 38.7833C190.313 38.7833 190.987 38.6 191.477 38.4166V40.2566C190.313 40.9933 188.963 41.42 187.617 41.42C185.533 41.42 184.43 40.44 184.307 38.54C182.713 40.1933 179.833 41.5433 177.503 41.5433C171.38 41.54 168.683 36.27 169.787 30.2033ZM185.107 32.8366L186.7 24.1333C185.903 23.46 184.493 22.6 182.167 22.6C177.817 22.6 174.813 26.2166 174.017 30.5066C173.22 34.7966 174.69 38.35 178.857 38.35C181.553 38.3533 184.493 36.1466 185.107 32.8366Z" fill="#111111"/>
<path d="M193.133 39.21L194.297 36.0833C195.4 37.0033 197.607 38.35 200.67 38.35C202.753 38.35 204.593 37.5533 204.9 35.8367C205.147 34.3033 204.533 32.8333 200.977 31.8533C196.503 30.6267 195.093 28.0533 195.707 24.7433C196.257 21.68 199.077 19.4133 203.307 19.4133C206.31 19.4133 209.007 20.8233 209.863 21.4367L208.637 24.3167C207.29 23.46 205.88 22.6 203.307 22.6C201.1 22.6 199.813 23.3967 199.57 24.6233C199.263 26.2167 199.693 27.32 203.187 28.3C207.477 29.5267 209.253 32.4067 208.703 35.53C207.967 39.9433 204.473 41.6567 200.553 41.6567C196.197 41.6633 193.133 39.21 193.133 39.21Z" fill="#111111"/>
<path d="M213.293 34.5532L215.377 22.9699H212.19L212.74 20.0899H215.867L217.153 13.1032L221.503 12.3666L220.093 20.0866H225.487L224.937 22.9666H219.603L217.52 34.5499C217.03 37.1232 217.703 38.6566 219.663 38.6566C220.767 38.6566 221.623 38.2899 222.42 37.7366L223.033 39.8199C221.807 40.7399 220.337 41.4132 218.313 41.4132C214.947 41.4166 212.433 39.2732 213.293 34.5532Z" fill="#111111"/>
<path d="M236.333 41.7833C229.347 41.7833 225.487 36.0833 226.527 29.9567C227.57 23.7667 232.777 19.2933 238.783 19.2933C245.83 19.2933 249.63 25.0533 248.59 31.12C247.55 37.31 242.34 41.7833 236.333 41.7833ZM238.663 22.5433C235.047 22.5433 231.617 25.4233 230.82 30.02C229.9 35.35 232.537 38.5367 236.457 38.5367C240.193 38.5367 243.503 35.5933 244.3 31.06C245.22 25.73 242.583 22.5433 238.663 22.5433Z" fill="#111111"/>
<path d="M249.937 39.21L251.1 36.0833C252.203 37.0033 254.41 38.35 257.473 38.35C259.557 38.35 261.397 37.5533 261.703 35.8367C261.95 34.3033 261.337 32.8333 257.78 31.8533C253.307 30.6267 251.897 28.0533 252.51 24.7433C253.06 21.68 255.88 19.4133 260.11 19.4133C263.113 19.4133 265.81 20.8233 266.667 21.4367L265.44 24.3167C264.093 23.46 262.683 22.6 260.11 22.6C257.903 22.6 256.617 23.3967 256.373 24.6233C256.067 26.2167 256.497 27.32 259.99 28.3C264.28 29.5267 266.057 32.4067 265.507 35.53C264.77 39.9433 261.277 41.6567 257.357 41.6567C253 41.6633 249.937 39.21 249.937 39.21Z" fill="#111111"/>
</svg>
