<svg width="392" height="294" viewBox="0 0 600 294" fill="none" xmlns="http://www.w3.org/2000/svg">
<path d="M267.61 112.04C266.45 107.76 263.39 106.22 260.87 106.22C259.53 106.22 258.42 106.69 258.16 107.37C257.76 108.41 257.28 108.56 257.03 108.56C255.68 105.47 256.48 102.64 257.38 100.82C258.79 97.96 261.12 96.07 262.16 95.47C266.76 99.31 270.14 106.19 267.61 112.04Z" fill="#F3F4F4"/>
<path d="M262.09 95.6299C266.65 99.3999 269.91 106.03 267.63 111.74C266.4 107.61 263.37 106.12 260.87 106.12C259.47 106.12 258.35 106.61 258.06 107.33C257.68 108.31 257.25 108.46 257.02 108.46C257 108.46 256.98 108.46 256.96 108.46C255.78 105.41 256.57 102.65 257.45 100.87C258.81 98.1299 261.01 96.2899 262.09 95.6299ZM262.11 95.3899C260.82 96.1299 258.59 98.1299 257.29 100.78C256.18 103.05 255.71 105.8 256.83 108.63C256.83 108.63 256.91 108.67 257.03 108.67C257.31 108.67 257.83 108.5 258.25 107.42C258.49 106.8 259.55 106.33 260.87 106.33C263.23 106.33 266.46 107.78 267.58 112.35C270.36 106.36 266.97 99.3499 262.11 95.3899Z" fill="black"/>
<path d="M189.99 73.0299C186.94 73.0299 186.94 70.2499 186.94 67.2999C186.94 64.3899 186.94 61.6499 189.99 61.6499C193.11 61.6499 193.11 64.8099 193.11 67.3399C193.1 69.8699 193.1 73.0299 189.99 73.0299Z" fill="#F3F4F4"/>
<path d="M189.99 61.75C193.01 61.75 193.01 64.72 193.01 67.34C193.01 69.96 193.01 72.93 189.99 72.93C187.04 72.93 187.04 70.2001 187.04 67.3001C187.04 64.3201 187.04 61.75 189.99 61.75ZM189.99 61.55C186.85 61.55 186.85 64.3901 186.85 67.3001C186.85 70.2101 186.85 73.1201 189.99 73.1201C193.21 73.1201 193.21 69.9001 193.21 67.3301C193.2 64.7701 193.2 61.55 189.99 61.55Z" fill="black"/>
<path d="M184.88 91.29C184.35 91.29 183.99 91.22 183.64 91.16C183.28 91.09 182.92 91.02 182.38 91.02C182.24 91.02 182.18 90.99 182.15 90.92C182.08 90.8 182.1 90.6 182.16 90.5C182.28 90.29 183.45 88.77 184.94 88.35C185.14 88.29 185.33 88.26 185.5 88.26C186.5 88.26 186.68 89.2 186.71 89.39C186.75 89.66 186.8 90.33 186.42 90.79C186.19 91.07 185.83 91.24 185.35 91.26C185.18 91.29 185.02 91.29 184.88 91.29Z" fill="#F3F4F4"/>
<path d="M185.49 88.3699C186.41 88.3699 186.58 89.2399 186.6 89.4199C186.64 89.6799 186.69 90.3199 186.34 90.7499C186.13 91.0099 185.79 91.1599 185.34 91.1899C185.17 91.1999 185.02 91.2099 184.88 91.2099C184.36 91.2099 184.02 91.1499 183.65 91.0799C183.29 91.0099 182.92 90.9399 182.31 90.9399C182.27 90.9399 182.24 90.9299 182.23 90.8899C182.18 90.7999 182.19 90.6499 182.24 90.5699C182.35 90.3699 183.52 88.8699 184.96 88.4599C185.15 88.3999 185.33 88.3699 185.49 88.3699ZM185.49 88.1699C185.32 88.1699 185.12 88.1999 184.9 88.2599C183.34 88.6999 182.16 90.2899 182.06 90.4499C181.94 90.6599 181.97 91.1199 182.31 91.1199H182.38C183.43 91.1199 183.81 91.3899 184.88 91.3899C185.02 91.3899 185.18 91.3799 185.35 91.3699C186.84 91.2799 186.89 90.0099 186.8 89.3799C186.72 88.8599 186.36 88.1699 185.49 88.1699Z" fill="black"/>
<path d="M227.89 56.0401C226.8 53.3001 224.77 48.2101 223.54 46.5801C220.29 42.2901 215.54 39.2001 209 37.1401C208.1 36.8501 207.72 36.2901 207.93 35.5601C208.08 35.0501 208.68 34.6301 209.27 34.6301C209.55 34.6301 209.82 34.7301 210.04 34.9101C211.34 35.9901 212.83 36.5701 214.36 36.5701C215.71 36.5701 217.05 36.1301 218.16 35.3301C218.33 37.1501 219.13 37.2301 219.78 37.2901C219.89 37.3001 220 37.3101 220.11 37.3301C220.62 37.4201 221.76 37.4901 222.77 37.4901C223.38 37.4901 223.97 37.4701 224.44 37.4101C226.35 37.1601 227.47 35.9401 227.55 34.9201C227.64 33.5901 228.04 31.9301 229.39 31.5401C229.77 31.4301 230.19 31.3701 230.6 31.3701C231.42 31.3701 232.13 31.6001 232.49 31.9901C232.69 32.2001 232.79 32.4601 232.78 32.7501C232.55 38.0601 236.63 41.2301 240.23 44.0401C241.13 44.7401 241.99 45.4101 242.77 46.1001C241.79 45.7901 240.77 45.6301 239.72 45.6301C236.4 45.6301 233.03 47.1801 230.69 49.7801C228.9 51.7701 227.96 54.1101 228.02 56.4201L227.89 56.0401Z" fill="#F3F4F4"/>
<path d="M230.61 31.46C231.4 31.46 232.08 31.68 232.43 32.04C232.61 32.23 232.7 32.47 232.69 32.73C232.46 38.08 236.56 41.28 240.19 44.1C240.96 44.7 241.7 45.27 242.38 45.86C241.53 45.63 240.64 45.52 239.74 45.52C236.4 45.52 232.99 47.08 230.63 49.7C228.95 51.56 228.02 53.73 227.94 55.9C226.84 53.14 224.84 48.14 223.62 46.52C220.36 42.22 215.59 39.12 209.04 37.04C208.55 36.88 207.77 36.49 208.04 35.58C208.18 35.11 208.74 34.72 209.28 34.72C209.54 34.72 209.78 34.81 209.98 34.98C211.3 36.08 212.81 36.66 214.37 36.66C215.68 36.66 216.99 36.25 218.09 35.5C218.3 37.24 219.12 37.32 219.79 37.38C219.9 37.39 220.01 37.4 220.11 37.42C220.62 37.51 221.77 37.58 222.79 37.58C223.47 37.58 224.04 37.55 224.48 37.5C226.44 37.25 227.59 35.98 227.67 34.92C227.76 33.63 228.14 32.01 229.44 31.62C229.8 31.52 230.2 31.46 230.61 31.46ZM230.61 31.27C230.19 31.27 229.76 31.33 229.37 31.45C227.84 31.91 227.53 33.92 227.46 34.92C227.38 35.93 226.25 37.08 224.44 37.32C223.98 37.38 223.39 37.4 222.78 37.4C221.71 37.4 220.6 37.33 220.14 37.24C219.4 37.1 218.41 37.39 218.25 35.15C217.2 35.95 215.84 36.48 214.36 36.48C212.97 36.48 211.49 36.01 210.1 34.85C209.84 34.64 209.55 34.55 209.27 34.55C208.62 34.55 207.99 35.02 207.84 35.55C207.61 36.32 208.01 36.94 208.97 37.25C215.3 39.25 220.1 42.22 223.46 46.66C224.85 48.49 227.29 54.85 228.18 57.04C227.57 51.21 233.55 45.73 239.74 45.73C240.91 45.73 242.08 45.92 243.22 46.35C239.26 42.71 232.6 39.5 232.89 32.76C232.94 31.76 231.82 31.27 230.61 31.27Z" fill="black"/>
<path d="M186.94 41.8901C185.16 41.1801 183.61 39.7901 182.22 37.6601C179.47 33.4301 178.99 25.8001 183.52 19.9801C187.98 14.2401 196.1 11.3201 207.65 11.3201C208.55 11.3201 209.48 11.3401 210.43 11.3701C226.42 11.9801 241.91 23.8601 244.97 37.8501C245.22 39.0001 244.92 39.5701 244.58 39.7101C244.49 39.7501 244.4 39.7601 244.31 39.7601C243.91 39.7601 243.53 39.4501 243.24 38.8801C240.41 33.4501 234.87 29.7201 231.46 29.6401C231.2 29.6001 230.91 29.5801 230.62 29.5801C230.04 29.5801 229.45 29.6701 228.91 29.8301C227.89 30.1301 226.15 31.1501 225.83 34.5901C225.67 34.9101 225.43 35.1801 225.08 35.4001C224.83 35.5201 224.56 35.5901 224.25 35.6401C223.89 35.6901 223.4 35.7101 222.8 35.7101C221.71 35.7101 220.75 35.6301 220.45 35.5701C220.19 35.3901 220.01 35.1501 219.91 34.8401C219.9 34.7601 219.87 34.6701 219.84 34.5801C219.78 34.2701 219.79 33.8801 219.88 33.4501C220.05 32.5701 219.72 31.0201 218.62 29.5601C217.65 28.2701 215.78 26.6501 212.38 26.3201C211.79 26.2601 211.23 26.2301 210.68 26.2301C206 26.2301 202.3 28.3501 201.69 31.3801C201.35 33.0501 200.67 33.2201 200.02 33.3801C199.81 33.4301 199.61 33.4501 199.38 33.4501C198.57 33.4501 197.45 33.2001 196.88 32.6601C196.19 32.0001 195.86 31.1001 196 30.2401C196.15 29.3401 196.43 28.9101 196.66 28.5601C196.88 28.2201 197.07 27.9201 197.02 27.3401C196.97 26.7101 196.48 26.2501 195.87 26.2501C195.51 26.2501 195.15 26.4101 194.82 26.7001C194.77 26.7501 193.81 27.8401 194.19 29.8101C193.76 29.6601 193.44 29.3901 193.23 29.0201C192.94 28.4801 192.9 27.7301 193.13 27.0001L193.24 26.6601L192.97 26.8901C192.31 27.4601 191.89 29.0301 192.02 30.4001C192.09 31.1201 192.31 31.6901 192.65 32.0601C191.63 31.7401 191.08 30.7101 191.01 29.0001L191 28.6601L190.83 28.9601C190.19 30.0701 190.07 31.7101 190.53 33.0401C190.77 33.7401 191.15 34.2701 191.63 34.6001C189.84 34.2701 189.22 32.0901 188.95 31.1201L188.87 30.8201L188.73 30.9701C188.12 32.6901 188.62 36.4101 190.84 37.6001C190.81 37.6001 190.78 37.6001 190.76 37.6001C188.64 37.6001 187.2 34.9901 186.85 33.1301L186.8 32.8501L186.67 33.1001C186.11 34.1801 186.12 35.7601 186.68 37.1201C187.22 38.4101 188.22 39.3901 189.52 39.9101C189.44 39.9101 189.35 39.9201 189.27 39.9201C187.51 39.9201 185.26 38.8401 184.24 35.8101L184.05 35.8301C183.9 36.7501 183.83 39.7701 186.94 41.8901Z" fill="#F3F4F4"/>
<path d="M207.65 11.22V11.42C208.55 11.42 209.47 11.44 210.42 11.47C226.37 12.08 241.82 23.92 244.87 37.87C245.1 38.9 244.87 39.48 244.54 39.62C244.46 39.65 244.38 39.67 244.3 39.67C243.94 39.67 243.59 39.38 243.31 38.84C240.47 33.38 234.88 29.62 231.48 29.55C231.19 29.51 230.89 29.49 230.61 29.49C230.02 29.49 229.42 29.58 228.87 29.74C227.83 30.04 226.04 31.08 225.73 34.52C225.57 34.85 225.34 35.11 225.03 35.31C224.78 35.43 224.52 35.5 224.22 35.54C223.87 35.58 223.38 35.61 222.78 35.61C221.75 35.61 220.85 35.54 220.46 35.48C220.24 35.3 220.08 35.08 219.99 34.85C219.97 34.75 219.95 34.65 219.92 34.58C219.86 34.27 219.87 33.89 219.96 33.47C220.13 32.57 219.8 30.99 218.68 29.5C217.7 28.19 215.81 26.56 212.37 26.22C211.79 26.16 211.22 26.13 210.66 26.13C205.93 26.13 202.19 28.28 201.57 31.36C201.24 32.97 200.63 33.12 199.91 33.3C199.77 33.34 199.58 33.36 199.35 33.36C198.56 33.36 197.47 33.12 196.91 32.59C196.25 31.97 195.93 31.07 196.06 30.25C196.21 29.37 196.47 28.97 196.7 28.61C196.93 28.25 197.13 27.94 197.08 27.32C197.02 26.64 196.5 26.14 195.83 26.14C195.44 26.14 195.06 26.3 194.7 26.63C194.66 26.68 193.72 27.73 194.03 29.65C193.7 29.5 193.45 29.27 193.29 28.97C193.01 28.46 192.98 27.73 193.2 27.03L193.41 26.36L192.88 26.82C192.2 27.4 191.76 29.02 191.89 30.41C191.95 30.98 192.09 31.46 192.32 31.82C191.56 31.4 191.14 30.45 191.08 28.99L191.05 28.3L190.71 28.9C190.06 30.04 189.93 31.71 190.4 33.06C190.59 33.62 190.87 34.07 191.22 34.41C189.81 33.9 189.26 31.98 189.01 31.08L188.97 30.93L188.8 30.34L188.6 30.92C188.02 32.58 188.45 36.08 190.43 37.46C188.53 37.24 187.23 34.83 186.91 33.09L186.8 32.52L186.54 33.03C185.97 34.14 185.97 35.75 186.55 37.13C187.04 38.31 187.9 39.23 189.02 39.79C187.32 39.71 185.25 38.62 184.28 35.75L183.89 35.79C183.79 36.65 183.72 39.31 186.14 41.4C184.71 40.63 183.44 39.37 182.28 37.59C179.55 33.39 179.07 25.8 183.58 20.02C188.02 14.3 196.12 11.4 207.63 11.4V11.22H207.65ZM207.65 11.22C194.92 11.22 187.42 14.79 183.44 19.91C179.15 25.41 179.15 33.13 182.14 37.71C183.83 40.3 185.71 41.7 187.73 42.25C184.46 40.46 183.91 37.61 184.11 35.82C185.1 38.74 187.29 39.99 189.24 39.99C189.47 39.99 189.71 39.97 189.93 39.93C186.44 38.84 185.76 35 186.73 33.12C187.1 35.1 188.59 37.67 190.73 37.67C190.88 37.67 191.03 37.66 191.19 37.63C188.81 36.7 188.16 32.79 188.8 30.97C189.08 31.93 189.76 34.71 191.97 34.71C192.01 34.71 192.04 34.71 192.08 34.71C190.24 33.98 189.86 30.77 190.89 28.98C190.96 30.64 191.49 32.02 193.01 32.22C191.55 31.38 191.98 27.84 193.01 26.95C192.66 28.04 192.82 29.54 194.29 29.93C193.83 27.87 194.85 26.75 194.85 26.75C195.17 26.46 195.52 26.33 195.83 26.33C196.38 26.33 196.83 26.74 196.88 27.33C196.98 28.45 196.17 28.39 195.86 30.21C195.71 31.12 196.07 32.06 196.77 32.72C197.38 33.3 198.53 33.54 199.34 33.54C199.58 33.54 199.79 33.52 199.95 33.48C200.63 33.31 201.39 33.17 201.75 31.39C202.31 28.62 205.63 26.32 210.64 26.32C211.18 26.32 211.75 26.35 212.33 26.4C218.27 26.98 220.08 31.62 219.74 33.42C219.65 33.9 219.65 34.29 219.7 34.61C219.73 34.7 219.75 34.78 219.77 34.87C219.9 35.24 220.11 35.49 220.35 35.67C220.37 35.67 220.37 35.68 220.39 35.68C220.69 35.73 221.65 35.81 222.76 35.81C223.36 35.81 223.86 35.79 224.22 35.74C224.58 35.69 224.86 35.6 225.09 35.49C225.49 35.24 225.73 34.94 225.89 34.61C226.21 31.23 227.91 30.23 228.9 29.93C229.43 29.77 230.01 29.69 230.59 29.69C230.88 29.69 231.16 29.71 231.43 29.75C234.8 29.83 240.34 33.6 243.12 38.94C243.47 39.62 243.9 39.87 244.28 39.87C244.39 39.87 244.49 39.85 244.59 39.81C245.03 39.64 245.29 38.97 245.04 37.84C241.91 23.52 226.1 11.89 210.41 11.29C209.48 11.24 208.55 11.22 207.65 11.22Z" fill="black"/>
<path d="M212.47 85.24C212.34 85.24 212.26 85.2 212.21 85.1C212.14 84.97 212.17 84.84 212.21 84.76C212.29 84.58 212.47 84.44 212.69 84.39C215.37 83.72 220.44 80.66 223.45 74.95C225.5 71.07 227.25 64.59 223.97 55.79C221.72 49.75 215.82 43.08 207.73 41.79C205.92 41.51 204.36 40.48 203.34 38.91C202.34 37.38 201.97 35.46 202.38 33.91C203.27 30.47 205.72 28.53 209.64 28.13C210.24 28.07 210.79 28.04 211.3 28.04C213.93 28.04 215.66 28.74 217.09 30.36C217.89 31.28 218.21 32.75 217.78 33.57C217.35 34.38 216.33 34.8 214.77 34.8L214.38 34.79C213.17 34.73 212.12 34.32 211.19 33.54C210.65 33.09 209.99 32.85 209.29 32.85C207.93 32.85 206.62 33.8 206.25 35.06C205.84 36.46 206.38 38.17 208.49 38.84C212.32 40.05 215.45 41.6 218.03 43.57C219.18 44.46 220.24 45.44 221.19 46.5C221.52 46.88 221.84 47.27 222.15 47.67C223.64 49.64 224.91 52.06 225.83 54.68C225.88 54.85 225.94 55.02 225.98 55.19C231.31 74.42 220.4 83.05 213.11 85.11C212.83 85.18 212.64 85.24 212.47 85.24Z" fill="#F3F4F4"/>
<path d="M211.3 28.1399C213.9 28.1399 215.61 28.8199 217.01 30.4299C217.79 31.3199 218.1 32.7399 217.69 33.5299C217.27 34.3099 216.29 34.6999 214.76 34.6999C214.63 34.6999 214.51 34.6999 214.37 34.6899C213.18 34.6399 212.15 34.2399 211.23 33.4699C210.67 32.9999 209.99 32.7499 209.27 32.7499C207.86 32.7499 206.52 33.7299 206.14 35.0299C205.72 36.4799 206.26 38.2399 208.44 38.9299C212.26 40.1399 215.38 41.6799 217.95 43.6399C219.09 44.5199 220.15 45.5099 221.1 46.5599C221.43 46.9399 221.75 47.3299 222.06 47.7199C223.54 49.6799 224.81 52.0999 225.73 54.6999C225.79 54.8699 225.84 55.0399 225.88 55.2099C231.19 74.3699 220.33 82.9599 213.08 85.0099L212.99 85.0399C212.82 85.0899 212.63 85.1499 212.48 85.1499C212.36 85.1499 212.33 85.1099 212.31 85.0699C212.26 84.9699 212.28 84.8799 212.31 84.8099C212.38 84.6599 212.53 84.5399 212.72 84.4999C215.41 83.8299 220.52 80.7499 223.55 75.0099C225.61 71.1099 227.37 64.5999 224.08 55.7699C221.82 49.6999 215.89 42.9999 207.76 41.7099C205.98 41.4299 204.44 40.4199 203.44 38.8799C202.45 37.3699 202.09 35.4799 202.49 33.9599C203.37 30.5699 205.79 28.6399 209.67 28.2499C210.24 28.1699 210.79 28.1399 211.3 28.1399ZM211.3 27.9399C210.79 27.9399 210.23 27.9699 209.63 28.0299C205.21 28.4799 203.06 30.8699 202.28 33.8899C201.49 36.8999 203.52 41.2299 207.71 41.8899C215.23 43.0799 221.4 49.1899 223.88 55.8299C230.31 73.0899 218.11 82.9499 212.66 84.2999C212.22 84.4099 211.95 84.8199 212.12 85.1499C212.2 85.2899 212.32 85.3399 212.47 85.3399C212.68 85.3399 212.92 85.2499 213.12 85.1999C218.64 83.6399 231.87 76.1399 226.06 55.1599C226.01 54.9899 225.96 54.8099 225.91 54.6399C225 52.0499 223.74 49.6299 222.21 47.5999C221.9 47.1999 221.58 46.8099 221.25 46.4299C220.33 45.4099 219.28 44.4199 218.08 43.4899C215.5 41.5199 212.33 39.9599 208.51 38.7499C206.46 38.1099 205.94 36.4499 206.34 35.0899C206.7 33.8699 207.96 32.9499 209.28 32.9499C209.95 32.9499 210.59 33.1799 211.12 33.6199C212.13 34.4599 213.22 34.8399 214.38 34.8899C214.52 34.8999 214.65 34.8999 214.78 34.8999C216.49 34.8999 217.46 34.4099 217.88 33.6199C218.33 32.7699 218.03 31.2699 217.18 30.2999C215.82 28.7699 214.16 27.9399 211.3 27.9399Z" fill="black"/>
<path d="M227.55 94.6399C228.14 86.0099 235.45 82.5099 240.78 79.9499C243.18 78.7999 245.26 77.8099 246.19 76.5999C247.21 77.0699 247.18 78.58 247.18 78.58L247.17 78.9599L247.36 78.65C247.39 78.6 248.08 77.4799 247.82 75.5899C248.34 76.1399 248.86 76.8899 248.7 78.5899L248.67 78.87L248.87 78.6699C249.36 78.1699 250.41 76.33 249.65 73.66C251.46 75.47 251.51 77.25 251.37 78.44L251.33 78.76L251.54 78.5199C252.62 77.2799 252.69 73.94 251.18 70.76C253.1 72.8 253.86 76.4299 253.46 78.9599L253.65 79C254.35 76.31 253.84 72.12 252.29 67.65C254.51 71.23 255.83 74.34 256.36 79.51H256.56C256.95 74.79 255.25 68.34 253.17 63.95C257.69 71.38 259.08 81.3399 258.86 86.3499C257.81 85.5099 256.64 84.77 255.37 84.16C251.56 82.31 249.27 81.9599 246.37 81.9599H246.02C239.35 82.0099 230.68 86.52 227.55 94.79C227.55 94.78 227.55 94.6899 227.55 94.6399Z" fill="#F3F4F4"/>
<path d="M254.06 65.74C257.74 72.8 258.92 81.48 258.77 86.15C257.75 85.35 256.63 84.65 255.42 84.06C251.6 82.2 249.29 81.85 246.38 81.85H246.03C239.48 81.9 231.02 86.22 227.7 94.17C228.52 85.94 235.62 82.54 240.83 80.05C243.16 78.93 245.19 77.96 246.17 76.8C247.1 77.28 247.08 78.59 247.08 78.61L247.06 79.33L247.44 78.72C247.47 78.67 248.1 77.64 247.95 75.9C248.36 76.39 248.74 77.13 248.6 78.6L248.55 79.15L248.94 78.75C249.42 78.26 250.42 76.53 249.84 74.01C251.37 75.7 251.4 77.32 251.27 78.44L251.2 79.07L251.62 78.59C252.76 77.28 252.68 74.16 251.54 71.35C253.12 73.42 253.72 76.65 253.36 78.96L253.75 79.04C254.41 76.5 254.01 72.64 252.67 68.47C254.61 71.74 255.77 74.75 256.27 79.53H256.66C257.01 75.26 255.75 69.91 254.06 65.74ZM252.19 62.27C254.69 66.62 256.9 74.15 256.46 79.49C255.87 73.75 254.26 70.52 251.89 66.82C253.91 72.21 254.2 76.52 253.56 78.97C254 76.19 253.07 72.23 250.83 70.28C252.53 73.46 252.62 77.11 251.46 78.45C251.64 76.87 251.36 75.08 249.43 73.32C250.36 76.08 249.35 78.03 248.79 78.6C248.99 76.52 248.17 75.81 247.66 75.3C248.04 77.37 247.26 78.6 247.26 78.6C247.26 78.6 247.31 77.02 246.1 76.54C243.14 80.38 228.3 82.06 227.44 94.63C227.44 94.89 227.46 95.05 227.51 95.15C230.46 86.85 239.21 82.08 246.02 82.03C246.14 82.03 246.25 82.03 246.37 82.03C249.16 82.03 251.42 82.32 255.32 84.22C256.66 84.87 257.87 85.64 258.94 86.53C259.26 80.61 257.34 69.51 252.19 62.27Z" fill="black"/>
<path d="M224.18 146.8C220.77 146.8 219.38 144.35 219.23 144.07C218.86 143.38 218.14 141.53 219.34 139.41L219.45 139.21L219.23 139.27C218.74 139.39 218.26 139.46 217.8 139.46C215.74 139.46 214.25 138.17 213.54 136.96C213.06 136.14 212.45 133.53 213.83 131.98L214.02 131.77L213.74 131.82C213.33 131.89 212.94 131.92 212.56 131.92C210.69 131.92 209.33 131.07 208.42 129.32C207.69 127.92 207.5 125.69 209.16 123.63C209.49 123.22 210.32 122.68 211.37 121.99C214.41 120.01 219.5 116.69 222.67 110.34C223.12 109.43 223.5 108.33 222.67 107.55C222.73 107.56 222.79 107.56 222.84 107.56C223.44 107.56 223.74 107.2 223.76 107.18C223.71 107.03 222.61 106.66 222.13 105.65C222.52 105.92 222.9 106.06 223.27 106.06C223.93 106.06 224.32 105.64 224.34 105.62L224.46 105.49L224.29 105.45C224.27 105.45 222.6 105.05 222.08 103.78C222.45 103.9 222.8 103.96 223.14 103.96C224.23 103.96 224.75 103.35 224.77 103.32L224.89 103.17L224.7 103.16C224.68 103.16 222.88 103.02 222.25 101.46C222.63 101.62 223 101.71 223.37 101.71C224.59 101.71 225.31 100.8 225.34 100.76L225.51 100.54L225.24 100.6C225.24 100.6 225.01 100.65 224.69 100.65C223.95 100.65 222.7 100.39 222.21 98.7C222.68 99.2 223.27 99.46 223.97 99.46C224.87 99.46 225.61 99.04 225.64 99.02L225.85 98.9L225.61 98.84C225.6 98.84 224.15 98.46 223.54 97.32C223.23 96.75 223.18 96.08 223.38 95.32C223.81 96.79 224.77 97.62 226.03 97.62C226.2 97.62 226.38 97.6 226.58 97.57C228.35 97.27 229.13 95.92 230.2 94.06L230.57 93.4C233.89 87.71 240.24 83.73 246.01 83.73C250.18 83.73 258.87 85.73 261.94 93.3C258.81 94.63 256.46 97.66 255.32 100C254.5 101.67 252.59 105.57 255.32 110.24C255.31 111.27 250.67 123.21 246.27 129.5C242.64 134.7 233.18 146.8 224.18 146.8Z" fill="#F3F4F4"/>
<path d="M246.03 83.8299C250.14 83.8299 258.69 85.7899 261.79 93.1599C258.68 94.6599 256.37 97.6399 255.25 99.9499C254.43 101.62 252.52 105.54 255.23 110.23C255.1 111.42 250.72 123 246.21 129.43C242.57 134.62 233.14 146.69 224.19 146.69C220.84 146.69 219.47 144.28 219.33 144.01C218.88 143.17 218.31 141.45 219.44 139.44L219.67 139.04L219.22 139.15C218.74 139.27 218.27 139.33 217.82 139.33C215.8 139.33 214.34 138.06 213.65 136.88C213.18 136.07 212.59 133.53 213.93 132.01L214.3 131.59L213.75 131.68C213.33 131.75 212.95 131.78 212.58 131.78C210.75 131.78 209.42 130.94 208.52 129.23C207.8 127.86 207.62 125.67 209.26 123.65C209.58 123.25 210.41 122.71 211.45 122.04C214.5 120.05 219.6 116.73 222.79 110.35C223.08 109.77 223.69 108.55 222.94 107.63C223.54 107.6 223.86 107.23 223.87 107.21L224.05 106.99L223.77 106.9C223.76 106.9 222.95 106.63 222.44 105.9C222.73 106.05 223.02 106.12 223.3 106.12C224 106.12 224.43 105.67 224.44 105.65L224.67 105.4L224.34 105.32C224.32 105.32 222.88 104.98 222.29 103.91C222.59 103.99 222.88 104.03 223.17 104.03C224.31 104.03 224.86 103.38 224.88 103.35L225.13 103.05L224.74 103.02C224.67 103.01 223.15 102.9 222.47 101.6C222.78 101.71 223.09 101.77 223.39 101.77C224.66 101.77 225.41 100.83 225.44 100.78L225.78 100.34L225.24 100.46C225.24 100.46 225.02 100.51 224.71 100.51C224.06 100.51 222.99 100.29 222.45 98.9999C222.88 99.3399 223.4 99.5199 223.99 99.5199C224.91 99.5199 225.68 99.0899 225.71 99.0699L226.13 98.8299L225.66 98.7099C225.64 98.6999 224.24 98.3399 223.65 97.2299C223.4 96.7699 223.33 96.2399 223.43 95.6499C223.92 96.9499 224.85 97.6799 226.06 97.6799C226.24 97.6799 226.43 97.6699 226.62 97.6299C228.44 97.3299 229.22 95.9599 230.31 94.0699L230.46 93.8199C230.5 93.7499 230.53 93.6899 230.56 93.6299L230.62 93.5199L230.68 93.4099C233.97 87.7899 240.28 83.8299 246.03 83.8299ZM246.03 83.6399C240.35 83.6399 233.94 87.4599 230.5 93.3599C230.46 93.4299 230.42 93.4999 230.38 93.5699C230.35 93.6299 230.31 93.6899 230.28 93.7599C229.13 95.7499 228.39 97.1699 226.59 97.4799C226.4 97.5099 226.23 97.5199 226.06 97.5199C224.59 97.5199 223.74 96.3899 223.42 94.9599C222.3 98.1099 225.61 98.9399 225.61 98.9399C225.61 98.9399 224.87 99.3699 223.99 99.3699C223.33 99.3699 222.6 99.1299 222.03 98.2999C222.43 100.44 223.88 100.76 224.71 100.76C225.05 100.76 225.28 100.71 225.28 100.71C225.28 100.71 224.58 101.62 223.39 101.62C223.01 101.62 222.58 101.53 222.1 101.27C222.67 103.13 224.72 103.26 224.72 103.26C224.72 103.26 224.22 103.86 223.16 103.86C222.81 103.86 222.41 103.79 221.94 103.62C222.4 105.11 224.3 105.54 224.3 105.54C224.3 105.54 223.92 105.95 223.3 105.95C222.93 105.95 222.47 105.81 221.94 105.35C222.33 106.68 223.71 107.12 223.71 107.12C223.71 107.12 223.43 107.47 222.87 107.47C222.68 107.47 222.46 107.43 222.22 107.33C223.53 108.08 223.11 109.29 222.61 110.3C218.3 118.91 210.4 121.97 209.1 123.57C207.38 125.7 207.61 127.95 208.34 129.37C209.32 131.26 210.79 132.03 212.57 132.03C212.96 132.03 213.36 131.99 213.77 131.92C212.36 133.52 212.98 136.17 213.47 137.02C214.06 138.02 215.5 139.57 217.81 139.57C218.26 139.57 218.74 139.51 219.26 139.38C218.02 141.58 218.79 143.46 219.15 144.13C219.66 145.09 221.24 146.91 224.19 146.91C232.85 146.91 241.9 135.94 246.38 129.57C250.85 123.19 255.44 111.25 255.44 110.21C252.83 105.75 254.48 102.03 255.44 100.06C256.4 98.0899 258.66 94.8399 262.06 93.2799C259.04 85.8399 250.67 83.6399 246.03 83.6399Z" fill="black"/>
<path d="M226.3 96.4201C224.95 95.0601 224.73 93.8601 224.53 92.7001C224.31 91.5001 224.11 90.3701 222.67 89.2201C221.51 88.2901 220.53 88.1201 219.39 87.9301C218.06 87.7001 216.56 87.4401 214.31 85.8801C224.72 82.1601 230.6 76.7201 231.78 69.7201C232.39 66.1101 231.76 64.3501 231.08 62.4901C230.57 61.0801 230.04 59.6201 229.97 57.2201C229.91 55.1401 230.8 53.0401 232.49 51.3001C234.57 49.1601 237.62 47.8301 240.44 47.8301C241.89 47.8301 243.22 48.1601 244.39 48.8201C248.51 51.1401 251.01 55.3701 251.25 60.4401C251.54 66.5001 248.52 72.4901 243.38 76.0701C241.68 77.2501 239.76 78.2401 237.91 79.1901C235.38 80.4901 232.76 81.8401 230.69 83.6801C227.22 86.7701 225.82 90.8201 226.3 96.4201Z" fill="#F3F4F4"/>
<path d="M240.45 47.93C241.88 47.93 243.19 48.26 244.35 48.91C248.44 51.21 250.92 55.42 251.16 60.45C251.45 66.47 248.45 72.43 243.34 75.99C241.65 77.16 239.73 78.15 237.88 79.1C235.34 80.4 232.72 81.75 230.64 83.6C227.19 86.66 225.77 90.66 226.18 96.15C225.02 94.89 224.82 93.77 224.63 92.68C224.41 91.46 224.2 90.31 222.74 89.14C221.56 88.2 220.56 88.03 219.42 87.83C218.13 87.61 216.68 87.35 214.54 85.9C224.87 82.17 230.71 76.73 231.9 69.73C232.51 66.1 231.88 64.33 231.2 62.46C230.69 61.05 230.17 59.6 230.1 57.22C230.04 55.17 230.92 53.09 232.59 51.38C234.63 49.25 237.65 47.93 240.45 47.93ZM240.45 47.73C235.25 47.73 229.72 52.07 229.88 57.22C230.05 62.85 232.74 63.43 231.68 69.69C230.43 77.05 224.07 82.3 214.09 85.83C218.38 88.89 220.07 87.27 222.6 89.28C225.45 91.56 223.36 93.77 226.42 96.67C225.8 90.19 227.76 86.41 230.76 83.74C234.34 80.55 239.43 78.93 243.45 76.14C253.59 69.08 254.09 54.16 244.45 48.73C243.21 48.04 241.85 47.73 240.45 47.73Z" fill="black"/>
<path d="M226.43 76.45C228.67 72.35 229.55 67.5 229.04 62.01C229.16 62.37 229.28 62.71 229.4 63.04L229.52 63.36C230.11 64.99 230.59 66.28 230.22 69.34C229.84 72.41 228.08 74.73 226.43 76.45Z" fill="#F3F4F4"/>
<path d="M229.2 62.78C229.24 62.9 229.28 63.01 229.32 63.13L229.42 63.39C230.01 65.01 230.48 66.29 230.11 69.33C229.78 72.07 228.34 74.2 226.86 75.85C228.76 72.07 229.54 67.69 229.2 62.78ZM228.83 60.96C229.59 67.17 228.64 72.56 225.97 77.06C228.05 75 229.92 72.6 230.31 69.36C230.7 66.11 230.15 64.83 229.51 63.07C229.29 62.42 229.04 61.74 228.83 60.96Z" fill="black"/>
<path d="M180.05 167.89C180.86 156.22 189.24 150.57 192.84 148.14L192.74 147.97C188.8 149.91 182.04 154.38 180.03 162.83C180.3 151.49 185.25 145.63 190.57 141L190.45 140.84C185.16 144.23 181.54 149.25 180.12 155.08C181.67 138.02 194.53 128.1 206.4 124.41C204.79 126.62 205.17 129.35 205.82 130.59C206.76 132.39 208.23 133.3 210.17 133.3C210.48 133.3 210.81 133.28 211.14 133.23C209.83 134.96 210.57 137.52 210.99 138.25C211.79 139.61 213.52 141.19 215.78 141.19C216.14 141.19 216.51 141.15 216.89 141.07C216.07 142.61 216.01 144.05 216.69 145.36C217.12 146.17 218.97 148.43 221.89 148.61C218.33 150.47 213.54 151.37 208.46 152.33C197.98 154.29 186.1 156.52 180.05 167.89Z" fill="#F3F4F4"/>
<path d="M206.17 124.59C204.88 126.58 204.95 129.12 205.74 130.64C206.7 132.47 208.19 133.4 210.17 133.4C210.41 133.4 210.67 133.39 210.93 133.36C209.86 135 210.36 137.37 210.9 138.3C211.71 139.68 213.48 141.29 215.78 141.29C216.08 141.29 216.4 141.26 216.71 141.21C215.97 142.71 215.93 144.12 216.61 145.41C217.03 146.2 218.78 148.35 221.55 148.68C218.04 150.43 213.37 151.31 208.46 152.23C198.07 154.18 186.33 156.39 180.19 167.44C181.19 156.13 189.36 150.62 192.9 148.22L192.7 147.88C188.88 149.76 182.43 154.01 180.17 161.94C180.67 151.22 185.48 145.57 190.65 141.07L190.41 140.75C185.47 143.92 181.97 148.5 180.36 153.84C182.38 137.72 194.7 128.23 206.17 124.59ZM206.68 124.22C195.22 127.68 180.89 137.9 179.92 156.51C181.11 149.78 185.12 144.37 190.51 140.91C183.93 146.63 179.92 152.86 179.92 163.81C181.45 155.64 187.49 150.65 192.79 148.04C188.41 151 180.53 156.75 179.92 168.33C188.86 150.82 211.46 154.47 222.27 148.5C219.31 148.5 217.3 146.26 216.79 145.29C216.43 144.61 215.84 143.11 217.09 140.9C216.63 141.02 216.2 141.07 215.79 141.07C213.33 141.07 211.68 139.2 211.08 138.18C210.58 137.33 209.96 134.68 211.38 133.08C210.96 133.15 210.56 133.18 210.17 133.18C208.38 133.18 206.9 132.41 205.91 130.52C205.18 129.13 204.95 126.35 206.68 124.22Z" fill="black"/>
<path d="M180.59 130.47C180.17 130.47 180.07 130.32 180.04 130.17C180.01 130.07 180.03 129.97 180.09 129.88C180.19 129.72 180.47 129.5 181.21 129.37C191.27 127.58 195.84 126.04 201.61 122.48C208.87 117.99 210.9 112.28 211 111.34C211.06 110.8 210.47 110.27 210.01 109.85C209.85 109.71 209.72 109.58 209.62 109.47C209.28 109.08 209.31 108.28 209.68 107.96C209.99 107.69 210.27 107.56 210.53 107.56C210.63 107.56 210.73 107.58 210.83 107.63C210.98 107.71 211.15 107.81 211.32 107.92C211.63 108.12 211.91 108.29 212.08 108.29H212.14L212.26 108.19C213.3 106.32 213.34 104.39 213.27 102.25C213.21 100.05 212.59 98.95 211.13 98.48C210.44 98.26 209.8 97.63 209.91 96.88C209.95 96.57 210.32 96.11 210.86 96.11C211.04 96.11 211.23 96.16 211.42 96.26L211.75 96.44C212.11 96.64 212.39 96.79 212.73 96.79C212.88 96.79 213.04 96.76 213.22 96.69C212.98 95.62 212.24 94.57 210.97 93.27C210.45 92.73 209.95 91.48 210.05 90.22C210.11 89.54 210.37 88.59 211.3 87.9C211.84 87.5 212.45 87.3 213.11 87.3C214.77 87.3 216.51 88.6 217.35 90.47C217.51 90.83 218.02 92.23 217.75 95.47C218 95.61 218.15 95.63 218.28 95.63C218.81 95.63 218.97 95.32 219.19 94.88C219.34 94.58 219.53 94.21 219.9 93.8C220.1 93.58 220.37 93.45 220.63 93.45C220.78 93.45 220.91 93.49 221.01 93.58C221.28 93.8 221.4 94.52 221.16 94.9C221.09 95.02 221.06 95.05 221.05 95.07C221.02 95.09 221 95.1 220.74 95.5C220.68 95.59 220.61 95.68 220.54 95.78C220.22 96.2 219.78 96.77 219.78 97.8C219.78 97.89 219.8 98.07 219.82 98.33C219.99 99.98 220.5 105 218.2 108.35L218.07 108.54L218.29 108.51C218.52 108.48 218.73 108.29 218.96 108.09C219.17 107.91 219.39 107.71 219.64 107.62C219.74 107.58 219.83 107.57 219.92 107.57C220.32 107.57 220.68 107.9 220.79 108.37C220.93 108.94 220.83 109.78 220.09 110.29C219.82 110.48 219.53 110.63 219.27 110.76C218.78 111.02 218.31 111.26 218.07 111.71C214.7 117.93 210.29 120.25 202.12 124.13C196.47 126.82 191.01 128.46 181.23 130.4C180.98 130.45 180.76 130.47 180.59 130.47Z" fill="#F3F4F4"/>
<path d="M213.1 87.1899V87.3899C214.72 87.3899 216.43 88.6699 217.25 90.4999C217.58 91.2199 217.85 92.8999 217.64 95.4499L217.63 95.6199L217.8 95.6599C217.98 95.6999 218.14 95.7199 218.28 95.7199C218.87 95.7199 219.06 95.3399 219.28 94.9099C219.43 94.6199 219.62 94.2499 219.98 93.8499C220.16 93.6499 220.41 93.5299 220.64 93.5299C220.77 93.5299 220.88 93.5699 220.96 93.6299C221.19 93.8199 221.3 94.4999 221.09 94.8199C221.03 94.9099 221.01 94.9499 221.01 94.9499C220.95 94.9799 220.93 94.9999 220.66 95.4199C220.6 95.5099 220.54 95.5899 220.46 95.6899C220.13 96.1199 219.68 96.7099 219.68 97.7699C219.68 97.8599 219.7 98.0399 219.73 98.3099C219.9 99.9499 220.41 104.95 218.13 108.27L217.88 108.64L218.32 108.58C218.58 108.54 218.8 108.35 219.04 108.14C219.24 107.96 219.46 107.78 219.69 107.69C219.77 107.66 219.86 107.64 219.94 107.64C220.35 107.64 220.63 108.02 220.72 108.37C220.85 108.91 220.76 109.71 220.06 110.19C219.79 110.38 219.52 110.52 219.25 110.66C218.74 110.92 218.27 111.17 218.01 111.65C214.66 117.85 210.25 120.16 202.11 124.03C196.47 126.71 191.01 128.35 181.24 130.29C180.98 130.34 180.77 130.37 180.6 130.37C180.23 130.37 180.17 130.25 180.14 130.14C180.12 130.07 180.13 130 180.18 129.93C180.25 129.81 180.49 129.6 181.24 129.46C191.31 127.67 195.9 126.12 201.67 122.56C208.96 118.05 211 112.29 211.1 111.35C211.16 110.76 210.56 110.21 210.08 109.77C209.93 109.63 209.79 109.51 209.7 109.4C209.37 109.02 209.45 108.29 209.75 108.03C210.04 107.78 210.3 107.65 210.53 107.65C210.62 107.65 210.7 107.67 210.78 107.71C210.93 107.79 211.1 107.89 211.27 107.99C211.65 108.22 211.89 108.37 212.09 108.37C212.21 108.37 212.3 108.32 212.36 108.22C213.42 106.33 213.45 104.39 213.39 102.23C213.33 99.9799 212.69 98.8599 211.18 98.3699C210.53 98.1599 209.93 97.5799 210.03 96.8699C210.07 96.6299 210.38 96.1899 210.88 96.1899C211.04 96.1899 211.22 96.2399 211.4 96.3299C211.52 96.3899 211.62 96.4499 211.72 96.4999C212.08 96.6899 212.38 96.8599 212.75 96.8599C212.92 96.8599 213.09 96.8299 213.27 96.7599L213.44 96.6899L213.38 96.5099C213.08 95.5399 212.33 94.4799 211.05 93.1699C210.54 92.6399 210.06 91.4199 210.16 90.1999C210.22 89.5399 210.47 88.6199 211.37 87.9499C211.89 87.5599 212.48 87.3699 213.12 87.3699V87.1899H213.1ZM213.1 87.1899C212.45 87.1899 211.81 87.3799 211.23 87.8099C209.15 89.3499 209.96 92.3699 210.89 93.3199C212.02 94.4799 212.85 95.5599 213.18 96.5799C213.01 96.6499 212.87 96.6699 212.73 96.6699C212.31 96.6699 211.98 96.4199 211.47 96.1599C211.25 96.0499 211.05 95.9999 210.86 95.9999C210.25 95.9999 209.86 96.5099 209.81 96.8499C209.7 97.6599 210.37 98.3199 211.1 98.5599C212.6 99.0499 213.12 100.21 213.17 102.24C213.23 104.27 213.22 106.25 212.17 108.13C212.15 108.16 212.12 108.18 212.08 108.18C211.84 108.18 211.28 107.74 210.87 107.54C210.76 107.48 210.64 107.46 210.53 107.46C210.22 107.46 209.91 107.63 209.62 107.89C209.22 108.24 209.17 109.09 209.55 109.54C209.92 109.97 210.98 110.68 210.91 111.33C210.84 111.99 209.01 117.79 201.57 122.4C196.05 125.81 191.56 127.44 181.21 129.28C180.15 129.47 179.87 129.86 179.96 130.2C180.03 130.45 180.22 130.58 180.61 130.58C180.79 130.58 181.02 130.55 181.29 130.5C190.49 128.67 196.15 127.1 202.2 124.23C210.44 120.31 214.84 117.97 218.19 111.76C218.55 111.1 219.39 110.92 220.18 110.37C220.97 109.82 221.06 108.92 220.92 108.34C220.8 107.86 220.43 107.46 219.95 107.46C219.85 107.46 219.74 107.48 219.63 107.52C219.08 107.72 218.7 108.34 218.29 108.4C220.96 104.52 219.88 98.4599 219.88 97.7899C219.88 96.5399 220.54 95.9899 220.83 95.5399C221.27 94.8599 220.99 95.3499 221.25 94.9399C221.51 94.5299 221.39 93.7499 221.08 93.4899C220.96 93.3899 220.8 93.3399 220.63 93.3399C220.36 93.3399 220.06 93.4699 219.82 93.7199C218.91 94.7299 219.06 95.5199 218.27 95.5199C218.15 95.5199 218.01 95.4999 217.83 95.4599C218.06 92.7599 217.75 91.1199 217.43 90.4199C216.57 88.4999 214.8 87.1899 213.1 87.1899Z" fill="black"/>
<path d="M178.8 145.5C177.41 140.45 172.89 134.52 169.36 132.04C173.62 133.32 177.07 133.52 178.8 133.52C180.81 133.52 184.05 133.25 188.26 132.03C184.73 134.5 180.19 140.44 178.8 145.5Z" fill="#F3F4F4"/>
<path d="M187.75 132.27C184.36 134.86 180.23 140.35 178.8 145.14C177.37 140.36 173.26 134.89 169.87 132.29C173.89 133.44 177.14 133.62 178.8 133.62C180.74 133.62 183.8 133.37 187.75 132.27ZM188.88 131.74C184.46 133.1 181.05 133.42 178.8 133.42C176.55 133.42 172.96 133.1 168.72 131.74C172.5 134.05 177.5 140.62 178.8 145.9C180.1 140.62 185.1 134.05 188.88 131.74Z" fill="black"/>
<path d="M89.9899 112.04C87.4599 106.19 90.8399 99.31 95.5499 95.47C96.8799 96.31 98.9999 98.33 100.22 100.82C101.11 102.63 101.92 105.44 100.69 108.55C100.69 108.55 100.61 108.56 100.56 108.56C100.31 108.56 99.8399 108.41 99.4399 107.37C99.1699 106.69 98.0599 106.22 96.7199 106.22C94.2099 106.22 91.1499 107.76 89.9899 112.04Z" fill="#F3F4F4"/>
<path d="M95.5097 95.6299C96.5897 96.2899 98.7897 98.1199 100.14 100.86C101.02 102.64 101.81 105.4 100.63 108.45C100.61 108.45 100.59 108.45 100.57 108.45C100.39 108.45 99.9297 108.34 99.5397 107.32C99.2497 106.59 98.1297 106.11 96.7297 106.11C94.2297 106.11 91.2097 107.6 89.9797 111.73C87.6997 106.04 90.9497 99.4099 95.5097 95.6299ZM95.4897 95.3899C90.6397 99.3499 87.2397 106.36 90.0197 112.34C91.1397 107.78 94.3697 106.32 96.7297 106.32C98.0597 106.32 99.1097 106.78 99.3597 107.41C99.7797 108.49 100.3 108.66 100.58 108.66C100.71 108.66 100.79 108.62 100.79 108.62C101.91 105.8 101.44 103.04 100.33 100.77C99.0097 98.1299 96.7897 96.1299 95.4897 95.3899Z" fill="black"/>
<path d="M167.62 73.0299C164.5 73.0299 164.5 69.8699 164.5 67.3399C164.5 64.8099 164.5 61.6499 167.62 61.6499C170.67 61.6499 170.67 64.3999 170.67 67.2999C170.66 70.2499 170.66 73.0299 167.62 73.0299Z" fill="#F3F4F4"/>
<path d="M167.62 61.75C170.57 61.75 170.57 64.32 170.57 67.31C170.57 70.2 170.57 72.9401 167.62 72.9401C164.6 72.9401 164.6 69.97 164.6 67.35C164.6 64.72 164.6 61.75 167.62 61.75ZM167.62 61.55C164.4 61.55 164.4 64.77 164.4 67.34C164.4 69.91 164.4 73.13 167.62 73.13C170.76 73.13 170.76 70.22 170.76 67.31C170.76 64.39 170.76 61.55 167.62 61.55Z" fill="black"/>
<path d="M172.26 91.28C171.78 91.25 171.42 91.09 171.19 90.8C170.82 90.33 170.87 89.67 170.91 89.4C170.94 89.21 171.12 88.27 172.12 88.27C172.29 88.27 172.48 88.3 172.68 88.36C174.29 88.82 175.46 90.49 175.47 90.51C175.53 90.61 175.55 90.81 175.48 90.93C175.44 91 175.39 91.03 175.31 91.03C174.71 91.03 174.34 91.1 173.98 91.16C173.63 91.23 173.27 91.29 172.74 91.29C172.72 91.29 172.43 91.29 172.26 91.28Z" fill="#F3F4F4"/>
<path d="M172.11 88.3699C172.27 88.3699 172.45 88.3999 172.64 88.4499C174.22 88.8999 175.36 90.5399 175.37 90.5599C175.42 90.6399 175.43 90.7899 175.38 90.8799C175.36 90.9199 175.34 90.9299 175.24 90.9299C174.69 90.9299 174.32 90.9999 173.96 91.0699C173.6 91.1399 173.25 91.1999 172.73 91.1999C172.59 91.1999 172.44 91.1899 172.27 91.1799C171.82 91.1499 171.48 90.9999 171.27 90.7399C170.92 90.2999 170.97 89.6699 171.01 89.4199C171.03 89.2399 171.2 88.3699 172.11 88.3699ZM172.11 88.1699C171.25 88.1699 170.89 88.8599 170.81 89.3899C170.71 90.0199 170.77 91.2899 172.25 91.3799C172.42 91.3899 172.58 91.3999 172.72 91.3999C173.79 91.3999 174.17 91.1299 175.22 91.1299H175.29C175.63 91.1299 175.66 90.6699 175.54 90.4599C175.44 90.2999 174.26 88.7099 172.7 88.2699C172.48 88.1999 172.28 88.1699 172.11 88.1699Z" fill="black"/>
<path d="M129.56 56.4101C129.62 54.1001 128.69 51.7601 126.9 49.7701C124.56 47.1701 121.18 45.6201 117.87 45.6201C116.82 45.6201 115.8 45.7801 114.82 46.0901C115.6 45.4101 116.46 44.7401 117.36 44.0301C120.96 41.2301 125.04 38.0501 124.81 32.7401C124.8 32.4501 124.89 32.1901 125.1 31.9801C125.47 31.6001 126.18 31.3701 126.99 31.3701C127.4 31.3701 127.82 31.4301 128.2 31.5401C129.54 31.9401 129.94 33.6001 130.04 34.9201C130.12 35.9401 131.23 37.1601 133.14 37.4101C133.6 37.4701 134.2 37.4901 134.82 37.4901C135.82 37.4901 136.97 37.4201 137.48 37.3301C137.58 37.3101 137.69 37.3001 137.81 37.2901C138.46 37.2301 139.26 37.1501 139.43 35.3301C140.55 36.1301 141.89 36.5701 143.23 36.5701C144.76 36.5701 146.26 36.0001 147.55 34.9101C147.77 34.7301 148.03 34.6301 148.32 34.6301C148.91 34.6301 149.51 35.0501 149.66 35.5601C149.87 36.2901 149.49 36.8501 148.59 37.1401C142.05 39.2101 137.3 42.3001 134.06 46.5901C132.83 48.2001 130.81 53.2701 129.73 55.9901L129.56 56.4101Z" fill="#F3F4F4"/>
<path d="M126.99 31.46C127.39 31.46 127.8 31.52 128.17 31.63C129.46 32.01 129.84 33.63 129.94 34.93C130.02 35.99 131.16 37.25 133.13 37.51C133.56 37.56 134.14 37.59 134.82 37.59C135.83 37.59 136.98 37.52 137.5 37.43C137.6 37.41 137.71 37.4 137.82 37.39C138.48 37.33 139.3 37.25 139.51 35.51C140.62 36.26 141.93 36.67 143.23 36.67C144.79 36.67 146.3 36.09 147.62 34.99C147.82 34.82 148.06 34.73 148.32 34.73C148.86 34.73 149.43 35.12 149.56 35.59C149.82 36.49 149.04 36.89 148.55 37.05C141.99 39.13 137.22 42.23 133.97 46.53C132.74 48.15 130.73 53.17 129.64 55.91C129.56 53.74 128.63 51.58 126.95 49.71C124.59 47.09 121.19 45.53 117.84 45.53C116.94 45.53 116.05 45.64 115.2 45.87C115.88 45.29 116.62 44.71 117.39 44.12C121.01 41.3 125.11 38.11 124.88 32.75C124.87 32.49 124.96 32.25 125.14 32.06C125.52 31.68 126.2 31.46 126.99 31.46ZM126.99 31.27C125.79 31.27 124.66 31.76 124.71 32.75C125 39.49 118.35 42.7 114.39 46.34C115.53 45.92 116.7 45.72 117.87 45.72C124.06 45.72 130.04 51.2 129.43 57.03C130.32 54.84 132.76 48.48 134.15 46.65C137.51 42.21 142.31 39.24 148.63 37.24C149.6 36.93 149.99 36.31 149.77 35.54C149.61 35 148.98 34.54 148.34 34.54C148.06 34.54 147.77 34.63 147.51 34.84C146.12 36 144.64 36.47 143.25 36.47C141.78 36.47 140.41 35.94 139.36 35.14C139.21 37.38 138.21 37.09 137.48 37.23C137.01 37.31 135.91 37.39 134.84 37.39C134.24 37.39 133.64 37.37 133.18 37.31C131.37 37.08 130.24 35.92 130.16 34.91C130.08 33.9 129.78 31.89 128.25 31.44C127.84 31.33 127.41 31.27 126.99 31.27Z" fill="black"/>
<path d="M170.66 41.8901C173.77 39.7701 173.7 36.7401 173.59 35.8201L173.4 35.8001C172.38 38.8301 170.13 39.9101 168.37 39.9101C168.29 39.9101 168.2 39.9101 168.12 39.9001C169.42 39.3801 170.42 38.4001 170.96 37.1101C171.53 35.7501 171.53 34.1801 170.97 33.0901L170.84 32.8401L170.79 33.1201C170.44 34.9701 169 37.5901 166.88 37.5901C166.85 37.5901 166.82 37.5901 166.79 37.5901C169 36.4101 169.51 32.6801 168.91 30.9601L168.81 30.6701L168.72 30.9701C168.39 32.1101 167.75 34.3701 165.96 34.6201C166.46 34.2901 166.85 33.7501 167.1 33.0401C167.56 31.7101 167.44 30.0701 166.8 28.9601L166.63 28.6601L166.62 29.0101C166.55 30.7201 166.01 31.7501 164.98 32.0701C165.32 31.7001 165.54 31.1301 165.61 30.4101C165.74 29.0401 165.31 27.4701 164.66 26.9001L164.4 26.6701L164.5 27.0101C164.73 27.7401 164.7 28.5001 164.4 29.0301C164.2 29.4001 163.88 29.6701 163.45 29.8201C163.83 27.8401 162.87 26.7601 162.83 26.7101C162.5 26.4101 162.13 26.2601 161.77 26.2601C161.16 26.2601 160.67 26.7201 160.61 27.3501C160.56 27.9301 160.75 28.2301 160.98 28.5701C161.21 28.9201 161.49 29.3501 161.64 30.2501C161.78 31.1001 161.44 32.0301 160.76 32.6701C160.19 33.2101 159.06 33.4601 158.26 33.4601C158.03 33.4601 157.83 33.4401 157.68 33.4001C156.97 33.2201 156.29 33.0601 155.95 31.3901C155.34 28.3601 151.64 26.2401 146.96 26.2401C146.41 26.2401 145.84 26.2701 145.26 26.3301C141.86 26.6601 139.99 28.2701 139.02 29.5601C137.92 31.0201 137.6 32.5701 137.76 33.4601C137.84 33.9001 137.85 34.2801 137.79 34.6101C137.76 34.6801 137.74 34.7801 137.72 34.8801C137.62 35.1701 137.44 35.4201 137.18 35.6101C136.89 35.6501 135.94 35.7301 134.84 35.7301C134.24 35.7301 133.74 35.7101 133.39 35.6601C133.08 35.6201 132.81 35.5401 132.55 35.4201C132.21 35.2101 131.97 34.9401 131.8 34.5801C131.48 31.1701 129.74 30.1501 128.73 29.8501C128.19 29.6901 127.6 29.6001 127.01 29.6001C126.71 29.6001 126.43 29.6201 126.16 29.6601C122.77 29.7401 117.22 33.4701 114.39 38.9001C114.1 39.4701 113.72 39.7801 113.32 39.7801C113.22 39.7801 113.13 39.7601 113.04 39.7301C112.7 39.5901 112.39 39.0301 112.65 37.8701C115.71 23.8801 131.2 12.0001 147.19 11.3901C148.14 11.3501 149.07 11.3401 149.97 11.3401C161.51 11.3401 169.63 14.2501 174.1 20.0001C178.63 25.8201 178.15 33.4501 175.39 37.6801C174 39.7901 172.45 41.1801 170.66 41.8901Z" fill="#F3F4F4"/>
<path d="M149.95 11.42C161.46 11.42 169.56 14.32 174 20.04C178.5 25.82 178.02 33.41 175.29 37.61C174.13 39.39 172.86 40.65 171.43 41.42C173.86 39.32 173.78 36.67 173.68 35.81L173.3 35.77C172.34 38.63 170.26 39.73 168.56 39.81C169.68 39.25 170.54 38.33 171.03 37.15C171.61 35.77 171.61 34.16 171.04 33.05L170.78 32.54L170.67 33.11C170.35 34.84 169.05 37.25 167.15 37.48C169.13 36.1 169.57 32.59 168.99 30.94L168.79 30.36L168.62 30.95L168.57 31.1C168.32 31.99 167.77 33.91 166.36 34.42C166.71 34.08 166.99 33.63 167.18 33.07C167.65 31.72 167.53 30.05 166.88 28.91L166.54 28.31L166.51 29C166.46 30.46 166.04 31.41 165.28 31.82C165.5 31.45 165.65 30.98 165.7 30.41C165.83 29.02 165.39 27.4 164.71 26.82L164.18 26.36L164.39 27.03C164.61 27.74 164.58 28.47 164.3 28.98C164.13 29.28 163.89 29.51 163.56 29.66C163.86 27.75 162.93 26.69 162.87 26.63C162.52 26.32 162.14 26.16 161.75 26.16C161.08 26.16 160.56 26.66 160.5 27.34C160.45 27.96 160.65 28.27 160.88 28.63C161.11 28.99 161.37 29.39 161.52 30.27C161.65 31.09 161.33 31.98 160.67 32.61C160.12 33.14 159.02 33.38 158.23 33.38C158.01 33.38 157.81 33.36 157.61 33.31C156.96 33.15 156.34 33 156.02 31.39C155.4 28.31 151.66 26.16 146.94 26.16C146.38 26.16 145.81 26.19 145.23 26.25C141.79 26.59 139.9 28.22 138.92 29.52C137.8 31.01 137.48 32.59 137.65 33.49C137.73 33.91 137.74 34.29 137.69 34.57C137.65 34.67 137.63 34.77 137.62 34.84C137.52 35.13 137.36 35.36 137.15 35.51C136.86 35.56 135.92 35.64 134.82 35.64C134.22 35.64 133.72 35.62 133.39 35.57C133.09 35.53 132.82 35.45 132.6 35.35C132.27 35.14 132.04 34.88 131.89 34.61C131.56 31.11 129.77 30.07 128.74 29.76C128.19 29.6 127.59 29.51 126.99 29.51C126.7 29.51 126.42 29.53 126.15 29.57C122.72 29.65 117.13 33.4 114.29 38.86C114.02 39.39 113.67 39.69 113.31 39.69C113.23 39.69 113.15 39.67 113.07 39.64C112.74 39.51 112.51 38.92 112.74 37.89C115.79 23.94 131.24 12.1 147.19 11.49C148.13 11.44 149.06 11.42 149.95 11.42ZM149.95 11.22C149.05 11.22 148.12 11.24 147.17 11.27C131.47 11.87 115.67 23.5 112.54 37.82C112.29 38.95 112.56 39.62 112.99 39.79C113.09 39.83 113.19 39.85 113.3 39.85C113.68 39.85 114.11 39.6 114.46 38.92C117.24 33.59 122.77 29.81 126.15 29.73C126.42 29.69 126.7 29.67 126.99 29.67C127.56 29.67 128.15 29.75 128.68 29.91C129.68 30.2 131.37 31.21 131.69 34.59C131.85 34.93 132.09 35.22 132.49 35.47C132.72 35.58 133 35.67 133.36 35.72C133.71 35.77 134.22 35.79 134.82 35.79C135.93 35.79 136.88 35.71 137.18 35.66C137.19 35.66 137.21 35.66 137.22 35.65C137.46 35.47 137.68 35.23 137.8 34.85C137.81 34.76 137.84 34.67 137.87 34.59C137.93 34.28 137.93 33.89 137.84 33.4C137.5 31.6 139.31 26.97 145.25 26.38C145.83 26.32 146.4 26.3 146.94 26.3C151.95 26.3 155.27 28.6 155.83 31.37C156.19 33.15 156.95 33.29 157.63 33.46C157.79 33.5 158 33.52 158.24 33.52C159.05 33.52 160.2 33.28 160.81 32.7C161.5 32.04 161.87 31.1 161.72 30.19C161.42 28.37 160.6 28.43 160.7 27.31C160.75 26.72 161.2 26.31 161.76 26.31C162.07 26.31 162.42 26.44 162.75 26.73C162.75 26.73 163.77 27.86 163.31 29.91C164.78 29.51 164.93 28.02 164.59 26.93C165.62 27.82 166.05 31.36 164.59 32.2C166.11 32 166.65 30.62 166.71 28.96C167.74 30.75 167.36 33.96 165.52 34.69C165.56 34.69 165.6 34.69 165.64 34.69C167.86 34.69 168.54 31.91 168.82 30.95C169.46 32.77 168.81 36.68 166.42 37.61C166.58 37.64 166.73 37.65 166.88 37.65C169.02 37.65 170.52 35.09 170.88 33.1C171.86 34.99 171.17 38.82 167.68 39.91C167.91 39.95 168.14 39.97 168.37 39.97C170.32 39.97 172.51 38.72 173.5 35.8C173.71 37.59 173.15 40.44 169.88 42.23C171.91 41.68 173.79 40.28 175.48 37.69C178.46 33.11 178.46 25.4 174.18 19.89C170.18 14.8 162.68 11.22 149.95 11.22Z" fill="black"/>
<path d="M145.13 85.24C144.97 85.24 144.77 85.18 144.6 85.13C137.22 83.04 126.31 74.41 131.64 55.18L131.79 54.67C132.71 52.05 133.99 49.63 135.47 47.67C135.77 47.27 136.1 46.88 136.43 46.5C137.37 45.45 138.43 44.46 139.59 43.57C142.16 41.61 145.28 40.06 149.12 38.84C151.24 38.17 151.77 36.46 151.35 35.06C150.98 33.8 149.68 32.85 148.32 32.85C147.62 32.85 146.96 33.09 146.42 33.54C145.49 34.32 144.44 34.73 143.22 34.79L142.83 34.8C141.27 34.8 140.25 34.39 139.82 33.57C139.39 32.74 139.7 31.27 140.5 30.36C141.93 28.74 143.66 28.04 146.29 28.04C146.8 28.04 147.35 28.07 147.95 28.13C151.87 28.53 154.32 30.48 155.22 33.91C155.63 35.46 155.26 37.38 154.26 38.91C153.24 40.48 151.68 41.5 149.87 41.78C141.77 43.07 135.88 49.74 133.63 55.78C130.35 64.58 132.11 71.05 134.15 74.94C137.16 80.65 142.24 83.72 144.91 84.38C145.12 84.43 145.31 84.57 145.39 84.75C145.43 84.83 145.46 84.96 145.39 85.1C145.34 85.2 145.26 85.24 145.13 85.24Z" fill="#F3F4F4"/>
<path d="M146.3 28.1399C146.81 28.1399 147.37 28.1699 147.95 28.2299C151.83 28.6199 154.24 30.5499 155.14 33.9399C155.54 35.4599 155.18 37.3499 154.19 38.8599C153.18 40.3999 151.65 41.4099 149.87 41.6899C141.73 42.9799 135.81 49.6799 133.55 55.7499C130.26 64.5799 132.02 71.0899 134.08 74.9899C137.11 80.7299 142.21 83.8099 144.91 84.4799C145.1 84.5199 145.25 84.6399 145.32 84.7899C145.35 84.8499 145.38 84.9499 145.33 85.0499C145.31 85.0899 145.28 85.1299 145.15 85.1299C145.01 85.1299 144.81 85.0699 144.65 85.0199L144.55 84.9899C137.3 82.9299 126.44 74.3499 131.75 55.1899L131.79 55.0599L131.9 54.6799C132.82 52.0699 134.09 49.6599 135.57 47.6999C135.87 47.2999 136.2 46.9199 136.52 46.5399C137.46 45.4899 138.52 44.5099 139.67 43.6199C142.23 41.6699 145.34 40.1199 149.17 38.9099C151.35 38.2199 151.9 36.4599 151.47 35.0099C151.09 33.7099 149.75 32.7299 148.34 32.7299C147.62 32.7299 146.94 32.9799 146.38 33.4499C145.46 34.2199 144.44 34.6199 143.24 34.6699C143.11 34.6799 142.98 34.6799 142.85 34.6799C141.32 34.6799 140.34 34.2899 139.93 33.5099C139.51 32.7099 139.82 31.2999 140.6 30.4099C141.99 28.8199 143.7 28.1399 146.3 28.1399ZM146.3 27.9399C143.44 27.9399 141.78 28.7699 140.44 30.2899C139.59 31.2599 139.3 32.7599 139.74 33.6099C140.16 34.3999 141.13 34.8899 142.84 34.8899C142.97 34.8899 143.1 34.8899 143.24 34.8799C144.39 34.8299 145.49 34.4499 146.5 33.6099C147.02 33.1699 147.66 32.9399 148.34 32.9399C149.66 32.9399 150.92 33.8599 151.28 35.0799C151.68 36.4299 151.16 38.0899 149.11 38.7399C145.29 39.9499 142.12 41.5199 139.55 43.4799C138.34 44.4099 137.29 45.3999 136.37 46.4199C136.04 46.7999 135.71 47.1899 135.41 47.5899C133.88 49.6099 132.62 52.0299 131.71 54.6299C131.66 54.7999 131.61 54.9799 131.56 55.1499C125.74 76.1299 138.98 83.6299 144.49 85.1899C144.69 85.2499 144.94 85.3299 145.15 85.3299C145.3 85.3299 145.43 85.2799 145.5 85.1399C145.67 84.8099 145.39 84.3899 144.96 84.2899C139.51 82.9299 127.31 73.0699 133.74 55.8199C136.21 49.1799 142.39 43.0799 149.91 41.8799C154.09 41.2199 156.13 36.8899 155.34 33.8799C154.55 30.8599 152.4 28.4699 147.98 28.0199C147.37 27.9699 146.81 27.9399 146.3 27.9399Z" fill="black"/>
<path d="M130.05 94.78C126.92 86.51 118.25 82 111.58 81.95H111.23C108.33 81.95 106.04 82.3 102.23 84.15C100.97 84.76 99.7996 85.5 98.7396 86.35C98.5296 81.34 99.9096 71.39 104.43 63.96C102.37 68.29 100.64 74.63 101.05 79.51H101.25C101.78 74.35 103.1 71.24 105.32 67.66C103.77 72.13 103.25 76.32 103.96 79.01L104.15 78.97C103.75 76.44 104.51 72.81 106.43 70.77C104.92 73.95 104.99 77.29 106.07 78.53L106.28 78.77L106.24 78.45C106.11 77.25 106.15 75.48 107.96 73.67C107.2 76.34 108.25 78.18 108.74 78.68L108.94 78.88L108.91 78.6C108.74 76.84 109.3 76.1 109.79 75.6C109.53 77.5 110.22 78.62 110.25 78.66L110.44 78.97L110.43 78.61C110.43 78.61 110.4 77.09 111.53 76.65C112.34 77.82 114.42 78.81 116.82 79.96C122.15 82.52 129.46 86.01 130.05 94.65C130.05 94.7 130.05 94.74 130.05 94.78Z" fill="#F3F4F4"/>
<path d="M103.54 65.73C101.85 69.91 100.59 75.26 100.94 79.51H101.33C101.82 74.73 102.99 71.72 104.92 68.46C103.58 72.63 103.17 76.49 103.84 79.03L104.23 78.95C103.87 76.64 104.47 73.42 106.05 71.35C104.91 74.16 104.84 77.28 105.98 78.59L106.4 79.07L106.33 78.44C106.21 77.32 106.24 75.7 107.76 74.01C107.19 76.52 108.18 78.26 108.66 78.75L109.05 79.15L109 78.59C108.86 77.12 109.24 76.38 109.65 75.89C109.5 77.63 110.13 78.66 110.16 78.71L110.55 79.32L110.53 78.6C110.53 78.59 110.5 77.27 111.44 76.79C112.43 77.96 114.45 78.93 116.78 80.04C122 82.54 129.1 85.94 129.92 94.16C126.6 86.21 118.13 81.89 111.58 81.84H111.23C108.32 81.84 106.01 82.19 102.18 84.05C100.98 84.63 99.8498 85.33 98.8298 86.14C98.6798 81.47 99.8599 72.79 103.54 65.73ZM105.42 62.27C100.26 69.51 98.3499 80.61 98.6499 86.54C99.7299 85.66 100.93 84.88 102.27 84.23C106.18 82.34 108.44 82.04 111.23 82.04C111.34 82.04 111.46 82.04 111.58 82.04C118.39 82.09 127.14 86.85 130.09 95.16C130.14 95.05 130.16 94.9 130.16 94.64C129.3 82.07 114.46 80.39 111.5 76.55C110.29 77.02 110.34 78.61 110.34 78.61C110.34 78.61 109.56 77.38 109.94 75.31C109.44 75.82 108.62 76.53 108.81 78.61C108.25 78.04 107.24 76.09 108.17 73.33C106.24 75.09 105.96 76.88 106.14 78.46C104.98 77.12 105.08 73.48 106.77 70.29C104.54 72.23 103.61 76.19 104.04 78.98C103.4 76.53 103.69 72.21 105.71 66.83C103.34 70.53 101.73 73.76 101.14 79.5C100.7 74.15 102.91 66.63 105.42 62.27Z" fill="black"/>
<path d="M133.42 146.8C124.41 146.8 114.96 134.7 111.32 129.5C106.91 123.22 102.28 111.28 102.28 110.19C105 105.56 103.09 101.67 102.27 100C101.12 97.65 98.7696 94.63 95.5996 93.17C98.7096 85.73 107.41 83.73 111.58 83.73C117.35 83.73 123.71 87.71 127.02 93.4L127.39 94.05C128.47 95.92 129.24 97.26 131.01 97.56C131.2 97.59 131.38 97.61 131.56 97.61C132.83 97.61 133.78 96.78 134.22 95.31C134.42 96.07 134.37 96.74 134.06 97.31C133.45 98.46 132 98.83 131.99 98.83L131.75 98.89L131.96 99.01C131.99 99.03 132.73 99.45 133.63 99.45C134.32 99.45 134.92 99.19 135.39 98.69C134.9 100.37 133.65 100.64 132.91 100.64C132.59 100.64 132.36 100.59 132.36 100.59L132.09 100.53L132.26 100.75C132.29 100.79 133.01 101.7 134.23 101.7C134.6 101.7 134.97 101.61 135.35 101.45C134.72 103.01 132.92 103.15 132.9 103.15L132.71 103.16L132.83 103.31C132.85 103.34 133.37 103.95 134.46 103.95C134.8 103.95 135.15 103.89 135.52 103.77C134.99 105.04 133.32 105.44 133.31 105.44L133.14 105.48L133.26 105.61C133.28 105.63 133.67 106.05 134.33 106.05C134.71 106.05 135.09 105.91 135.47 105.64C134.99 106.65 133.91 107.01 133.9 107.01C133.87 107.18 134.17 107.55 134.77 107.55C134.83 107.55 134.88 107.55 134.94 107.54C134.11 108.32 134.48 109.42 134.94 110.33C138.11 116.68 143.2 119.99 146.24 121.98C147.29 122.67 148.12 123.2 148.45 123.62C150.11 125.68 149.93 127.91 149.19 129.31C148.28 131.06 146.92 131.91 145.05 131.91C144.66 131.91 144.27 131.87 143.87 131.81L143.6 131.76L143.78 131.97C145.15 133.52 144.55 136.13 144.07 136.95C143.36 138.16 141.87 139.45 139.81 139.45C139.35 139.45 138.87 139.39 138.38 139.26L138.16 139.2L138.27 139.4C139.42 141.44 138.84 143.19 138.38 144.06C138.23 144.35 136.84 146.8 133.42 146.8Z" fill="#F3F4F4"/>
<path d="M111.58 83.8299C117.32 83.8299 123.64 87.7899 126.94 93.4499L126.97 93.4999C127 93.5499 127.03 93.6099 127.06 93.6499L127.11 93.7499L127.16 93.8499L127.31 94.0999C128.4 95.9899 129.19 97.3599 131 97.6599C131.19 97.6899 131.39 97.7099 131.56 97.7099C132.77 97.7099 133.71 96.9799 134.2 95.6799C134.3 96.2699 134.23 96.7999 133.98 97.2599C133.39 98.3699 131.98 98.7299 131.97 98.7399L131.5 98.8599L131.92 99.0999C131.95 99.1199 132.71 99.5499 133.64 99.5499C134.08 99.5499 134.65 99.4499 135.18 99.0299C134.65 100.32 133.58 100.54 132.92 100.54C132.61 100.54 132.39 100.49 132.39 100.49L131.85 100.37L132.19 100.81C132.22 100.85 132.97 101.8 134.24 101.8C134.54 101.8 134.85 101.74 135.16 101.63C134.49 102.92 132.97 103.04 132.9 103.05L132.51 103.08L132.76 103.38C132.78 103.41 133.33 104.06 134.47 104.06C134.75 104.06 135.04 104.02 135.35 103.94C134.76 105.01 133.31 105.35 133.3 105.35L132.97 105.43L133.2 105.68C133.22 105.7 133.64 106.15 134.34 106.15C134.63 106.15 134.91 106.08 135.2 105.93C134.69 106.65 133.88 106.92 133.87 106.92L133.6 107.01L133.78 107.23C133.79 107.25 134.1 107.62 134.71 107.65C133.95 108.58 134.57 109.8 134.85 110.37C138.03 116.74 143.14 120.07 146.19 122.05C147.23 122.73 148.06 123.27 148.38 123.67C150.01 125.69 149.83 127.88 149.12 129.25C148.22 130.97 146.9 131.8 145.06 131.8C144.69 131.8 144.31 131.76 143.89 131.7L143.34 131.61L143.71 132.03C145.05 133.55 144.46 136.09 143.99 136.9C143.3 138.08 141.84 139.35 139.82 139.35C139.37 139.35 138.9 139.29 138.42 139.17L137.97 139.06L138.2 139.46C139.33 141.46 138.75 143.18 138.31 144.03C138.17 144.3 136.8 146.71 133.45 146.71C124.49 146.71 115.06 134.64 111.43 129.45C106.92 123.02 102.55 111.44 102.42 110.25C105.13 105.55 103.21 101.64 102.4 99.9699C101.26 97.6499 98.9596 94.6699 95.8496 93.1799C98.9196 85.7899 107.46 83.8299 111.58 83.8299ZM111.58 83.6399C106.94 83.6399 98.5596 85.8399 95.5596 93.2699C98.9596 94.8299 101.22 98.0799 102.19 100.05C103.15 102.02 104.79 105.73 102.19 110.2C102.19 111.24 106.77 123.19 111.24 129.56C115.71 135.94 124.77 146.9 133.43 146.9C136.37 146.9 137.96 145.08 138.47 144.12C138.82 143.44 139.6 141.57 138.35 139.37C138.87 139.5 139.35 139.56 139.8 139.56C142.11 139.56 143.56 138.01 144.14 137.01C144.64 136.16 145.25 133.51 143.84 131.91C144.25 131.98 144.65 132.02 145.04 132.02C146.82 132.02 148.28 131.25 149.27 129.36C150.01 127.95 150.23 125.69 148.51 123.56C147.22 121.96 139.31 118.9 135 110.29C134.5 109.28 134.08 108.07 135.39 107.32C135.14 107.42 134.93 107.46 134.74 107.46C134.18 107.46 133.9 107.11 133.9 107.11C133.9 107.11 135.27 106.67 135.66 105.34C135.13 105.8 134.67 105.94 134.3 105.94C133.68 105.94 133.31 105.53 133.31 105.53C133.31 105.53 135.21 105.1 135.67 103.61C135.2 103.78 134.79 103.85 134.45 103.85C133.39 103.85 132.89 103.25 132.89 103.25C132.89 103.25 134.94 103.12 135.51 101.26C135.04 101.51 134.6 101.61 134.22 101.61C133.04 101.61 132.33 100.7 132.33 100.7C132.33 100.7 132.56 100.75 132.9 100.75C133.72 100.75 135.18 100.43 135.58 98.2899C135.02 99.1199 134.28 99.3599 133.62 99.3599C132.74 99.3599 132 98.9299 132 98.9299C132 98.9299 135.31 98.0999 134.2 94.9499C133.87 96.3799 133.03 97.5099 131.55 97.5099C131.38 97.5099 131.2 97.4999 131.02 97.4699C129.22 97.1699 128.48 95.7499 127.32 93.7499C127.29 93.6899 127.25 93.6299 127.22 93.5599C127.18 93.4899 127.14 93.4199 127.1 93.3499C123.67 87.4499 117.26 83.6399 111.58 83.6399Z" fill="black"/>
<path d="M131.3 96.4201C131.78 90.8201 130.38 86.7601 126.9 83.6701C124.83 81.8201 122.21 80.4801 119.68 79.1801C117.82 78.2301 115.9 77.2401 114.21 76.0601C109.07 72.4801 106.05 66.5001 106.34 60.4401C106.58 55.3801 109.08 51.1401 113.21 48.8201C114.38 48.1601 115.7 47.8301 117.15 47.8301C119.97 47.8301 123.02 49.1601 125.1 51.3001C126.79 53.0401 127.68 55.1401 127.62 57.2201C127.55 59.6101 127.02 61.0701 126.51 62.4901C125.84 64.3501 125.2 66.1101 125.81 69.7201C126.99 76.7201 132.87 82.1501 143.29 85.8801C141.04 87.4401 139.54 87.7001 138.21 87.9301C137.07 88.1301 136.09 88.3001 134.93 89.2201C133.49 90.3701 133.28 91.5001 133.07 92.7001C132.87 93.8601 132.65 95.0601 131.3 96.4201Z" fill="#F3F4F4"/>
<path d="M117.15 47.73V47.93C119.95 47.93 122.97 49.25 125.03 51.37C126.7 53.09 127.58 55.16 127.52 57.21C127.45 59.59 126.93 61.04 126.42 62.45C125.74 64.32 125.11 66.09 125.72 69.72C126.9 76.72 132.74 82.15 143.08 85.89C140.94 87.34 139.48 87.6 138.2 87.82C137.05 88.02 136.06 88.19 134.87 89.13C133.4 90.3 133.19 91.46 132.97 92.67C132.77 93.76 132.57 94.88 131.41 96.14C131.83 90.65 130.4 86.65 126.96 83.59C124.88 81.74 122.26 80.39 119.72 79.09C117.87 78.14 115.95 77.15 114.26 75.98C109.15 72.42 106.15 66.47 106.43 60.45C106.67 55.42 109.16 51.21 113.25 48.91C114.4 48.26 115.71 47.93 117.14 47.93V47.73H117.15ZM117.15 47.73C115.76 47.73 114.39 48.04 113.16 48.74C103.51 54.17 104.01 69.09 114.15 76.15C118.16 78.94 123.25 80.57 126.83 83.75C129.84 86.42 131.79 90.2 131.17 96.68C134.23 93.78 132.14 91.57 134.99 89.29C137.52 87.27 139.21 88.89 143.5 85.84C133.51 82.31 127.15 77.05 125.91 69.7C124.85 63.43 127.55 62.86 127.71 57.23C127.88 52.07 122.35 47.73 117.15 47.73Z" fill="black"/>
<path d="M131.17 76.45C129.52 74.72 127.76 72.41 127.39 69.34C127.02 66.28 127.49 64.99 128.08 63.36L128.17 63.1C128.3 62.75 128.42 62.39 128.55 62.01C128.05 67.49 128.93 72.34 131.17 76.45Z" fill="#F3F4F4"/>
<path d="M128.4 62.78C128.06 67.68 128.85 72.06 130.74 75.84C129.26 74.19 127.82 72.06 127.49 69.33C127.12 66.29 127.59 65.01 128.18 63.39L128.27 63.13C128.31 63.01 128.35 62.9 128.4 62.78ZM128.77 60.96C128.56 61.74 128.32 62.42 128.08 63.06C127.45 64.81 126.9 66.1 127.29 69.35C127.68 72.59 129.55 75 131.63 77.05C128.96 72.56 128.01 67.17 128.77 60.96Z" fill="black"/>
<path d="M177.55 167.89C171.5 156.53 159.62 154.29 149.13 152.32C144.06 151.37 139.26 150.47 135.7 148.6C138.62 148.42 140.47 146.16 140.9 145.35C141.59 144.05 141.52 142.61 140.7 141.06C141.07 141.14 141.44 141.18 141.81 141.18C144.07 141.18 145.81 139.6 146.61 138.24C147.03 137.52 147.77 134.95 146.46 133.22C146.8 133.27 147.12 133.29 147.43 133.29C149.37 133.29 150.83 132.38 151.77 130.58C152.42 129.34 152.81 126.62 151.19 124.4C163.06 128.08 175.92 138.01 177.47 155.07C176.05 149.24 172.42 144.22 167.14 140.83L167.02 140.99C172.35 145.62 177.29 151.48 177.56 162.82C175.54 154.36 168.79 149.9 164.85 147.96L164.75 148.13C168.36 150.56 176.74 156.22 177.55 167.89Z" fill="#F3F4F4"/>
<path d="M151.44 124.59C162.91 128.24 175.22 137.72 177.25 153.85C175.64 148.51 172.14 143.93 167.21 140.76L166.97 141.08C172.14 145.57 176.94 151.23 177.44 161.95C175.18 154.01 168.73 149.77 164.9 147.89L164.7 148.23C168.24 150.62 176.42 156.14 177.42 167.45C171.28 156.4 159.54 154.19 149.15 152.24C144.23 151.32 139.57 150.44 136.05 148.69C138.82 148.36 140.57 146.21 140.99 145.42C141.67 144.14 141.63 142.73 140.89 141.23C141.2 141.29 141.51 141.31 141.82 141.31C144.13 141.31 145.89 139.7 146.7 138.32C147.25 137.39 147.74 135.02 146.67 133.38C146.93 133.41 147.19 133.42 147.43 133.42C149.41 133.42 150.9 132.49 151.86 130.66C152.65 129.12 152.73 126.58 151.44 124.59ZM150.93 124.22C152.65 126.35 152.43 129.13 151.69 130.54C150.7 132.43 149.22 133.2 147.44 133.2C147.05 133.2 146.65 133.16 146.23 133.1C147.65 134.7 147.03 137.35 146.53 138.2C145.93 139.23 144.28 141.09 141.82 141.09C141.41 141.09 140.97 141.04 140.52 140.92C141.77 143.12 141.18 144.63 140.82 145.31C140.31 146.28 138.29 148.52 135.34 148.52C146.16 154.49 168.75 150.84 177.69 168.35C177.09 156.77 169.21 151.01 164.82 148.06C170.12 150.67 176.15 155.65 177.69 163.83C177.69 152.88 173.68 146.65 167.1 140.93C172.49 144.39 176.49 149.8 177.69 156.53C176.71 137.9 162.39 127.68 150.93 124.22Z" fill="black"/>
<path d="M177.01 130.47C176.83 130.47 176.62 130.44 176.35 130.39C166.58 128.45 161.12 126.81 155.47 124.12C147.3 120.23 142.89 117.91 139.52 111.7C139.28 111.25 138.81 111 138.32 110.75C138.06 110.61 137.78 110.47 137.5 110.28C136.77 109.77 136.66 108.92 136.8 108.36C136.92 107.89 137.28 107.56 137.67 107.56C137.76 107.56 137.86 107.58 137.95 107.61C138.21 107.7 138.43 107.89 138.64 108.08C138.86 108.27 139.08 108.46 139.31 108.49L139.53 108.52L139.4 108.33C137.1 104.98 137.61 99.95 137.78 98.3C137.81 98.04 137.82 97.86 137.82 97.77C137.82 96.73 137.38 96.16 137.06 95.74C136.98 95.64 136.92 95.56 136.86 95.47C136.6 95.07 136.58 95.06 136.55 95.04C136.54 95.03 136.52 94.99 136.45 94.88C136.21 94.5 136.34 93.78 136.6 93.56C136.7 93.48 136.83 93.43 136.98 93.43C137.24 93.43 137.51 93.56 137.71 93.78C138.08 94.19 138.27 94.56 138.42 94.86C138.65 95.3 138.81 95.61 139.34 95.61C139.47 95.61 139.62 95.59 139.8 95.55C139.61 92.21 140.11 90.8 140.27 90.45C141.11 88.58 142.85 87.28 144.51 87.28C145.17 87.28 145.78 87.48 146.32 87.88C147.25 88.57 147.52 89.52 147.57 90.2C147.67 91.45 147.17 92.71 146.65 93.25C145.38 94.55 144.64 95.6 144.34 96.55C144.57 96.74 144.73 96.77 144.88 96.77C145.23 96.77 145.51 96.61 145.86 96.42L146.19 96.24C146.38 96.14 146.57 96.09 146.75 96.09C147.29 96.09 147.65 96.55 147.7 96.86C147.8 97.62 147.17 98.24 146.48 98.46C145.02 98.94 144.4 100.03 144.34 102.23C144.28 104.37 144.31 106.3 145.35 108.17L145.38 108.22L145.53 108.27C145.71 108.27 145.98 108.1 146.3 107.9C146.47 107.8 146.64 107.69 146.79 107.61C146.88 107.56 146.98 107.54 147.09 107.54C147.34 107.54 147.63 107.68 147.94 107.94C148.31 108.26 148.34 109.06 148 109.45C147.9 109.56 147.76 109.69 147.61 109.83C147.14 110.25 146.56 110.78 146.62 111.32C146.71 112.25 148.72 117.96 156 122.46C161.76 126.02 166.34 127.57 176.4 129.35C177.14 129.48 177.42 129.7 177.52 129.86C177.58 129.95 177.59 130.05 177.57 130.15C177.53 130.32 177.43 130.47 177.01 130.47Z" fill="#F3F4F4"/>
<path d="M144.5 87.3899C145.14 87.3899 145.73 87.5799 146.25 87.9699C147.15 88.6399 147.41 89.5599 147.46 90.2099C147.56 91.4299 147.07 92.6599 146.57 93.1799C145.29 94.4899 144.54 95.5499 144.24 96.5199L144.18 96.6999L144.35 96.7699C144.53 96.8399 144.7 96.8699 144.87 96.8699C145.24 96.8699 145.55 96.6999 145.9 96.5099C146 96.4499 146.11 96.3899 146.22 96.3399C146.4 96.2499 146.57 96.1999 146.74 96.1999C147.26 96.1999 147.56 96.6499 147.59 96.8799C147.69 97.5799 147.09 98.1699 146.44 98.3799C144.93 98.8699 144.29 99.9899 144.23 102.24C144.17 104.4 144.2 106.34 145.26 108.24C145.31 108.33 145.41 108.39 145.53 108.39C145.72 108.39 145.97 108.24 146.35 108.01C146.52 107.91 146.69 107.8 146.83 107.73C146.91 107.69 146.99 107.67 147.08 107.67C147.31 107.67 147.57 107.8 147.86 108.05C148.16 108.31 148.24 109.04 147.91 109.42C147.82 109.53 147.68 109.65 147.53 109.79C147.05 110.23 146.45 110.78 146.51 111.36C146.6 112.3 148.62 118.05 155.94 122.57C161.72 126.14 166.3 127.69 176.37 129.47C177.12 129.6 177.35 129.82 177.43 129.94C177.47 130.01 177.48 130.08 177.47 130.15C177.44 130.26 177.38 130.38 177 130.38C176.83 130.38 176.62 130.35 176.36 130.3C166.6 128.37 161.14 126.73 155.5 124.04C147.35 120.16 142.95 117.85 139.59 111.66C139.33 111.18 138.85 110.93 138.35 110.67C138.09 110.53 137.81 110.39 137.54 110.2C136.85 109.72 136.75 108.92 136.88 108.38C136.97 108.03 137.25 107.65 137.66 107.65C137.74 107.65 137.83 107.67 137.91 107.7C138.15 107.79 138.36 107.97 138.57 108.15C138.8 108.35 139.03 108.55 139.29 108.58L139.73 108.64L139.48 108.27C137.2 104.95 137.71 99.9499 137.87 98.3099C137.9 98.0499 137.91 97.8599 137.91 97.7699C137.91 96.6999 137.46 96.1099 137.13 95.6799C137.06 95.5899 136.99 95.4999 136.94 95.4199C136.67 94.9999 136.65 94.9899 136.62 94.9799C136.61 94.9599 136.58 94.9199 136.52 94.8299C136.31 94.4999 136.42 93.8299 136.65 93.6399C136.73 93.5699 136.84 93.5399 136.97 93.5399C137.2 93.5399 137.45 93.6599 137.63 93.8499C137.99 94.2499 138.18 94.6099 138.33 94.9099C138.55 95.3399 138.74 95.7199 139.33 95.7199C139.47 95.7199 139.62 95.6999 139.81 95.6599L139.98 95.6199L139.97 95.4499C139.76 92.8899 140.03 91.2199 140.35 90.4999C141.18 88.6699 142.88 87.3899 144.5 87.3899ZM144.5 87.1899C142.8 87.1899 141.03 88.4999 140.17 90.4199C139.85 91.1299 139.55 92.7699 139.77 95.4599C139.6 95.4999 139.45 95.5199 139.33 95.5199C138.53 95.5199 138.69 94.7299 137.77 93.7199C137.54 93.4699 137.24 93.3399 136.97 93.3399C136.8 93.3399 136.64 93.3899 136.52 93.4899C136.2 93.7499 136.09 94.5299 136.35 94.9399C136.6 95.3499 136.33 94.8599 136.77 95.5399C137.06 95.9899 137.71 96.5399 137.71 97.7899C137.71 98.4599 136.64 104.51 139.31 108.4C138.91 108.34 138.53 107.72 137.97 107.52C137.86 107.48 137.76 107.46 137.65 107.46C137.17 107.46 136.8 107.86 136.68 108.34C136.54 108.92 136.63 109.82 137.42 110.37C138.21 110.92 139.06 111.1 139.41 111.76C142.77 117.96 147.17 120.31 155.41 124.23C161.46 127.11 167.11 128.68 176.32 130.5C176.59 130.55 176.82 130.58 177 130.58C177.39 130.58 177.59 130.45 177.66 130.2C177.75 129.86 177.47 129.47 176.41 129.28C166.06 127.44 161.57 125.82 156.05 122.4C148.61 117.8 146.78 111.99 146.71 111.33C146.64 110.67 147.7 109.97 148.07 109.54C148.46 109.09 148.4 108.24 148 107.89C147.71 107.64 147.4 107.46 147.09 107.46C146.97 107.46 146.86 107.48 146.75 107.54C146.33 107.75 145.77 108.18 145.54 108.18C145.5 108.18 145.46 108.16 145.45 108.13C144.4 106.24 144.39 104.27 144.45 102.24C144.51 100.21 145.02 99.0499 146.52 98.5599C147.25 98.3199 147.91 97.6599 147.8 96.8499C147.75 96.5099 147.36 95.9999 146.75 95.9999C146.57 95.9999 146.36 96.0499 146.14 96.1599C145.63 96.4199 145.29 96.6699 144.88 96.6699C144.74 96.6699 144.6 96.6399 144.43 96.5799C144.76 95.5499 145.58 94.4699 146.72 93.3199C147.65 92.3599 148.46 89.3399 146.38 87.8099C145.8 87.3799 145.15 87.1899 144.5 87.1899Z" fill="black"/>
<path d="M32.9097 271.35H10.4697V293.8H32.9097V271.35Z" stroke="#ED1D24" stroke-width="0.3954"/>
<path d="M55.3597 271.35H32.9097V293.8H55.3597V271.35Z" stroke="#ED1D24" stroke-width="0.3954"/>
<path d="M77.7999 271.35H55.3599V293.8H77.7999V271.35Z" stroke="#ED1D24" stroke-width="0.3954"/>
<path d="M100.24 271.35H77.7998V293.8H100.24V271.35Z" stroke="#ED1D24" stroke-width="0.3954"/>
<path d="M122.69 271.35H100.24V293.8H122.69V271.35Z" stroke="#ED1D24" stroke-width="0.3954"/>
<path d="M145.14 271.35H122.69V293.8H145.14V271.35Z" stroke="#ED1D24" stroke-width="0.3954"/>
<path d="M167.58 271.35H145.13V293.8H167.58V271.35Z" stroke="#ED1D24" stroke-width="0.3954"/>
<path d="M190.03 271.35H167.58V293.8H190.03V271.35Z" stroke="#ED1D24" stroke-width="0.3954"/>
<path d="M212.47 271.35H190.03V293.8H212.47V271.35Z" stroke="#ED1D24" stroke-width="0.3954"/>
<path d="M234.92 271.35H212.47V293.8H234.92V271.35Z" stroke="#ED1D24" stroke-width="0.3954"/>
<path d="M257.35 271.35H234.91V293.8H257.35V271.35Z" stroke="#ED1D24" stroke-width="0.3954"/>
<path d="M279.81 271.35H257.36V293.8H279.81V271.35Z" stroke="#ED1D24" stroke-width="0.3954"/>
<path d="M302.25 271.35H279.8V293.8H302.25V271.35Z" stroke="#ED1D24" stroke-width="0.3954"/>
<path d="M324.7 271.35H302.25V293.8H324.7V271.35Z" stroke="#ED1D24" stroke-width="0.3954"/>
<path d="M347.13 271.35H324.69V293.8H347.13V271.35Z" stroke="#ED1D24" stroke-width="0.3954"/>
<path d="M382.99 202.01H360.54V224.46H382.99V202.01Z" stroke="#ED1D24" stroke-width="0.3954"/>
<path d="M382.99 224.46H360.54V246.91H382.99V224.46Z" stroke="#ED1D24" stroke-width="0.3954"/>
<path d="M382.99 246.9H360.54V258.12H382.99V246.9Z" stroke="#ED1D24" stroke-width="0.3954"/>
<path d="M391.96 246.9H382.99" stroke="#00AEEF" stroke-width="0.2379"/>
<path d="M391.96 224.45H382.99" stroke="#00AEEF" stroke-width="0.2379"/>
<path d="M391.96 202.01H382.99" stroke="#00AEEF" stroke-width="0.2379"/>
<path d="M387.47 204.25H382.99" stroke="#00AEEF" stroke-width="0.1675"/>
<path d="M387.47 206.5H382.99" stroke="#00AEEF" stroke-width="0.1675"/>
<path d="M387.47 208.74H382.99" stroke="#00AEEF" stroke-width="0.1675"/>
<path d="M387.47 210.99H382.99" stroke="#00AEEF" stroke-width="0.1675"/>
<path d="M389.72 213.23H382.99" stroke="#00AEEF" stroke-width="0.2061"/>
<path d="M387.47 215.48H382.99" stroke="#00AEEF" stroke-width="0.1675"/>
<path d="M387.47 217.72H382.99" stroke="#00AEEF" stroke-width="0.1675"/>
<path d="M387.47 219.97H382.99" stroke="#00AEEF" stroke-width="0.1675"/>
<path d="M387.47 222.21H382.99" stroke="#00AEEF" stroke-width="0.1675"/>
<path d="M387.47 226.7H382.99" stroke="#00AEEF" stroke-width="0.1675"/>
<path d="M387.47 228.94H382.99" stroke="#00AEEF" stroke-width="0.1675"/>
<path d="M387.47 231.19H382.99" stroke="#00AEEF" stroke-width="0.1675"/>
<path d="M387.47 233.43H382.99" stroke="#00AEEF" stroke-width="0.1675"/>
<path d="M389.72 235.68H382.99" stroke="#00AEEF" stroke-width="0.2061"/>
<path d="M387.47 237.92H382.99" stroke="#00AEEF" stroke-width="0.1675"/>
<path d="M387.47 240.17H382.99" stroke="#00AEEF" stroke-width="0.1675"/>
<path d="M387.47 242.41H382.99" stroke="#00AEEF" stroke-width="0.1675"/>
<path d="M387.47 244.66H382.99" stroke="#00AEEF" stroke-width="0.1675"/>
<path d="M387.47 249.14H382.99" stroke="#00AEEF" stroke-width="0.1675"/>
<path d="M387.47 251.39H382.99" stroke="#00AEEF" stroke-width="0.1675"/>
<path d="M387.47 253.63H382.99" stroke="#00AEEF" stroke-width="0.1675"/>
<path d="M387.47 255.88H382.99" stroke="#00AEEF" stroke-width="0.1675"/>
<path d="M389.72 258.12H382.99" stroke="#00AEEF" stroke-width="0.2061"/>
<path d="M111.46 11.22V168.34" stroke="#00AEEF" stroke-width="0.2379"/>
<path d="M133.91 11.22V168.34" stroke="#00AEEF" stroke-width="0.2379"/>
<path d="M156.35 11.22V168.34" stroke="#00AEEF" stroke-width="0.2379"/>
<path d="M178.8 11.22V168.34" stroke="#00AEEF" stroke-width="0.2379"/>
<path d="M201.25 11.22V168.34" stroke="#00AEEF" stroke-width="0.2379"/>
<path d="M223.69 11.22V168.34" stroke="#00AEEF" stroke-width="0.2379"/>
<path d="M246.14 11.22V168.34" stroke="#00AEEF" stroke-width="0.2379"/>
<path d="M268.58 33.6699H89.02" stroke="#00AEEF" stroke-width="0.2379"/>
<path d="M268.58 56.1101H89.02" stroke="#00AEEF" stroke-width="0.2379"/>
<path d="M268.58 78.5601H89.02" stroke="#00AEEF" stroke-width="0.2379"/>
<path d="M268.58 101.01H89.02" stroke="#00AEEF" stroke-width="0.2379"/>
<path d="M268.58 123.45H89.02" stroke="#00AEEF" stroke-width="0.2379"/>
<path d="M268.58 145.9H89.02" stroke="#00AEEF" stroke-width="0.2379"/>
<path d="M268.58 168.34H89.02" stroke="#00AEEF" stroke-width="0.2379"/>
<path d="M268.58 11.22H89.02V168.34H268.58V11.22Z" stroke="#ED1D24" stroke-width="0.3954"/>
<path d="M77.7998 11.22H86.7698" stroke="#00AEEF" stroke-width="0.2379"/>
<path d="M77.7998 33.6699H86.7698" stroke="#00AEEF" stroke-width="0.2379"/>
<path d="M77.7998 56.1101H86.7698" stroke="#00AEEF" stroke-width="0.2379"/>
<path d="M77.7998 78.5601H86.7698" stroke="#00AEEF" stroke-width="0.2379"/>
<path d="M77.7998 101H86.7698" stroke="#00AEEF" stroke-width="0.2379"/>
<path d="M77.7998 123.45H86.7698" stroke="#00AEEF" stroke-width="0.2379"/>
<path d="M77.7998 145.89H86.7698" stroke="#00AEEF" stroke-width="0.2379"/>
<path d="M0.799805 168.34H86.7698" stroke="#00AEEF" stroke-width="0.2379"/>
<path d="M270.83 11.22H279.8" stroke="#00AEEF" stroke-width="0.2379"/>
<path d="M270.83 168.34H279.8" stroke="#00AEEF" stroke-width="0.2379"/>
<path d="M268.58 0V8.98" stroke="#00AEEF" stroke-width="0.2379"/>
<path d="M246.13 0V8.98" stroke="#00AEEF" stroke-width="0.2379"/>
<path d="M223.68 0V8.98" stroke="#00AEEF" stroke-width="0.2379"/>
<path d="M201.24 0V8.98" stroke="#00AEEF" stroke-width="0.2379"/>
<path d="M178.8 0V8.98" stroke="#00AEEF" stroke-width="0.2379"/>
<path d="M156.35 0V8.98" stroke="#00AEEF" stroke-width="0.2379"/>
<path d="M133.91 0V8.98" stroke="#00AEEF" stroke-width="0.2379"/>
<path d="M111.46 0V8.98" stroke="#00AEEF" stroke-width="0.2379"/>
<path d="M89.02 0V8.98" stroke="#00AEEF" stroke-width="0.2379"/>
<path d="M268.58 170.59V265.54" stroke="#00AEEF" stroke-width="0.2379"/>
<path d="M178.8 170.59V179.56" stroke="#00AEEF" stroke-width="0.2379"/>
<path d="M89.02 170.59V265.54" stroke="#00AEEF" stroke-width="0.2379"/>
<path d="M3.0498 181.81H0.799805" stroke="#00AEEF" stroke-width="0.1675"/>
<path d="M3.0498 184.05H0.799805" stroke="#00AEEF" stroke-width="0.1675"/>
<path d="M3.0498 179.56H0.799805" stroke="#00AEEF" stroke-width="0.1675"/>
<path d="M3.0498 181.81H0.799805" stroke="#00AEEF" stroke-width="0.1675"/>
<path d="M3.0498 177.32H0.799805" stroke="#00AEEF" stroke-width="0.1675"/>
<path d="M3.0498 175.08H0.799805" stroke="#00AEEF" stroke-width="0.1675"/>
<path d="M3.0498 172.83H0.799805" stroke="#00AEEF" stroke-width="0.1675"/>
<path d="M3.0498 170.59H0.799805" stroke="#00AEEF" stroke-width="0.1675"/>
<path d="M3.0498 168.34H0.799805" stroke="#00AEEF" stroke-width="0.1675"/>
<path d="M3.0498 186.3H0.799805" stroke="#00AEEF" stroke-width="0.1675"/>
<path d="M3.0498 188.54H0.799805" stroke="#00AEEF" stroke-width="0.1675"/>
<path d="M3.0498 190.79H0.799805" stroke="#00AEEF" stroke-width="0.1675"/>
<path d="M3.0498 193.03H0.799805" stroke="#00AEEF" stroke-width="0.1675"/>
<path d="M3.0498 195.27H0.799805" stroke="#00AEEF" stroke-width="0.1675"/>
<path d="M3.0498 190.79H0.799805" stroke="#00AEEF" stroke-width="0.1675"/>
<path d="M3.0498 193.03H0.799805" stroke="#00AEEF" stroke-width="0.1675"/>
<path d="M3.0498 197.52H0.799805" stroke="#00AEEF" stroke-width="0.1675"/>
<path d="M3.0498 199.76H0.799805" stroke="#00AEEF" stroke-width="0.1675"/>
<path d="M5.28979 202.01H0.799805" stroke="#00AEEF" stroke-width="0.1675"/>
<path d="M0.799805 168.34V202.01" stroke="#00AEEF" stroke-width="0.1675"/>
<path d="M3.0498 168.34V202.01" stroke="#00AEEF" stroke-width="0.1675"/>
<path d="M23.9297 192.34V194.59" stroke="#00AEEF" stroke-width="0.1675"/>
<path d="M26.1699 192.34V194.59" stroke="#00AEEF" stroke-width="0.1675"/>
<path d="M21.6899 192.34V194.59" stroke="#00AEEF" stroke-width="0.1675"/>
<path d="M23.9297 192.34V194.59" stroke="#00AEEF" stroke-width="0.1675"/>
<path d="M19.4399 192.34V194.59" stroke="#00AEEF" stroke-width="0.1675"/>
<path d="M17.1997 192.34V194.59" stroke="#00AEEF" stroke-width="0.1675"/>
<path d="M14.96 192.34V194.59" stroke="#00AEEF" stroke-width="0.1675"/>
<path d="M12.71 192.34V194.59" stroke="#00AEEF" stroke-width="0.1675"/>
<path d="M10.4697 192.34V194.59" stroke="#00AEEF" stroke-width="0.1675"/>
<path d="M28.4199 192.34V194.59" stroke="#00AEEF" stroke-width="0.1675"/>
<path d="M30.6699 192.34V194.59" stroke="#00AEEF" stroke-width="0.1675"/>
<path d="M32.9097 192.34V194.59" stroke="#00AEEF" stroke-width="0.1675"/>
<path d="M35.1597 192.34V194.59" stroke="#00AEEF" stroke-width="0.1675"/>
<path d="M37.3999 192.34V194.59" stroke="#00AEEF" stroke-width="0.1675"/>
<path d="M32.9097 192.34V194.59" stroke="#00AEEF" stroke-width="0.1675"/>
<path d="M35.1597 192.34V194.59" stroke="#00AEEF" stroke-width="0.1675"/>
<path d="M39.6396 192.34V194.59" stroke="#00AEEF" stroke-width="0.1675"/>
<path d="M41.8896 192.34V194.59" stroke="#00AEEF" stroke-width="0.1675"/>
<path d="M44.1299 192.34V194.59" stroke="#00AEEF" stroke-width="0.1675"/>
<path d="M10.4697 194.59H44.1397" stroke="#00AEEF" stroke-width="0.1675"/>
<path d="M10.4697 192.34H44.1397" stroke="#00AEEF" stroke-width="0.1675"/>
<path d="M57.5996 192.34V194.59" stroke="#00AEEF" stroke-width="0.1675"/>
<path d="M59.8398 192.34V194.59" stroke="#00AEEF" stroke-width="0.1675"/>
<path d="M55.3496 192.34V194.59" stroke="#00AEEF" stroke-width="0.1675"/>
<path d="M57.5996 192.34V194.59" stroke="#00AEEF" stroke-width="0.1675"/>
<path d="M53.1099 192.34V194.59" stroke="#00AEEF" stroke-width="0.1675"/>
<path d="M50.8696 192.34V194.59" stroke="#00AEEF" stroke-width="0.1675"/>
<path d="M48.6196 192.34V194.59" stroke="#00AEEF" stroke-width="0.1675"/>
<path d="M46.3799 192.34V194.59" stroke="#00AEEF" stroke-width="0.1675"/>
<path d="M44.1299 192.34V194.59" stroke="#00AEEF" stroke-width="0.1675"/>
<path d="M62.0796 192.34V194.59" stroke="#00AEEF" stroke-width="0.1675"/>
<path d="M64.3296 192.34V194.59" stroke="#00AEEF" stroke-width="0.1675"/>
<path d="M66.5796 192.34V194.59" stroke="#00AEEF" stroke-width="0.1675"/>
<path d="M68.8198 192.34V194.59" stroke="#00AEEF" stroke-width="0.1675"/>
<path d="M71.0596 192.34V194.59" stroke="#00AEEF" stroke-width="0.1675"/>
<path d="M66.5796 192.34V194.59" stroke="#00AEEF" stroke-width="0.1675"/>
<path d="M68.8198 192.34V194.59" stroke="#00AEEF" stroke-width="0.1675"/>
<path d="M73.3096 192.34V194.59" stroke="#00AEEF" stroke-width="0.1675"/>
<path d="M75.5596 192.34V194.59" stroke="#00AEEF" stroke-width="0.1675"/>
<path d="M77.7998 192.34V194.59" stroke="#00AEEF" stroke-width="0.1675"/>
<path d="M44.1299 194.59H77.7999" stroke="#00AEEF" stroke-width="0.1675"/>
<path d="M44.1299 192.34H77.7999" stroke="#00AEEF" stroke-width="0.1675"/>
<path d="M89.02 192.34V194.59" stroke="#00AEEF" stroke-width="0.1675"/>
<path d="M86.7798 192.34V194.59" stroke="#00AEEF" stroke-width="0.1675"/>
<path d="M84.5298 192.34V194.59" stroke="#00AEEF" stroke-width="0.1675"/>
<path d="M82.29 192.34V194.59" stroke="#00AEEF" stroke-width="0.1675"/>
<path d="M80.04 192.34V194.59" stroke="#00AEEF" stroke-width="0.1675"/>
<path d="M77.7998 192.34V194.59" stroke="#00AEEF" stroke-width="0.1675"/>
<path d="M77.7998 194.59H89.0198" stroke="#00AEEF" stroke-width="0.1675"/>
<path d="M77.7998 192.34H89.0198" stroke="#00AEEF" stroke-width="0.1675"/>
<path d="M282.05 192.34V194.59" stroke="#00AEEF" stroke-width="0.1675"/>
<path d="M284.29 192.34V194.59" stroke="#00AEEF" stroke-width="0.1675"/>
<path d="M279.81 192.34V194.59" stroke="#00AEEF" stroke-width="0.1675"/>
<path d="M282.05 192.34V194.59" stroke="#00AEEF" stroke-width="0.1675"/>
<path d="M277.56 192.34V194.59" stroke="#00AEEF" stroke-width="0.1675"/>
<path d="M275.32 192.34V194.59" stroke="#00AEEF" stroke-width="0.1675"/>
<path d="M273.07 192.34V194.59" stroke="#00AEEF" stroke-width="0.1675"/>
<path d="M270.83 192.34V194.59" stroke="#00AEEF" stroke-width="0.1675"/>
<path d="M268.59 192.34V194.59" stroke="#00AEEF" stroke-width="0.1675"/>
<path d="M286.54 192.34V194.59" stroke="#00AEEF" stroke-width="0.1675"/>
<path d="M288.78 192.34V194.59" stroke="#00AEEF" stroke-width="0.1675"/>
<path d="M291.03 192.34V194.59" stroke="#00AEEF" stroke-width="0.1675"/>
<path d="M293.27 192.34V194.59" stroke="#00AEEF" stroke-width="0.1675"/>
<path d="M295.52 192.34V194.59" stroke="#00AEEF" stroke-width="0.1675"/>
<path d="M291.03 192.34V194.59" stroke="#00AEEF" stroke-width="0.1675"/>
<path d="M293.27 192.34V194.59" stroke="#00AEEF" stroke-width="0.1675"/>
<path d="M297.76 192.34V194.59" stroke="#00AEEF" stroke-width="0.1675"/>
<path d="M300.01 192.34V194.59" stroke="#00AEEF" stroke-width="0.1675"/>
<path d="M302.25 192.34V194.59" stroke="#00AEEF" stroke-width="0.1675"/>
<path d="M268.59 194.59H302.25" stroke="#00AEEF" stroke-width="0.1675"/>
<path d="M268.58 192.34H302.25" stroke="#00AEEF" stroke-width="0.1675"/>
<path d="M315.72 192.34V194.59" stroke="#00AEEF" stroke-width="0.1675"/>
<path d="M317.96 192.34V194.59" stroke="#00AEEF" stroke-width="0.1675"/>
<path d="M313.47 192.34V194.59" stroke="#00AEEF" stroke-width="0.1675"/>
<path d="M315.72 192.34V194.59" stroke="#00AEEF" stroke-width="0.1675"/>
<path d="M311.23 192.34V194.59" stroke="#00AEEF" stroke-width="0.1675"/>
<path d="M308.98 192.34V194.59" stroke="#00AEEF" stroke-width="0.1675"/>
<path d="M306.74 192.34V194.59" stroke="#00AEEF" stroke-width="0.1675"/>
<path d="M304.5 192.34V194.59" stroke="#00AEEF" stroke-width="0.1675"/>
<path d="M302.25 192.34V194.59" stroke="#00AEEF" stroke-width="0.1675"/>
<path d="M320.2 192.34V194.59" stroke="#00AEEF" stroke-width="0.1675"/>
<path d="M322.45 192.34V194.59" stroke="#00AEEF" stroke-width="0.1675"/>
<path d="M324.69 192.34V194.59" stroke="#00AEEF" stroke-width="0.1675"/>
<path d="M326.94 192.34V194.59" stroke="#00AEEF" stroke-width="0.1675"/>
<path d="M329.18 192.34V194.59" stroke="#00AEEF" stroke-width="0.1675"/>
<path d="M324.69 192.34V194.59" stroke="#00AEEF" stroke-width="0.1675"/>
<path d="M326.94 192.34V194.59" stroke="#00AEEF" stroke-width="0.1675"/>
<path d="M331.42 192.34V194.59" stroke="#00AEEF" stroke-width="0.1675"/>
<path d="M333.67 192.34V194.59" stroke="#00AEEF" stroke-width="0.1675"/>
<path d="M335.92 192.34V194.59" stroke="#00AEEF" stroke-width="0.1675"/>
<path d="M302.25 194.59H335.92" stroke="#00AEEF" stroke-width="0.1675"/>
<path d="M302.25 192.34H335.92" stroke="#00AEEF" stroke-width="0.1675"/>
<path d="M347.14 192.34V194.59" stroke="#00AEEF" stroke-width="0.1675"/>
<path d="M344.89 192.34V194.59" stroke="#00AEEF" stroke-width="0.1675"/>
<path d="M342.65 192.34V194.59" stroke="#00AEEF" stroke-width="0.1675"/>
<path d="M340.41 192.34V194.59" stroke="#00AEEF" stroke-width="0.1675"/>
<path d="M338.16 192.34V194.59" stroke="#00AEEF" stroke-width="0.1675"/>
<path d="M335.92 192.34V194.59" stroke="#00AEEF" stroke-width="0.1675"/>
<path d="M335.92 194.59H347.14" stroke="#00AEEF" stroke-width="0.1675"/>
<path d="M335.91 192.34H347.14" stroke="#00AEEF" stroke-width="0.1675"/>
<path d="M10.4697 258.02L10.5697 254.23L11.6297 254.33C13.6297 254.33 14.9597 253.86 15.5797 252.92C16.0697 252.19 16.6597 250.54 16.6597 246.86V213.12C16.6597 209.45 16.0897 207.84 15.6097 207.14C14.9997 206.24 13.6597 205.79 11.6297 205.79H10.4697L10.5697 202.01L33.6897 202.11C39.3497 202.11 43.9697 203.53 47.3997 206.32C50.8997 209.16 52.6797 212.84 52.6797 217.26C52.6797 223.68 49.4097 228.21 42.9697 230.75L42.8097 230.81L42.9397 230.92C44.0097 231.81 45.0697 232.87 46.0897 234.06C47.6697 235.92 49.7497 239.02 52.2797 243.27C55.0297 247.85 57.1897 250.87 58.6897 252.25C60.0897 253.54 61.5297 254.24 62.9797 254.35L64.0597 254.43L63.9697 258.04H51.3597L51.0897 257.66C48.7897 254.89 45.9997 250.81 42.7897 245.54C39.4397 240.13 36.8197 236.65 34.9897 235.21C33.2197 233.82 31.3197 233.14 29.1997 233.14H25.9997L25.8997 246.88C25.8997 250.55 26.5197 252.19 27.0497 252.92C27.7397 253.87 29.0597 254.36 30.9797 254.36H32.1397L32.0397 258.15L10.4697 258.02ZM25.8997 228.65L31.4397 228.75C35.1197 228.75 37.9197 227.74 39.9697 225.67C42.0297 223.59 43.0297 220.89 43.0297 217.43C43.0297 214.07 41.9197 211.44 39.6397 209.39C37.3597 207.33 34.2797 206.29 30.4697 206.29H25.8897V228.65H25.8997Z" fill="#F3F4F4"/>
<path d="M33.6799 202.21C39.3199 202.21 43.91 203.62 47.33 206.39C50.81 209.21 52.57 212.86 52.57 217.25C52.57 223.62 49.32 228.13 42.92 230.65L42.61 230.77L42.8699 230.98C43.9399 231.87 44.9999 232.92 46.0099 234.11C47.5899 235.96 49.67 239.06 52.19 243.31C54.94 247.89 57.1099 250.92 58.6199 252.31C60.0299 253.61 61.5 254.33 62.97 254.43L63.86 254.49V257.91H51.44L51.16 257.56C48.86 254.79 46.0699 250.72 42.8699 245.45C39.5199 240.03 36.89 236.54 35.05 235.09C33.26 233.68 31.35 233 29.2 233H26.0099H25.81V233.2V246.84C25.81 250.53 26.4499 252.19 26.9799 252.94C27.6899 253.92 29.04 254.42 30.99 254.42H31.95V257.91H10.67V254.42H11.63C13.66 254.42 15.02 253.93 15.66 252.97C16.16 252.23 16.7599 250.56 16.7599 246.85V213.11C16.7599 209.41 16.18 207.79 15.69 207.07C15.06 206.14 13.69 205.68 11.63 205.68H10.67V202.19H33.6799V202.21ZM25.8 228.85H26H31.44C35.15 228.85 37.97 227.83 40.05 225.74C42.13 223.64 43.14 220.92 43.14 217.43C43.14 214.04 42.02 211.39 39.72 209.32C37.42 207.25 34.3099 206.2 30.4799 206.2H26H25.8V206.4V228.66V228.85V228.85ZM33.6799 202.01H10.46V205.89H11.6199C13.6199 205.89 14.93 206.33 15.52 207.2C15.99 207.89 16.55 209.48 16.55 213.13V246.87C16.55 250.53 15.97 252.15 15.49 252.88C14.88 253.79 13.5799 254.24 11.6199 254.24H10.46V258.13H32.13V254.24H30.97C29.08 254.24 27.7899 253.77 27.1199 252.84C26.5999 252.12 25.99 250.5 25.99 246.86V233.22H29.1799C31.2799 233.22 33.16 233.89 34.91 235.27C36.74 236.71 39.3499 240.18 42.6799 245.58C45.8999 250.87 48.7 254.94 50.99 257.71L51.33 258.13H64.0399V254.32L62.96 254.24C61.53 254.14 60.1099 253.44 58.7299 252.17C57.2299 250.79 55.08 247.78 52.34 243.21C49.81 238.95 47.73 235.85 46.14 233.98C45.11 232.77 44.05 231.72 42.9799 230.82C49.4699 228.27 52.7599 223.71 52.7599 217.24C52.7599 212.79 50.97 209.09 47.45 206.23C44.01 203.43 39.3699 202.01 33.6799 202.01ZM25.99 228.65V206.4H30.47C34.25 206.4 37.31 207.43 39.57 209.47C41.83 211.5 42.92 214.11 42.92 217.44C42.92 220.88 41.93 223.55 39.89 225.61C37.85 227.66 35.08 228.66 31.42 228.66H25.99V228.65Z" fill="black"/>
<path d="M71.5298 258.02L71.6298 254.23L72.6998 254.33C74.6798 254.33 75.9998 253.87 76.6398 252.95C77.1398 252.23 77.7298 250.59 77.7298 246.86V213.31C77.7298 209.5 77.1498 207.86 76.6598 207.15C76.0298 206.25 74.6998 205.79 72.6898 205.79H71.5298L71.6298 202.01L93.2098 202.11L93.1098 205.89L92.0498 205.79C90.1298 205.79 88.8198 206.27 88.1498 207.22C87.6298 207.95 87.0098 209.61 87.0098 213.31V246.86C87.0098 250.56 87.6298 252.2 88.1398 252.92C88.8098 253.86 90.1198 254.33 92.0398 254.33H93.1998L93.0998 258.02H71.5298V258.02Z" fill="#F3F4F4"/>
<path d="M93.0098 202.21V205.7H92.0498C90.0998 205.7 88.7598 206.2 88.0698 207.18C87.5398 207.93 86.9098 209.6 86.9098 213.32V246.87C86.9098 250.6 87.5398 252.25 88.0598 252.99C88.7498 253.96 90.0898 254.45 92.0498 254.45H93.0098V257.94H71.7298V254.45H72.6998C74.7098 254.45 76.0598 253.97 76.7198 253.02C77.2298 252.29 77.8298 250.63 77.8298 246.87V213.32C77.8298 209.49 77.2398 207.82 76.7398 207.1C76.0898 206.17 74.7298 205.7 72.6898 205.7H71.7198V202.21H93.0098V202.21ZM93.2098 202.01H71.5398V205.89H72.7098C74.6798 205.89 75.9898 206.33 76.5898 207.21C77.0698 207.9 77.6398 209.52 77.6398 213.32V246.87C77.6398 250.59 77.0498 252.2 76.5598 252.9C75.9398 253.79 74.6398 254.24 72.6998 254.24H71.5298V258.12H93.1998V254.24H92.0398C90.1598 254.24 88.8698 253.78 88.2098 252.87C87.6998 252.16 87.0898 250.54 87.0898 246.87V213.32C87.0898 209.64 87.6998 208.01 88.2098 207.29C88.8598 206.37 90.1498 205.9 92.0298 205.9H93.1898V202.01H93.2098Z" fill="black"/>
<path d="M128.96 258.03C120.81 258.03 114.01 255.41 108.74 250.24C103.46 245.07 100.79 238.37 100.79 230.32C100.79 222.52 103.62 215.8 109.21 210.34C114.79 204.88 121.65 202.11 129.58 202.11C137.31 202.11 144.04 204.86 149.58 210.27C155.13 215.7 157.94 222.25 157.94 229.76C157.94 237.89 155.17 244.71 149.7 250.03C144.25 255.33 137.27 258.03 128.96 258.03ZM128 206.62C123.08 206.62 119.24 208.39 116.24 212.02C113.24 215.66 111.71 220.53 111.71 226.49C111.71 234.17 113.64 240.67 117.45 245.8C121.24 250.91 125.81 253.4 131.42 253.4C136.28 253.4 140 251.67 142.79 248.12C145.6 244.55 147.02 239.57 147.02 233.35C147.02 225.42 145.2 218.89 141.61 213.93C138.05 209.01 133.6 206.62 128 206.62Z" fill="#F3F4F4"/>
<path d="M129.59 202.21C137.3 202.21 144 204.95 149.52 210.34C155.05 215.75 157.85 222.28 157.85 229.75C157.85 237.85 155.09 244.65 149.64 249.95C144.21 255.24 137.25 257.93 128.97 257.93C120.85 257.93 114.07 255.32 108.82 250.17C103.56 245.02 100.9 238.34 100.9 230.32C100.9 222.55 103.72 215.85 109.29 210.41C114.84 204.97 121.68 202.21 129.59 202.21ZM131.42 253.5C136.32 253.5 140.06 251.76 142.87 248.18C145.69 244.59 147.12 239.59 147.12 233.35C147.12 225.4 145.29 218.85 141.69 213.87C138.1 208.92 133.62 206.52 127.99 206.52C123.04 206.52 119.17 208.3 116.16 211.95C113.14 215.61 111.61 220.5 111.61 226.48C111.61 234.18 113.55 240.7 117.37 245.85C121.19 251 125.78 253.5 131.42 253.5ZM129.59 202.01C121.63 202.01 114.75 204.79 109.15 210.26C103.54 215.74 100.7 222.49 100.7 230.31C100.7 238.38 103.38 245.11 108.68 250.3C113.97 255.49 120.79 258.12 128.97 258.12C137.3 258.12 144.31 255.42 149.78 250.09C155.27 244.75 158.05 237.91 158.05 229.75C158.05 222.21 155.23 215.64 149.66 210.19C144.1 204.76 137.34 202.01 129.59 202.01ZM131.42 253.3C125.85 253.3 121.31 250.83 117.53 245.74C113.73 240.62 111.81 234.14 111.81 226.49C111.81 220.55 113.32 215.7 116.31 212.08C119.29 208.47 123.11 206.72 127.99 206.72C133.55 206.72 137.98 209.1 141.53 213.99C145.11 218.93 146.92 225.44 146.92 233.35C146.92 239.55 145.51 244.5 142.71 248.06C139.94 251.59 136.25 253.3 131.42 253.3Z" fill="black"/>
<path d="M171.14 258.02L171.24 256.63L209.15 204.63H183.9C180.36 204.63 177.77 205.11 176.2 206.06C174.62 207.01 173.41 208.86 172.62 211.55L171.14 211.48L172.15 202.02L218.53 202.11L218.43 203.73L180.81 255.49H203C207.65 255.49 211.29 254.64 213.83 252.96C216.37 251.28 218.29 248.47 219.53 244.61L221.11 244.68L218.97 258.02H171.14Z" fill="#F3F4F4"/>
<path d="M218.33 202.21V203.67L180.84 255.28L180.61 255.59H181H203C207.67 255.59 211.33 254.74 213.88 253.05C216.41 251.38 218.32 248.6 219.58 244.78H220.88L218.88 257.92H171.33V256.7L209.1 204.85L209.33 204.54H208.94H183.9C180.34 204.54 177.73 205.03 176.15 205.98C174.58 206.93 173.37 208.75 172.56 211.38H171.35L172.22 202.21H218.33ZM218.53 202.01H172.05L171.14 211.58H172.72C173.52 208.9 174.7 207.09 176.26 206.15C177.82 205.21 180.37 204.74 183.91 204.74H208.95L171.14 256.64V258.13H219.06L221.12 244.59H219.45C218.21 248.45 216.32 251.22 213.79 252.89C211.26 254.57 207.67 255.4 203.02 255.4H181.02L218.55 203.74V202.01H218.53Z" fill="black"/>
<path d="M253.13 258.02C244.96 258.02 238.14 255.4 232.88 250.24C227.61 245.07 224.95 238.37 224.95 230.32C224.95 222.53 227.78 215.8 233.37 210.34C238.96 204.88 245.83 202.11 253.78 202.11C261.52 202.11 268.25 204.86 273.8 210.28C279.35 215.7 282.16 222.25 282.16 229.75C282.16 237.89 279.39 244.71 273.93 250.03C268.47 255.33 261.47 258.02 253.13 258.02ZM252.13 204.49C246.72 204.49 242.3 206.52 238.99 210.53C235.68 214.53 234.01 219.85 234.01 226.34C234.01 234.59 236.1 241.59 240.22 247.15C244.35 252.71 249.56 255.53 255.7 255.53C261.07 255.53 265.36 253.53 268.45 249.59C271.54 245.65 273.11 240.23 273.11 233.49C273.11 224.99 271.14 217.95 267.25 212.59C263.35 207.21 258.26 204.49 252.13 204.49Z" fill="#F3F4F4"/>
<path d="M253.78 202.21C261.49 202.21 268.2 204.95 273.73 210.35C279.26 215.75 282.06 222.28 282.06 229.75C282.06 237.86 279.3 244.66 273.86 249.95C268.42 255.25 261.44 257.93 253.13 257.93C244.98 257.93 238.2 255.32 232.95 250.18C227.7 245.03 225.04 238.36 225.04 230.33C225.04 222.56 227.86 215.86 233.43 210.42C239.01 204.97 245.86 202.21 253.78 202.21ZM255.69 255.62C261.09 255.62 265.4 253.61 268.52 249.64C271.63 245.68 273.2 240.24 273.2 233.48C273.2 224.96 271.22 217.91 267.32 212.52C263.41 207.12 258.3 204.38 252.13 204.38C246.69 204.38 242.24 206.43 238.92 210.46C235.6 214.48 233.91 219.82 233.91 226.33C233.91 234.6 236.01 241.62 240.14 247.2C244.28 252.79 249.52 255.62 255.69 255.62ZM253.78 202.01C245.76 202.01 238.94 204.77 233.3 210.27C227.67 215.78 224.85 222.46 224.85 230.32C224.85 238.44 227.51 245.1 232.81 250.31C238.12 255.52 244.89 258.12 253.13 258.12C261.53 258.12 268.49 255.44 274 250.08C279.5 244.73 282.26 237.94 282.26 229.74C282.26 222.18 279.46 215.67 273.87 210.2C268.28 204.74 261.58 202.01 253.78 202.01ZM255.69 255.43C249.55 255.43 244.42 252.65 240.29 247.09C236.16 241.52 234.1 234.61 234.1 226.34C234.1 219.85 235.75 214.6 239.06 210.59C242.37 206.59 246.72 204.58 252.12 204.58C258.25 204.58 263.26 207.27 267.16 212.63C271.05 218 273 224.95 273 233.47C273 240.22 271.46 245.57 268.36 249.51C265.27 253.46 261.05 255.43 255.69 255.43Z" fill="black"/>
<path d="M318.01 258.02C309.84 258.02 303.03 255.4 297.76 250.24C292.5 245.08 289.83 238.38 289.83 230.32C289.83 222.52 292.66 215.8 298.25 210.34C303.84 204.88 310.7 202.11 318.66 202.11C326.4 202.11 333.13 204.86 338.68 210.28C344.23 215.7 347.04 222.25 347.04 229.75C347.04 237.89 344.27 244.72 338.81 250.03C333.35 255.33 326.35 258.02 318.01 258.02ZM317.01 204.49C311.6 204.49 307.18 206.52 303.87 210.53C300.56 214.53 298.89 219.85 298.89 226.34C298.89 234.59 300.98 241.59 305.1 247.15C309.23 252.71 314.44 255.53 320.58 255.53C325.95 255.53 330.24 253.53 333.33 249.59C336.42 245.65 337.99 240.23 337.99 233.49C337.99 224.98 336.02 217.95 332.14 212.59C328.24 207.21 323.15 204.49 317.01 204.49Z" fill="#F3F4F4"/>
<path d="M318.66 202.21C326.37 202.21 333.08 204.95 338.61 210.35C344.14 215.75 346.94 222.28 346.94 229.75C346.94 237.86 344.18 244.66 338.75 249.95C333.31 255.25 326.33 257.93 318.02 257.93C309.88 257.93 303.09 255.32 297.84 250.18C292.6 245.04 289.94 238.36 289.94 230.33C289.94 222.56 292.76 215.86 298.33 210.42C303.89 204.97 310.74 202.21 318.66 202.21ZM320.57 255.62C325.97 255.62 330.28 253.61 333.4 249.64C336.5 245.68 338.08 240.24 338.08 233.48C338.08 224.95 336.11 217.9 332.21 212.52C328.3 207.12 323.18 204.38 317.01 204.38C311.57 204.38 307.13 206.43 303.8 210.46C300.48 214.48 298.79 219.82 298.79 226.33C298.79 234.6 300.89 241.62 305.02 247.2C309.17 252.79 314.4 255.62 320.57 255.62ZM318.66 202.01C310.64 202.01 303.82 204.77 298.19 210.27C292.55 215.78 289.74 222.46 289.74 230.32C289.74 238.44 292.39 245.1 297.7 250.31C303.01 255.52 309.78 258.12 318.02 258.12C326.42 258.12 333.38 255.44 338.89 250.08C344.39 244.73 347.14 237.94 347.14 229.74C347.14 222.18 344.34 215.67 338.75 210.2C333.16 204.74 326.46 202.01 318.66 202.01ZM320.57 255.43C314.44 255.43 309.3 252.65 305.17 247.09C301.05 241.52 298.98 234.61 298.98 226.34C298.98 219.85 300.63 214.6 303.94 210.59C307.25 206.59 311.6 204.58 317 204.58C323.13 204.58 328.15 207.27 332.04 212.63C335.93 218 337.87 224.95 337.87 233.47C337.87 240.22 336.33 245.57 333.24 249.51C330.16 253.46 325.93 255.43 320.57 255.43Z" fill="black"/>
<path d="M3.0498 202.01H354.56" stroke="#00AEEF" stroke-width="0.1675"/>
<path d="M3.0498 258.12H354.56" stroke="#00AEEF" stroke-width="0.1675"/>
<path d="M10.4697 194.59V265.54" stroke="#00AEEF" stroke-width="0.1675"/>
<path d="M347.14 194.59V265.54" stroke="#00AEEF" stroke-width="0.1675"/>
</svg>
