<svg width="872" height="222" viewBox="0 0 872 222" fill="none" xmlns="http://www.w3.org/2000/svg">
<g clip-path="url(#clip0)">
<path d="M242.65 134.27C245.99 134.27 250.55 136.32 252.13 142.77C256.05 134.33 251.26 124.43 244.41 118.84C242.58 119.89 239.44 122.7 237.6 126.44C236.02 129.64 235.36 133.53 236.94 137.52C236.94 137.52 237.05 137.57 237.23 137.57C237.63 137.57 238.36 137.32 238.95 135.8C239.3 134.91 240.78 134.27 242.65 134.27Z" fill="#FF9100"/>
<path d="M142.56 71.05C138.12 71.05 138.12 75.05 138.12 79.17C138.12 83.29 138.12 87.39 142.56 87.39C147.1 87.39 147.1 82.84 147.1 79.22C147.1 75.6 147.1 71.05 142.56 71.05Z" fill="#FF9100"/>
<path d="M131.37 111.87C131.19 112.16 131.24 112.81 131.72 112.81C133.49 112.8 133.92 113.3 136.02 113.17C138.11 113.04 138.2 111.24 138.06 110.35C137.93 109.45 137.21 108.23 135.38 108.77C133.19 109.4 131.51 111.63 131.37 111.87Z" fill="#FF9100"/>
<path d="M169.37 36.72C178.3 39.55 185.08 43.75 189.83 50.01C191.79 52.6 195.24 61.57 196.48 64.67C195.45 54.88 207.59 45.8 217.72 49.57C212.13 44.43 202.73 39.89 203.14 30.38C203.2 28.98 201.62 28.29 199.92 28.29C199.33 28.29 198.73 28.38 198.17 28.54C196 29.18 195.58 32.02 195.47 33.44C195.37 34.86 193.77 36.5 191.22 36.82C190.56 36.91 189.73 36.94 188.88 36.94C187.37 36.94 185.81 36.83 185.15 36.72C184.11 36.53 182.7 36.93 182.48 33.77C181 34.9 179.07 35.65 176.99 35.65C175.02 35.65 172.94 34.98 170.97 33.34C170.6 33.03 170.2 32.91 169.8 32.91C168.88 32.91 168 33.57 167.77 34.32C167.45 35.41 168.01 36.29 169.37 36.72Z" fill="#FF9100"/>
<path d="M174.14 21.44C182.54 22.26 185.09 28.81 184.61 31.34C184.48 32.02 184.48 32.57 184.55 33.01C184.6 33.13 184.63 33.26 184.65 33.38C184.82 33.91 185.14 34.25 185.47 34.51C185.49 34.51 185.5 34.51 185.52 34.52C185.94 34.59 187.3 34.71 188.86 34.71C189.71 34.71 190.41 34.67 190.92 34.61C191.42 34.54 191.82 34.41 192.15 34.25C192.72 33.9 193.06 33.48 193.28 33C193.73 28.23 196.13 26.81 197.53 26.39C198.28 26.17 199.11 26.05 199.91 26.05C200.32 26.05 200.72 26.08 201.1 26.13C205.87 26.24 213.68 31.58 217.61 39.1C218.25 40.34 219.08 40.58 219.69 40.34C220.3 40.08 220.68 39.14 220.33 37.55C215.91 17.33 193.59 0.910045 171.43 0.0600448C151.06 -0.709955 139.34 4.51005 133.31 12.26C127.27 20.03 127.27 30.93 131.47 37.39C133.85 41.05 136.52 43.02 139.37 43.8C134.76 41.27 133.97 37.25 134.26 34.72C135.82 39.35 139.52 41.01 142.47 40.54C137.55 39 136.58 33.59 137.96 30.92C138.52 33.91 140.89 37.85 144.25 37.29C140.89 35.98 139.97 30.46 140.88 27.9C141.28 29.27 142.27 33.31 145.53 33.17C142.94 32.14 142.4 27.61 143.86 25.08C143.94 27.43 144.71 29.38 146.85 29.66C144.79 28.47 145.39 23.48 146.85 22.21C146.36 23.75 146.57 25.86 148.65 26.43C148.01 23.53 149.45 21.93 149.45 21.93C150.73 20.78 152.22 21.43 152.34 22.75C152.47 24.34 151.33 24.25 150.9 26.82C150.68 28.1 151.2 29.44 152.17 30.37C153.29 31.44 155.7 31.69 156.66 31.44C157.62 31.19 158.69 31.01 159.2 28.48C160.08 24.14 165.75 20.62 174.14 21.44Z" fill="#FF9100"/>
<path d="M193.28 61.3C192 57.64 190.22 54.22 188.06 51.37C187.63 50.8 187.17 50.25 186.7 49.72C185.41 48.28 183.93 46.88 182.23 45.56C178.59 42.79 174.11 40.58 168.71 38.86C165.82 37.94 165.09 35.6 165.65 33.69C166.16 31.97 167.94 30.67 169.8 30.67C170.75 30.67 171.65 31 172.39 31.62C173.81 32.81 175.36 33.34 176.99 33.41C179.75 33.53 181.29 32.82 181.93 31.62C182.56 30.42 182.14 28.3 180.94 26.93C179.05 24.78 176.7 23.61 172.67 23.61C171.94 23.61 171.17 23.65 170.32 23.74C164.09 24.38 161.05 27.75 159.94 32.01C158.81 36.27 161.69 42.37 167.6 43.31C178.22 45 186.94 53.62 190.43 62.99C199.51 87.35 182.28 101.27 174.59 103.19C173.97 103.34 173.59 103.93 173.83 104.39C173.94 104.59 174.11 104.66 174.33 104.66C174.61 104.66 174.96 104.54 175.25 104.46C183.03 102.25 201.73 91.67 193.51 62.04C193.43 61.79 193.36 61.54 193.28 61.3Z" fill="#FF9100"/>
<path d="M221.69 100C225.86 99.9601 229.09 100.3 234.83 103.08C236.72 104 238.43 105.09 239.94 106.34C240.37 97.9701 237.67 82.3001 230.39 72.0801C233.92 78.2201 237.05 88.8501 236.43 96.4001C235.6 88.3001 233.32 83.7201 229.98 78.5101C232.83 86.1101 233.24 92.2101 232.33 95.6701C232.95 91.7301 231.64 86.1401 228.48 83.4001C230.87 87.8901 231.01 93.0401 229.37 94.9301C229.62 92.6901 229.23 90.1701 226.51 87.6801C227.81 91.5701 226.39 94.3201 225.6 95.1401C225.87 92.2001 224.72 91.1901 224.01 90.4701C224.54 93.3901 223.44 95.1401 223.44 95.1401C223.44 95.1401 223.52 92.9001 221.79 92.2301C217.61 97.6501 196.66 100.03 195.45 117.78C195.44 118.15 195.48 118.37 195.54 118.52C199.71 106.8 212.07 100.07 221.69 100Z" fill="#FF9100"/>
<path d="M221.69 102.23C213.67 102.23 204.62 107.62 199.76 115.96C199.7 116.06 199.64 116.16 199.59 116.27C199.54 116.35 199.49 116.44 199.44 116.53C197.82 119.34 196.77 121.34 194.22 121.78C193.96 121.82 193.71 121.85 193.48 121.85C191.41 121.85 190.2 120.24 189.74 118.23C188.16 122.68 192.84 123.85 192.84 123.85C192.84 123.85 191.8 124.45 190.55 124.45C189.62 124.45 188.59 124.11 187.78 122.95C188.35 125.97 190.4 126.41 191.56 126.41C192.05 126.41 192.38 126.33 192.38 126.33C192.38 126.33 191.39 127.62 189.71 127.62C189.18 127.62 188.56 127.49 187.9 127.13C188.7 129.76 191.59 129.94 191.59 129.94C191.59 129.94 190.89 130.79 189.39 130.79C188.9 130.79 188.33 130.7 187.66 130.45C188.31 132.56 190.99 133.17 190.99 133.17C190.99 133.17 190.46 133.74 189.58 133.74C189.06 133.74 188.4 133.54 187.66 132.88C188.21 134.76 190.15 135.37 190.15 135.37C190.15 135.37 189.75 135.86 188.97 135.86C188.7 135.86 188.39 135.81 188.05 135.67C189.9 136.73 189.32 138.44 188.61 139.86C182.53 152.02 171.36 156.33 169.54 158.59C167.11 161.6 167.43 164.79 168.48 166.78C169.87 169.45 171.94 170.54 174.45 170.54C175 170.54 175.56 170.48 176.15 170.39C174.15 172.65 175.02 176.39 175.73 177.59C176.55 179.01 178.59 181.19 181.86 181.19C182.5 181.19 183.18 181.1 183.9 180.92C182.15 184.03 183.24 186.68 183.75 187.63C184.47 189 186.7 191.56 190.86 191.56C203.09 191.56 215.87 176.09 222.18 167.08C228.5 158.08 234.97 141.21 234.97 139.74C231.3 133.44 233.61 128.2 234.97 125.42C236.33 122.63 239.53 118.05 244.32 115.84C240.06 105.35 228.23 102.23 221.69 102.23Z" fill="#FF9100"/>
<path d="M176.6 105.35C182.65 109.67 185.05 107.38 188.62 110.23C192.64 113.45 189.69 116.57 194.01 120.65C193.14 111.5 195.9 106.17 200.14 102.4C205.21 97.9 212.4 95.6 218.06 91.66C232.38 81.7 233.08 60.63 219.47 52.97C211.25 48.34 198.63 55.73 198.91 64.95C199.14 72.9 202.95 73.71 201.46 82.56C199.68 92.95 190.69 100.36 176.6 105.35Z" fill="#FF9100"/>
<path d="M199.49 82.0701C200.04 77.4801 199.27 75.6701 198.37 73.1901C198.04 72.2901 197.69 71.3201 197.4 70.2101C198.47 78.9801 197.13 86.5901 193.36 92.9501C196.3 90.0401 198.94 86.6501 199.49 82.0701Z" fill="#FF9100"/>
<path d="M128.35 221.83C140.97 197.11 172.87 202.27 188.14 193.84C183.96 193.84 181.12 190.68 180.4 189.31C179.9 188.35 179.06 186.22 180.83 183.11C176.33 184.26 173.34 180.96 172.34 179.27C171.64 178.06 170.76 174.33 172.77 172.06C169.48 172.61 166.76 171.71 165.05 168.46C164.01 166.46 163.69 162.54 166.12 159.53C149.94 164.42 129.71 178.85 128.35 205.14C130.03 195.64 135.69 188 143.3 183.11C134.01 191.19 128.35 199.97 128.35 215.45C130.52 203.91 139.04 196.86 146.51 193.19C140.33 197.36 129.2 205.49 128.35 221.83Z" fill="#FF9100"/>
<path d="M172.07 141.34C171.97 142.26 169.39 150.47 158.88 156.97C151.08 161.79 144.74 164.09 130.14 166.68C128.64 166.95 128.25 167.49 128.38 167.98C128.52 168.51 129.05 168.64 130.26 168.4C143.26 165.82 151.24 163.61 159.78 159.54C171.4 154.01 177.62 150.7 182.36 141.94C182.87 141.01 184.05 140.75 185.17 139.97C186.29 139.2 186.42 137.92 186.22 137.11C186.02 136.29 185.29 135.64 184.41 135.95C183.63 136.22 183.09 137.11 182.53 137.19C186.3 131.7 184.78 123.15 184.78 122.21C184.78 120.45 185.71 119.67 186.12 119.04C186.75 118.08 186.35 118.77 186.71 118.2C187.08 117.62 186.92 116.52 186.48 116.15C186.03 115.78 185.24 115.89 184.71 116.48C183.22 118.12 183.75 119.35 181.9 118.94C182.22 115.13 181.78 112.81 181.33 111.81C179.64 108.05 175.5 105.96 172.57 108.13C169.64 110.3 170.78 114.55 172.09 115.9C173.69 117.54 174.85 119.06 175.31 120.51C174.37 120.88 173.86 120.4 172.89 119.91C171.55 119.23 170.65 120.26 170.56 120.89C170.4 122.04 171.35 122.97 172.37 123.31C174.5 124.01 175.21 125.65 175.29 128.52C175.38 131.38 175.36 134.17 173.88 136.83C173.71 137.13 172.73 136.33 172.03 135.99C171.45 135.71 170.82 135.99 170.26 136.48C169.7 136.97 169.62 138.17 170.17 138.81C170.68 139.42 172.17 140.42 172.07 141.34Z" fill="#FF9100"/>
<path d="M126.77 172.53C123.6 172.53 118.53 172.08 112.54 170.16C117.88 173.42 124.94 182.7 126.77 190.15C128.61 182.7 135.66 173.42 141.01 170.16C134.76 172.08 129.94 172.53 126.77 172.53Z" fill="#FF9100"/>
<path d="M10.89 134.27C7.55003 134.27 2.99003 136.32 1.41003 142.77C-2.49997 134.33 2.30003 124.43 9.14003 118.84C10.96 119.89 14.11 122.7 15.95 126.44C17.53 129.64 18.19 133.53 16.61 137.52C16.61 137.52 16.5 137.57 16.32 137.57C15.92 137.57 15.19 137.32 14.6 135.8C14.24 134.91 12.76 134.27 10.89 134.27Z" fill="#FF9100"/>
<path d="M110.97 71.05C115.41 71.05 115.41 75.05 115.41 79.17C115.41 83.29 115.41 87.39 110.97 87.39C106.43 87.39 106.43 82.84 106.43 79.22C106.43 75.6 106.43 71.05 110.97 71.05Z" fill="#FF9100"/>
<path d="M122.17 111.87C122.35 112.16 122.29 112.81 121.82 112.81C120.05 112.8 119.61 113.3 117.52 113.17C115.42 113.04 115.34 111.24 115.47 110.35C115.61 109.45 116.32 108.23 118.15 108.77C120.36 109.4 122.03 111.63 122.17 111.87Z" fill="#FF9100"/>
<path d="M84.1601 36.72C75.2301 39.55 68.4501 43.75 63.7101 50.01C61.7401 52.6 58.2901 61.57 57.0501 64.67C58.0801 54.88 45.9501 45.8 35.8201 49.57C41.4101 44.43 50.8101 39.89 50.4001 30.38C50.3301 28.98 51.9101 28.29 53.6201 28.29C54.2001 28.29 54.8101 28.38 55.3601 28.54C57.5301 29.18 57.9601 32.02 58.0601 33.44C58.1701 34.86 59.7701 36.5 62.3201 36.82C62.9801 36.91 63.8101 36.94 64.6601 36.94C66.1701 36.94 67.7301 36.83 68.4001 36.72C69.4401 36.53 70.8501 36.93 71.0701 33.77C72.5501 34.9 74.4801 35.65 76.5601 35.65C78.5301 35.65 80.6101 34.98 82.5801 33.34C82.9401 33.03 83.3501 32.91 83.7601 32.91C84.6701 32.91 85.5601 33.57 85.7801 34.32C86.0801 35.41 85.5201 36.29 84.1601 36.72Z" fill="#FF9100"/>
<path d="M79.39 21.44C70.99 22.26 68.45 28.81 68.92 31.34C69.05 32.02 69.05 32.57 68.98 33.01C68.93 33.13 68.9 33.26 68.88 33.38C68.71 33.91 68.4 34.25 68.06 34.51C68.03 34.51 68.03 34.51 68 34.52C67.59 34.59 66.23 34.71 64.66 34.71C63.81 34.71 63.11 34.67 62.6 34.61C62.1 34.54 61.7 34.41 61.37 34.25C60.8 33.9 60.46 33.48 60.24 33C59.79 28.23 57.39 26.81 55.98 26.39C55.24 26.17 54.42 26.05 53.61 26.05C53.2 26.05 52.8 26.08 52.42 26.13C47.66 26.24 39.84 31.58 35.91 39.1C35.27 40.34 34.45 40.58 33.83 40.34C33.22 40.08 32.85 39.14 33.19 37.55C37.61 17.33 59.93 0.910045 82.09 0.0600448C102.46 -0.709955 114.18 4.51005 120.2 12.26C126.24 20.03 126.24 30.93 122.03 37.39C119.65 41.05 116.99 43.02 114.13 43.8C118.75 41.27 119.54 37.25 119.24 34.72C117.68 39.35 113.99 41.01 111.03 40.54C115.95 39 116.92 33.59 115.55 30.92C114.99 33.91 112.62 37.85 109.25 37.29C112.61 35.98 113.53 30.46 112.63 27.9C112.22 29.27 111.24 33.31 107.98 33.17C110.57 32.14 111.12 27.61 109.66 25.08C109.57 27.43 108.81 29.38 106.66 29.66C108.72 28.47 108.12 23.48 106.66 22.21C107.14 23.75 106.94 25.86 104.86 26.43C105.51 23.53 104.06 21.93 104.06 21.93C102.78 20.78 101.29 21.43 101.19 22.75C101.05 24.34 102.19 24.25 102.63 26.82C102.84 28.1 102.32 29.44 101.35 30.37C100.22 31.44 97.82 31.69 96.86 31.44C95.9 31.19 94.82 31.01 94.31 28.48C93.46 24.14 87.78 20.62 79.39 21.44Z" fill="#FF9100"/>
<path d="M60.25 61.3C61.53 57.64 63.31 54.22 65.47 51.37C65.9 50.8 66.36 50.25 66.83 49.72C68.12 48.28 69.61 46.88 71.31 45.56C74.95 42.79 79.43 40.58 84.82 38.86C87.71 37.94 88.44 35.6 87.88 33.69C87.37 31.97 85.59 30.67 83.73 30.67C82.77 30.67 81.87 31 81.13 31.62C79.71 32.81 78.16 33.34 76.53 33.41C73.77 33.53 72.24 32.82 71.59 31.62C70.96 30.42 71.37 28.3 72.58 26.93C74.47 24.78 76.81 23.61 80.85 23.61C81.57 23.61 82.35 23.65 83.2 23.74C89.43 24.38 92.48 27.75 93.59 32.01C94.7 36.27 91.83 42.37 85.92 43.31C75.3 45 66.58 53.62 63.09 62.99C54.01 87.35 71.24 101.27 78.93 103.19C79.55 103.34 79.94 103.93 79.7 104.39C79.59 104.59 79.41 104.66 79.19 104.66C78.91 104.66 78.55 104.54 78.27 104.46C70.49 102.25 51.79 91.67 60 62.04C60.1 61.79 60.18 61.54 60.25 61.3Z" fill="#FF9100"/>
<path d="M31.8501 100C27.6801 99.9601 24.4601 100.3 18.7201 103.08C16.8301 104 15.1301 105.09 13.6101 106.34C13.1701 97.9701 15.8801 82.3001 23.1601 72.0801C19.6301 78.2201 16.4901 88.8501 17.1201 96.4001C17.9501 88.3001 20.2301 83.7201 23.5701 78.5101C20.7201 86.1101 20.3001 92.2101 21.2201 95.6701C20.6101 91.7301 21.9101 86.1401 25.0701 83.4001C22.6701 87.8901 22.5301 93.0401 24.1701 94.9301C23.9201 92.6901 24.3101 90.1701 27.0401 87.6801C25.7301 91.5701 27.1501 94.3201 27.9501 95.1401C27.6701 92.2001 28.8401 91.1901 29.5401 90.4701C28.9901 93.3901 30.1101 95.1401 30.1101 95.1401C30.1101 95.1401 30.0301 92.9001 31.7501 92.2301C35.9301 97.6501 56.8801 100.03 58.0901 117.78C58.1001 118.15 58.0701 118.37 58.0001 118.52C53.8301 106.8 41.4701 100.07 31.8501 100Z" fill="#FF9100"/>
<path d="M31.85 102.23C39.87 102.23 48.92 107.62 53.78 115.96C53.84 116.06 53.9 116.16 53.96 116.27C54 116.35 54.05 116.44 54.1 116.53C55.73 119.34 56.77 121.34 59.32 121.78C59.59 121.82 59.84 121.85 60.07 121.85C62.15 121.85 63.35 120.24 63.81 118.23C65.39 122.68 60.71 123.85 60.71 123.85C60.71 123.85 61.75 124.45 63 124.45C63.93 124.45 64.97 124.11 65.77 122.95C65.2 125.97 63.15 126.41 61.99 126.41C61.5 126.41 61.17 126.33 61.17 126.33C61.17 126.33 62.16 127.62 63.84 127.62C64.39 127.62 64.99 127.49 65.66 127.13C64.85 129.76 61.97 129.94 61.97 129.94C61.97 129.94 62.67 130.79 64.16 130.79C64.65 130.79 65.22 130.7 65.89 130.45C65.25 132.56 62.57 133.17 62.57 133.17C62.57 133.17 63.1 133.74 63.98 133.74C64.5 133.74 65.15 133.54 65.89 132.88C65.34 134.76 63.4 135.37 63.4 135.37C63.4 135.37 63.8 135.86 64.59 135.86C64.85 135.86 65.16 135.81 65.5 135.67C63.66 136.73 64.24 138.44 64.95 139.86C71.03 152.02 82.2 156.33 84.02 158.59C86.45 161.6 86.13 164.79 85.08 166.78C83.69 169.45 81.62 170.54 79.11 170.54C78.56 170.54 78 170.48 77.41 170.39C79.41 172.65 78.54 176.39 77.83 177.59C77.01 179.01 74.97 181.19 71.7 181.19C71.06 181.19 70.39 181.1 69.65 180.92C71.41 184.03 70.31 186.68 69.81 187.63C69.09 189 66.85 191.56 62.7 191.56C50.47 191.56 37.69 176.09 31.37 167.08C25.07 158.08 18.59 141.21 18.59 139.74C22.27 133.44 19.95 128.2 18.59 125.42C17.23 122.63 14.04 118.05 9.25 115.84C13.48 105.35 25.3 102.23 31.85 102.23Z" fill="#FF9100"/>
<path d="M76.9401 105.35C70.8801 109.67 68.4901 107.38 64.9201 110.23C60.8901 113.45 63.8401 116.57 59.5201 120.65C60.4001 111.5 57.6401 106.17 53.4001 102.4C48.3301 97.9 41.1501 95.6 35.4801 91.66C21.1601 81.7 20.4601 60.63 34.0701 52.97C42.2801 48.34 54.9101 55.73 54.6301 64.95C54.4001 72.9 50.5801 73.71 52.0801 82.56C53.8601 92.95 62.8401 100.36 76.9401 105.35Z" fill="#FF9100"/>
<path d="M54.0399 82.0701C53.4799 77.4801 54.2699 75.6701 55.1599 73.1901C55.4899 72.2901 55.8299 71.3201 56.1199 70.2101C55.0499 78.9801 56.3899 86.5901 60.1699 92.9501C57.2299 90.0401 54.5999 86.6501 54.0399 82.0701Z" fill="#FF9100"/>
<path d="M125.19 221.83C112.56 197.11 80.6599 202.27 65.3999 193.84C69.5699 193.84 72.4199 190.68 73.1399 189.31C73.6399 188.35 74.4799 186.22 72.7099 183.11C77.2099 184.26 80.2099 180.96 81.1999 179.27C81.8999 178.06 82.7699 174.33 80.7699 172.06C84.0599 172.61 86.7799 171.71 88.4899 168.46C89.5299 166.46 89.8499 162.54 87.4199 159.53C103.6 164.42 123.83 178.85 125.2 205.14C123.51 195.64 117.86 188 110.25 183.11C119.55 191.19 125.2 199.97 125.2 215.45C123.03 203.91 114.51 196.86 107.03 193.19C113.2 197.36 124.34 205.49 125.19 221.83Z" fill="#FF9100"/>
<path d="M81.4601 141.34C81.5601 142.26 84.1501 150.47 94.6601 156.97C102.47 161.79 108.8 164.09 123.41 166.68C124.9 166.95 125.29 167.49 125.16 167.98C125.02 168.51 124.49 168.64 123.29 168.4C110.29 165.82 102.3 163.61 93.7701 159.54C82.1501 154.01 75.9301 150.7 71.1801 141.94C70.6701 141.01 69.4901 140.75 68.3701 139.97C67.2501 139.2 67.1201 137.92 67.3201 137.11C67.5301 136.29 68.2501 135.64 69.1401 135.95C69.9201 136.22 70.4601 137.11 71.0301 137.19C67.2601 131.7 68.7801 123.15 68.7801 122.21C68.7801 120.45 67.8501 119.67 67.4401 119.04C66.8201 118.08 67.2201 118.77 66.8501 118.2C66.4801 117.62 66.6401 116.52 67.1001 116.15C67.5401 115.78 68.3301 115.89 68.8601 116.48C70.3501 118.12 69.8301 119.35 71.6801 118.94C71.3601 115.13 71.8001 112.81 72.2401 111.81C73.9401 108.05 78.0601 105.96 81.0001 108.13C83.9301 110.3 82.7901 114.55 81.4901 115.9C79.9001 117.54 78.7201 119.06 78.2601 120.51C79.2101 120.88 79.7201 120.4 80.6801 119.91C82.0201 119.23 82.9301 120.26 83.0101 120.89C83.1701 122.04 82.2201 122.97 81.2001 123.31C79.0701 124.01 78.3501 125.65 78.2701 128.52C78.1901 131.38 78.2001 134.17 79.6901 136.83C79.8601 137.13 80.8401 136.33 81.5301 135.99C82.1101 135.71 82.7401 135.99 83.3001 136.48C83.8601 136.97 83.9401 138.17 83.3901 138.81C82.8601 139.42 81.3701 140.42 81.4601 141.34Z" fill="#FF9100"/>
<path d="M390.04 151.88C387.62 151.71 385.21 150.52 382.87 148.37C380.33 146.04 376.69 140.93 372.05 133.2C367.76 125.97 364.23 120.72 361.54 117.56C359.79 115.51 358 113.72 356.18 112.21C367.18 107.88 372.75 100.16 372.75 89.2C372.75 81.66 369.72 75.38 363.75 70.54C357.9 65.79 350.05 63.38 340.41 63.38H301.07V69.95H303.04C306.42 69.95 308.64 70.7 309.65 72.17C310.45 73.35 311.4 76.04 311.4 82.22V139.37C311.4 145.56 310.42 148.33 309.6 149.55C308.57 151.09 306.36 151.87 303.04 151.87H301.07V158.45H337.79V151.87H335.82C332.62 151.87 330.43 151.07 329.3 149.5C328.42 148.28 327.38 145.53 327.38 139.36V116.27H332.8C336.36 116.27 339.53 117.4 342.49 119.74C345.59 122.18 350.02 128.05 355.67 137.2C361.13 146.16 365.86 153.08 369.75 157.75L370.33 158.46H391.87V152.02L390.04 151.88ZM327.38 70.81H334.97C341.37 70.81 346.57 72.56 350.39 76.01C354.22 79.45 356.08 83.87 356.08 89.51C356.08 95.34 354.4 99.87 350.94 103.35C347.49 106.83 342.8 108.52 336.61 108.52H327.39V70.81H327.38Z" fill="#256D13"/>
<path d="M432.82 72.32C433.93 70.75 436.11 69.96 439.29 69.96H441.26V63.39H404.54V69.96H406.5C409.84 69.96 412.05 70.72 413.08 72.19C413.89 73.36 414.87 76.11 414.87 82.54V139.38C414.87 145.68 413.88 148.42 413.05 149.61C411.99 151.12 409.78 151.88 406.5 151.88H404.54V158.46H441.26V151.88H439.29C436.09 151.88 433.92 151.09 432.82 149.56C431.96 148.36 430.92 145.62 430.92 139.39V82.53C430.93 76.29 431.96 73.54 432.82 72.32Z" fill="#256D13"/>
<path d="M536.9 77.25C527.47 68.05 516.04 63.38 502.9 63.38C489.41 63.38 477.76 68.09 468.26 77.36C458.76 86.64 453.95 98.08 453.95 111.34C453.95 125.01 458.49 136.41 467.47 145.21C476.43 154 487.99 158.45 501.84 158.45C515.96 158.45 527.83 153.87 537.11 144.85C546.4 135.81 551.12 124.22 551.12 110.39C551.12 97.62 546.33 86.47 536.9 77.25ZM506.01 150.28C496.57 150.28 488.88 146.09 482.49 137.48C476.05 128.8 472.79 117.82 472.79 104.85C472.79 94.79 475.36 86.58 480.42 80.44C485.47 74.33 491.94 71.35 500.21 71.35C509.64 71.35 517.14 75.38 523.15 83.67C529.2 92.04 532.28 103.07 532.28 116.47C532.28 126.97 529.89 135.36 525.14 141.4C520.44 147.38 514.19 150.28 506.01 150.28Z" fill="#256D13"/>
<path d="M655.13 135.51H657.97L654.48 158.45H573.3V155.94L637.36 68H594.93C588.93 68 584.61 68.81 581.97 70.39C579.32 71.98 577.32 75.05 575.97 79.59H573.3L574.83 63.39H653.59V66.31L590.02 153.84H627.3C635.17 153.84 641.26 152.42 645.54 149.59C649.83 146.74 653.03 142.05 655.13 135.51Z" fill="#256D13"/>
<path d="M713.32 63.38C726.54 63.38 737.88 68.01 747.35 77.27C756.82 86.53 761.55 97.56 761.55 110.37C761.55 124.28 756.89 135.77 747.56 144.84C738.24 153.91 726.45 158.45 712.21 158.45C698.26 158.45 686.79 154.05 677.79 145.22C668.79 136.4 664.3 125.11 664.3 111.35C664.3 98.03 669.07 86.7 678.62 77.37C688.17 68.05 699.73 63.38 713.32 63.38ZM710.52 67.75C701.36 67.75 694 71.14 688.39 77.93C682.79 84.72 679.99 93.61 679.99 104.61C679.99 118.62 683.49 130.33 690.48 139.76C697.47 149.18 706.17 153.89 716.57 153.89C725.65 153.89 732.8 150.55 738.04 143.89C743.28 137.21 745.89 128.15 745.89 116.71C745.89 102.26 742.6 90.5 736.01 81.39C729.4 72.29 720.91 67.75 710.52 67.75Z" fill="#256D13"/>
<path d="M823.25 63.38C836.47 63.38 847.81 68.01 857.28 77.27C866.75 86.53 871.49 97.56 871.49 110.37C871.49 124.28 866.83 135.77 857.5 144.84C848.18 153.91 836.39 158.45 822.15 158.45C808.2 158.45 796.73 154.05 787.73 145.22C778.74 136.4 774.24 125.11 774.24 111.35C774.24 98.03 779.01 86.7 788.56 77.37C798.1 68.05 809.66 63.38 823.25 63.38ZM820.45 67.75C811.29 67.75 803.92 71.14 798.32 77.93C792.72 84.72 789.92 93.61 789.92 104.61C789.92 118.62 793.42 130.33 800.41 139.76C807.4 149.18 816.1 153.89 826.49 153.89C835.57 153.89 842.73 150.55 847.97 143.89C853.2 137.21 855.82 128.15 855.82 116.71C855.82 102.26 852.52 90.5 845.94 81.39C839.34 72.29 830.84 67.75 820.45 67.75Z" fill="#256D13"/>
</g>
<defs>
<clipPath id="clip0">
<rect width="871.49" height="221.83" fill="white"/>
</clipPath>
</defs>
</svg>
