<svg width="621" height="169" viewBox="0 0 621 169" fill="none" xmlns="http://www.w3.org/2000/svg">
<path d="M177.45 105.18C176.37 101.17 173.5 99.7399 171.15 99.7399C169.89 99.7399 168.87 100.17 168.61 100.82C168.23 101.79 167.79 101.93 167.55 101.93C166.29 99.0399 167.04 96.3999 167.87 94.6899C169.02 92.3599 170.99 90.47 172.34 89.7C176.65 93.28 179.81 99.7199 177.45 105.18Z" fill="#F3F4F4"/>
<path d="M172.29 89.8499C176.55 93.3799 179.59 99.5799 177.46 104.9C176.31 101.04 173.48 99.6499 171.15 99.6499C169.85 99.6499 168.79 100.11 168.53 100.79C168.17 101.71 167.77 101.85 167.56 101.85C167.54 101.85 167.52 101.85 167.51 101.85C166.41 98.9999 167.15 96.4199 167.97 94.7499C169.22 92.1699 171.28 90.4599 172.29 89.8499ZM172.31 89.6199C171.1 90.3099 169.01 92.1799 167.8 94.6499C166.76 96.7699 166.32 99.3499 167.37 101.99C167.37 101.99 167.44 102.02 167.56 102.02C167.82 102.02 168.31 101.86 168.7 100.85C168.93 100.27 169.91 99.8299 171.15 99.8299C173.36 99.8299 176.38 101.19 177.43 105.46C180.02 99.8799 176.84 93.3199 172.31 89.6199Z" fill="black"/>
<path d="M104.88 68.7098C102.04 68.7098 102.04 66.1098 102.04 63.3598C102.04 60.6398 102.04 58.0698 104.88 58.0698C107.79 58.0698 107.79 61.0198 107.79 63.3898C107.79 65.7598 107.79 68.7098 104.88 68.7098Z" fill="#F3F4F4"/>
<path d="M104.88 58.17C107.7 58.17 107.7 60.95 107.7 63.4C107.7 65.85 107.7 68.63 104.88 68.63C102.13 68.63 102.13 66.07 102.13 63.37C102.13 60.57 102.13 58.17 104.88 58.17ZM104.88 57.98C101.94 57.98 101.94 60.63 101.94 63.36C101.94 66.09 101.94 68.8 104.88 68.8C107.89 68.8 107.89 65.79 107.89 63.39C107.89 60.99 107.89 57.98 104.88 57.98Z" fill="black"/>
<path d="M100.11 85.7899C99.61 85.7899 99.27 85.7299 98.94 85.6599C98.6 85.5999 98.26 85.5299 97.76 85.5299C97.63 85.5299 97.58 85.4999 97.54 85.4399C97.47 85.3299 97.49 85.1499 97.55 85.0499C97.67 84.8499 98.77 83.4299 100.15 83.0299C100.34 82.9799 100.51 82.95 100.67 82.95C101.6 82.95 101.78 83.8299 101.8 84.0099C101.84 84.2599 101.89 84.8899 101.53 85.3199C101.32 85.5899 100.98 85.7399 100.53 85.7699C100.39 85.7899 100.25 85.7899 100.11 85.7899Z" fill="#F3F4F4"/>
<path d="M100.68 83.0499C101.54 83.0499 101.7 83.8699 101.72 84.0299C101.76 84.2699 101.8 84.8599 101.48 85.2699C101.28 85.5199 100.97 85.6599 100.55 85.6799C100.39 85.6899 100.25 85.6899 100.12 85.6899C99.6297 85.6899 99.3097 85.6299 98.9697 85.5599C98.6297 85.4999 98.2797 85.4299 97.7197 85.4299C97.6797 85.4299 97.6597 85.4199 97.6397 85.3799C97.5897 85.2999 97.5997 85.1499 97.6497 85.0799C97.7597 84.8899 98.8397 83.4999 100.2 83.1099C100.36 83.0799 100.52 83.0499 100.68 83.0499ZM100.68 82.8699C100.52 82.8699 100.33 82.8999 100.13 82.9499C98.6797 83.3699 97.5697 84.8499 97.4697 85.0099C97.3497 85.2099 97.3797 85.6299 97.6997 85.6299H97.7597C98.7497 85.6299 99.0997 85.8799 100.11 85.8799C100.24 85.8799 100.39 85.8699 100.55 85.8599C101.94 85.7699 101.99 84.5899 101.9 83.9999C101.83 83.5099 101.49 82.8699 100.68 82.8699Z" fill="black"/>
<path d="M140.3 52.81C139.28 50.26 137.39 45.51 136.25 44C133.22 39.99 128.77 37.1 122.66 35.17C121.82 34.9 121.46 34.38 121.66 33.69C121.8 33.21 122.37 32.82 122.92 32.82C123.18 32.82 123.42 32.91 123.64 33.08C124.85 34.09 126.25 34.63 127.68 34.63C128.99 34.63 130.3 34.18 131.37 33.37C131.35 35.17 132.13 35.25 132.76 35.3C132.87 35.31 132.97 35.32 133.07 35.34C133.54 35.42 134.61 35.49 135.55 35.49C136.12 35.49 136.67 35.47 137.11 35.41C138.9 35.18 139.94 34.04 140.01 33.09C140.1 31.85 140.47 30.3 141.73 29.93C142.09 29.82 142.47 29.77 142.86 29.77C143.63 29.77 144.29 29.98 144.64 30.34C144.83 30.54 144.92 30.78 144.91 31.05C144.69 36.01 148.51 38.98 151.88 41.6C152.72 42.26 153.53 42.88 154.26 43.52C153.35 43.23 152.39 43.08 151.41 43.08C148.31 43.08 145.15 44.53 142.96 46.96C141.28 48.82 140.41 51.01 140.47 53.17L140.3 52.81Z" fill="#F3F4F4"/>
<path d="M142.85 29.8599C143.59 29.8599 144.23 30.0599 144.56 30.4099C144.73 30.5899 144.81 30.8099 144.8 31.0499C144.58 36.0599 148.42 39.0399 151.8 41.6799C152.52 42.2399 153.21 42.7799 153.85 43.3199C153.05 43.1099 152.23 42.9999 151.38 42.9999C148.25 42.9999 145.07 44.4599 142.86 46.9099C141.29 48.6499 140.42 50.6799 140.35 52.6999C139.32 50.1299 137.46 45.4399 136.31 43.9299C133.26 39.8999 128.8 37.0099 122.67 35.0699C122.21 34.9299 121.49 34.5599 121.73 33.7099C121.86 33.2699 122.39 32.9099 122.9 32.9099C123.14 32.9099 123.36 32.9899 123.56 33.1499C124.79 34.1799 126.21 34.7199 127.66 34.7199C128.89 34.7199 130.11 34.3299 131.14 33.6299C131.34 35.2599 132.1 35.3299 132.73 35.3899C132.83 35.3999 132.93 35.4099 133.03 35.4299C133.51 35.5199 134.58 35.5799 135.53 35.5799C136.17 35.5799 136.7 35.5499 137.1 35.4999C138.94 35.2699 140.01 34.0899 140.08 33.0899C140.17 31.8799 140.53 30.3699 141.74 30.0099C142.1 29.9199 142.48 29.8599 142.85 29.8599ZM142.85 29.6699C142.46 29.6699 142.06 29.7299 141.7 29.8399C140.27 30.2599 139.98 32.1399 139.91 33.0799C139.84 34.0199 138.78 35.0999 137.09 35.3199C136.65 35.3799 136.1 35.3999 135.54 35.3999C134.54 35.3999 133.51 35.3299 133.07 35.2499C132.38 35.1199 131.44 35.3899 131.3 33.2999C130.32 34.0499 129.04 34.5399 127.66 34.5399C126.36 34.5399 124.98 34.0999 123.68 33.0099C123.44 32.8099 123.17 32.7299 122.9 32.7299C122.29 32.7299 121.7 33.1699 121.55 33.6699C121.34 34.3899 121.71 34.9699 122.61 35.2599C128.53 37.1299 133.01 39.9099 136.16 44.0599C137.46 45.7799 139.74 51.7199 140.57 53.7699C140 48.3199 145.59 43.1999 151.38 43.1999C152.47 43.1999 153.57 43.3799 154.63 43.7799C150.93 40.3799 144.71 37.3699 144.98 31.0699C145.03 30.1299 143.98 29.6699 142.85 29.6699Z" fill="black"/>
<path d="M102.03 39.61C100.36 38.95 98.9098 37.64 97.6098 35.65C95.0398 31.7 94.5898 24.56 98.8198 19.12C103 13.75 110.59 11.03 121.39 11.03C122.23 11.03 123.09 11.05 123.98 11.08C138.92 11.65 153.41 22.75 156.27 35.83C156.5 36.91 156.22 37.44 155.9 37.57C155.82 37.6 155.73 37.62 155.64 37.62C155.27 37.62 154.91 37.33 154.63 36.8C151.99 31.72 146.8 28.23 143.62 28.16C143.38 28.13 143.11 28.1 142.83 28.1C142.29 28.1 141.73 28.18 141.23 28.33C140.28 28.61 138.65 29.57 138.35 32.79C138.2 33.09 137.98 33.34 137.64 33.54C137.41 33.65 137.15 33.72 136.87 33.76C136.54 33.8 136.07 33.82 135.52 33.82C134.49 33.82 133.6 33.74 133.32 33.69C133.08 33.52 132.91 33.29 132.81 33C132.8 32.91 132.77 32.83 132.74 32.75C132.69 32.45 132.7 32.1 132.78 31.69C132.94 30.87 132.63 29.42 131.61 28.05C130.7 26.84 128.95 25.33 125.77 25.02C125.22 24.96 124.69 24.94 124.18 24.94C119.81 24.94 116.35 26.92 115.78 29.75C115.46 31.31 114.83 31.47 114.22 31.62C114.03 31.67 113.84 31.69 113.62 31.69C112.87 31.69 111.81 31.46 111.27 30.94C110.64 30.33 110.32 29.47 110.46 28.68C110.6 27.84 110.86 27.43 111.07 27.11C111.28 26.79 111.46 26.51 111.41 25.96C111.36 25.37 110.91 24.94 110.33 24.94C109.99 24.94 109.65 25.08 109.35 25.36C109.3 25.41 108.36 26.48 108.8 28.43C108.44 28.19 108.09 27.93 107.87 27.54C107.6 27.04 107.57 26.33 107.78 25.65C107.79 25.61 107.78 25.57 107.74 25.54C107.72 25.53 107.71 25.52 107.69 25.52C107.67 25.52 107.65 25.53 107.63 25.54C107.02 26.07 106.62 27.54 106.74 28.82C106.8 29.49 107.01 30.03 107.33 30.37C106.37 30.07 105.86 29.11 105.8 27.51C105.8 27.47 105.77 27.43 105.73 27.42C105.72 27.42 105.71 27.42 105.71 27.42C105.68 27.42 105.65 27.44 105.63 27.47C105.03 28.51 104.92 30.04 105.35 31.28C105.58 31.93 105.93 32.43 106.38 32.74C104.71 32.44 104.13 30.4 103.87 29.49C103.86 29.45 103.8 29.36 103.76 29.35C103.73 29.35 103.7 29.33 103.67 29.33C103.66 29.33 103.65 29.33 103.65 29.34C103.09 30.94 103.56 34.42 105.63 35.54C105.6 35.54 105.58 35.54 105.55 35.54C103.57 35.54 102.22 33.1 101.9 31.36C101.89 31.32 101.86 31.29 101.82 31.28C101.81 31.28 101.81 31.28 101.81 31.28C101.77 31.28 101.74 31.3 101.73 31.33C101.21 32.34 101.21 33.81 101.74 35.08C102.24 36.29 103.18 37.21 104.39 37.69C104.31 37.7 104.23 37.7 104.15 37.7C102.5 37.7 100.4 36.69 99.4498 33.86C99.4398 33.82 99.3998 33.8 99.3598 33.8H99.3498C99.3098 33.8 99.2698 33.84 99.2698 33.88C99.1998 34.79 99.1298 37.62 102.03 39.61Z" fill="#F3F4F4"/>
<path d="M121.4 11.1199C122.24 11.1199 123.1 11.14 123.99 11.17C138.89 11.74 153.34 22.8099 156.19 35.8499C156.4 36.8099 156.18 37.3599 155.88 37.4799C155.81 37.5099 155.73 37.5199 155.66 37.5199C155.32 37.5199 155 37.2499 154.74 36.7499C152.08 31.6399 146.86 28.1399 143.67 28.0599C143.4 28.0199 143.13 27.9999 142.86 27.9999C142.31 27.9999 141.74 28.0799 141.23 28.2299C140.26 28.5199 138.59 29.49 138.3 32.7C138.15 33.01 137.94 33.2499 137.64 33.4399C137.41 33.5499 137.16 33.6199 136.89 33.6599C136.55 33.6999 136.08 33.7199 135.55 33.7199C134.55 33.7199 133.7 33.6499 133.38 33.5999C133.17 33.4299 133.02 33.2199 132.94 33.0099C132.92 32.8999 132.9 32.8099 132.87 32.7599C132.82 32.4599 132.83 32.1199 132.9 31.7199C133.06 30.8799 132.75 29.3999 131.71 28.0099C130.79 26.7899 129.02 25.2599 125.8 24.9399C125.26 24.8899 124.72 24.8599 124.2 24.8599C119.78 24.8599 116.29 26.8699 115.71 29.7499C115.4 31.2599 114.83 31.3999 114.16 31.5599C114.03 31.5999 113.85 31.6099 113.64 31.6099C112.91 31.6099 111.88 31.38 111.36 30.89C110.75 30.3 110.45 29.4699 110.57 28.7099C110.71 27.8899 110.95 27.5099 111.16 27.1799C111.38 26.8499 111.57 26.5599 111.52 25.9799C111.46 25.3399 110.97 24.8799 110.35 24.8799C109.99 24.8799 109.63 25.0299 109.29 25.3299C109.25 25.3699 108.38 26.3599 108.66 28.1499C108.35 28.0099 108.12 27.7999 107.96 27.5099C107.7 27.0299 107.67 26.3499 107.88 25.6899C107.91 25.6099 107.87 25.5299 107.8 25.4799C107.77 25.4599 107.73 25.45 107.7 25.45C107.66 25.45 107.61 25.4699 107.58 25.4999C106.95 26.0499 106.53 27.5599 106.66 28.8599C106.71 29.3899 106.85 29.8399 107.06 30.1799C106.34 29.7899 105.95 28.9099 105.9 27.5399C105.9 27.4599 105.84 27.3899 105.76 27.3699C105.74 27.3699 105.73 27.3599 105.71 27.3599C105.64 27.3599 105.58 27.39 105.55 27.45C104.94 28.51 104.82 30.0699 105.26 31.3399C105.44 31.8599 105.7 32.2899 106.03 32.5999C104.71 32.1199 104.2 30.3299 103.96 29.4999L103.92 29.3599C103.9 29.2799 103.83 29.2299 103.75 29.2299C103.67 29.2299 103.6 29.2799 103.57 29.3499C103.03 30.8999 103.43 34.1699 105.28 35.4699C103.5 35.2599 102.29 33.0099 101.99 31.3799C101.97 31.2999 101.91 31.2399 101.83 31.2299C101.82 31.2299 101.81 31.2299 101.8 31.2299C101.73 31.2299 101.67 31.2699 101.64 31.3299C101.1 32.3699 101.11 33.8699 101.65 35.1599C102.11 36.2599 102.91 37.1199 103.96 37.6499C102.38 37.5699 100.44 36.5599 99.5401 33.8799C99.5101 33.7999 99.4401 33.7499 99.3601 33.7499C99.3501 33.7499 99.3501 33.7499 99.3401 33.7499C99.2501 33.7599 99.1901 33.8299 99.1801 33.9099C99.0801 34.7199 99.0101 37.1999 101.28 39.1599C99.9401 38.4399 98.7501 37.2599 97.6701 35.5899C95.1201 31.6599 94.6701 24.57 98.8801 19.17C103.06 13.83 110.63 11.1199 121.4 11.1199ZM121.4 10.9399C109.5 10.9399 102.48 14.2799 98.7601 19.0699C94.7601 24.2099 94.7601 31.4299 97.5401 35.7099C99.1201 38.1399 100.88 39.4399 102.77 39.9599C99.7101 38.2799 99.1901 35.62 99.3901 33.95C100.31 36.68 102.36 37.8599 104.18 37.8599C104.4 37.8599 104.62 37.8399 104.83 37.8099C101.57 36.7899 100.93 33.1999 101.84 31.4399C102.19 33.2899 103.59 35.6899 105.59 35.6899C105.73 35.6899 105.87 35.6799 106.01 35.6499C103.78 34.7799 103.18 31.1299 103.78 29.4299C104.04 30.3199 104.68 32.92 106.75 32.92C106.78 32.92 106.82 32.92 106.85 32.92C105.13 32.24 104.78 29.2399 105.74 27.5599C105.8 29.1099 106.3 30.3999 107.73 30.5899C106.36 29.7999 106.77 26.4999 107.73 25.6599C107.4 26.6799 107.54 28.08 108.92 28.45C108.49 26.53 109.45 25.4699 109.45 25.4699C109.76 25.1999 110.08 25.0799 110.37 25.0799C110.89 25.0799 111.31 25.4599 111.36 26.0099C111.45 27.0599 110.69 27.01 110.41 28.7C110.27 29.55 110.61 30.4299 111.25 31.0499C111.82 31.5899 112.9 31.8199 113.66 31.8199C113.88 31.8199 114.08 31.7999 114.23 31.7599C114.87 31.5999 115.58 31.4699 115.92 29.7999C116.44 27.2099 119.55 25.0599 124.23 25.0599C124.74 25.0599 125.27 25.08 125.81 25.14C131.37 25.68 133.06 30.02 132.74 31.7C132.65 32.15 132.65 32.5099 132.7 32.8099C132.73 32.8899 132.75 32.9699 132.77 33.0599C132.89 33.4099 133.1 33.6399 133.31 33.7999C133.32 33.7999 133.33 33.7999 133.35 33.7999C133.63 33.8499 134.53 33.9299 135.56 33.9299C136.12 33.9299 136.59 33.8999 136.93 33.8599C137.26 33.8099 137.52 33.7299 137.74 33.6199C138.12 33.3899 138.34 33.1099 138.49 32.7999C138.78 29.6399 140.37 28.7 141.3 28.42C141.8 28.27 142.34 28.1899 142.87 28.1899C143.14 28.1899 143.41 28.2099 143.66 28.2499C146.82 28.3199 151.99 31.8599 154.59 36.8399C154.92 37.4699 155.32 37.7099 155.68 37.7099C155.78 37.7099 155.88 37.6899 155.97 37.6499C156.37 37.4899 156.62 36.8599 156.39 35.8099C153.46 22.4199 138.69 11.5499 124.01 10.9899C123.11 10.9499 122.24 10.9399 121.4 10.9399Z" fill="black"/>
<path d="M125.91 80.1299C125.78 80.1299 125.71 80.0899 125.66 80.0099C125.59 79.8899 125.62 79.7699 125.66 79.6899C125.73 79.5299 125.9 79.3999 126.11 79.3399C128.61 78.7199 133.36 75.8499 136.17 70.5099C138.08 66.8799 139.72 60.8299 136.66 52.5999C134.56 46.9499 129.04 40.7099 121.48 39.5099C119.79 39.2399 118.33 38.2899 117.38 36.8199C116.44 35.3899 116.1 33.5899 116.48 32.1399C117.32 28.9299 119.61 27.1099 123.27 26.7399C123.83 26.6799 124.34 26.6599 124.82 26.6599C127.28 26.6599 128.9 27.3099 130.23 28.8299C130.98 29.6899 131.28 31.0599 130.87 31.8299C130.47 32.5899 129.52 32.9699 128.06 32.9699L127.68 32.9599C126.54 32.9099 125.57 32.5299 124.69 31.7999C124.18 31.3699 123.57 31.1499 122.92 31.1499C121.65 31.1499 120.43 32.0399 120.08 33.2099C119.7 34.5199 120.2 36.1199 122.17 36.7399C125.76 37.8799 128.67 39.3199 131.09 41.1599C132.16 41.9899 133.15 42.9199 134.04 43.8999C134.35 44.2499 134.65 44.6199 134.94 44.9899C136.33 46.8199 137.52 49.0899 138.38 51.5399L138.51 52.0199C143.5 69.9999 133.3 78.0599 126.49 79.9899C126.24 80.0699 126.06 80.1299 125.91 80.1299Z" fill="#F3F4F4"/>
<path d="M124.81 26.7498C127.24 26.7498 128.84 27.3898 130.15 28.8898C130.88 29.7198 131.17 31.0498 130.78 31.7798C130.39 32.5098 129.48 32.8798 128.06 32.8798C127.94 32.8798 127.81 32.8798 127.69 32.8698C126.58 32.8198 125.62 32.4498 124.76 31.7298C124.23 31.2898 123.6 31.0598 122.93 31.0598C121.62 31.0598 120.36 31.9698 120 33.1898C119.61 34.5398 120.12 36.1898 122.15 36.8398C125.73 37.9698 128.63 39.4098 131.04 41.2398C132.11 42.0698 133.1 42.9898 133.98 43.9698C134.29 44.3198 134.59 44.6798 134.88 45.0598C136.26 46.8798 137.45 49.1398 138.31 51.5698L138.37 51.7598L138.45 52.0498C143.42 69.9598 133.27 77.9898 126.49 79.9098L126.4 79.9398C126.24 79.9898 126.06 80.0398 125.93 80.0398C125.81 80.0398 125.78 79.9998 125.76 79.9598C125.71 79.8698 125.73 79.7798 125.76 79.7198C125.82 79.5798 125.97 79.4698 126.14 79.4298C128.66 78.7998 133.43 75.9198 136.26 70.5498C138.18 66.8998 139.83 60.8198 136.75 52.5598C134.64 46.8898 129.1 40.6198 121.49 39.4098C119.83 39.1498 118.39 38.2098 117.45 36.7698C116.53 35.3598 116.19 33.5898 116.56 32.1598C117.39 28.9898 119.65 27.1898 123.27 26.8198C123.84 26.7798 124.35 26.7498 124.81 26.7498ZM124.81 26.5698C124.33 26.5698 123.81 26.5998 123.25 26.6598C119.12 27.0798 117.12 29.3198 116.38 32.1298C115.64 34.9498 117.54 38.9898 121.45 39.6098C128.48 40.7298 134.25 46.4298 136.56 52.6398C142.57 68.7698 131.17 77.9898 126.08 79.2598C125.67 79.3598 125.41 79.7498 125.58 80.0598C125.65 80.1898 125.77 80.2298 125.91 80.2298C126.1 80.2298 126.33 80.1498 126.52 80.0998C131.67 78.6398 144.05 71.6298 138.61 52.0198C138.57 51.8598 138.52 51.6998 138.47 51.5298C137.62 49.1098 136.44 46.8498 135.01 44.9598C134.72 44.5798 134.42 44.2198 134.1 43.8598C133.25 42.9098 132.26 41.9798 131.14 41.1098C128.73 39.2798 125.76 37.8098 122.19 36.6798C120.28 36.0698 119.79 34.5298 120.16 33.2598C120.49 32.1198 121.67 31.2598 122.91 31.2598C123.54 31.2598 124.13 31.4798 124.63 31.8898C125.57 32.6798 126.59 33.0298 127.67 33.0698C127.8 33.0798 127.93 33.0798 128.05 33.0798C129.64 33.0798 130.54 32.6198 130.94 31.8898C131.36 31.0898 131.08 29.6898 130.29 28.7798C129.04 27.3398 127.48 26.5698 124.81 26.5698Z" fill="black"/>
<path d="M140 88.92C140.55 80.85 147.38 77.58 152.37 75.19C154.62 74.11 156.56 73.18 157.42 72.06C158.38 72.5 158.34 73.91 158.34 73.92C158.34 73.96 158.37 74 158.41 74.01C158.42 74.01 158.43 74.01 158.44 74.01C158.47 74.01 158.5 73.99 158.52 73.97C158.55 73.92 159.19 72.88 158.96 71.11C159.45 71.63 159.93 72.32 159.78 73.92C159.77 73.96 159.8 74 159.83 74.01C159.84 74.02 159.86 74.02 159.87 74.02C159.9 74.02 159.92 74.01 159.94 73.99C160.4 73.52 161.38 71.8 160.67 69.3C162.36 70.99 162.4 72.65 162.28 73.77C162.27 73.81 162.3 73.85 162.33 73.87C162.34 73.88 162.36 73.88 162.37 73.88C162.4 73.88 162.42 73.87 162.44 73.85C163.44 72.69 163.51 69.58 162.1 66.6C163.9 68.51 164.6 71.9 164.23 74.27C164.22 74.32 164.26 74.37 164.3 74.37C164.31 74.37 164.31 74.37 164.32 74.37C164.36 74.37 164.4 74.34 164.41 74.3C165.07 71.79 164.59 67.87 163.14 63.69C165.21 67.04 166.44 69.95 166.94 74.77C166.95 74.82 166.98 74.85 167.03 74.85C167.08 74.85 167.12 74.81 167.12 74.76C167.5 70.2 165.88 64.27 163.96 60.23C168.23 67.26 169.51 76.71 169.27 81.33C168.41 80.43 167.26 79.7 166.01 79.1C162.45 77.37 160.31 77.04 157.61 77.04H157.27C151.03 77.09 142.92 81.31 140 89.04C140 89.05 139.99 88.97 140 88.92Z" fill="#F3F4F4"/>
<path d="M164.78 61.8999C168.22 68.4999 169.33 76.6099 169.18 80.9699C168.24 80.2299 167.18 79.5699 166.04 79.0199C162.46 77.2799 160.32 76.9599 157.6 76.9599H157.25C151.13 77.0099 143.21 81.0499 140.11 88.4799C140.88 80.7899 147.52 77.6099 152.39 75.2799C154.57 74.2399 156.47 73.3299 157.39 72.2399C158.26 72.6799 158.24 73.9199 158.24 73.9299C158.24 74.0099 158.29 74.0899 158.37 74.1099C158.39 74.1199 158.41 74.1199 158.42 74.1199C158.48 74.1199 158.54 74.0899 158.58 74.0299C158.61 73.9799 159.2 73.0199 159.06 71.3899C159.44 71.8499 159.79 72.5399 159.66 73.9099C159.65 73.9899 159.7 74.0599 159.77 74.0999C159.8 74.1099 159.82 74.1199 159.85 74.1199C159.9 74.1199 159.95 74.0999 159.98 74.0599C160.43 73.5999 161.36 71.9799 160.82 69.6299C162.25 71.2099 162.28 72.7299 162.16 73.7699C162.15 73.8499 162.2 73.9299 162.27 73.9599C162.29 73.9699 162.32 73.9799 162.34 73.9799C162.39 73.9799 162.44 73.9599 162.48 73.9199C163.54 72.6899 163.47 69.7699 162.41 67.1499C163.89 69.0899 164.45 72.1099 164.11 74.2699C164.09 74.3699 164.16 74.4599 164.26 74.4799C164.27 74.4799 164.29 74.4799 164.3 74.4799C164.38 74.4799 164.46 74.4199 164.48 74.3399C165.1 71.9699 164.72 68.3599 163.47 64.4599C165.28 67.5099 166.37 70.3299 166.83 74.7899C166.84 74.8799 166.92 74.9599 167.01 74.9599C167.11 74.9599 167.18 74.8899 167.19 74.7899C167.54 70.7999 166.36 65.7999 164.78 61.8999ZM163.03 58.6599C165.37 62.7299 167.44 69.7599 167.03 74.7599C166.48 69.3899 164.97 66.3699 162.76 62.9099C164.65 67.9399 164.92 71.9799 164.32 74.2699C164.73 71.6599 163.86 67.9599 161.77 66.1499C163.35 69.1299 163.44 72.5299 162.36 73.7799C162.52 72.2999 162.27 70.6299 160.47 68.9799C161.33 71.5599 160.39 73.3799 159.86 73.9199C160.04 71.9799 159.28 71.3099 158.81 70.8299C159.16 72.7599 158.43 73.9199 158.43 73.9199C158.43 73.9199 158.48 72.4399 157.34 71.9999C154.57 75.5799 140.7 77.1599 139.9 88.9099C139.9 89.1499 139.92 89.2999 139.96 89.3999C142.72 81.6399 150.9 77.1899 157.26 77.1399C157.38 77.1399 157.49 77.1399 157.61 77.1399C160.21 77.1399 162.32 77.4199 165.97 79.1899C167.22 79.7899 168.35 80.5199 169.36 81.3399C169.64 75.8099 167.85 65.4299 163.03 58.6599Z" fill="black"/>
<path d="M136.84 137.67C133.65 137.67 132.35 135.38 132.22 135.12C131.88 134.47 131.2 132.75 132.32 130.76C132.34 130.73 132.34 130.69 132.31 130.66C132.29 130.64 132.26 130.62 132.24 130.62C132.23 130.62 132.22 130.62 132.22 130.62C131.77 130.74 131.32 130.8 130.89 130.8C128.97 130.8 127.57 129.59 126.91 128.46C126.46 127.69 125.9 125.25 127.18 123.8C127.21 123.77 127.21 123.73 127.19 123.69C127.17 123.66 127.14 123.64 127.11 123.64C127.11 123.64 127.1 123.64 127.09 123.64C126.71 123.71 126.34 123.74 125.99 123.74C124.24 123.74 122.97 122.94 122.12 121.3C121.44 119.99 121.26 117.91 122.82 115.98C123.13 115.59 123.91 115.09 124.89 114.45C127.73 112.6 132.49 109.5 135.46 103.56C135.88 102.72 136.23 101.69 135.45 100.96C135.5 100.97 135.56 100.97 135.61 100.97C136.17 100.97 136.45 100.62 136.46 100.61C136.41 100.47 135.39 100.13 134.95 99.18C135.31 99.43 135.66 99.56 136.01 99.56C136.62 99.56 137 99.17 137.01 99.15C136.95 98.99 135.24 98.59 134.83 97.26C135.12 97.53 135.52 97.6 135.88 97.6C136.9 97.6 137.39 97.03 137.41 97C137.33 96.85 135.64 96.72 135.05 95.26C135.4 95.42 135.75 95.5 136.09 95.5C137.23 95.5 137.9 94.65 137.93 94.62C137.95 94.59 137.96 94.55 137.94 94.51C137.92 94.48 137.89 94.47 137.86 94.47C137.85 94.47 137.85 94.47 137.84 94.47C137.84 94.47 137.63 94.52 137.32 94.52C136.63 94.52 135.46 94.27 135 92.7C135.44 93.17 135.99 93.41 136.65 93.41C137.49 93.41 138.18 93.02 138.21 93C138.24 92.98 138.26 92.94 138.26 92.91C138.25 92.87 138.23 92.84 138.19 92.83C138.18 92.83 136.83 92.48 136.26 91.41C135.97 90.87 135.92 90.24 136.11 89.54C136.52 90.91 137.41 91.69 138.59 91.69C138.75 91.69 138.92 91.67 139.1 91.64C140.76 91.36 141.48 90.1 142.48 88.36C142.48 88.36 142.79 87.81 142.83 87.75C145.93 82.42 151.87 78.71 157.27 78.71C161.17 78.71 169.3 80.58 172.16 87.65C169.24 88.9 167.04 91.73 165.97 93.92C165.21 95.48 163.43 99.13 165.97 103.49C165.96 104.46 161.63 115.62 157.51 121.49C154.1 126.36 145.27 137.67 136.84 137.67Z" fill="#F3F4F4"/>
<path d="M157.27 78.8099C161.12 78.8099 169.11 80.6399 172.01 87.5299C169.1 88.9299 166.94 91.7199 165.89 93.8799C165.13 95.4499 163.34 99.1099 165.87 103.49C165.75 104.61 161.65 115.44 157.44 121.44C154.04 126.29 145.23 137.57 136.85 137.57C133.71 137.57 132.44 135.32 132.31 135.06C131.97 134.43 131.31 132.74 132.41 130.79C132.45 130.72 132.44 130.65 132.4 130.59C132.36 130.54 132.31 130.52 132.25 130.52C132.23 130.52 132.22 130.52 132.2 130.53C131.76 130.65 131.32 130.71 130.9 130.71C129.01 130.71 127.65 129.53 127 128.42C126.56 127.66 126.01 125.29 127.26 123.87C127.31 123.81 127.32 123.73 127.28 123.66C127.25 123.6 127.18 123.56 127.12 123.56C127.11 123.56 127.1 123.56 127.09 123.56C126.7 123.63 126.34 123.66 126 123.66C124.29 123.66 123.05 122.88 122.21 121.27C121.54 119.99 121.37 117.94 122.9 116.05C123.2 115.67 123.97 115.17 124.95 114.54C127.8 112.68 132.57 109.58 135.55 103.62C135.82 103.08 136.39 101.94 135.68 101.07C136.24 101.05 136.53 100.69 136.55 100.68C136.59 100.63 136.6 100.57 136.58 100.51C136.56 100.45 136.52 100.41 136.46 100.39C136.45 100.39 135.69 100.14 135.22 99.4599C135.49 99.5999 135.76 99.6599 136.02 99.6599C136.68 99.6599 137.07 99.2399 137.09 99.2199C137.14 99.1699 137.15 99.0999 137.13 99.0399C137.11 98.9799 137.06 98.9299 136.99 98.9099C136.97 98.9099 135.62 98.5799 135.08 97.5899C135.36 97.6599 135.64 97.6999 135.9 97.6999C136.97 97.6999 137.48 97.0999 137.5 97.0699C137.55 97.0099 137.56 96.9399 137.53 96.8799C137.5 96.8199 137.44 96.7699 137.37 96.7699C137.3 96.7599 135.88 96.6599 135.25 95.4499C135.54 95.5499 135.83 95.5999 136.11 95.5999C137.3 95.5999 137.99 94.7199 138.02 94.6799C138.07 94.6199 138.07 94.5299 138.03 94.4699C137.99 94.4199 137.94 94.3799 137.87 94.3799C137.86 94.3799 137.84 94.3799 137.83 94.3899C137.83 94.3899 137.63 94.4299 137.33 94.4299C136.72 94.4299 135.72 94.2299 135.22 93.0199C135.63 93.3399 136.11 93.4999 136.66 93.4999C137.52 93.4999 138.23 93.0999 138.26 93.0799C138.33 93.0399 138.36 92.9699 138.35 92.8899C138.34 92.8199 138.28 92.7599 138.21 92.7399C138.2 92.7399 136.89 92.3999 136.34 91.3599C136.11 90.9299 136.04 90.4299 136.13 89.8799C136.59 91.0899 137.46 91.7799 138.59 91.7799C138.76 91.7799 138.93 91.7699 139.11 91.7399C140.81 91.4499 141.54 90.1799 142.56 88.4199L142.7 88.1799L142.75 88.0999L142.81 87.9999C142.84 87.9399 142.88 87.8799 142.92 87.8099C146 82.5099 151.9 78.8099 157.27 78.8099ZM157.27 78.6299C151.96 78.6299 145.97 82.1999 142.75 87.7199C142.71 87.7899 142.67 87.8499 142.64 87.9199C142.6 87.9799 142.57 88.0299 142.54 88.0899C141.47 89.9499 140.77 91.2799 139.09 91.5699C138.92 91.5999 138.75 91.6099 138.6 91.6099C137.22 91.6099 136.43 90.5499 136.13 89.2099C135.09 92.1599 138.18 92.9299 138.18 92.9299C138.18 92.9299 137.49 93.3299 136.67 93.3299C136.05 93.3299 135.37 93.1099 134.84 92.3399C135.22 94.3399 136.58 94.6299 137.34 94.6299C137.66 94.6299 137.88 94.5799 137.88 94.5799C137.88 94.5799 137.22 95.4299 136.12 95.4299C135.76 95.4299 135.36 95.3399 134.92 95.1099C135.45 96.8499 137.37 96.9699 137.37 96.9699C137.37 96.9699 136.91 97.5299 135.91 97.5299C135.58 97.5299 135.21 97.4699 134.77 97.3099C135.2 98.6999 136.97 99.1099 136.97 99.1099C136.97 99.1099 136.62 99.4899 136.04 99.4899C135.7 99.4899 135.26 99.3599 134.77 98.9299C135.13 100.17 136.42 100.58 136.42 100.58C136.42 100.58 136.16 100.9 135.64 100.9C135.46 100.9 135.26 100.87 135.03 100.77C136.26 101.47 135.87 102.6 135.4 103.54C131.37 111.59 123.98 114.45 122.77 115.94C121.16 117.93 121.38 120.04 122.06 121.36C122.98 123.13 124.35 123.85 126.02 123.85C126.38 123.85 126.76 123.81 127.14 123.75C125.82 125.25 126.4 127.72 126.86 128.52C127.41 129.46 128.75 130.91 130.92 130.91C131.34 130.91 131.79 130.85 132.27 130.73C131.11 132.79 131.83 134.54 132.17 135.17C132.64 136.07 134.13 137.78 136.88 137.78C144.98 137.78 153.44 127.53 157.62 121.57C161.8 115.61 166.09 104.44 166.09 103.47C163.66 99.2999 165.19 95.8299 166.09 93.9899C166.99 92.1499 169.11 89.1099 172.28 87.6499C169.44 80.6899 161.61 78.6299 157.27 78.6299Z" fill="black"/>
<path d="M138.83 90.5799C137.57 89.3099 137.37 88.1899 137.17 87.0999C136.97 85.9799 136.78 84.9199 135.43 83.8399C134.34 82.9699 133.42 82.8099 132.36 82.6299C131.09 82.4099 129.64 82.1599 127.47 80.6099C137.28 77.2899 142.84 72.1899 143.95 65.6099C144.52 62.2399 143.93 60.5999 143.3 58.8599C142.82 57.5399 142.33 56.1799 142.27 53.9399C142.21 51.9999 143.05 50.0299 144.62 48.4099C146.56 46.4099 149.41 45.1599 152.05 45.1599C153.4 45.1599 154.64 45.4699 155.74 46.0899C159.59 48.2599 161.93 52.2199 162.16 56.9599C162.43 62.6199 159.61 68.2199 154.81 71.5599C153.22 72.6699 151.42 73.5899 149.68 74.4799C147.31 75.6899 144.87 76.9499 142.94 78.6699C139.69 81.5599 138.38 85.3499 138.83 90.5799Z" fill="#F3F4F4"/>
<path d="M152.06 45.2498C153.4 45.2498 154.62 45.5598 155.7 46.1598C159.53 48.3098 161.85 52.2498 162.07 56.9498C162.34 62.5798 159.53 68.1398 154.75 71.4698C153.17 72.5698 151.37 73.4998 149.64 74.3898C147.27 75.6098 144.82 76.8698 142.88 78.5998C139.66 81.4598 138.33 85.1998 138.72 90.3298C137.64 89.1498 137.45 88.0998 137.27 87.0898C137.07 85.9498 136.87 84.8698 135.5 83.7798C134.39 82.8998 133.46 82.7398 132.39 82.5498C131.19 82.3398 129.83 82.1098 127.83 80.7498C137.49 77.2598 142.95 72.1798 144.06 65.6298C144.63 62.2298 144.04 60.5798 143.4 58.8298C142.93 57.5198 142.44 56.1598 142.37 53.9398C142.31 52.0198 143.14 50.0798 144.7 48.4698C146.62 46.4798 149.44 45.2498 152.06 45.2498ZM152.06 45.0698C147.2 45.0698 142.04 49.1298 142.18 53.9398C142.34 59.1998 144.86 59.7398 143.86 65.5998C142.7 72.4798 136.75 77.3898 127.42 80.6898C131.43 83.5498 133.01 82.0298 135.38 83.9198C138.04 86.0498 136.09 88.1098 138.95 90.8198C138.37 84.7598 140.2 81.2298 143.01 78.7298C146.36 75.7498 151.12 74.2298 154.87 71.6198C164.35 65.0198 164.82 51.0798 155.8 45.9998C154.64 45.3598 153.36 45.0698 152.06 45.0698Z" fill="black"/>
<path d="M138.95 71.9099C141.05 68.0699 141.87 63.5399 141.39 58.4099C141.51 58.7699 141.63 59.0999 141.75 59.4299L141.84 59.6599C142.4 61.1899 142.83 62.3899 142.49 65.2599C142.14 68.1299 140.57 70.2299 138.95 71.9099Z" fill="#F3F4F4"/>
<path d="M141.55 59.1299C141.59 59.2399 141.63 59.3499 141.67 59.4599L141.76 59.7C142.31 61.22 142.75 62.4099 142.4 65.2599C142.09 67.8199 140.79 69.7699 139.36 71.3499C141.13 67.8099 141.86 63.7199 141.55 59.1299ZM141.2 57.4299C141.91 63.2399 141.02 68.28 138.53 72.4799C140.47 70.5599 142.22 68.3099 142.58 65.2799C142.95 62.2399 142.43 61.0399 141.84 59.3999C141.62 58.7999 141.39 58.1599 141.2 57.4299Z" fill="black"/>
<path d="M95.5901 157.39C96.3501 146.48 104.18 141.2 107.55 138.93C107.59 138.9 107.6 138.85 107.58 138.81C107.56 138.78 107.53 138.76 107.5 138.76C107.49 138.76 107.47 138.76 107.46 138.77C103.77 140.58 97.4601 144.76 95.5801 152.66C95.8401 142.06 100.45 136.58 105.44 132.25C105.48 132.22 105.48 132.16 105.45 132.12C105.43 132.09 105.4 132.08 105.38 132.08C105.36 132.08 105.34 132.09 105.33 132.1C100.39 135.27 97.0001 139.96 95.6701 145.41C97.1201 129.46 109.15 120.18 120.24 116.74C118.73 118.81 119.09 121.36 119.7 122.52C120.58 124.2 121.95 125.05 123.76 125.05C124.05 125.05 124.35 125.03 124.66 124.99C123.44 126.6 124.13 129 124.52 129.68C124.68 129.96 126.21 132.43 129 132.43C129.34 132.43 129.69 132.39 130.03 132.32C129.27 133.76 129.21 135.11 129.85 136.33C130.25 137.09 131.98 139.2 134.71 139.37C131.39 141.11 126.9 141.95 122.16 142.84C112.36 144.68 101.25 146.76 95.5901 157.39Z" fill="#F3F4F4"/>
<path d="M120.01 116.91C118.8 118.77 118.87 121.15 119.61 122.56C120.51 124.27 121.91 125.14 123.75 125.14C123.98 125.14 124.22 125.13 124.46 125.1C123.46 126.63 123.93 128.84 124.43 129.72C125.19 131.01 126.83 132.51 129 132.51C129.28 132.51 129.57 132.48 129.86 132.43C129.17 133.83 129.13 135.15 129.76 136.35C130.15 137.09 131.79 139.1 134.37 139.41C131.09 141.04 126.73 141.86 122.13 142.73C112.42 144.55 101.44 146.61 95.6997 156.95C96.6297 146.38 104.27 141.23 107.59 138.99C107.67 138.93 107.7 138.83 107.65 138.74C107.61 138.68 107.55 138.65 107.49 138.65C107.46 138.65 107.43 138.66 107.41 138.67C103.84 140.43 97.8097 144.39 95.6897 151.82C96.1597 141.8 100.65 136.51 105.48 132.31C105.55 132.25 105.57 132.14 105.51 132.06C105.47 132.01 105.42 131.99 105.36 131.99C105.32 131.99 105.29 132 105.26 132.02C100.64 134.98 97.3697 139.27 95.8697 144.25C97.7697 129.19 109.28 120.32 120.01 116.91ZM120.48 116.57C109.77 119.8 96.3697 129.36 95.4697 146.76C96.5897 140.47 100.33 135.41 105.37 132.18C99.2197 137.53 95.4697 143.34 95.4697 153.59C96.9097 145.95 102.55 141.28 107.5 138.85C103.4 141.61 96.0297 147 95.4697 157.82C103.83 141.45 124.95 144.87 135.06 139.29C132.3 139.29 130.41 137.19 129.94 136.29C129.6 135.65 129.05 134.25 130.22 132.19C129.79 132.3 129.39 132.35 129.01 132.35C126.71 132.35 125.17 130.6 124.61 129.65C124.15 128.85 123.56 126.38 124.89 124.88C124.5 124.94 124.12 124.98 123.76 124.98C122.09 124.98 120.71 124.26 119.78 122.5C119.08 121.16 118.87 118.56 120.48 116.57Z" fill="black"/>
<path d="M96.1 122.42C95.71 122.42 95.62 122.28 95.58 122.14C95.55 122.04 95.57 121.95 95.62 121.87C95.71 121.72 95.97 121.52 96.67 121.4C106.06 119.74 110.34 118.29 115.74 114.96C122.54 110.75 124.43 105.42 124.51 104.54C124.56 104.04 124.02 103.55 123.59 103.15C123.44 103.02 123.31 102.9 123.22 102.79C122.9 102.42 122.93 101.68 123.27 101.38C123.56 101.13 123.82 101 124.06 101C124.16 101 124.25 101.02 124.34 101.07C124.49 101.14 124.65 101.24 124.81 101.34C125.1 101.52 125.35 101.68 125.52 101.68C125.56 101.68 125.67 101.62 125.69 101.59C126.67 99.8398 126.7 98.0398 126.64 96.0298C126.58 93.9698 126 92.9498 124.64 92.4998C124 92.2898 123.4 91.7098 123.5 90.9998C123.55 90.7098 123.89 90.2798 124.39 90.2798C124.56 90.2798 124.73 90.3298 124.91 90.4198L125.23 90.5898C125.56 90.7698 125.82 90.9098 126.14 90.9098C126.29 90.9098 126.43 90.8798 126.59 90.8198C126.36 89.8198 125.68 88.8398 124.49 87.6198C124 87.1198 123.53 85.9498 123.63 84.7798C123.68 84.1498 123.92 83.2598 124.8 82.6098C125.3 82.2398 125.88 82.0498 126.5 82.0498C128.05 82.0498 129.68 83.2698 130.46 85.0098C130.61 85.3398 131.08 86.6598 130.83 89.6798C131.07 89.8198 131.21 89.8298 131.33 89.8298C131.83 89.8298 131.98 89.5298 132.19 89.1198C132.33 88.8398 132.51 88.4998 132.86 88.1098C133.05 87.9098 133.3 87.7798 133.54 87.7798C133.68 87.7798 133.81 87.8198 133.9 87.8998C134.15 88.1098 134.26 88.7798 134.04 89.1298C133.97 89.2398 133.95 89.2698 133.93 89.2898C133.91 89.3098 133.89 89.3198 133.65 89.6898C133.6 89.7698 133.53 89.8598 133.46 89.9498C133.16 90.3398 132.75 90.8698 132.75 91.8398C132.75 91.9198 132.77 92.0898 132.79 92.3298C132.95 93.8698 133.43 98.5698 131.28 101.7C131.26 101.73 131.26 101.77 131.28 101.8C131.3 101.83 131.33 101.84 131.36 101.84C131.37 101.84 131.37 101.84 131.37 101.84C131.58 101.81 131.78 101.64 131.99 101.46C132.19 101.28 132.4 101.1 132.64 101.02C132.73 100.99 132.82 100.97 132.9 100.97C133.27 100.97 133.6 101.28 133.71 101.72C133.84 102.25 133.75 103.03 133.06 103.52C132.8 103.7 132.54 103.84 132.29 103.96C131.81 104.21 131.4 104.42 131.17 104.85C128.02 110.66 123.89 112.83 116.26 116.46C110.98 118.97 105.87 120.51 96.73 122.32C96.47 122.39 96.27 122.42 96.1 122.42Z" fill="#F3F4F4"/>
<path d="M126.49 82.14C128 82.14 129.6 83.3399 130.37 85.0499C130.67 85.7199 130.92 87.2899 130.73 89.6799C130.72 89.7699 130.78 89.8599 130.88 89.8799C131.05 89.9199 131.2 89.9399 131.33 89.9399C131.88 89.9399 132.06 89.5899 132.27 89.1899C132.41 88.9199 132.58 88.57 132.92 88.2C133.09 88.01 133.32 87.8999 133.54 87.8999C133.66 87.8999 133.77 87.9299 133.84 87.9999C134.05 88.1799 134.15 88.8099 133.96 89.1099C133.9 89.1999 133.88 89.2399 133.89 89.2399C133.85 89.2699 133.83 89.28 133.58 89.67C133.53 89.75 133.46 89.83 133.39 89.92C133.08 90.32 132.66 90.8699 132.66 91.8699C132.66 91.9499 132.68 92.1299 132.7 92.3699C132.86 93.9099 133.33 98.5799 131.21 101.68C131.17 101.74 131.16 101.82 131.2 101.88C131.23 101.93 131.29 101.97 131.36 101.97C131.37 101.97 131.38 101.97 131.39 101.97C131.63 101.94 131.84 101.76 132.06 101.56C132.25 101.39 132.45 101.21 132.68 101.14C132.76 101.11 132.84 101.1 132.91 101.1C133.29 101.1 133.55 101.45 133.63 101.78C133.76 102.28 133.67 103.02 133.01 103.48C132.76 103.65 132.5 103.79 132.25 103.92C131.78 104.16 131.33 104.4 131.09 104.85C127.95 110.63 123.83 112.8 116.22 116.42C110.95 118.93 105.85 120.46 96.7198 122.27C96.4698 122.32 96.2798 122.34 96.1198 122.34C95.7698 122.34 95.7198 122.23 95.6898 122.12C95.6698 122.05 95.6798 121.98 95.7198 121.92C95.7898 121.81 96.0098 121.61 96.7098 121.49C106.11 119.82 110.4 118.38 115.81 115.04C122.65 110.81 124.54 105.44 124.63 104.55C124.69 104.01 124.13 103.5 123.68 103.08C123.54 102.95 123.41 102.83 123.32 102.73C123.01 102.38 123.08 101.7 123.36 101.45C123.62 101.22 123.88 101.09 124.09 101.09C124.17 101.09 124.25 101.11 124.33 101.15C124.47 101.22 124.64 101.32 124.79 101.42C125.14 101.64 125.36 101.77 125.55 101.77C125.66 101.77 125.75 101.72 125.8 101.63C126.79 99.8599 126.82 98.0499 126.76 96.0299C126.7 93.9299 126.1 92.8799 124.69 92.4099C124.09 92.2199 123.53 91.6699 123.62 91.0099C123.65 90.7899 123.92 90.3699 124.41 90.3699C124.56 90.3699 124.72 90.4199 124.89 90.4999C125 90.5599 125.11 90.61 125.2 90.67C125.53 90.85 125.81 90.9999 126.16 90.9999C126.32 90.9999 126.48 90.9699 126.65 90.8999C126.74 90.8599 126.79 90.76 126.76 90.67C126.47 89.77 125.78 88.7799 124.58 87.5399C124.11 87.0499 123.65 85.9099 123.74 84.7699C123.79 84.1599 124.03 83.3 124.87 82.67C125.34 82.32 125.89 82.14 126.49 82.14ZM126.49 81.95C125.88 81.95 125.28 82.1299 124.74 82.5299C122.8 83.9699 123.56 86.7899 124.42 87.6799C125.48 88.7599 126.25 89.7699 126.56 90.7299C126.41 90.7899 126.27 90.8199 126.14 90.8199C125.75 90.8199 125.44 90.5799 124.95 90.3399C124.75 90.2299 124.56 90.1899 124.39 90.1899C123.82 90.1899 123.46 90.6699 123.41 90.9899C123.31 91.7499 123.93 92.3699 124.61 92.5899C126.02 93.0499 126.49 94.1399 126.55 96.0299C126.61 97.9199 126.6 99.7699 125.62 101.53C125.6 101.56 125.57 101.58 125.53 101.58C125.31 101.58 124.78 101.17 124.39 100.98C124.29 100.93 124.18 100.91 124.07 100.91C123.78 100.91 123.49 101.07 123.22 101.31C122.85 101.63 122.79 102.43 123.16 102.85C123.51 103.25 124.49 103.91 124.43 104.53C124.37 105.14 122.65 110.58 115.7 114.88C110.53 118.07 106.34 119.6 96.6698 121.31C95.6798 121.49 95.4198 121.85 95.5098 122.17C95.5698 122.41 95.7598 122.53 96.1198 122.53C96.2898 122.53 96.4998 122.5 96.7498 122.45C105.36 120.74 110.64 119.28 116.3 116.58C124 112.92 128.11 110.73 131.25 104.93C131.58 104.31 132.37 104.14 133.11 103.63C133.85 103.12 133.94 102.27 133.8 101.73C133.69 101.28 133.35 100.91 132.9 100.91C132.81 100.91 132.71 100.93 132.61 100.96C132.09 101.14 131.73 101.73 131.36 101.78C133.85 98.1499 132.84 92.4899 132.84 91.8599C132.84 90.6899 133.46 90.1799 133.73 89.7599C134.14 89.1299 133.88 89.58 134.12 89.2C134.36 88.82 134.26 88.0899 133.97 87.8499C133.86 87.7499 133.71 87.7099 133.55 87.7099C133.3 87.7099 133.02 87.8299 132.8 88.0699C131.95 89.0099 132.1 89.7499 131.35 89.7499C131.24 89.7499 131.1 89.73 130.94 89.7C131.15 87.18 130.86 85.6499 130.56 84.9799C129.73 83.1799 128.08 81.95 126.49 81.95Z" fill="black"/>
<path d="M94.4301 136.47C93.1401 131.75 88.9101 126.21 85.6001 123.88C89.5801 125.08 92.8101 125.26 94.4301 125.26C96.3201 125.26 99.3501 125.01 103.27 123.87C99.9701 126.18 95.7301 131.73 94.4301 136.47Z" fill="#F3F4F4"/>
<path d="M102.8 124.1C99.6298 126.52 95.7698 131.65 94.4298 136.13C93.0898 131.66 89.2498 126.55 86.0798 124.12C89.8398 125.19 92.8798 125.36 94.4298 125.36C96.2398 125.35 99.0998 125.13 102.8 124.1ZM103.85 123.6C99.7198 124.88 96.5198 125.17 94.4298 125.17C92.3298 125.17 88.9798 124.88 85.0098 123.6C88.5398 125.76 93.2198 131.9 94.4298 136.83C95.6398 131.9 100.31 125.76 103.85 123.6Z" fill="black"/>
<path d="M11.4 105.18C9.04003 99.7199 12.2 93.2799 16.6 89.6899C17.46 90.2599 19.65 92.0199 20.96 94.6899C21.8 96.3899 22.55 99.04 21.39 101.95C21.05 101.92 20.61 101.78 20.23 100.81C19.98 100.18 18.94 99.7299 17.69 99.7299C15.34 99.7399 12.48 101.17 11.4 105.18Z" fill="#F3F4F4"/>
<path d="M16.5599 89.8499C17.5699 90.4599 19.6199 92.1799 20.8799 94.7399C21.6999 96.4099 22.4399 98.9899 21.3399 101.84C21.3199 101.84 21.3099 101.84 21.2799 101.84C21.0699 101.84 20.6699 101.7 20.3099 100.78C20.0499 100.1 18.9899 99.6399 17.6799 99.6399C15.3399 99.6399 12.5099 101.03 11.3699 104.89C9.2499 99.5699 12.2999 93.3799 16.5599 89.8499ZM16.5399 89.6199C11.9999 93.3199 8.8299 99.8799 11.4199 105.46C12.4699 101.19 15.4899 99.8299 17.6999 99.8299C18.9399 99.8299 19.9299 100.26 20.1499 100.85C20.5399 101.87 21.0199 102.02 21.2899 102.02C21.4099 102.02 21.4799 101.99 21.4799 101.99C22.5299 99.3499 22.0899 96.7699 21.0399 94.6499C19.8299 92.1799 17.7499 90.3099 16.5399 89.6199Z" fill="black"/>
<path d="M83.9701 68.7098C81.0601 68.7098 81.0601 65.7598 81.0601 63.3898C81.0601 61.0198 81.0601 58.0698 83.9701 58.0698C86.8101 58.0698 86.8101 60.6398 86.8101 63.3598C86.8101 66.1098 86.8101 68.7098 83.9701 68.7098Z" fill="#F3F4F4"/>
<path d="M83.97 58.17C86.72 58.17 86.72 60.58 86.72 63.36C86.72 66.06 86.72 68.62 83.97 68.62C81.15 68.62 81.15 65.84 81.15 63.39C81.15 60.95 81.15 58.17 83.97 58.17ZM83.97 57.98C80.96 57.98 80.96 60.99 80.96 63.39C80.96 65.79 80.96 68.8 83.97 68.8C86.91 68.8 86.91 66.08 86.91 63.36C86.91 60.63 86.91 57.98 83.97 57.98Z" fill="black"/>
<path d="M88.3099 85.78C87.8599 85.75 87.5199 85.6 87.2999 85.33C86.9499 84.9 86.9999 84.27 87.0399 84.02C87.1199 83.51 87.4599 82.96 88.1799 82.96C88.3399 82.96 88.5199 82.99 88.6999 83.04C90.0899 83.44 91.1899 84.85 91.3099 85.06C91.3699 85.16 91.3799 85.33 91.3199 85.45C91.2899 85.51 91.2299 85.54 91.1599 85.54C90.5999 85.54 90.2599 85.61 89.9199 85.67C89.5899 85.73 89.2499 85.8 88.7499 85.8C88.7399 85.79 88.4599 85.79 88.3099 85.78Z" fill="#F3F4F4"/>
<path d="M88.1701 83.0499C88.3201 83.0499 88.4901 83.0799 88.6701 83.1299C90.0301 83.5199 91.1101 84.9099 91.2201 85.0999C91.2601 85.1699 91.2701 85.3099 91.2301 85.3999C91.2101 85.4299 91.1901 85.4499 91.1001 85.4499C90.5901 85.4499 90.2401 85.5199 89.9001 85.5799C89.5601 85.6399 89.2401 85.6999 88.7501 85.6999C88.6201 85.6999 88.4801 85.6999 88.3301 85.6899C87.9101 85.6599 87.5901 85.5199 87.3901 85.2799C87.0601 84.8699 87.1101 84.2799 87.1501 84.0399C87.1601 83.8099 87.3501 83.0499 88.1701 83.0499ZM88.1701 82.8699C87.3601 82.8699 87.0201 83.5099 86.9401 84.0099C86.8501 84.5999 86.9001 85.7899 88.2901 85.8699C88.4501 85.8799 88.5901 85.8899 88.7301 85.8899C89.7401 85.8899 90.0901 85.6399 91.0801 85.6399H91.1401C91.4501 85.6399 91.4901 85.2199 91.3701 85.0199C91.2801 84.8699 90.1701 83.3799 88.7101 82.9599C88.5201 82.8999 88.3401 82.8699 88.1701 82.8699Z" fill="black"/>
<path d="M48.4001 53.18C48.4601 51.02 47.5801 48.83 45.9101 46.97C43.7201 44.54 40.5701 43.09 37.4701 43.09C36.4901 43.09 35.5301 43.23 34.6201 43.52C35.3501 42.88 36.1501 42.25 37.0001 41.6C40.3601 38.98 44.1801 36.01 43.9701 31.05C43.9601 30.78 44.0501 30.54 44.2401 30.33C44.5801 29.97 45.2501 29.76 46.0101 29.76C46.4001 29.76 46.8001 29.82 47.1401 29.92C48.4001 30.29 48.7701 31.84 48.8601 33.08C48.9401 34.04 49.9801 35.18 51.7601 35.4C52.2001 35.46 52.7601 35.48 53.3201 35.48C54.2601 35.48 55.3401 35.41 55.8101 35.33C55.9101 35.31 56.0101 35.3 56.1201 35.29C56.7401 35.23 57.5201 35.16 57.6501 33.29C58.5701 34.17 59.8801 34.62 61.1901 34.62C62.6201 34.62 64.0201 34.08 65.2301 33.07C65.4401 32.9 65.6801 32.81 65.9501 32.81C66.5001 32.81 67.0601 33.2 67.2001 33.68C67.4001 34.37 67.0401 34.89 66.2001 35.16C60.0901 37.09 55.6401 39.98 52.6101 43.99C51.4501 45.52 49.5501 50.3 48.5201 52.87L48.4001 53.18Z" fill="#F3F4F4"/>
<path d="M45.99 29.8599C46.37 29.8599 46.76 29.9199 47.09 30.0199C48.3 30.3799 48.66 31.8899 48.75 33.0999C48.83 34.0899 49.9 35.2699 51.73 35.5099C52.13 35.5699 52.66 35.5899 53.3 35.5899C54.25 35.5899 55.33 35.5299 55.81 35.4399C55.91 35.4199 56.01 35.4099 56.11 35.3999C56.73 35.3399 57.5 35.2699 57.69 33.6399C58.72 34.3399 59.94 34.7299 61.17 34.7299C62.62 34.7299 64.04 34.1899 65.27 33.1599C65.46 32.9999 65.69 32.9199 65.93 32.9199C66.43 32.9199 66.96 33.2899 67.09 33.7199C67.34 34.5699 66.61 34.9399 66.15 35.0799C60.02 37.0199 55.56 39.9199 52.52 43.9399C51.37 45.4499 49.51 50.0999 48.48 52.7099C48.41 50.6799 47.54 48.6599 45.97 46.9199C43.77 44.4699 40.58 43.0099 37.46 43.0099C36.61 43.0099 35.79 43.1199 34.99 43.3299C35.63 42.7899 36.32 42.2499 37.04 41.6899C40.42 39.0499 44.26 36.0699 44.05 31.0599C44.04 30.8099 44.12 30.5999 44.29 30.4199C44.61 30.0599 45.25 29.8599 45.99 29.8599ZM45.99 29.6699C44.86 29.6699 43.81 30.1299 43.86 31.0499C44.13 37.3499 37.91 40.3499 34.21 43.7599C35.28 43.3599 36.37 43.1799 37.46 43.1799C43.24 43.1799 48.83 48.2999 48.27 53.7499C49.1 51.6999 51.38 45.7599 52.68 44.0399C55.82 39.8899 60.31 37.1099 66.22 35.2399C67.12 34.9599 67.49 34.3699 67.28 33.6499C67.13 33.1499 66.55 32.7099 65.94 32.7099C65.67 32.7099 65.4 32.7999 65.16 32.9899C63.86 34.0799 62.47 34.5199 61.17 34.5199C59.8 34.5199 58.51 34.0299 57.54 33.2799C57.4 35.3799 56.46 35.1099 55.78 35.2299C55.34 35.3099 54.31 35.3799 53.31 35.3799C52.75 35.3799 52.19 35.3599 51.76 35.2999C50.07 35.0899 49.02 33.9999 48.94 33.0599C48.87 32.1199 48.59 30.2399 47.15 29.8199C46.78 29.7299 46.38 29.6699 45.99 29.6699Z" fill="black"/>
<path d="M86.8099 39.61C89.7099 37.62 89.6499 34.8001 89.5499 33.9301C89.5399 33.8901 89.5099 33.8501 89.4699 33.8501H89.4599C89.4199 33.8501 89.3799 33.8801 89.3699 33.9101C88.4199 36.7401 86.3199 37.7501 84.6699 37.7501C84.5899 37.7501 84.5099 37.7501 84.4299 37.7401C85.6399 37.2501 86.5799 36.3401 87.0799 35.1301C87.6099 33.8601 87.6099 32.3901 87.0899 31.3801C87.0699 31.3501 87.0399 31.33 87.0099 31.33C86.9999 31.33 86.9999 31.33 86.9999 31.33C86.9599 31.34 86.9299 31.3701 86.9199 31.4101C86.5999 33.1401 85.2499 35.5901 83.2699 35.5901C83.2399 35.5901 83.2199 35.5901 83.1899 35.5901C85.2599 34.4801 85.7299 31.0001 85.1699 29.3901C85.1599 29.3501 85.1199 29.33 85.0799 29.33C85.0399 29.33 85.0099 29.3601 84.9899 29.4001C84.6899 30.4701 84.0799 32.5801 82.4099 32.8101C82.8799 32.5001 83.2399 31.9901 83.4699 31.3201C83.8999 30.0801 83.7899 28.5501 83.1899 27.5101C83.1699 27.4801 83.1399 27.4601 83.1099 27.4601C83.0999 27.4601 83.0899 27.4601 83.0899 27.4601C83.0499 27.4701 83.0199 27.51 83.0199 27.55C82.9599 29.14 82.4399 30.1001 81.4899 30.4101C81.8099 30.0701 82.0099 29.53 82.0799 28.86C82.1999 27.58 81.7999 26.11 81.1899 25.58C81.1699 25.56 81.1499 25.5601 81.1299 25.5601C81.1099 25.5601 81.0899 25.57 81.0799 25.58C81.0499 25.6 81.0299 25.6501 81.0399 25.6901C81.2599 26.3801 81.2199 27.08 80.9499 27.58C80.7399 27.97 80.3899 28.23 79.9099 28.36C80.4599 26.52 79.5199 25.4601 79.4799 25.4101C79.1699 25.1301 78.8299 24.9901 78.4899 24.9901C77.9199 24.9901 77.4599 25.4201 77.4199 26.0101C77.3699 26.5601 77.5399 26.8201 77.7599 27.1601C77.9699 27.4801 78.2299 27.8901 78.3699 28.7201C78.4999 29.5201 78.1899 30.3801 77.5499 30.9801C77.0099 31.4901 75.9599 31.7301 75.2099 31.7301C74.9899 31.7301 74.8099 31.7101 74.6699 31.6701C73.9999 31.5001 73.3699 31.3401 73.0499 29.7901C72.4799 26.9501 69.0299 24.9801 64.6499 24.9801C64.1399 24.9801 63.6099 25.0101 63.0599 25.0601C59.8799 25.3701 58.1299 26.87 57.2299 28.08C56.1999 29.45 55.8899 30.9001 56.0499 31.7301C56.1299 32.1401 56.1399 32.4901 56.0899 32.8101C56.0599 32.8801 56.0399 32.9701 56.0199 33.0601C55.9299 33.3301 55.7599 33.5601 55.5199 33.7401C55.2399 33.7801 54.3499 33.8501 53.3299 33.8501C52.7799 33.8501 52.3099 33.8301 51.9799 33.7901C51.6999 33.7501 51.4399 33.6801 51.1999 33.5601C50.8799 33.3601 50.6499 33.1101 50.4999 32.7801C50.2099 29.5901 48.5699 28.64 47.6299 28.36C47.1299 28.21 46.5799 28.1301 46.0299 28.1301C45.7499 28.1301 45.4899 28.1501 45.2299 28.1901C42.0599 28.2601 36.8799 31.75 34.2299 36.83C33.9599 37.36 33.5999 37.6501 33.2299 37.6501C33.1399 37.6501 33.0599 37.6301 32.9699 37.6001C32.6499 37.4701 32.3699 36.94 32.5999 35.86C35.4599 22.78 49.9499 11.68 64.8899 11.11C65.7799 11.07 66.6399 11.0601 67.4799 11.0601C78.2799 11.0601 85.8699 13.7801 90.0499 19.1501C94.2799 24.5901 93.8299 31.7301 91.2599 35.6801C89.9399 37.6401 88.4899 38.94 86.8099 39.61Z" fill="#F3F4F4"/>
<path d="M67.45 11.1199C78.21 11.1199 85.78 13.8299 89.95 19.1799C94.15 24.5899 93.71 31.6799 91.15 35.5999C90.07 37.2699 88.88 38.44 87.54 39.17C89.8 37.21 89.74 34.73 89.64 33.92C89.63 33.83 89.56 33.7699 89.48 33.7599C89.47 33.7599 89.47 33.7599 89.46 33.7599C89.38 33.7599 89.31 33.81 89.28 33.89C88.38 36.57 86.44 37.5899 84.85 37.6599C85.9 37.1299 86.7 36.27 87.16 35.17C87.7 33.88 87.7 32.3699 87.16 31.3399C87.13 31.2799 87.07 31.2399 87 31.2399C86.99 31.2399 86.98 31.2399 86.97 31.2399C86.89 31.2499 86.83 31.31 86.81 31.39C86.51 33.01 85.3 35.2599 83.52 35.4799C85.37 34.1799 85.78 30.9099 85.23 29.3599C85.2 29.2899 85.13 29.2399 85.05 29.2399C84.97 29.2399 84.9 29.2999 84.88 29.3699L84.84 29.5199C84.6 30.3499 84.09 32.1499 82.77 32.6199C83.1 32.2999 83.37 31.8699 83.55 31.3499C83.99 30.0899 83.87 28.5299 83.26 27.4699C83.23 27.4099 83.17 27.3799 83.1 27.3799C83.08 27.3799 83.07 27.38 83.05 27.39C82.97 27.41 82.91 27.4799 82.91 27.5599C82.86 28.9199 82.47 29.8 81.76 30.2C81.97 29.86 82.11 29.4099 82.16 28.8799C82.29 27.5799 81.87 26.0699 81.24 25.5199C81.21 25.4899 81.16 25.4699 81.12 25.4699C81.08 25.4699 81.05 25.4799 81.02 25.4999C80.95 25.5499 80.92 25.6299 80.94 25.7099C81.15 26.3699 81.12 27.0499 80.85 27.5299C80.7 27.8099 80.46 28.0199 80.16 28.1599C80.44 26.3699 79.57 25.3799 79.52 25.3299C79.2 25.0399 78.84 24.89 78.47 24.89C77.84 24.89 77.35 25.3599 77.3 25.9899C77.25 26.5699 77.44 26.86 77.66 27.2C77.87 27.53 78.12 27.9099 78.26 28.7299C78.38 29.4999 78.08 30.3299 77.47 30.9099C76.95 31.3999 75.92 31.6299 75.19 31.6299C74.98 31.6299 74.8 31.6099 74.61 31.5599C74 31.4099 73.42 31.2599 73.12 29.7599C72.54 26.8799 69.05 24.8699 64.63 24.8699C64.11 24.8699 63.57 24.9 63.03 24.95C59.82 25.26 58.05 26.7899 57.13 28.0099C56.08 29.3999 55.77 30.8799 55.93 31.7299C56.01 32.1299 56.02 32.4699 55.97 32.7399C55.94 32.8299 55.91 32.9299 55.9 32.9899C55.81 33.2599 55.65 33.4699 55.46 33.6099C55.18 33.6599 54.3 33.7299 53.28 33.7299C52.75 33.7299 52.28 33.71 51.94 33.67C51.66 33.63 51.42 33.5599 51.2 33.4599C50.89 33.2599 50.67 33.0299 50.54 32.7699C50.23 29.4999 48.56 28.5199 47.59 28.2399C47.08 28.0899 46.52 28.0099 45.96 28.0099C45.7 28.0099 45.42 28.0299 45.17 28.0699C41.96 28.1399 36.74 31.6499 34.08 36.7599C33.82 37.2599 33.49 37.5299 33.16 37.5299C33.08 37.5299 33.01 37.5099 32.94 37.4899C32.63 37.3699 32.42 36.8099 32.63 35.8599C35.48 22.8199 49.93 11.7499 64.84 11.1799C65.75 11.1399 66.61 11.1199 67.45 11.1199ZM67.45 10.9399C66.61 10.9399 65.74 10.9599 64.86 10.9899C50.19 11.5499 35.41 22.4299 32.48 35.8099C32.25 36.8599 32.5 37.4899 32.9 37.6499C32.99 37.6899 33.09 37.7099 33.19 37.7099C33.55 37.7099 33.95 37.4699 34.27 36.8399C36.86 31.8599 42.04 28.3199 45.2 28.2499C45.45 28.2099 45.71 28.1899 45.98 28.1899C46.52 28.1899 47.06 28.27 47.55 28.42C48.48 28.7 50.07 29.6399 50.37 32.7999C50.52 33.1099 50.74 33.3899 51.12 33.6199C51.34 33.7199 51.6 33.8099 51.93 33.8599C52.27 33.8999 52.74 33.9299 53.3 33.9299C54.34 33.9299 55.23 33.8499 55.51 33.7999C55.52 33.7999 55.53 33.7999 55.55 33.7999C55.78 33.6299 55.98 33.3999 56.09 33.0599C56.1 32.9699 56.13 32.8899 56.16 32.8099C56.21 32.5199 56.21 32.16 56.12 31.7C55.81 30.02 57.5 25.69 63.05 25.14C63.6 25.08 64.12 25.0599 64.63 25.0599C69.31 25.0599 72.42 27.2099 72.94 29.7999C73.28 31.4699 73.99 31.5999 74.63 31.7599C74.77 31.7999 74.97 31.8199 75.19 31.8199C75.94 31.8199 77.02 31.5899 77.6 31.0499C78.24 30.4399 78.58 29.55 78.45 28.7C78.16 27 77.41 27.0599 77.5 26.0099C77.54 25.4499 77.96 25.0799 78.48 25.0799C78.77 25.0799 79.09 25.1999 79.4 25.4699C79.4 25.4699 80.35 26.52 79.93 28.45C81.31 28.08 81.44 26.6799 81.12 25.6599C82.08 26.4999 82.49 29.7999 81.12 30.5899C82.54 30.3999 83.04 29.1099 83.11 27.5599C84.07 29.2299 83.71 32.23 82 32.92C82.04 32.92 82.07 32.92 82.11 32.92C84.18 32.92 84.82 30.3199 85.08 29.4299C85.68 31.1299 85.07 34.7799 82.85 35.6499C82.99 35.6799 83.13 35.6899 83.27 35.6899C85.27 35.6899 86.67 33.2899 87.02 31.4399C87.93 33.2099 87.29 36.7899 84.03 37.8099C84.24 37.8499 84.46 37.8599 84.68 37.8599C86.5 37.8599 88.55 36.69 89.47 33.95C89.66 35.63 89.14 38.2899 86.09 39.9599C87.98 39.4399 89.75 38.1399 91.32 35.7099C94.11 31.4299 94.11 24.2199 90.11 19.0699C86.37 14.2799 79.35 10.9399 67.45 10.9399Z" fill="black"/>
<path d="M62.9399 80.1299C62.7799 80.1299 62.5899 80.0699 62.4199 80.0199C55.5399 78.0699 45.3399 70.0099 50.3299 52.0299C50.3699 51.8699 50.4199 51.7099 50.4699 51.5499C51.3199 49.1199 52.5099 46.8599 53.9099 44.9999C54.1899 44.6299 54.4999 44.2599 54.8099 43.9099C55.6899 42.9299 56.6899 42.0099 57.7699 41.1699C60.1899 39.3299 63.0999 37.8899 66.6899 36.7499C68.6699 36.1299 69.1599 34.5199 68.7799 33.2199C68.4299 32.0399 67.2199 31.1599 65.9499 31.1599C65.2899 31.1599 64.6799 31.3799 64.1699 31.8099C63.2899 32.5399 62.3199 32.9199 61.1799 32.9699L60.7999 32.9799C59.3399 32.9799 58.3999 32.5899 57.9899 31.8399C57.5899 31.0699 57.8799 29.6999 58.6299 28.8399C59.9599 27.3199 61.5799 26.6699 64.0399 26.6699C64.5099 26.6699 65.0299 26.6999 65.5799 26.7499C69.2499 27.1299 71.5399 28.9399 72.3799 32.1499C72.7599 33.6099 72.4099 35.3999 71.4799 36.8399C70.5199 38.2999 69.0699 39.2499 67.3799 39.5199C59.8199 40.7199 54.2999 46.9599 52.1899 52.6099C49.1299 60.8399 50.7599 66.8899 52.6799 70.5199C55.4999 75.8599 60.2399 78.7299 62.7399 79.3499C62.9399 79.3999 63.1199 79.5299 63.1899 79.6999C63.2299 79.7799 63.2499 79.8999 63.1899 80.0199C63.1699 80.0599 63.1099 80.1299 62.9399 80.1299Z" fill="#F3F4F4"/>
<path d="M64.0398 26.7498C64.4998 26.7498 65.0098 26.7798 65.5698 26.8298C69.1998 27.1998 71.4598 28.9998 72.2898 32.1698C72.6598 33.5998 72.3198 35.3698 71.3998 36.7798C70.4598 38.2198 69.0198 39.1598 67.3598 39.4198C59.7598 40.6298 54.2198 46.8898 52.0998 52.5698C49.0198 60.8298 50.6698 66.9098 52.5898 70.5598C55.4198 75.9298 60.1898 78.8098 62.7098 79.4398C62.8898 79.4798 63.0398 79.5898 63.0998 79.7298C63.1298 79.7898 63.1498 79.8798 63.0998 79.9598C63.0898 79.9898 63.0598 80.0398 62.9298 80.0398C62.7898 80.0398 62.5998 79.9798 62.3698 79.9098C55.5898 77.9898 45.4398 69.9598 50.3998 52.0498C50.4398 51.8898 50.4898 51.7398 50.5398 51.5798C51.3898 49.1498 52.5698 46.8998 53.9698 45.0598C54.2498 44.6898 54.5498 44.3298 54.8598 43.9798C55.7398 42.9998 56.7298 42.0798 57.7998 41.2498C60.2098 39.4198 63.1198 37.9798 66.6898 36.8498C68.7198 36.2098 69.2298 34.5498 68.8398 33.1998C68.4798 31.9898 67.2298 31.0698 65.9198 31.0698C65.2398 31.0698 64.6098 31.2998 64.0798 31.7398C63.2198 32.4598 62.2598 32.8298 61.1498 32.8798C61.0198 32.8898 60.8998 32.8898 60.7798 32.8898C59.3598 32.8898 58.4398 32.5198 58.0598 31.7898C57.6698 31.0498 57.9598 29.7198 58.6898 28.8898C60.0098 27.3898 61.6098 26.7498 64.0398 26.7498ZM64.0398 26.5698C61.3598 26.5698 59.8098 27.3398 58.5598 28.7698C57.7598 29.6798 57.4898 31.0798 57.9098 31.8798C58.2998 32.6198 59.2098 33.0698 60.7998 33.0698C60.9198 33.0698 61.0498 33.0698 61.1798 33.0598C62.2598 33.0098 63.2798 32.6598 64.2198 31.8798C64.7098 31.4698 65.3098 31.2498 65.9398 31.2498C67.1698 31.2498 68.3498 32.1098 68.6798 33.2498C69.0498 34.5198 68.5698 36.0598 66.6498 36.6698C63.0798 37.7998 60.1098 39.2698 57.6998 41.0998C56.5698 41.9698 55.5898 42.8998 54.7298 43.8498C54.4198 44.2098 54.1098 44.5698 53.8298 44.9498C52.3998 46.8398 51.2198 49.0998 50.3798 51.5198C50.3298 51.6798 50.2798 51.8398 50.2398 52.0098C44.7998 71.6298 57.1798 78.6298 62.3298 80.0898C62.5198 80.1498 62.7498 80.2198 62.9398 80.2198C63.0798 80.2198 63.1998 80.1798 63.2698 80.0498C63.4298 79.7398 63.1698 79.3598 62.7598 79.2498C57.6698 77.9798 46.2598 68.7698 52.2698 52.6298C54.5898 46.4198 60.3498 40.7198 67.3898 39.5998C71.3098 38.9798 73.2098 34.9398 72.4698 32.1198C71.7298 29.2998 69.7198 27.0698 65.5898 26.6498C65.0398 26.5998 64.5198 26.5698 64.0398 26.5698Z" fill="black"/>
<path d="M48.8497 89.05C45.9297 81.32 37.8297 77.1 31.5797 77.05H31.2397C28.5397 77.05 26.4097 77.38 22.8497 79.1C21.6097 79.7 20.4697 80.43 19.4497 81.27C19.3497 76.71 20.6297 67.26 24.9097 60.22C22.9797 64.28 21.3597 70.21 21.7397 74.77C21.7397 74.82 21.7797 74.85 21.8297 74.85C21.8797 74.85 21.9197 74.81 21.9197 74.77C22.4197 69.95 23.6497 67.04 25.7197 63.68C24.2697 67.86 23.7897 71.78 24.4497 74.3C24.4597 74.34 24.4997 74.37 24.5397 74.37C24.5497 74.37 24.5497 74.37 24.5597 74.37C24.6097 74.36 24.6397 74.31 24.6297 74.27C24.2597 71.9 24.9697 68.51 26.7597 66.6C25.3497 69.58 25.4197 72.69 26.4197 73.85C26.4397 73.87 26.4697 73.88 26.4897 73.88C26.4997 73.88 26.5197 73.88 26.5297 73.87C26.5697 73.85 26.5897 73.81 26.5797 73.78C26.4497 72.66 26.4897 71 28.1897 69.31C27.4797 71.81 28.4597 73.53 28.9197 74C28.9397 74.02 28.9597 74.03 28.9897 74.03C28.9997 74.03 29.0197 74.03 29.0297 74.02C29.0597 74 29.0897 73.97 29.0797 73.93C28.9297 72.28 29.4497 71.59 29.9097 71.12C29.6697 72.89 30.3097 73.94 30.3397 73.98C30.3597 74.01 30.3897 74.02 30.4197 74.02C30.4297 74.02 30.4397 74.02 30.4497 74.01C30.4897 74 30.5197 73.96 30.5197 73.92C30.5197 73.91 30.4897 72.5 31.5497 72.09C32.3097 73.18 34.2497 74.11 36.4997 75.19C41.4897 77.58 48.3197 80.85 48.8697 88.93C48.8497 88.97 48.8497 89.02 48.8497 89.05Z" fill="#F3F4F4"/>
<path d="M24.0797 61.8699C22.4997 65.7899 21.3097 70.7999 21.6397 74.7699C21.6497 74.8699 21.7297 74.9399 21.8197 74.9399C21.9197 74.9399 21.9997 74.8699 21.9997 74.7699C22.4597 70.3099 23.5497 67.4899 25.3597 64.4299C24.1097 68.3299 23.7297 71.9399 24.3497 74.3099C24.3697 74.3899 24.4497 74.4499 24.5297 74.4499C24.5397 74.4499 24.5597 74.4499 24.5697 74.4499C24.6697 74.4299 24.7297 74.3399 24.7197 74.2399C24.3897 72.0799 24.9497 69.0599 26.4297 67.1299C25.3697 69.7599 25.2897 72.6799 26.3597 73.8999C26.3997 73.9399 26.4497 73.9599 26.4997 73.9599C26.5297 73.9599 26.5497 73.9499 26.5797 73.9399C26.6497 73.9099 26.6997 73.8299 26.6897 73.7499C26.5697 72.7099 26.5997 71.1899 28.0297 69.6099C27.4897 71.9599 28.4197 73.5899 28.8697 74.0399C28.9097 74.0799 28.9497 74.0999 28.9997 74.0999C29.0297 74.0999 29.0497 74.0899 29.0797 74.0799C29.1497 74.0499 29.1897 73.9699 29.1897 73.8899C29.0597 72.5199 29.4197 71.8299 29.7997 71.3699C29.6497 72.9999 30.2497 73.9599 30.2697 74.0099C30.3097 74.0699 30.3697 74.0999 30.4297 74.0999C30.4497 74.0999 30.4697 74.0999 30.4797 74.0899C30.5597 74.0599 30.6097 73.9899 30.6097 73.9099C30.6097 73.8999 30.5797 72.6599 31.4597 72.2199C32.3797 73.3099 34.2697 74.2199 36.4597 75.2599C41.3297 77.5999 47.9797 80.7699 48.7397 88.4599C45.6397 81.0299 37.7297 76.9899 31.5997 76.9399H31.2497C28.5397 76.9399 26.3997 77.2699 22.8197 78.9999C21.6897 79.5499 20.6397 80.1999 19.6897 80.9499C19.5197 76.5999 20.6197 68.4799 24.0797 61.8699ZM25.8197 58.6599C20.9997 65.4299 19.2097 75.8099 19.4997 81.3499C20.4997 80.5199 21.6297 79.7999 22.8797 79.1999C26.5297 77.4299 28.6397 77.1499 31.2297 77.1499C31.3497 77.1499 31.4597 77.1499 31.5797 77.1499C37.9497 77.1999 46.1297 81.6499 48.8797 89.4099C48.9297 89.3099 48.9497 89.1599 48.9397 88.9199C48.1397 77.1599 34.2697 75.5899 31.4997 72.0099C30.3597 72.4499 30.4097 73.9299 30.4097 73.9299C30.4097 73.9299 29.6797 72.7699 30.0397 70.8399C29.5697 71.3199 28.7997 71.9799 28.9797 73.9299C28.4597 73.3899 27.5097 71.5699 28.3797 68.9899C26.5697 70.6399 26.3197 72.3099 26.4797 73.7899C25.3997 72.5399 25.4897 69.1299 27.0797 66.1599C24.9897 67.9799 24.1197 71.6799 24.5297 74.2799C23.9297 71.9799 24.2097 67.9499 26.0897 62.9199C23.8797 66.3699 22.3697 69.3999 21.8197 74.7699C21.4097 69.7599 23.4797 62.7299 25.8197 58.6599Z" fill="black"/>
<path d="M52.0001 137.67C43.5901 137.67 34.7401 126.36 31.3301 121.5C27.2101 115.62 22.8801 104.46 22.8801 103.45C25.4201 99.13 23.6301 95.48 22.8701 93.93C21.8001 91.74 19.6001 88.91 16.6401 87.54C19.5501 80.59 27.6701 78.72 31.5701 78.72C36.9701 78.72 42.9001 82.44 46.0101 87.76L46.3801 88.4C47.3801 90.13 48.1001 91.38 49.7501 91.65C49.9301 91.68 50.1001 91.7 50.2601 91.7C51.4401 91.7 52.3401 90.92 52.7401 89.54C52.9301 90.25 52.8801 90.88 52.6001 91.41C52.0201 92.48 50.6801 92.83 50.6601 92.83C50.6201 92.84 50.6001 92.87 50.5901 92.91C50.5801 92.95 50.6001 92.99 50.6401 93C50.6701 93.02 51.3601 93.41 52.2001 93.41C52.8501 93.41 53.4101 93.17 53.8501 92.7C53.3901 94.28 52.2201 94.52 51.5301 94.52C51.2201 94.52 51.0101 94.47 51.0101 94.47C51.0001 94.47 51.0001 94.47 50.9901 94.47C50.9601 94.47 50.9301 94.49 50.9101 94.51C50.8901 94.54 50.8901 94.59 50.9201 94.62C50.9501 94.66 51.6201 95.5 52.7601 95.5C53.1101 95.5 53.4601 95.42 53.8101 95.27C53.2201 96.73 51.5401 96.86 51.5201 96.86C51.4801 97.03 51.9601 97.61 52.9801 97.61C53.3501 97.61 53.7401 97.53 54.1601 97.38C53.6401 98.59 51.9301 99 51.9101 99C51.8801 99.17 52.2501 99.56 52.8601 99.56C53.2101 99.56 53.5701 99.43 53.9301 99.18C53.4901 100.13 52.4701 100.46 52.4601 100.46C52.4301 100.62 52.7101 100.97 53.2801 100.97C53.3301 100.97 53.3801 100.97 53.4301 100.96C52.6601 101.69 53.0101 102.72 53.4301 103.56C56.4001 109.5 61.1601 112.6 64.0001 114.45C64.9801 115.09 65.7601 115.6 66.0701 115.98C67.6301 117.91 67.4501 119.99 66.7601 121.3C65.9101 122.94 64.6401 123.74 62.8901 123.74C62.5401 123.74 62.1601 123.71 61.7801 123.64C61.7701 123.64 61.7701 123.64 61.7701 123.64C61.7401 123.64 61.7001 123.66 61.6901 123.69C61.6701 123.73 61.6701 123.77 61.7001 123.8C62.9801 125.25 62.4201 127.69 61.9701 128.46C61.7401 128.85 60.4901 130.8 58.0001 130.8C57.5701 130.8 57.1201 130.74 56.6701 130.62C56.6601 130.62 56.6501 130.62 56.6501 130.62C56.6201 130.62 56.5901 130.63 56.5801 130.66C56.5601 130.69 56.5501 130.73 56.5701 130.76C57.6901 132.75 57.0201 134.47 56.6701 135.12C56.4901 135.38 55.2001 137.67 52.0001 137.67Z" fill="#F3F4F4"/>
<path d="M31.5799 78.8099C36.9499 78.8099 42.8499 82.5099 45.9399 87.8099L45.9999 87.9099L46.0599 87.9999L46.1599 88.1799L46.3099 88.4399C47.3199 90.1899 48.0499 91.4499 49.7399 91.7399C49.9199 91.7699 50.0999 91.7799 50.2599 91.7799C51.3899 91.7799 52.2699 91.0999 52.7199 89.8799C52.8099 90.4299 52.7399 90.9299 52.5099 91.3599C51.9599 92.3999 50.6399 92.7399 50.6299 92.7399C50.5599 92.7599 50.4999 92.8199 50.4899 92.8899C50.4799 92.9599 50.5199 93.0399 50.5799 93.0799C50.6099 93.0999 51.3199 93.4999 52.1899 93.4999C52.7299 93.4999 53.2199 93.3299 53.6299 93.0199C53.1299 94.2299 52.1299 94.4299 51.5199 94.4299C51.2299 94.4299 51.0199 94.3899 51.0199 94.3899C51.0099 94.3899 50.9899 94.3799 50.9799 94.3799C50.9199 94.3799 50.8599 94.4099 50.8199 94.4699C50.7799 94.5399 50.7799 94.6199 50.8299 94.6799C50.8599 94.7199 51.5599 95.5999 52.7399 95.5999C53.0299 95.5999 53.3199 95.5499 53.6099 95.4499C52.9799 96.6599 51.5599 96.7699 51.4999 96.7699C51.4299 96.7799 51.3699 96.8199 51.3399 96.8799C51.3099 96.9399 51.3199 97.0199 51.3699 97.0699C51.3899 97.0999 51.8999 97.6999 52.9599 97.6999C53.2199 97.6999 53.4999 97.6599 53.7799 97.5899C53.2299 98.5899 51.8799 98.9099 51.8599 98.9099C51.7899 98.9299 51.7399 98.9699 51.7199 99.0399C51.6999 99.1099 51.7199 99.1699 51.7599 99.2199C51.7799 99.2399 52.1699 99.6599 52.8199 99.6599C53.0899 99.6599 53.3599 99.5899 53.6299 99.4599C53.1599 100.14 52.3999 100.38 52.3899 100.39C52.3299 100.41 52.2799 100.46 52.2699 100.51C52.2499 100.57 52.2599 100.63 52.2999 100.68C52.3099 100.7 52.5999 101.05 53.1699 101.07C52.4699 101.94 53.0399 103.08 53.3099 103.62C56.2899 109.58 61.0599 112.68 63.9099 114.54C64.8899 115.18 65.6599 115.68 65.9599 116.05C67.4899 117.94 67.3199 119.98 66.6499 121.27C65.8099 122.88 64.5699 123.66 62.8599 123.66C62.5199 123.66 62.1499 123.63 61.7699 123.56C61.7599 123.56 61.7499 123.56 61.7399 123.56C61.6699 123.56 61.6099 123.6 61.5799 123.66C61.5399 123.73 61.5499 123.81 61.5999 123.87C62.8499 125.29 62.2999 127.67 61.8599 128.42C61.6399 128.8 60.4099 130.71 57.9699 130.71C57.5499 130.71 57.1099 130.65 56.6599 130.53C56.6399 130.53 56.6299 130.52 56.6099 130.52C56.5499 130.52 56.4999 130.55 56.4599 130.59C56.4099 130.65 56.4099 130.73 56.4499 130.79C57.5499 132.74 56.8899 134.42 56.5499 135.06C56.4199 135.32 55.1399 137.56 51.9999 137.56C43.6299 137.56 34.8099 126.28 31.4099 121.43C27.1999 115.41 23.1099 104.59 22.9799 103.48C25.5199 99.0899 23.7199 95.4299 22.9599 93.8699C21.8999 91.7099 19.7499 88.9199 16.8499 87.5199C19.7499 80.6399 27.7299 78.8099 31.5799 78.8099ZM31.5799 78.6299C27.2399 78.6299 19.4199 80.6899 16.6099 87.6299C19.7799 89.0899 21.8999 92.1299 22.7999 93.9699C23.6999 95.8099 25.2399 99.2799 22.7999 103.45C22.7999 104.43 27.0899 115.59 31.2699 121.55C35.4499 127.51 43.9099 137.76 52.0099 137.76C54.7599 137.76 56.2499 136.06 56.7199 135.15C57.0499 134.52 57.7799 132.77 56.6099 130.71C57.0899 130.83 57.5399 130.89 57.9699 130.89C60.1299 130.89 61.4799 129.44 62.0199 128.5C62.4799 127.71 63.0599 125.23 61.7399 123.73C62.1299 123.8 62.4999 123.83 62.8599 123.83C64.5299 123.83 65.8999 123.11 66.8199 121.34C67.5099 120.02 67.7299 117.91 66.1199 115.92C64.9099 114.42 57.5199 111.57 53.4899 103.52C53.0199 102.58 52.6299 101.44 53.8499 100.75C53.6199 100.85 53.4199 100.88 53.2499 100.88C52.7199 100.88 52.4599 100.56 52.4599 100.56C52.4599 100.56 53.7399 100.15 54.1099 98.9099C53.6199 99.3399 53.1899 99.4699 52.8399 99.4699C52.2599 99.4699 51.9099 99.0899 51.9099 99.0899C51.9099 99.0899 53.6899 98.6799 54.1099 97.2899C53.6699 97.4499 53.2899 97.5099 52.9699 97.5099C51.9799 97.5099 51.5199 96.9499 51.5199 96.9499C51.5199 96.9499 53.4299 96.8299 53.9699 95.0899C53.5199 95.3299 53.1199 95.4099 52.7599 95.4099C51.6499 95.4099 50.9999 94.5599 50.9999 94.5599C50.9999 94.5599 51.2199 94.6099 51.5399 94.6099C52.3099 94.6099 53.6699 94.3199 54.0399 92.3199C53.5099 93.0899 52.8199 93.3099 52.2099 93.3099C51.3799 93.3099 50.6899 92.9099 50.6899 92.9099C50.6899 92.9099 53.7899 92.1299 52.7399 89.1899C52.4399 90.5299 51.6399 91.5899 50.2699 91.5899C50.1199 91.5899 49.9499 91.5699 49.7799 91.5499C48.0999 91.2699 47.4099 89.9399 46.3299 88.0699C46.2999 88.0099 46.2599 87.9499 46.2299 87.8999C46.1899 87.8299 46.1499 87.7699 46.1099 87.6999C42.8799 82.1999 36.8899 78.6299 31.5799 78.6299Z" fill="black"/>
<path d="M50.0197 90.5799C50.4697 85.3399 49.1597 81.5499 45.9097 78.6699C43.9697 76.9499 41.5297 75.6899 39.1697 74.4799C37.4297 73.5899 35.6297 72.6599 34.0497 71.5599C29.2397 68.2099 26.4197 62.6199 26.6897 56.9599C26.9197 52.2299 29.2497 48.2599 33.1097 46.0899C34.1997 45.4799 35.4397 45.1599 36.7997 45.1599C39.4397 45.1599 42.2897 46.3999 44.2297 48.4099C45.7997 50.0299 46.6397 51.9999 46.5797 53.9399C46.5097 56.1799 46.0197 57.5499 45.5497 58.8599C44.9197 60.5999 44.3297 62.2399 44.8997 65.6099C46.0097 72.1899 51.5697 77.2899 61.4097 80.7699C59.2097 82.1599 57.7597 82.4099 56.4897 82.6299C55.4297 82.8099 54.5097 82.9699 53.4297 83.8399C52.0797 84.9199 51.8897 85.9799 51.6897 87.0999C51.4797 88.1899 51.2797 89.3099 50.0197 90.5799Z" fill="#F3F4F4"/>
<path d="M36.7901 45.2498C39.4101 45.2498 42.2301 46.4798 44.1601 48.4698C45.7201 50.0798 46.5401 52.0198 46.4901 53.9298C46.4201 56.1498 45.9401 57.5098 45.4601 58.8298C44.8301 60.5798 44.2301 62.2298 44.8001 65.6298C45.9101 72.1698 51.3701 77.2598 61.0301 80.7498C59.0301 82.1098 57.6701 82.3398 56.4601 82.5498C55.3901 82.7298 54.4601 82.8998 53.3601 83.7798C51.9801 84.8798 51.7901 85.9498 51.5801 87.0898C51.4001 88.1098 51.2101 89.1498 50.1301 90.3298C50.5201 85.1998 49.1901 81.4598 45.9701 78.5998C44.0201 76.8698 41.5801 75.6098 39.2101 74.3898C37.4701 73.4998 35.6801 72.5698 34.1001 71.4698C29.3201 68.1398 26.5101 62.5798 26.7801 56.9498C27.0001 52.2498 29.3301 48.3198 33.1501 46.1598C34.2301 45.5598 35.4501 45.2498 36.7901 45.2498ZM36.7901 45.0698C35.4901 45.0698 34.2101 45.3598 33.0601 46.0098C24.0401 51.0898 24.5101 65.0298 33.9901 71.6298C37.7401 74.2398 42.4901 75.7598 45.8501 78.7398C48.6601 81.2398 50.4901 84.7698 49.9001 90.8298C52.7601 88.1198 50.8101 86.0598 53.4701 83.9298C55.8301 82.0498 57.4201 83.5598 61.4301 80.6998C52.1001 77.3998 46.1501 72.4898 44.9801 65.6098C43.9901 59.7498 46.5101 59.2098 46.6701 53.9498C46.8101 49.1198 41.6501 45.0698 36.7901 45.0698Z" fill="black"/>
<path d="M49.8999 71.9099C48.3499 70.2999 46.7099 68.1399 46.3599 65.2599C46.0199 62.4099 46.4499 61.1999 47.0099 59.6799L47.0999 59.4299C47.2199 59.1099 47.3399 58.7699 47.4599 58.4199C46.9799 63.5499 47.7999 68.0799 49.8999 71.9099Z" fill="#F3F4F4"/>
<path d="M47.3 59.14C46.99 63.73 47.72 67.8199 49.49 71.3499C48.1 69.8099 46.76 67.8199 46.45 65.2599C46.11 62.4299 46.55 61.2299 47.09 59.7199L47.18 59.4699C47.22 59.3499 47.26 59.25 47.3 59.14ZM47.65 57.4299C47.45 58.1599 47.23 58.7999 47.01 59.3999C46.42 61.0399 45.9 62.2399 46.27 65.2799C46.64 68.3099 48.38 70.5599 50.33 72.4799C47.83 68.28 46.94 63.2399 47.65 57.4299Z" fill="black"/>
<path d="M93.2599 157.39C87.5999 146.76 76.4899 144.68 66.6799 142.84C61.9399 141.95 57.4599 141.11 54.1299 139.37C56.8499 139.2 58.5799 137.09 58.9899 136.33C59.6299 135.11 59.5699 133.76 58.8099 132.32C59.1599 132.39 59.4999 132.43 59.8399 132.43C62.6399 132.43 64.1699 129.96 64.3299 129.68C64.7299 129 65.4099 126.61 64.1899 124.99C64.4999 125.03 64.7999 125.05 65.0999 125.05C66.9099 125.05 68.2799 124.2 69.1599 122.52C69.7699 121.36 70.1199 118.81 68.6199 116.74C79.7199 120.18 91.7499 129.47 93.1999 145.41C91.8699 139.96 88.4799 135.27 83.5399 132.1C83.5199 132.09 83.5099 132.08 83.4899 132.08C83.4599 132.08 83.4299 132.09 83.4199 132.12C83.3899 132.16 83.3999 132.21 83.4299 132.25C88.4099 136.58 93.0299 142.05 93.2899 152.66C91.3999 144.75 85.0899 140.58 81.3999 138.77C81.3899 138.76 81.3699 138.76 81.3599 138.76C81.3299 138.76 81.2999 138.78 81.2799 138.81C81.2499 138.85 81.2699 138.91 81.3099 138.93C84.6699 141.2 92.4999 146.47 93.2599 157.39Z" fill="#F3F4F4"/>
<path d="M68.84 116.91C79.57 120.32 91.08 129.19 92.97 144.26C91.46 139.27 88.19 134.98 83.58 132.02C83.55 132 83.51 131.99 83.48 131.99C83.42 131.99 83.37 132.02 83.33 132.06C83.27 132.14 83.28 132.25 83.36 132.31C88.19 136.51 92.69 141.8 93.16 151.82C91.04 144.4 85.01 140.43 81.44 138.67C81.41 138.66 81.39 138.65 81.36 138.65C81.3 138.65 81.23 138.68 81.2 138.74C81.15 138.83 81.18 138.93 81.26 138.99C84.57 141.22 92.22 146.37 93.15 156.95C87.41 146.62 76.43 144.56 66.72 142.73C62.12 141.87 57.76 141.05 54.48 139.41C57.06 139.1 58.7 137.09 59.09 136.35C59.72 135.15 59.69 133.83 58.99 132.43C59.28 132.48 59.57 132.51 59.85 132.51C62.01 132.51 63.66 131 64.43 129.72C64.94 128.85 65.4 126.64 64.4 125.1C64.64 125.13 64.88 125.14 65.11 125.14C66.96 125.14 68.35 124.27 69.25 122.56C69.98 121.15 70.05 118.77 68.84 116.91ZM68.36 116.57C69.98 118.56 69.76 121.16 69.07 122.48C68.14 124.25 66.76 124.96 65.09 124.96C64.72 124.96 64.35 124.92 63.96 124.86C65.29 126.36 64.71 128.83 64.25 129.63C63.69 130.59 62.14 132.33 59.84 132.33C59.46 132.33 59.05 132.28 58.63 132.17C59.8 134.23 59.25 135.64 58.91 136.27C58.43 137.17 56.55 139.27 53.79 139.27C63.9 144.85 85.02 141.44 93.38 157.8C92.82 146.98 85.45 141.6 81.35 138.83C86.3 141.26 91.94 145.93 93.38 153.57C93.38 143.32 89.64 137.51 83.48 132.16C88.52 135.39 92.26 140.45 93.38 146.74C92.47 129.36 79.08 119.8 68.36 116.57Z" fill="black"/>
<path d="M92.7497 122.42C92.5897 122.42 92.3797 122.39 92.1397 122.35C82.9997 120.54 77.8897 119.01 72.6097 116.49C64.9697 112.85 60.8397 110.68 57.6997 104.88C57.4697 104.46 57.0397 104.23 56.5797 103.99C56.3297 103.86 56.0697 103.73 55.8097 103.54C55.1197 103.06 55.0297 102.27 55.1497 101.74C55.2397 101.37 55.5297 100.99 55.9597 100.99C56.0497 100.99 56.1397 101.01 56.2297 101.04C56.4697 101.13 56.6797 101.31 56.8797 101.48C57.0897 101.66 57.2797 101.84 57.4997 101.87C57.5097 101.87 57.5097 101.87 57.5097 101.87C57.5397 101.87 57.5697 101.85 57.5897 101.83C57.6097 101.8 57.6097 101.76 57.5897 101.73C55.4297 98.6001 55.9097 93.9 56.0697 92.36C56.0897 92.12 56.1097 91.9501 56.1097 91.8701C56.1097 90.9001 55.6997 90.3601 55.3897 89.9701C55.3197 89.8801 55.2597 89.8001 55.1997 89.7201C54.9597 89.3401 54.9397 89.3301 54.9097 89.3101C54.8997 89.3001 54.8797 89.2701 54.8097 89.1601C54.5897 88.8001 54.6997 88.1301 54.9497 87.9301C55.0397 87.8501 55.1697 87.8101 55.3097 87.8101C55.5497 87.8101 55.8097 87.9301 55.9897 88.1401C56.3397 88.5201 56.5197 88.8701 56.6597 89.1501C56.8697 89.5601 57.0197 89.8501 57.5197 89.8501C57.6397 89.8501 57.7797 89.8301 57.9497 89.7901C57.7697 86.6801 58.2397 85.3601 58.3897 85.0201C59.1797 83.2801 60.8097 82.0601 62.3597 82.0601C62.9797 82.0601 63.5497 82.2501 64.0597 82.6201C64.9297 83.2601 65.1797 84.1501 65.2297 84.7901C65.3297 85.9601 64.8597 87.1301 64.3697 87.6301C63.1697 88.8601 62.4897 89.8401 62.2097 90.7201C62.4197 90.9001 62.5697 90.9201 62.7197 90.9201C63.0497 90.9201 63.3097 90.7801 63.6397 90.5901L63.9497 90.4201C64.1297 90.3301 64.3097 90.2801 64.4697 90.2801C64.9797 90.2801 65.3097 90.7001 65.3497 91.0001C65.4497 91.7101 64.8597 92.2901 64.2197 92.5001C62.8497 92.9501 62.2697 93.9701 62.2097 96.0301C62.1497 98.0301 62.1797 99.8301 63.1597 101.59C63.1797 101.62 63.2897 101.68 63.3297 101.68C63.4897 101.68 63.7397 101.52 64.0297 101.34C64.1897 101.24 64.3597 101.14 64.4997 101.07C64.5897 101.03 64.6797 101 64.7797 101C65.0197 101 65.2797 101.13 65.5697 101.38C65.9097 101.68 65.9397 102.42 65.6197 102.79C65.5297 102.9 65.3997 103.02 65.2497 103.15C64.8197 103.54 64.2797 104.03 64.3297 104.53C64.4197 105.41 66.3297 110.75 73.0997 114.95C78.4997 118.28 82.7697 119.73 92.1697 121.39C92.8597 121.51 93.1197 121.72 93.2097 121.86C93.2597 121.95 93.2797 122.03 93.2497 122.13C93.2297 122.27 93.1397 122.42 92.7497 122.42Z" fill="#F3F4F4"/>
<path d="M62.3597 82.14C62.9597 82.14 63.5097 82.3199 63.9997 82.6899C64.8397 83.3099 65.0797 84.1799 65.1297 84.7899C65.2297 85.9299 64.7697 87.0699 64.2997 87.5599C63.0897 88.7999 62.3997 89.7899 62.1197 90.6899C62.0897 90.7799 62.1397 90.88 62.2297 90.92C62.3997 90.98 62.5597 91.0199 62.7197 91.0199C63.0697 91.0199 63.3497 90.8599 63.6797 90.6799C63.7797 90.6299 63.8697 90.5699 63.9797 90.5199C64.1497 90.4399 64.3097 90.39 64.4597 90.39C64.9297 90.39 65.2197 90.7999 65.2497 91.0299C65.3497 91.6899 64.7897 92.2299 64.1797 92.4299C62.7597 92.8899 62.1597 93.9399 62.0997 96.0499C62.0397 98.0699 62.0697 99.8799 63.0697 101.65C63.1197 101.74 63.2097 101.79 63.3197 101.79C63.4997 101.79 63.7197 101.66 64.0697 101.44C64.2297 101.34 64.3897 101.24 64.5297 101.17C64.6097 101.13 64.6797 101.11 64.7697 101.11C64.9797 101.11 65.2397 101.23 65.4997 101.47C65.7797 101.71 65.8497 102.39 65.5397 102.75C65.4497 102.85 65.3197 102.97 65.1697 103.1C64.7197 103.51 64.1697 104.02 64.2197 104.56C64.3097 105.45 66.2297 110.83 73.0397 115.05C78.4497 118.39 82.7297 119.84 92.1397 121.5C92.8397 121.63 93.0497 121.83 93.1197 121.93C93.1597 121.99 93.1697 122.06 93.1497 122.13C93.1197 122.23 93.0597 122.35 92.7197 122.35C92.5597 122.35 92.3697 122.33 92.1297 122.28C82.9997 120.47 77.8997 118.94 72.6297 116.43C65.0097 112.8 60.8897 110.64 57.7597 104.86C57.5197 104.41 57.0697 104.18 56.5997 103.94C56.3497 103.81 56.0897 103.68 55.8397 103.5C55.1897 103.05 55.0997 102.3 55.2197 101.8C55.2997 101.47 55.5597 101.12 55.9497 101.12C56.0297 101.12 56.1097 101.13 56.1897 101.16C56.4097 101.24 56.6097 101.41 56.7997 101.58C57.0197 101.77 57.2297 101.95 57.4697 101.99C57.4797 101.99 57.4897 101.99 57.4997 101.99C57.5697 101.99 57.6197 101.96 57.6597 101.9C57.6997 101.84 57.6997 101.76 57.6497 101.7C55.5097 98.59 55.9897 93.92 56.1497 92.39C56.1697 92.15 56.1897 91.97 56.1897 91.89C56.1897 90.89 55.7697 90.3399 55.4597 89.9399C55.3897 89.8499 55.3297 89.77 55.2797 89.7C55.0297 89.31 55.0097 89.2899 54.9897 89.2799C54.9797 89.2599 54.9497 89.23 54.8997 89.14C54.7097 88.83 54.8097 88.1999 55.0197 88.0199C55.0997 87.9499 55.1997 87.92 55.3197 87.92C55.5397 87.92 55.7597 88.0299 55.9297 88.2199C56.2697 88.5899 56.4497 88.9299 56.5897 89.2099C56.7997 89.6099 56.9797 89.9599 57.5297 89.9599C57.6597 89.9599 57.7997 89.9399 57.9797 89.8999C58.0697 89.8799 58.1297 89.8 58.1297 89.7C57.9297 87.33 58.1797 85.7599 58.4797 85.0799C59.2497 83.3299 60.8497 82.14 62.3597 82.14ZM62.3597 81.95C60.7697 81.95 59.1197 83.1699 58.3097 84.9699C58.0197 85.6299 57.7297 87.1699 57.9397 89.6899C57.7797 89.7299 57.6497 89.7399 57.5297 89.7399C56.7797 89.7399 56.9297 88.9999 56.0697 88.0599C55.8497 87.8199 55.5697 87.7 55.3197 87.7C55.1597 87.7 55.0097 87.7499 54.8997 87.8399C54.6097 88.0799 54.4997 88.8199 54.7397 89.1899C54.9797 89.5699 54.7197 89.1099 55.1297 89.7499C55.3997 90.1699 56.0197 90.6799 56.0197 91.8499C56.0197 92.4699 55.0097 98.1399 57.5097 101.77C57.1397 101.72 56.7797 101.13 56.2597 100.95C56.1597 100.91 56.0597 100.9 55.9597 100.9C55.5097 100.9 55.1697 101.27 55.0597 101.72C54.9297 102.26 55.0097 103.1 55.7497 103.62C56.4897 104.14 57.2797 104.31 57.6097 104.92C60.7497 110.72 64.8697 112.91 72.5697 116.57C78.2197 119.26 83.5097 120.73 92.1197 122.44C92.3697 122.49 92.5797 122.52 92.7497 122.52C93.1097 122.52 93.2897 122.4 93.3597 122.16C93.4497 121.84 93.1897 121.48 92.1997 121.3C82.5297 119.59 78.3297 118.06 73.1597 114.87C66.2097 110.57 64.4897 105.14 64.4297 104.52C64.3697 103.91 65.3597 103.25 65.6997 102.84C66.0597 102.42 66.0097 101.63 65.6397 101.3C65.3697 101.06 65.0697 100.9 64.7897 100.9C64.6797 100.9 64.5797 100.92 64.4697 100.97C64.0797 101.16 63.5597 101.57 63.3297 101.57C63.2897 101.57 63.2597 101.56 63.2397 101.52C62.2497 99.7599 62.2397 97.9099 62.2997 96.0199C62.3497 94.1199 62.8297 93.0399 64.2497 92.5799C64.9297 92.3599 65.5597 91.7399 65.4397 90.9799C65.3997 90.6599 65.0297 90.1799 64.4697 90.1799C64.2997 90.1799 64.1097 90.2199 63.8997 90.3299C63.4197 90.5699 63.1097 90.8099 62.7097 90.8099C62.5797 90.8099 62.4397 90.7799 62.2897 90.7199C62.5897 89.7599 63.3797 88.75 64.4297 87.67C65.2997 86.78 66.0497 83.9599 64.1097 82.5199C63.5697 82.1299 62.9697 81.95 62.3597 81.95Z" fill="black"/>
<path d="M230.81 18.98H209.83V39.96H230.81V18.98Z" stroke="#ED1D24" stroke-width="0.3702"/>
<path d="M251.79 18.98H230.81V39.96H251.79V18.98Z" stroke="#ED1D24" stroke-width="0.3702"/>
<path d="M272.77 18.98H251.79V39.96H272.77V18.98Z" stroke="#ED1D24" stroke-width="0.3702"/>
<path d="M293.75 18.98H272.77V39.96H293.75V18.98Z" stroke="#ED1D24" stroke-width="0.3702"/>
<path d="M314.73 18.98H293.75V39.96H314.73V18.98Z" stroke="#ED1D24" stroke-width="0.3702"/>
<path d="M335.73 18.98H314.74V39.96H335.73V18.98Z" stroke="#ED1D24" stroke-width="0.3702"/>
<path d="M356.7 18.98H335.72V39.96H356.7V18.98Z" stroke="#ED1D24" stroke-width="0.3702"/>
<path d="M377.68 18.98H356.7V39.96H377.68V18.98Z" stroke="#ED1D24" stroke-width="0.3702"/>
<path d="M398.67 18.98H377.69V39.96H398.67V18.98Z" stroke="#ED1D24" stroke-width="0.3702"/>
<path d="M419.64 18.98H398.66V39.96H419.64V18.98Z" stroke="#ED1D24" stroke-width="0.3702"/>
<path d="M440.63 18.98H419.65V39.96H440.63V18.98Z" stroke="#ED1D24" stroke-width="0.3702"/>
<path d="M461.61 18.98H440.63V39.96H461.61V18.98Z" stroke="#ED1D24" stroke-width="0.3702"/>
<path d="M482.59 18.98H461.61V39.96H482.59V18.98Z" stroke="#ED1D24" stroke-width="0.3702"/>
<path d="M503.57 18.98H482.59V39.96H503.57V18.98Z" stroke="#ED1D24" stroke-width="0.3702"/>
<path d="M524.56 18.98H503.57V39.96H524.56V18.98Z" stroke="#ED1D24" stroke-width="0.3702"/>
<path d="M545.54 18.98H524.56V39.96H545.54V18.98Z" stroke="#ED1D24" stroke-width="0.3702"/>
<path d="M566.52 18.98H545.54V39.96H566.52V18.98Z" stroke="#ED1D24" stroke-width="0.3702"/>
<path d="M587.5 18.98H566.52V39.96H587.5V18.98Z" stroke="#ED1D24" stroke-width="0.3702"/>
<path d="M190.94 125.85V127.95" stroke="#00AEEF" stroke-width="0.1575"/>
<path d="M193.04 125.85V127.95" stroke="#00AEEF" stroke-width="0.1575"/>
<path d="M188.85 125.85V127.95" stroke="#00AEEF" stroke-width="0.1575"/>
<path d="M190.94 125.85V127.95" stroke="#00AEEF" stroke-width="0.1575"/>
<path d="M186.75 125.85V127.95" stroke="#00AEEF" stroke-width="0.1575"/>
<path d="M184.65 125.85V127.95" stroke="#00AEEF" stroke-width="0.1575"/>
<path d="M182.55 125.85V127.95" stroke="#00AEEF" stroke-width="0.1575"/>
<path d="M180.46 125.85V127.95" stroke="#00AEEF" stroke-width="0.1575"/>
<path d="M178.36 125.85V127.95" stroke="#00AEEF" stroke-width="0.1575"/>
<path d="M195.14 125.85V127.95" stroke="#00AEEF" stroke-width="0.1575"/>
<path d="M197.24 125.85V127.95" stroke="#00AEEF" stroke-width="0.1575"/>
<path d="M199.34 125.85V127.95" stroke="#00AEEF" stroke-width="0.1575"/>
<path d="M201.44 125.85V127.95" stroke="#00AEEF" stroke-width="0.1575"/>
<path d="M203.53 125.85V127.95" stroke="#00AEEF" stroke-width="0.1575"/>
<path d="M199.34 125.85V127.95" stroke="#00AEEF" stroke-width="0.1575"/>
<path d="M201.44 125.85V127.95" stroke="#00AEEF" stroke-width="0.1575"/>
<path d="M205.63 125.85V127.95" stroke="#00AEEF" stroke-width="0.1575"/>
<path d="M207.73 125.85V127.95" stroke="#00AEEF" stroke-width="0.1575"/>
<path d="M209.83 125.85V127.95" stroke="#00AEEF" stroke-width="0.1575"/>
<path d="M178.36 127.95H209.83" stroke="#00AEEF" stroke-width="0.1575"/>
<path d="M178.35 125.85H209.83" stroke="#00AEEF" stroke-width="0.1575"/>
<path d="M620.76 73.8799H599.78V94.8599H620.76V73.8799Z" stroke="#ED1D24" stroke-width="0.3702"/>
<path d="M620.76 52.8999H599.78V73.8799H620.76V52.8999Z" stroke="#ED1D24" stroke-width="0.3702"/>
<path d="M620.76 94.8699H599.78V115.85H620.76V94.8699Z" stroke="#ED1D24" stroke-width="0.3702"/>
<path d="M186.74 115.85H178.35" stroke="#00AEEF" stroke-width="0.2228"/>
<path d="M186.74 94.8699H178.35" stroke="#00AEEF" stroke-width="0.2228"/>
<path d="M186.74 73.8899H178.35" stroke="#00AEEF" stroke-width="0.2228"/>
<path d="M186.74 52.8999H178.35" stroke="#00AEEF" stroke-width="0.2228"/>
<path d="M182.55 55H178.35" stroke="#00AEEF" stroke-width="0.1575"/>
<path d="M182.55 57.0999H178.35" stroke="#00AEEF" stroke-width="0.1575"/>
<path d="M182.55 59.2H178.35" stroke="#00AEEF" stroke-width="0.1575"/>
<path d="M182.55 61.29H178.35" stroke="#00AEEF" stroke-width="0.1575"/>
<path d="M184.65 63.3899H178.35" stroke="#00AEEF" stroke-width="0.1927"/>
<path d="M182.55 65.49H178.35" stroke="#00AEEF" stroke-width="0.1575"/>
<path d="M182.55 67.5898H178.35" stroke="#00AEEF" stroke-width="0.1575"/>
<path d="M182.55 69.6899H178.35" stroke="#00AEEF" stroke-width="0.1575"/>
<path d="M182.55 71.79H178.35" stroke="#00AEEF" stroke-width="0.1575"/>
<path d="M182.55 75.98H178.35" stroke="#00AEEF" stroke-width="0.1575"/>
<path d="M182.55 78.0798H178.35" stroke="#00AEEF" stroke-width="0.1575"/>
<path d="M182.55 80.1799H178.35" stroke="#00AEEF" stroke-width="0.1575"/>
<path d="M182.55 82.28H178.35" stroke="#00AEEF" stroke-width="0.1575"/>
<path d="M184.65 84.3799H178.35" stroke="#00AEEF" stroke-width="0.1927"/>
<path d="M182.55 86.48H178.35" stroke="#00AEEF" stroke-width="0.1575"/>
<path d="M182.55 88.5698H178.35" stroke="#00AEEF" stroke-width="0.1575"/>
<path d="M182.55 90.6699H178.35" stroke="#00AEEF" stroke-width="0.1575"/>
<path d="M182.55 92.77H178.35" stroke="#00AEEF" stroke-width="0.1575"/>
<path d="M182.55 96.97H178.35" stroke="#00AEEF" stroke-width="0.1575"/>
<path d="M182.55 99.0601H178.35" stroke="#00AEEF" stroke-width="0.1575"/>
<path d="M182.55 101.16H178.35" stroke="#00AEEF" stroke-width="0.1575"/>
<path d="M182.55 103.26H178.35" stroke="#00AEEF" stroke-width="0.1575"/>
<path d="M184.65 105.36H178.35" stroke="#00AEEF" stroke-width="0.1927"/>
<path d="M182.55 107.46H178.35" stroke="#00AEEF" stroke-width="0.1575"/>
<path d="M182.55 109.56H178.35" stroke="#00AEEF" stroke-width="0.1575"/>
<path d="M182.55 111.65H178.35" stroke="#00AEEF" stroke-width="0.1575"/>
<path d="M182.55 113.75H178.35" stroke="#00AEEF" stroke-width="0.1575"/>
<path d="M31.4702 10.9399V157.82" stroke="#00AEEF" stroke-width="0.2228"/>
<path d="M52.46 10.9399V157.82" stroke="#00AEEF" stroke-width="0.2228"/>
<path d="M73.4399 10.9399V157.82" stroke="#00AEEF" stroke-width="0.2228"/>
<path d="M94.4302 10.9399V157.82" stroke="#00AEEF" stroke-width="0.2228"/>
<path d="M115.41 10.9399V157.82" stroke="#00AEEF" stroke-width="0.2228"/>
<path d="M136.39 10.9399V157.82" stroke="#00AEEF" stroke-width="0.2228"/>
<path d="M157.37 10.9399V157.82" stroke="#00AEEF" stroke-width="0.2228"/>
<path d="M178.35 31.9199H10.4902" stroke="#00AEEF" stroke-width="0.2228"/>
<path d="M178.35 52.8999H10.4902" stroke="#00AEEF" stroke-width="0.2228"/>
<path d="M178.35 73.8899H10.4902" stroke="#00AEEF" stroke-width="0.2228"/>
<path d="M178.35 94.8699H10.4902" stroke="#00AEEF" stroke-width="0.2228"/>
<path d="M178.35 115.85H10.4902" stroke="#00AEEF" stroke-width="0.2228"/>
<path d="M178.35 136.83H10.4902" stroke="#00AEEF" stroke-width="0.2228"/>
<path d="M178.35 157.81H10.4902" stroke="#00AEEF" stroke-width="0.2228"/>
<path d="M178.35 10.9399H10.4902V157.82H178.35V10.9399Z" stroke="#ED1D24" stroke-width="0.3702"/>
<path d="M0 10.9399H8.4" stroke="#00AEEF" stroke-width="0.2228"/>
<path d="M0 31.9199H8.4" stroke="#00AEEF" stroke-width="0.2228"/>
<path d="M0 52.8999H8.4" stroke="#00AEEF" stroke-width="0.2228"/>
<path d="M0 73.8799H8.4" stroke="#00AEEF" stroke-width="0.2228"/>
<path d="M0 94.8699H8.4" stroke="#00AEEF" stroke-width="0.2228"/>
<path d="M0 115.85H8.4" stroke="#00AEEF" stroke-width="0.2228"/>
<path d="M0 136.83H8.4" stroke="#00AEEF" stroke-width="0.2228"/>
<path d="M0 157.81H8.4" stroke="#00AEEF" stroke-width="0.2228"/>
<path d="M180.45 10.9399H188.85" stroke="#00AEEF" stroke-width="0.2228"/>
<path d="M180.45 157.81H188.85" stroke="#00AEEF" stroke-width="0.2228"/>
<path d="M178.35 0.449951V8.83994" stroke="#00AEEF" stroke-width="0.2228"/>
<path d="M157.37 0.449951V8.83994" stroke="#00AEEF" stroke-width="0.2228"/>
<path d="M136.39 0.449951V8.83994" stroke="#00AEEF" stroke-width="0.2228"/>
<path d="M115.41 0.449951V8.83994" stroke="#00AEEF" stroke-width="0.2228"/>
<path d="M94.4199 0.449951V8.83994" stroke="#00AEEF" stroke-width="0.2228"/>
<path d="M73.4399 0.449951V8.83994" stroke="#00AEEF" stroke-width="0.2228"/>
<path d="M52.46 0.449951V8.83994" stroke="#00AEEF" stroke-width="0.2228"/>
<path d="M31.4702 0.449951V8.83994" stroke="#00AEEF" stroke-width="0.2228"/>
<path d="M10.4902 0.449951V8.83994" stroke="#00AEEF" stroke-width="0.2228"/>
<path d="M178.35 159.91V168.31" stroke="#00AEEF" stroke-width="0.2228"/>
<path d="M94.4199 159.91V168.31" stroke="#00AEEF" stroke-width="0.2228"/>
<path d="M10.4902 159.91V168.31" stroke="#00AEEF" stroke-width="0.2228"/>
<path d="M595.21 52.8999H202.12" stroke="#00AEEF" stroke-width="0.2228"/>
<path d="M595.21 115.85H202.12" stroke="#00AEEF" stroke-width="0.2228"/>
<path d="M209.83 115.76L209.92 111.5L211.13 111.59C213.36 111.59 214.85 111.06 215.55 110.01C216.1 109.19 216.76 107.34 216.76 103.22V65.3699C216.76 61.2499 216.12 59.4499 215.58 58.6699C214.9 57.6699 213.4 57.1599 211.13 57.1599H209.83L209.92 52.8999L235.87 52.9899C242.23 52.9899 247.41 54.5799 251.27 57.7099C255.2 60.8999 257.2 65.0299 257.2 69.9899C257.2 77.1999 253.53 82.2899 246.29 85.1399C247.45 86.2799 248.64 87.4699 249.8 88.8299C251.58 90.9199 253.92 94.3999 256.75 99.1699C259.83 104.3 262.25 107.69 263.93 109.24C265.5 110.68 267.11 111.47 268.73 111.59L269.94 111.67L269.86 115.75H255.69L255.37 115.31C252.81 112.22 249.67 107.65 246.06 101.72C242.31 95.6399 239.37 91.7499 237.32 90.1299C235.34 88.5699 233.22 87.8099 230.85 87.8099H227.26L227.17 103.2C227.17 107.31 227.87 109.15 228.46 109.97C229.23 111.04 230.7 111.58 232.85 111.58H234.15L234.06 115.84L209.83 115.76ZM227.16 82.7899L233.36 82.8799C237.49 82.8799 240.61 81.7499 242.91 79.4299C245.22 77.1099 246.34 74.0899 246.34 70.1999C246.34 66.4399 245.1 63.4999 242.55 61.1999C240 58.8999 236.54 57.7299 232.28 57.7299H227.16V82.7899Z" fill="#F3F4F4"/>
<path d="M235.87 53.0899C242.21 53.0899 247.37 54.6699 251.21 57.7899C255.12 60.9599 257.1 65.0699 257.1 69.9999C257.1 77.1699 253.45 82.2299 246.25 85.0699L245.96 85.1899L246.2 85.3899C247.38 86.3699 248.57 87.5499 249.73 88.9099C251.51 90.9899 253.84 94.4699 256.67 99.2399C259.75 104.38 262.18 107.77 263.87 109.32C265.45 110.78 267.09 111.57 268.73 111.69L269.77 111.76V115.67H255.78L255.45 115.27C252.89 112.19 249.76 107.62 246.15 101.69C242.39 95.6099 239.44 91.6999 237.39 90.0799C235.4 88.5099 233.26 87.7399 230.86 87.7399H227.27H227.09V87.9299V103.22C227.09 107.36 227.8 109.21 228.4 110.04C229.18 111.13 230.69 111.69 232.87 111.69H233.98V115.68H210.04V111.69H211.16C213.43 111.69 214.94 111.15 215.66 110.07C216.22 109.24 216.88 107.37 216.88 103.23V65.3799C216.88 61.2399 216.23 59.4199 215.69 58.6199C214.99 57.5899 213.47 57.0699 211.16 57.0699H210.04V53.0899H235.87V53.0899ZM227.06 82.9699H227.24H233.35C237.5 82.9699 240.65 81.8299 242.97 79.4899C245.3 77.1499 246.43 74.1099 246.43 70.1999C246.43 66.4199 245.18 63.4499 242.61 61.1299C240.04 58.8099 236.56 57.6399 232.27 57.6399H227.25H227.07V57.8299V82.7999V82.9699H227.06ZM235.87 52.8999H209.83V57.2599H211.13C213.37 57.2599 214.84 57.7499 215.5 58.7299C216.03 59.5099 216.66 61.2899 216.66 65.3799V103.23C216.66 107.33 216.01 109.16 215.47 109.97C214.79 110.99 213.32 111.5 211.12 111.5H209.82V115.86H234.13V111.5H232.83C230.71 111.5 229.26 110.97 228.51 109.93C227.93 109.12 227.24 107.3 227.24 103.22V87.9299H230.83C233.19 87.9299 235.29 88.6799 237.25 90.2299C239.3 91.8399 242.23 95.7399 245.97 101.79C249.59 107.72 252.72 112.3 255.29 115.39L255.68 115.86H269.94V111.59L268.73 111.51C267.13 111.39 265.53 110.61 263.99 109.18C262.31 107.64 259.9 104.25 256.82 99.1399C253.98 94.3599 251.64 90.8799 249.86 88.7899C248.7 87.4299 247.52 86.2499 246.31 85.2499C253.59 82.3899 257.28 77.2699 257.28 70.0099C257.28 65.0199 255.28 60.8599 251.32 57.6599C247.45 54.4999 242.26 52.8999 235.87 52.8999ZM227.25 82.7899V57.8199H232.27C236.51 57.8199 239.95 58.9799 242.48 61.2599C245.01 63.5399 246.24 66.4699 246.24 70.1999C246.24 74.0599 245.13 77.0599 242.84 79.3599C240.55 81.6599 237.45 82.7799 233.35 82.7799H227.25V82.7899Z" fill="black"/>
<path d="M278.34 115.76L278.43 111.5L279.63 111.59C281.84 111.59 283.33 111.07 284.04 110.05C284.6 109.25 285.26 107.41 285.26 103.23V65.5899C285.26 61.3099 284.6 59.4699 284.06 58.6899C283.36 57.6799 281.87 57.1699 279.63 57.1699H278.33L278.42 52.9099L302.64 52.9999L302.55 57.2599L301.34 57.1699C299.2 57.1699 297.73 57.7099 296.98 58.7699C296.4 59.5899 295.71 61.4399 295.71 65.5899V103.23C295.71 107.37 296.4 109.21 296.98 110.01C297.73 111.06 299.19 111.59 301.34 111.59H302.65L302.56 115.76H278.34V115.76Z" fill="#F3F4F4"/>
<path d="M302.47 53.0899V57.0799H301.35C299.17 57.0799 297.68 57.6299 296.92 58.7199C296.33 59.5499 295.63 61.4199 295.63 65.5899V103.23C295.63 107.4 296.33 109.25 296.92 110.07C297.69 111.14 299.18 111.69 301.36 111.69H302.48V115.68H278.54V111.69H279.65C281.89 111.69 283.4 111.16 284.14 110.11C284.7 109.3 285.38 107.44 285.38 103.23V65.5899C285.38 61.2899 284.72 59.4299 284.16 58.6299C283.44 57.5999 281.92 57.0799 279.65 57.0799H278.54V53.0899H302.47V53.0899ZM302.65 52.8999H278.34V57.2599H279.64C281.85 57.2599 283.32 57.7599 284 58.7299C284.54 59.5099 285.18 61.3199 285.18 65.5799V103.22C285.18 107.39 284.52 109.2 283.98 109.99C283.28 110.99 281.82 111.49 279.64 111.49H278.34V115.85H302.65V111.49H301.34C299.23 111.49 297.78 110.97 297.05 109.95C296.48 109.15 295.8 107.34 295.8 103.22V65.5799C295.8 61.4499 296.48 59.6299 297.06 58.8199C297.79 57.7799 299.23 57.2599 301.34 57.2599H302.65V52.8999Z" fill="black"/>
<path d="M342.76 115.76C333.61 115.76 325.98 112.82 320.07 107.02C314.15 101.22 311.14 93.7 311.14 84.66C311.14 75.9 314.32 68.36 320.59 62.23C326.86 56.1 334.55 53 343.46 53C352.13 53 359.68 56.08 365.91 62.16C372.14 68.25 375.29 75.61 375.29 84.03C375.29 93.16 372.18 100.81 366.05 106.78C359.92 112.74 352.08 115.76 342.76 115.76ZM341.68 58.09C336.17 58.09 331.86 60.07 328.5 64.14C325.13 68.23 323.42 73.68 323.42 80.36C323.42 88.97 325.59 96.26 329.86 102.02C334.11 107.75 339.23 110.54 345.51 110.54C350.96 110.54 355.13 108.6 358.25 104.62C361.4 100.61 362.99 95.04 362.99 88.06C362.99 79.17 360.95 71.85 356.93 66.29C352.94 60.77 347.95 58.09 341.68 58.09Z" fill="#F3F4F4"/>
<path d="M343.46 53.0899C352.11 53.0899 359.64 56.1599 365.84 62.2199C372.05 68.2899 375.2 75.6299 375.2 84.0199C375.2 93.1199 372.1 100.75 365.98 106.7C359.87 112.64 352.06 115.66 342.76 115.66C333.63 115.66 326.02 112.73 320.13 106.94C314.23 101.16 311.23 93.6599 311.23 84.6499C311.23 75.9199 314.4 68.3899 320.65 62.2899C326.9 56.1799 334.57 53.0899 343.46 53.0899ZM345.51 110.63C350.99 110.63 355.18 108.68 358.32 104.68C361.48 100.65 363.08 95.0599 363.08 88.0599C363.08 79.1499 361.04 71.8099 357 66.2299C352.98 60.6899 347.97 57.9999 341.66 57.9999C336.12 57.9999 331.79 59.9899 328.41 64.0799C325.03 68.1799 323.31 73.6599 323.31 80.3599C323.31 88.9899 325.48 96.2999 329.77 102.07C334.06 107.83 339.2 110.63 345.51 110.63ZM343.46 52.8999C334.53 52.8999 326.81 56.0199 320.53 62.1599C314.24 68.3099 311.05 75.8799 311.05 84.6599C311.05 93.7099 314.06 101.26 320 107.08C325.93 112.9 333.58 115.85 342.76 115.85C352.11 115.85 359.97 112.82 366.11 106.84C372.26 100.85 375.38 93.1699 375.38 84.0199C375.38 75.5699 372.21 68.1899 365.97 62.0799C359.73 55.9899 352.16 52.8999 343.46 52.8999ZM345.51 110.44C339.26 110.44 334.17 107.67 329.94 101.96C325.68 96.2199 323.52 88.9499 323.52 80.3599C323.52 73.6999 325.22 68.2599 328.58 64.1999C331.92 60.1499 336.21 58.1799 341.68 58.1799C347.92 58.1799 352.89 60.8499 356.86 66.3399C360.87 71.8799 362.9 79.1899 362.9 88.0599C362.9 95.0099 361.31 100.57 358.18 104.56C355.07 108.52 350.93 110.44 345.51 110.44Z" fill="black"/>
<path d="M390.07 115.76L390.16 114.19L432.56 56.0199L404.39 55.8699C400.42 55.8699 397.52 56.4099 395.76 57.4699C394 58.5299 392.65 60.5999 391.75 63.6099L390.07 63.5399L391.18 52.9099L443.23 52.9999L443.14 54.8399L401.06 112.74L425.82 112.89C431.03 112.89 435.11 111.94 437.95 110.06C440.8 108.18 442.95 105.03 444.34 100.7L446.13 100.77L443.74 115.77H390.07V115.76Z" fill="#F3F4F4"/>
<path d="M443.05 53.0899V54.7799L400.99 112.69L400.78 112.98H401.14H425.82C431.05 112.98 435.15 112.02 438 110.13C440.84 108.26 442.98 105.14 444.38 100.85H445.91L443.66 115.67H390.25V114.25L432.63 56.0699L432.84 55.7799H432.48H404.39C400.41 55.7799 397.49 56.3199 395.71 57.3899C393.95 58.4499 392.6 60.4899 391.7 63.4499H390.27L391.25 53.0899H443.05ZM443.23 52.8999H391.08L390.06 63.6299H391.83C392.73 60.6199 394.05 58.5999 395.8 57.5399C397.55 56.4899 400.41 55.9599 404.39 55.9599H432.48L390.07 114.19V115.85H443.82L446.13 100.66H444.25C442.86 104.99 440.75 108.09 437.9 109.97C435.06 111.85 431.04 112.79 425.82 112.79H401.14L443.23 54.8299V52.8999Z" fill="black"/>
<path d="M482.04 115.76C472.87 115.76 465.22 112.82 459.32 107.03C453.41 101.24 450.41 93.71 450.41 84.67C450.41 75.92 453.59 68.37 459.87 62.24C466.14 56.11 473.84 53 482.77 53C491.45 53 499.01 56.08 505.24 62.17C511.46 68.26 514.62 75.61 514.62 84.02C514.62 93.16 511.51 100.82 505.39 106.78C499.26 112.73 491.41 115.76 482.04 115.76ZM480.92 55.7C474.86 55.7 469.91 57.98 466.2 62.47C462.5 66.96 460.62 72.92 460.62 80.19C460.62 89.44 462.96 97.29 467.58 103.52C472.21 109.75 478.04 112.91 484.93 112.91C490.94 112.91 495.75 110.67 499.22 106.25C502.68 101.84 504.44 95.77 504.44 88.2C504.44 78.66 502.23 70.78 497.88 64.76C493.5 58.75 487.8 55.7 480.92 55.7Z" fill="#F3F4F4"/>
<path d="M482.77 53.0899C491.43 53.0899 498.97 56.1699 505.18 62.2299C511.38 68.2999 514.53 75.6299 514.53 84.0099C514.53 93.1299 511.43 100.76 505.32 106.7C499.21 112.65 491.38 115.66 482.04 115.66C472.89 115.66 465.27 112.73 459.38 106.96C453.49 101.19 450.5 93.6799 450.5 84.6699C450.5 75.9399 453.67 68.4199 459.93 62.3099C466.18 56.1899 473.87 53.0899 482.77 53.0899ZM484.92 113.01C490.96 113.01 495.79 110.76 499.28 106.31C502.76 101.88 504.52 95.7899 504.52 88.2099C504.52 78.6499 502.31 70.7499 497.94 64.7199C493.56 58.6799 487.83 55.6099 480.92 55.6099C474.83 55.6099 469.85 57.8999 466.13 62.4099C462.41 66.9199 460.53 72.8999 460.53 80.1899C460.53 89.4599 462.88 97.3299 467.51 103.57C472.14 109.84 478 113.01 484.92 113.01ZM482.77 52.8999C473.78 52.8999 466.12 55.9899 459.8 62.1699C453.48 68.3399 450.32 75.8499 450.32 84.6599C450.32 93.7699 453.3 101.25 459.26 107.09C465.21 112.93 472.81 115.85 482.05 115.85C491.48 115.85 499.28 112.84 505.46 106.84C511.64 100.83 514.72 93.2199 514.72 84.0199C514.72 75.5399 511.58 68.2399 505.32 62.0999C499.04 55.9699 491.53 52.8999 482.77 52.8999ZM484.92 112.83C478.03 112.83 472.28 109.71 467.65 103.47C463.02 97.2299 460.71 89.4799 460.71 80.1999C460.71 72.9199 462.56 67.0299 466.27 62.5399C469.98 58.0499 474.86 55.7999 480.92 55.7999C487.81 55.7999 493.43 58.8099 497.79 64.8299C502.15 70.8499 504.33 78.6499 504.33 88.2099C504.33 95.7899 502.6 101.78 499.13 106.2C495.67 110.62 490.93 112.83 484.92 112.83Z" fill="black"/>
<path d="M554.83 115.76C545.66 115.76 538.01 112.82 532.1 107.03C526.19 101.23 523.2 93.71 523.2 84.67C523.2 75.92 526.38 68.37 532.66 62.24C538.93 56.11 546.63 53 555.57 53C564.25 53 571.81 56.08 578.04 62.17C584.26 68.26 587.42 75.61 587.42 84.02C587.42 93.16 584.32 100.82 578.19 106.78C572.05 112.73 564.19 115.76 554.83 115.76ZM553.71 55.7C547.65 55.7 542.69 57.98 538.98 62.47C535.28 66.96 533.4 72.92 533.4 80.19C533.4 89.44 535.74 97.29 540.37 103.52C544.99 109.75 550.83 112.91 557.71 112.91C563.73 112.91 568.53 110.67 572 106.25C575.46 101.83 577.22 95.76 577.22 88.2C577.22 78.66 575.01 70.77 570.66 64.76C566.29 58.75 560.59 55.7 553.71 55.7Z" fill="#F3F4F4"/>
<path d="M555.56 53.0899C564.22 53.0899 571.75 56.1699 577.96 62.2299C584.17 68.2999 587.31 75.6299 587.31 84.0099C587.31 93.1299 584.21 100.76 578.11 106.7C572 112.65 564.17 115.66 554.83 115.66C545.68 115.66 538.06 112.73 532.17 106.96C526.28 101.18 523.29 93.6799 523.29 84.6699C523.29 75.9399 526.46 68.4199 532.72 62.3099C538.97 56.1899 546.65 53.0899 555.56 53.0899ZM557.7 113.01C563.74 113.01 568.58 110.76 572.07 106.31C575.54 101.88 577.31 95.7899 577.31 88.2099C577.31 78.6499 575.1 70.7399 570.73 64.7199C566.35 58.6799 560.63 55.6099 553.71 55.6099C547.62 55.6099 542.64 57.8999 538.91 62.4099C535.19 66.9199 533.31 72.8999 533.31 80.1899C533.31 89.4599 535.66 97.3299 540.29 103.57C544.93 109.84 550.79 113.01 557.7 113.01ZM555.56 52.8999C546.56 52.8999 538.9 55.9899 532.59 62.1699C526.27 68.3399 523.11 75.8499 523.11 84.6599C523.11 93.7699 526.09 101.25 532.04 107.09C538 112.93 545.59 115.85 554.83 115.85C564.26 115.85 572.06 112.84 578.24 106.84C584.41 100.83 587.5 93.2199 587.5 84.0199C587.5 75.5399 584.36 68.2399 578.09 62.0999C571.82 55.9699 564.31 52.8999 555.56 52.8999ZM557.7 112.83C550.82 112.83 545.06 109.71 540.43 103.47C535.8 97.2299 533.48 89.4799 533.48 80.1999C533.48 72.9199 535.33 67.0299 539.04 62.5399C542.75 58.0499 547.63 55.7999 553.7 55.7999C560.58 55.7999 566.21 58.8099 570.57 64.8299C574.93 70.8499 577.11 78.6499 577.11 88.2099C577.11 95.7899 575.38 101.78 571.91 106.2C568.45 110.62 563.72 112.83 557.7 112.83Z" fill="black"/>
<path d="M587.5 45.2V123.55" stroke="#00AEEF" stroke-width="0.2228"/>
<path d="M209.83 45.2V123.55" stroke="#00AEEF" stroke-width="0.2228"/>
</svg>
