<svg width="800" height="349" viewBox="0 0 800 349" fill="none" xmlns="http://www.w3.org/2000/svg">
<path d="M273.092 159.246C271.968 159.246 271.281 158.684 271.031 157.56L243.865 30.1631V29.7884C243.865 28.6643 244.427 28.1023 245.551 28.1023H256.043C257.292 28.1023 257.979 28.6643 258.104 29.7884L278.337 134.516C278.462 134.766 278.587 134.891 278.712 134.891C278.837 134.891 278.962 134.766 279.087 134.516L299.133 29.7884C299.383 28.6643 300.07 28.1023 301.194 28.1023H311.311C312.685 28.1023 313.247 28.7892 312.997 30.1631L285.831 157.56C285.706 158.684 285.02 159.246 283.771 159.246H273.092Z" fill="#352424"/>
<path d="M335.002 159.246C333.753 159.246 333.128 158.622 333.128 157.373V29.9758C333.128 28.7268 333.753 28.1023 335.002 28.1023H344.556C345.805 28.1023 346.43 28.7268 346.43 29.9758V157.373C346.43 158.622 345.805 159.246 344.556 159.246H335.002Z" fill="#352424"/>
<path d="M402.043 160.745C392.426 160.745 384.682 157.81 378.812 151.94C373.067 146.07 370.194 138.201 370.194 128.334V58.8275C370.194 49.0854 373.067 41.2792 378.812 35.4089C384.682 29.5386 392.426 26.6035 402.043 26.6035C411.785 26.6035 419.529 29.5386 425.274 35.4089C431.145 41.1543 434.08 48.9605 434.08 58.8275V62.0124C434.08 63.2614 433.455 63.8859 432.206 63.8859L422.464 64.448C421.215 64.448 420.591 63.8235 420.591 62.5745V57.8908C420.591 52.0205 418.905 47.2743 415.532 43.6522C412.16 40.0302 407.664 38.2191 402.043 38.2191C396.548 38.2191 392.051 40.0302 388.554 43.6522C385.182 47.2743 383.496 52.0205 383.496 57.8908V129.458C383.496 135.328 385.182 140.074 388.554 143.696C392.051 147.319 396.548 149.13 402.043 149.13C407.664 149.13 412.16 147.319 415.532 143.696C418.905 140.074 420.591 135.328 420.591 129.458V124.774C420.591 123.525 421.215 122.901 422.464 122.901L432.206 123.463C433.455 123.463 434.08 124.087 434.08 125.336V128.334C434.08 138.201 431.145 146.07 425.274 151.94C419.404 157.81 411.66 160.745 402.043 160.745Z" fill="#352424"/>
<path d="M514.507 28.1023C515.756 28.1023 516.38 28.7268 516.38 29.9758V37.8444C516.38 39.0934 515.756 39.7179 514.507 39.7179H489.777C489.277 39.7179 489.027 39.9677 489.027 40.4673V157.373C489.027 158.622 488.403 159.246 487.154 159.246H477.599C476.35 159.246 475.725 158.622 475.725 157.373V40.4673C475.725 39.9677 475.476 39.7179 474.976 39.7179H451.745C450.496 39.7179 449.871 39.0934 449.871 37.8444V29.9758C449.871 28.7268 450.496 28.1023 451.745 28.1023H514.507Z" fill="#352424"/>
<path d="M559.396 160.745C549.778 160.745 541.972 157.748 535.977 151.752C530.107 145.757 527.172 137.826 527.172 127.959V59.3895C527.172 49.5225 530.107 41.5914 535.977 35.5963C541.972 29.6011 549.778 26.6035 559.396 26.6035C569.138 26.6035 577.006 29.6011 583.002 35.5963C588.997 41.5914 591.994 49.5225 591.994 59.3895V127.959C591.994 137.701 588.997 145.632 583.002 151.752C577.006 157.748 569.138 160.745 559.396 160.745ZM559.396 149.13C565.141 149.13 569.762 147.256 573.259 143.509C576.882 139.637 578.693 134.704 578.693 128.709V58.8275C578.693 52.7074 576.882 47.7739 573.259 44.0269C569.762 40.1551 565.141 38.2191 559.396 38.2191C553.775 38.2191 549.216 40.1551 545.719 44.0269C542.222 47.7739 540.473 52.7074 540.473 58.8275V128.709C540.473 134.704 542.222 139.637 545.719 143.509C549.216 147.256 553.775 149.13 559.396 149.13Z" fill="#352424"/>
<path d="M668.256 159.246C667.131 159.246 666.382 158.747 666.007 157.748L646.898 99.8569C646.773 99.4822 646.523 99.2948 646.148 99.2948H629.849C629.349 99.2948 629.1 99.5446 629.1 100.044V157.373C629.1 158.622 628.475 159.246 627.226 159.246H617.671C616.422 159.246 615.798 158.622 615.798 157.373V29.9758C615.798 28.7268 616.422 28.1023 617.671 28.1023H648.584C657.702 28.1023 665.071 31.4746 670.691 38.2191C676.312 44.8388 679.122 53.5193 679.122 64.2606C679.122 72.379 677.373 79.3734 673.876 85.2437C670.379 91.1139 665.633 95.2356 659.637 97.6087C659.138 97.7336 658.951 98.0458 659.075 98.5454L679.496 157.186L679.684 157.935C679.684 158.809 679.122 159.246 677.998 159.246H668.256ZM629.849 39.7179C629.349 39.7179 629.1 39.9677 629.1 40.4673V87.8665C629.1 88.3661 629.349 88.6159 629.849 88.6159H646.71C652.456 88.6159 657.077 86.4302 660.574 82.0587C664.071 77.5624 665.82 71.6297 665.82 64.2606C665.82 56.8916 664.071 50.9588 660.574 46.4625C657.077 41.9661 652.456 39.7179 646.71 39.7179H629.849Z" fill="#352424"/>
<path d="M700.734 159.246C699.485 159.246 698.861 158.622 698.861 157.373V29.9758C698.861 28.7268 699.485 28.1023 700.734 28.1023H710.289C711.538 28.1023 712.162 28.7268 712.162 29.9758V157.373C712.162 158.622 711.538 159.246 710.289 159.246H700.734Z" fill="#352424"/>
<path d="M788.571 159.246C787.447 159.246 786.76 158.684 786.511 157.56L781.827 134.329C781.827 134.079 781.702 133.892 781.452 133.767C781.327 133.642 781.14 133.58 780.89 133.58H746.98C746.73 133.58 746.48 133.642 746.231 133.767C746.106 133.892 746.043 134.079 746.043 134.329L741.36 157.56C741.235 158.684 740.548 159.246 739.299 159.246H729.744C729.119 159.246 728.62 159.059 728.245 158.684C727.995 158.31 727.933 157.81 728.058 157.186L756.16 29.7884C756.41 28.6643 757.097 28.1023 758.221 28.1023H769.462C770.711 28.1023 771.398 28.6643 771.523 29.7884L800 157.186V157.56C800 158.684 799.438 159.246 798.314 159.246H788.571ZM748.479 121.964C748.479 122.464 748.666 122.713 749.041 122.713H778.642C779.017 122.713 779.204 122.464 779.204 121.964L764.216 48.336C764.091 47.9613 763.966 47.7739 763.841 47.7739C763.717 47.7739 763.592 47.9613 763.467 48.336L748.479 121.964Z" fill="#352424"/>
<path d="M314.87 310.999C314.995 322.24 311.998 330.983 305.878 337.228C299.758 343.473 291.577 346.595 281.335 346.595H252.671C251.422 346.595 250.797 345.971 250.797 344.722V217.325C250.797 216.076 251.422 215.451 252.671 215.451H279.649C290.39 215.451 298.821 218.449 304.941 224.444C311.061 230.314 314.121 238.745 314.121 249.736C314.121 263.725 308.938 273.279 298.571 278.4C298.321 278.525 298.196 278.65 298.196 278.775C298.196 278.9 298.259 279.025 298.384 279.15C309.375 285.519 314.87 296.136 314.87 310.999ZM264.848 227.067C264.349 227.067 264.099 227.316 264.099 227.816V272.967C264.099 273.467 264.349 273.716 264.848 273.716H279.649C286.393 273.716 291.639 271.718 295.386 267.721C299.133 263.725 301.007 258.104 301.007 250.86C301.007 243.366 299.133 237.558 295.386 233.436C291.639 229.19 286.393 227.067 279.649 227.067H264.848ZM280.398 334.792C287.018 334.792 292.201 332.606 295.948 328.235C299.695 323.739 301.569 317.494 301.569 309.5C301.569 301.382 299.695 295.074 295.948 290.578C292.201 286.082 287.018 283.833 280.398 283.833H264.848C264.349 283.833 264.099 284.083 264.099 284.583V334.043C264.099 334.542 264.349 334.792 264.848 334.792H280.398Z" fill="#352424"/>
<path d="M363.997 348.094C354.38 348.094 346.573 345.096 340.578 339.101C334.708 333.106 331.773 325.175 331.773 315.308V246.738C331.773 236.871 334.708 228.94 340.578 222.945C346.573 216.95 354.38 213.952 363.997 213.952C373.739 213.952 381.608 216.95 387.603 222.945C393.598 228.94 396.595 236.871 396.595 246.738V315.308C396.595 325.05 393.598 332.981 387.603 339.101C381.608 345.096 373.739 348.094 363.997 348.094ZM363.997 336.478C369.742 336.478 374.363 334.605 377.861 330.858C381.483 326.986 383.294 322.052 383.294 316.057V246.176C383.294 240.056 381.483 235.123 377.861 231.376C374.363 227.504 369.742 225.568 363.997 225.568C358.376 225.568 353.817 227.504 350.32 231.376C346.823 235.123 345.075 240.056 345.075 246.176V316.057C345.075 322.052 346.823 326.986 350.32 330.858C353.817 334.605 358.376 336.478 363.997 336.478Z" fill="#352424"/>
<path d="M451.312 348.094C441.694 348.094 433.951 344.784 428.08 338.164C422.21 331.545 419.275 322.802 419.275 311.936V217.325C419.275 216.076 419.899 215.451 421.148 215.451H430.703C431.952 215.451 432.577 216.076 432.577 217.325V313.434C432.577 320.304 434.263 325.862 437.635 330.108C441.132 334.355 445.691 336.478 451.312 336.478C457.057 336.478 461.678 334.355 465.175 330.108C468.673 325.862 470.421 320.304 470.421 313.434V217.325C470.421 216.076 471.046 215.451 472.295 215.451H481.849C483.098 215.451 483.723 216.076 483.723 217.325V311.936C483.723 322.802 480.725 331.545 474.73 338.164C468.86 344.784 461.054 348.094 451.312 348.094Z" fill="#352424"/>
<path d="M504.066 346.595C502.817 346.595 502.193 345.971 502.193 344.722V336.104C502.193 335.479 502.38 334.73 502.755 333.855L548.281 228.003C548.406 227.754 548.406 227.566 548.281 227.441C548.156 227.192 547.968 227.067 547.719 227.067H504.066C502.817 227.067 502.193 226.442 502.193 225.193V217.325C502.193 216.076 502.817 215.451 504.066 215.451H560.833C562.082 215.451 562.706 216.076 562.706 217.325V225.943C562.706 226.442 562.519 227.192 562.144 228.191L516.806 334.043C516.681 334.293 516.681 334.542 516.806 334.792C516.931 334.917 517.118 334.98 517.368 334.98H560.833C562.082 334.98 562.706 335.604 562.706 336.853V344.722C562.706 345.971 562.082 346.595 560.833 346.595H504.066Z" fill="#352424"/>
<path d="M632.874 346.595C631.75 346.595 631.063 346.033 630.814 344.909L626.13 321.678C626.13 321.428 626.005 321.241 625.755 321.116C625.63 320.991 625.443 320.928 625.193 320.928H591.283C591.033 320.928 590.783 320.991 590.534 321.116C590.409 321.241 590.346 321.428 590.346 321.678L585.663 344.909C585.538 346.033 584.851 346.595 583.602 346.595H574.047C573.422 346.595 572.923 346.408 572.548 346.033C572.298 345.658 572.236 345.159 572.361 344.534L600.463 217.137C600.713 216.013 601.4 215.451 602.524 215.451H613.765C615.014 215.451 615.701 216.013 615.826 217.137L644.303 344.534V344.909C644.303 346.033 643.741 346.595 642.617 346.595H632.874ZM592.782 309.313C592.782 309.812 592.969 310.062 593.344 310.062H622.945C623.32 310.062 623.507 309.812 623.507 309.313L608.519 235.685C608.394 235.31 608.269 235.123 608.144 235.123C608.019 235.123 607.895 235.31 607.77 235.685L592.782 309.313Z" fill="#352424"/>
<path d="M682.077 348.094C672.834 348.094 665.34 345.034 659.595 338.914C653.85 332.794 650.977 324.8 650.977 314.933V310.624C650.977 309.375 651.602 308.751 652.851 308.751H662.031C663.28 308.751 663.904 309.375 663.904 310.624V314.371C663.904 320.991 665.59 326.361 668.963 330.483C672.335 334.48 676.706 336.478 682.077 336.478C687.323 336.478 691.694 334.542 695.191 330.67C698.688 326.799 700.437 321.678 700.437 315.308C700.437 311.061 699.563 307.439 697.814 304.442C696.19 301.319 694.005 298.634 691.257 296.386C688.634 294.013 684.2 290.453 677.955 285.707C671.71 281.086 666.777 277.151 663.155 273.904C659.533 270.532 656.535 266.535 654.162 261.914C651.914 257.292 650.79 251.859 650.79 245.614C650.79 235.872 653.6 228.191 659.22 222.57C664.841 216.825 672.147 213.952 681.14 213.952C690.632 213.952 698.189 217.075 703.809 223.32C709.555 229.44 712.427 237.621 712.427 247.862V252.546C712.427 253.795 711.803 254.42 710.554 254.42H701.186C699.937 254.42 699.313 253.795 699.313 252.546V247.675C699.313 241.055 697.627 235.747 694.255 231.75C691.007 227.629 686.636 225.568 681.14 225.568C676.144 225.568 672.022 227.379 668.775 231.001C665.528 234.498 663.904 239.494 663.904 245.989C663.904 249.861 664.591 253.295 665.965 256.293C667.464 259.166 669.649 261.914 672.522 264.536C675.395 267.159 679.641 270.594 685.262 274.841C692.756 280.336 698.314 284.833 701.936 288.33C705.683 291.702 708.556 295.449 710.554 299.571C712.552 303.567 713.552 308.438 713.552 314.184C713.552 324.426 710.616 332.669 704.746 338.914C698.876 345.034 691.319 348.094 682.077 348.094Z" fill="#352424"/>
<rect width="187.349" height="187.349" rx="6" fill="#EB4D4E"/>
<mask id="mask0" mask-type="alpha" maskUnits="userSpaceOnUse" x="0" y="0" width="188" height="188">
<rect width="187.349" height="187.349" fill="#EB4D4E"/>
</mask>
<g mask="url(#mask0)">
<path d="M81.3093 159.246C79.9354 159.246 79.1235 158.559 78.8737 157.186L52.0829 30.5378L51.8955 29.7884C51.8955 28.6643 52.5825 28.1023 53.9563 28.1023H72.8786C74.3774 28.1023 75.1892 28.7892 75.3141 30.1631L90.864 120.278C90.9889 120.653 91.1763 120.84 91.4261 120.84C91.6759 120.84 91.8632 120.653 91.9881 120.278L107.163 30.1631C107.288 28.7892 108.1 28.1023 109.599 28.1023H127.959C129.583 28.1023 130.207 28.9141 129.833 30.5378L102.854 157.186C102.605 158.559 101.793 159.246 100.419 159.246H81.3093Z" fill="#FFF8F8"/>
</g>
</svg>
