<svg width="273" height="273" viewBox="0 0 273 273" fill="none" xmlns="http://www.w3.org/2000/svg">
<path fill-rule="evenodd" clip-rule="evenodd" d="M10 0C4.47715 0 0 4.47715 0 10V263C0 268.523 4.47715 273 10 273H263C268.523 273 273 268.523 273 263V10C273 4.47715 268.523 0 263 0H10ZM114.933 229.047C115.297 231.049 116.48 232.05 118.482 232.05H146.328C148.33 232.05 149.513 231.049 149.877 229.047L189.189 44.499C189.735 42.133 188.825 40.95 186.459 40.95H159.705C157.521 40.95 156.338 41.951 156.156 43.953L134.043 175.266C133.861 175.812 133.588 176.085 133.224 176.085C132.86 176.085 132.587 175.812 132.405 175.266L109.746 43.953C109.564 41.951 108.381 40.95 106.197 40.95H78.624C76.622 40.95 75.621 41.769 75.621 43.407L75.894 44.499L114.933 229.047Z" fill="#FCFCFC"/>
</svg>
