<svg width="283" height="283" viewBox="0 0 283 283" fill="none" xmlns="http://www.w3.org/2000/svg">
<rect x="5" y="5" width="273" height="273" rx="10" stroke="white" stroke-width="10"/>
<mask id="mask0" mask-type="alpha" maskUnits="userSpaceOnUse" x="5" y="5" width="273" height="273">
<rect x="5" y="5" width="273" height="273" rx="30" fill="#EB4D4E"/>
</mask>
<g mask="url(#mask0)">
<path d="M123.482 237.05C121.48 237.05 120.297 236.049 119.933 234.047L80.894 49.499L80.621 48.407C80.621 46.769 81.622 45.95 83.624 45.95H111.197C113.381 45.95 114.564 46.951 114.746 48.953L137.405 180.266C137.587 180.812 137.86 181.085 138.224 181.085C138.588 181.085 138.861 180.812 139.043 180.266L161.156 48.953C161.338 46.951 162.521 45.95 164.705 45.95H191.459C193.825 45.95 194.735 47.133 194.189 49.499L154.877 234.047C154.513 236.049 153.33 237.05 151.328 237.05H123.482Z" fill="#FFF8F8"/>
</g>
</svg>
