<svg width="60" height="60" viewBox="0 0 60 60" fill="none" xmlns="http://www.w3.org/2000/svg">
<rect width="60" height="60" rx="20" fill="#FFDD00"/>
<path d="M48 29.9746C48 20.0467 39.9399 12 30 12C20.0581 12 12 20.0467 12 29.9746C12 39.9024 20.0581 47.9492 30 47.9492C34.0516 47.9492 37.7918 46.6116 40.7996 44.355V44.4293C40.7996 46.4004 42.3995 48 44.3734 48C46.3473 48 47.9491 46.4024 47.9491 44.4293V31.3278C47.9824 30.88 48 30.4302 48 29.9746ZM30 40.7589C24.0352 40.7589 19.2004 35.9309 19.2004 29.9746C19.2004 24.0183 24.0352 19.1902 30 19.1902C35.9648 19.1902 40.7996 24.0183 40.7996 29.9746C40.7996 35.9309 35.9648 40.7589 30 40.7589Z" fill="#111111"/>
</svg>
